<svg version="1.1" id="Layer_1" xmlns="http://www.w3.org/2000/svg" xmlns:xlink="http://www.w3.org/1999/xlink" x="0px" y="0px" viewBox="0 0 32 32" style="enable-background:new 0 0 32 32;" xml:space="preserve">
<g>
	<path d="M29.704,28.741l-7-19c-0.098-0.265-0.336-0.453-0.616-0.485c-0.276-0.036-0.556,0.094-0.712,0.329l-1.214,1.821
		l-3.54-8.718c-0.115-0.282-0.39-0.467-0.694-0.468h-0.001c-0.305,0-0.579,0.184-0.694,0.466l-4.499,10.987L9.53,12.47
		c-0.182-0.181-0.44-0.258-0.689-0.203c-0.249,0.054-0.453,0.231-0.543,0.47l-6,16c-0.087,0.23-0.055,0.488,0.086,0.69
		C2.523,29.629,2.754,29.75,3,29.75h26c0.245,0,0.475-0.12,0.615-0.321C29.756,29.228,29.788,28.971,29.704,28.741z M4.082,28.25
		l5.211-13.896l1.177,1.176c0.177,0.177,0.435,0.255,0.678,0.205c0.246-0.049,0.451-0.219,0.547-0.451l4.229-10.328l3.381,8.326
		c0.104,0.257,0.343,0.436,0.619,0.464c0.274,0.026,0.546-0.099,0.7-0.33l1.182-1.773l6.119,16.607H4.082z"></path>
	<path d="M21.225,20.625l0.395-0.919l-1.408-0.606l1.215-0.702l-0.5-0.866l-1.194,0.69l0.196-1.434l-0.99-0.136l-0.302,2.202
		l-1.479,0.854c-0.177-0.159-0.387-0.279-0.618-0.355v-1.708l1.757-1.363l-0.613-0.79l-1.144,0.887V15h-1v1.404l-1.229-0.917
		l-0.598,0.802l1.827,1.363v1.678c-0.263,0.072-0.499,0.203-0.696,0.38l-1.479-0.854l-0.302-2.202l-0.99,0.136l0.196,1.434
		l-1.194-0.69l-0.5,0.866l1.215,0.702l-1.408,0.606l0.395,0.919l2.094-0.901l1.453,0.839c-0.037,0.14-0.062,0.285-0.062,0.437
		c0,0.123,0.014,0.244,0.038,0.36l-1.474,0.851l-2.058-0.84l-0.377,0.926l1.339,0.547l-1.195,0.69l0.5,0.866l1.216-0.702
		l-0.18,1.523l0.992,0.117l0.268-2.263l1.448-0.836c0.208,0.206,0.471,0.353,0.761,0.433v1.678l-1.827,1.363l0.598,0.802
		l1.229-0.917V27h1v-1.379l1.144,0.887l0.613-0.79l-1.757-1.363v-1.708c0.259-0.085,0.494-0.222,0.683-0.409l1.448,0.836
		l0.267,2.263l0.992-0.117l-0.179-1.523l1.216,0.702l0.5-0.866l-1.195-0.69l1.339-0.547l-0.377-0.926l-2.058,0.84l-1.474-0.851
		c0.024-0.116,0.038-0.236,0.038-0.36c0-0.152-0.025-0.297-0.062-0.437l1.453-0.839L21.225,20.625z"></path>
</g>
</svg>
