<svg version="1.1" id="Layer_1" xmlns="http://www.w3.org/2000/svg" xmlns:xlink="http://www.w3.org/1999/xlink" x="0px" y="0px" viewBox="0 0 32 32" style="enable-background:new 0 0 32 32;" xml:space="preserve">
<g>
	<path d="M26.68,22.74L21.032,7.413c-0.098-0.265-0.336-0.453-0.616-0.485c-0.278-0.033-0.556,0.094-0.712,0.329l-0.827,1.241
		l-2.753-6.779C16.009,1.436,15.735,1.25,15.43,1.25c0,0,0,0-0.001,0c-0.304,0-0.579,0.184-0.694,0.466l-3.547,8.662l-0.817-0.816
		c-0.18-0.18-0.439-0.256-0.689-0.203c-0.25,0.054-0.454,0.231-0.543,0.47l-4.84,12.908c-0.086,0.23-0.054,0.488,0.086,0.69
		C4.523,23.629,4.754,23.75,5,23.75h20.976c0.245,0,0.475-0.12,0.615-0.321S26.764,22.971,26.68,22.74z M6.082,22.25l4.052-10.804
		l0.79,0.79c0.178,0.178,0.434,0.255,0.678,0.205c0.246-0.049,0.451-0.219,0.546-0.451l3.278-8.003l2.594,6.388
		c0.104,0.257,0.343,0.436,0.619,0.464c0.274,0.022,0.546-0.099,0.7-0.33l0.795-1.193L24.9,22.25H6.082z"></path>
	<path d="M19.704,16.102l0.316-0.735l-1.143-0.492l0.986-0.57l-0.4-0.692l-0.969,0.56l0.16-1.164L17.861,12.9l-0.244,1.778
		l-1.346,0.777c-0.11-0.09-0.224-0.168-0.352-0.215v-1.542l1.419-1.101l-0.49-0.632l-0.929,0.72v-1.12h-0.8v1.139l-0.997-0.744
		l-0.479,0.642l1.475,1.101v1.525c-0.15,0.047-0.287,0.123-0.415,0.227l-1.346-0.777L13.115,12.9l-0.793,0.108l0.159,1.164
		l-0.969-0.56l-0.4,0.692l0.986,0.57l-1.143,0.492l0.316,0.735l1.691-0.727l1.327,0.766c-0.034,0.156-0.039,0.31-0.013,0.467
		l-1.351,0.78l-1.661-0.678l-0.303,0.74l1.088,0.444l-0.969,0.56l0.4,0.693l0.986-0.569l-0.145,1.234l0.795,0.094l0.215-1.827
		l1.315-0.759c0.14,0.129,0.302,0.213,0.473,0.267v1.526l-1.475,1.1l0.479,0.641l0.997-0.743v1.139h0.8v-1.119l0.929,0.72
		l0.49-0.633l-1.419-1.1v-1.542c0.149-0.055,0.287-0.141,0.411-0.254l1.315,0.759l0.216,1.827l0.795-0.094l-0.146-1.234l0.985,0.569
		l0.4-0.693l-0.969-0.56l1.088-0.444l-0.303-0.74l-1.661,0.678l-1.351-0.78c0.026-0.157,0.021-0.311-0.013-0.467l1.327-0.766
		L19.704,16.102z"></path>
	<path d="M10.564,28.81h-0.033l-1.218-4.144H7.212v5.837H8.61v-2.534c0-0.196-0.005-0.403-0.016-0.621
		c-0.011-0.218-0.022-0.42-0.033-0.605C8.55,26.557,8.539,26.41,8.528,26.3h0.033l1.193,4.202h1.504l1.177-4.193h0.033
		c-0.011,0.109-0.02,0.258-0.029,0.446c-0.008,0.188-0.015,0.388-0.02,0.601c-0.005,0.213-0.008,0.409-0.008,0.589v2.559h1.447
		v-5.837h-2.101L10.564,28.81z"></path>
	<polygon points="17.414,25.622 16.343,25.622 16.343,27.085 14.855,27.085 14.855,28.156 16.343,28.156 16.343,29.595 
		17.414,29.595 17.414,28.156 18.901,28.156 18.901,27.085 17.414,27.085"></polygon>
	<path d="M21.828,25.843c0.207,0,0.432,0.034,0.674,0.102c0.242,0.068,0.489,0.159,0.74,0.274l0.482-1.218
		c-0.24-0.103-0.512-0.199-0.818-0.286c-0.305-0.087-0.648-0.131-1.03-0.131c-0.436,0-0.819,0.064-1.148,0.192
		c-0.33,0.128-0.587,0.319-0.772,0.572c-0.185,0.253-0.278,0.568-0.278,0.944c0,0.333,0.057,0.608,0.172,0.826
		c0.114,0.218,0.278,0.403,0.49,0.556c0.213,0.153,0.463,0.294,0.752,0.425c0.381,0.174,0.652,0.308,0.813,0.401
		c0.161,0.093,0.241,0.215,0.241,0.368c0,0.125-0.055,0.229-0.164,0.311c-0.109,0.082-0.281,0.123-0.515,0.123
		c-0.262,0-0.553-0.042-0.875-0.127c-0.321-0.084-0.64-0.206-0.956-0.364v1.406c0.185,0.087,0.365,0.158,0.54,0.213
		c0.174,0.055,0.361,0.094,0.56,0.119c0.199,0.025,0.432,0.037,0.699,0.037c0.534,0,0.969-0.089,1.304-0.266
		c0.335-0.177,0.583-0.406,0.744-0.687c0.161-0.281,0.241-0.582,0.241-0.903c0-0.3-0.053-0.553-0.159-0.76
		c-0.106-0.207-0.259-0.384-0.458-0.531c-0.199-0.147-0.44-0.286-0.723-0.417c-0.289-0.131-0.516-0.238-0.683-0.323
		c-0.166-0.084-0.285-0.162-0.356-0.233c-0.071-0.071-0.106-0.153-0.106-0.245c0-0.109,0.046-0.199,0.139-0.27
		C21.471,25.878,21.621,25.843,21.828,25.843z"></path>
</g>
</svg>
