<svg version="1.1" id="Layer_1" xmlns="http://www.w3.org/2000/svg" xmlns:xlink="http://www.w3.org/1999/xlink" x="0px" y="0px" viewBox="0 0 32 32" style="enable-background:new 0 0 32 32;" xml:space="preserve">
<g>
	<rect x="2" y="15" width="5" height="2"></rect>
	<rect x="9.25" y="3.541" transform="matrix(0.866 -0.5 0.5 0.866 -1.647 5.9343)" width="2" height="5"></rect>
	<rect x="3.541" y="20.75" transform="matrix(0.866 -0.5 0.5 0.866 -10.0658 5.9343)" width="5" height="2"></rect>
	<rect x="5.04" y="7.75" transform="matrix(0.5 -0.866 0.866 0.5 -5.8565 10.3562)" width="2" height="5"></rect>
	<rect x="7.75" y="24.959" transform="matrix(0.4999 -0.8661 0.8661 0.4999 -17.3565 21.8588)" width="5" height="2"></rect>
	<path d="M28.074,18.553l-1.188-1.797l-3.464,2.287L18.154,16l5.269-3.042l3.464,2.287l1.188-1.798l-2.566-1.694l3.153-1.821
		l-1.076-1.865l-3.154,1.821L24.248,6.82l-2.15,0.129l0.248,4.143l-5.269,3.042V8.05l3.712-1.856l-0.963-1.927l-2.749,1.375V2
		h-2.154v6.889C11.463,9.412,8.8,12.397,8.8,16c0,3.603,2.663,6.588,6.123,7.111V30h2.154v-3.642l2.749,1.375l0.963-1.926
		l-3.712-1.857v-6.085l5.269,3.042l-0.248,4.143l2.15,0.129l0.184-3.068l3.154,1.821l1.076-1.865l-3.154-1.821L28.074,18.553z
		 M11.2,16c0-2.275,1.595-4.176,3.723-4.668v9.335C12.795,20.176,11.2,18.275,11.2,16z"></path>
</g>
</svg>
