<svg version="1.1" id="Layer_1" xmlns="http://www.w3.org/2000/svg" xmlns:xlink="http://www.w3.org/1999/xlink" x="0px" y="0px" viewBox="0 0 32 32" style="enable-background:new 0 0 32 32;" xml:space="preserve">
<g>
	<path d="M5.962,13.704c0.205-0.275,0.453-0.488,0.742-0.637s0.616-0.224,0.98-0.224c0.42,0,0.818,0.059,1.196,0.175
		s0.74,0.259,1.085,0.427l0.757-1.904c-0.477-0.224-0.976-0.392-1.498-0.504c-0.523-0.112-1.032-0.168-1.526-0.168
		c-0.774,0-1.463,0.126-2.065,0.378c-0.602,0.252-1.108,0.609-1.519,1.071c-0.411,0.462-0.721,1.006-0.931,1.631
		c-0.21,0.625-0.315,1.316-0.315,2.072c0,1.017,0.166,1.911,0.497,2.681s0.84,1.37,1.526,1.799c0.686,0.429,1.565,0.644,2.639,0.644
		c0.522,0,1.01-0.042,1.463-0.126s0.889-0.219,1.309-0.406v-2.03c-0.41,0.168-0.821,0.308-1.231,0.42
		c-0.411,0.112-0.836,0.168-1.274,0.168c-0.551,0-1.008-0.121-1.372-0.364c-0.363-0.242-0.637-0.597-0.818-1.064
		c-0.183-0.466-0.273-1.036-0.273-1.708c0-0.494,0.054-0.938,0.161-1.33C5.601,14.313,5.757,13.979,5.962,13.704z"></path>
	<polygon points="12.332,21.005 14.684,21.005 14.684,17.141 17.89,17.141 17.89,15.209 14.684,15.209 14.684,12.941 18.142,12.941 
		18.142,11.009 12.332,11.009"></polygon>
	<path d="M28.628,13.284c-0.336-0.77-0.859-1.367-1.568-1.792c-0.709-0.424-1.614-0.637-2.716-0.637c-1.11,0-2.021,0.21-2.73,0.63
		c-0.709,0.42-1.236,1.015-1.582,1.785c-0.345,0.77-0.518,1.673-0.518,2.709c0,0.784,0.096,1.491,0.287,2.121
		c0.191,0.63,0.483,1.174,0.875,1.631c0.392,0.458,0.892,0.807,1.498,1.05s1.325,0.364,2.156,0.364c0.83,0,1.549-0.122,2.155-0.364
		c0.607-0.243,1.104-0.592,1.491-1.05c0.388-0.457,0.677-1.001,0.868-1.631c0.191-0.63,0.287-1.333,0.287-2.107
		C29.132,14.957,28.964,14.054,28.628,13.284z M26.374,17.666c-0.149,0.471-0.393,0.833-0.729,1.085s-0.774,0.378-1.315,0.378
		c-0.542,0-0.98-0.126-1.316-0.378s-0.583-0.614-0.742-1.085c-0.158-0.471-0.237-1.029-0.237-1.673c0-0.653,0.079-1.215,0.237-1.687
		c0.159-0.471,0.406-0.835,0.742-1.092c0.336-0.256,0.779-0.385,1.33-0.385c0.812,0,1.391,0.282,1.736,0.847
		c0.345,0.565,0.518,1.337,0.518,2.317C26.598,16.637,26.522,17.195,26.374,17.666z"></path>
</g>
</svg>
