<svg version="1.1" id="Layer_1" xmlns="http://www.w3.org/2000/svg" xmlns:xlink="http://www.w3.org/1999/xlink" x="0px" y="0px" viewBox="0 0 32 32" style="enable-background:new 0 0 32 32;" xml:space="preserve">
<path d="M26,13c-0.547,0-1.081,0.09-1.59,0.265C23.811,9.161,20.268,6,16,6c-2.976,0-5.748,1.592-7.274,4.118
	C8.321,10.04,7.911,10,7.5,10c-0.415,0-0.82,0.043-1.214,0.118c-0.01,0.002-0.021,0.003-0.031,0.005
	c-0.16,0.031-0.316,0.072-0.471,0.115c-0.052,0.014-0.105,0.025-0.157,0.04c-0.122,0.037-0.241,0.082-0.36,0.126
	c-0.084,0.031-0.17,0.058-0.253,0.093c-0.085,0.036-0.167,0.077-0.251,0.116c-0.113,0.053-0.227,0.104-0.338,0.163
	c-0.049,0.026-0.095,0.057-0.143,0.085c-0.139,0.079-0.277,0.159-0.41,0.25c-0.01,0.007-0.019,0.014-0.029,0.021
	c-0.33,0.225-0.646,0.48-0.938,0.773l0.002,0.002C1.729,13.083,1,14.708,1,16.5C1,20.084,3.916,23,7.5,23H26c2.757,0,5-2.243,5-5
	S28.757,13,26,13z M26,21H7.5C5.019,21,3,18.981,3,16.5c0-1.389,0.646-2.618,1.639-3.444c0.119-0.099,0.232-0.208,0.358-0.292
	c0.133-0.089,0.28-0.155,0.423-0.23c0.12-0.063,0.234-0.137,0.358-0.188c0.136-0.057,0.283-0.089,0.425-0.132
	c0.141-0.042,0.279-0.097,0.423-0.125c0.181-0.036,0.371-0.043,0.559-0.056c0.371-0.026,0.742-0.02,1.108,0.045
	c0.094,0.017,0.186,0.046,0.279,0.069c0.773,0.189,1.509,0.569,2.112,1.172l1.414-1.414c-0.437-0.437-0.924-0.793-1.439-1.08
	C11.859,9.085,13.858,8,16,8c3.584,0,6.5,2.916,6.5,6.5c0,0.076-0.006,0.15-0.011,0.224l-0.009,0.138
	c-0.022,0.396,0.191,0.768,0.545,0.947c0.354,0.18,0.78,0.134,1.086-0.117C24.497,15.376,25.139,15,26,15c1.654,0,3,1.346,3,3
	S27.654,21,26,21z"></path>
</svg>
