<svg version="1.1" id="Layer_1" xmlns="http://www.w3.org/2000/svg" xmlns:xlink="http://www.w3.org/1999/xlink" x="0px" y="0px" viewBox="0 0 32 32" style="enable-background:new 0 0 32 32;" xml:space="preserve">
<g>
	<path d="M23.287,7.544l-1.414,1.414c3.883,3.883,3.883,10.2,0,14.083l1.414,1.414C27.949,19.793,27.949,12.207,23.287,7.544z"></path>
	<path d="M26.265,4.567l-1.414,1.414c5.523,5.524,5.523,14.513,0,20.037l1.414,1.414C32.568,21.129,32.568,10.871,26.265,4.567z"></path>
	<path d="M16.483,18.999c0.769,0,1.537-0.292,2.122-0.877v0c0.566-0.566,0.879-1.32,0.879-2.121c0-0.801-0.312-1.555-0.879-2.121
		c-1.17-1.17-3.073-1.169-4.243,0c-1.169,1.169-1.169,3.073,0,4.242C14.947,18.706,15.716,18.999,16.483,18.999z M15.776,15.293
		C15.972,15.098,16.228,15,16.483,15c0.257,0,0.513,0.098,0.708,0.293c0.189,0.188,0.293,0.439,0.293,0.707
		c0,0.267-0.104,0.518-0.293,0.707c0,0,0,0,0,0c-0.39,0.389-1.023,0.391-1.415,0C15.387,16.317,15.387,15.683,15.776,15.293z"></path>
	<path d="M20.488,10.343l-1.414,1.414c2.339,2.34,2.339,6.146,0,8.485l1.414,1.414C23.607,18.538,23.607,13.463,20.488,10.343z"></path>
	<path d="M10.5,10c0.68,0,1.464,0.961,1.95,2.391l1.893-0.644C13.533,9.366,12.133,8,10.5,8C7.935,8,6,11.439,6,16s1.935,8,4.5,8
		c1.633,0,3.033-1.365,3.843-3.746L12.45,19.61C11.964,21.04,11.18,22,10.5,22C9.456,22,8,19.717,8,16S9.456,10,10.5,10z"></path>
	<path d="M16.5,27h-1.423c1.335-1.29,2.425-3.158,3.127-5.463l-1.914-0.582C15.173,24.627,12.9,27,10.5,27C6.977,27,4,21.962,4,16
		S6.977,5,10.5,5c2.403,0,4.677,2.376,5.793,6.054l1.914-0.581C17.506,8.163,16.415,6.292,15.079,5H16.5
		c1.815,0,3.161,1.272,3.971,2.34l1.594-1.208C20.533,4.112,18.557,3,16.5,3h-6C5.733,3,2,8.71,2,16s3.733,13,8.5,13h6
		c2.06,0,4.037-1.114,5.567-3.137l-1.594-1.207C19.664,25.726,18.317,27,16.5,27z"></path>
</g>
</svg>
