<svg version="1.1" id="Layer_1" xmlns="http://www.w3.org/2000/svg" xmlns:xlink="http://www.w3.org/1999/xlink" x="0px" y="0px" viewBox="0 0 32 32" style="enable-background:new 0 0 32 32;" xml:space="preserve">
<g>
	<path d="M23.3,8c0,0.4,0.2,0.7,0.5,0.9C24,9,24.1,9,24.3,9c0.2,0,0.4-0.1,0.5-0.2l4.7-3C29.8,5.7,30,5.3,30,5s-0.2-0.7-0.5-0.8
		l-4.7-3c-0.3-0.2-0.7-0.2-1,0s-0.5,0.5-0.5,0.9v2H3v2h20.3V8z M25.3,3.8L27.1,5l-1.8,1.2C25.3,6.2,25.3,3.8,25.3,3.8z"></path>
	<path d="M16,8C8.3,8,2,14.3,2,22c0,3,0.9,5.7,2.5,8h2.6C5.2,27.9,4,25.1,4,22c0-6.6,5.4-12,12-12s12,5.4,12,12c0,3.1-1.2,5.9-3.1,8
		h2.6c1.6-2.3,2.5-5,2.5-8C30,14.3,23.7,8,16,8z"></path>
	<path d="M16,14c-4.4,0-8,3.6-8,8s3.6,8,8,8s8-3.6,8-8S20.4,14,16,14z M16,28c-3.3,0-6-2.7-6-6s2.7-6,6-6s6,2.7,6,6S19.3,28,16,28z"></path>
</g>
</svg>
