<svg version="1.1" id="Layer_1" xmlns="http://www.w3.org/2000/svg" xmlns:xlink="http://www.w3.org/1999/xlink" x="0px" y="0px" viewBox="0 0 32 32" style="enable-background:new 0 0 32 32;" xml:space="preserve">
<g>
	<path d="M16,24c7.7,0,14-6.3,14-14c0-3-0.9-5.7-2.5-8h-2.6c1.9,2.1,3.1,4.9,3.1,8c0,6.6-5.4,12-12,12S4,16.6,4,10
		c0-3.1,1.2-5.9,3.1-8H4.5C2.9,4.3,2,7,2,10C2,17.7,8.3,24,16,24z"></path>
	<path d="M8.7,24c0-0.4-0.2-0.7-0.5-0.9c-0.3-0.2-0.7-0.2-1,0l-4.7,3C2.2,26.3,2,26.7,2,27s0.2,0.7,0.5,0.8l4.7,3
		C7.3,30.9,7.5,31,7.7,31c0.2,0,0.3,0,0.5-0.1c0.3-0.2,0.5-0.5,0.5-0.9v-2H29v-2H8.7V24z M6.7,28.2L4.9,27l1.8-1.2V28.2z"></path>
	<path d="M16,18c4.4,0,8-3.6,8-8s-3.6-8-8-8s-8,3.6-8,8S11.6,18,16,18z M16,4c3.3,0,6,2.7,6,6s-2.7,6-6,6s-6-2.7-6-6S12.7,4,16,4z"></path>
</g>
</svg>
