<svg version="1.1" id="Layer_1" xmlns="http://www.w3.org/2000/svg" xmlns:xlink="http://www.w3.org/1999/xlink" x="0px" y="0px" viewBox="0 0 32 32" style="enable-background:new 0 0 32 32;" xml:space="preserve">
<g>
	<path d="M14.101,15.58l-0.979-0.169l0.679-3.924c0.118-0.688-0.282-1.33-0.953-1.526c-0.665-0.193-1.351,0.13-1.622,0.773
		l-2.642,6.284c-0.208,0.495-0.179,1.048,0.079,1.519c0.257,0.47,0.708,0.792,1.236,0.884l0.978,0.169l-0.678,3.923
		c-0.119,0.688,0.28,1.33,0.95,1.526c0.132,0.039,0.264,0.057,0.393,0.057c0.529,0,1.015-0.312,1.232-0.83l2.642-6.284
		c0.208-0.495,0.179-1.048-0.079-1.519C15.08,15.993,14.629,15.671,14.101,15.58z M14.033,17.401l-2.132,5.07l0.582-3.365
		c0.07-0.408-0.203-0.796-0.611-0.867l-1.717-0.297c-0.104-0.018-0.155-0.086-0.177-0.126c-0.022-0.04-0.053-0.121-0.012-0.217
		l2.131-5.069l-0.582,3.365c-0.033,0.196,0.012,0.397,0.126,0.56c0.115,0.163,0.289,0.273,0.485,0.307l1.718,0.297
		c0.104,0.018,0.155,0.086,0.177,0.126C14.044,17.224,14.074,17.305,14.033,17.401z"></path>
	<path d="M22,2.25c-2.252,0-4.245,1.113-5.472,2.813C16.356,5.03,16.182,5,16,5h-0.25V4c0-0.965-0.785-1.75-1.75-1.75h-4
		C9.035,2.25,8.25,3.035,8.25,4v1H8C6.346,5,5,6.346,5,8v19c0,1.654,1.346,3,3,3h8c1.654,0,3-1.346,3-3V15.038
		c0.905,0.452,1.922,0.712,3,0.712c3.722,0,6.75-3.028,6.75-6.75S25.722,2.25,22,2.25z M9.75,4c0-0.138,0.112-0.25,0.25-0.25h4
		c0.138,0,0.25,0.112,0.25,0.25v1h-4.5V4z M16,28H8c-0.552,0-1-0.449-1-1V8c0-0.551,0.448-1,1-1h7.553
		c-0.197,0.632-0.303,1.304-0.303,2c0,1.739,0.667,3.321,1.75,4.518V27C17,27.551,16.552,28,16,28z M22,14.25
		c-2.895,0-5.25-2.355-5.25-5.25S19.106,3.75,22,3.75S27.25,6.105,27.25,9S24.895,14.25,22,14.25z"></path>
	<path d="M21.454,9.576l-1.651-1.651l-1.061,1.061l2.182,2.182c0.146,0.146,0.338,0.22,0.53,0.22s0.384-0.073,0.53-0.22l3.273-3.272
		l-1.061-1.061L21.454,9.576z"></path>
</g>
</svg>
