<svg version="1.1" id="Layer_1" xmlns="http://www.w3.org/2000/svg" xmlns:xlink="http://www.w3.org/1999/xlink" x="0px" y="0px" viewBox="0 0 32 32" style="enable-background:new 0 0 32 32;" xml:space="preserve">
<g>
	<path d="M29.67,28.664L16.597,2.633C16.47,2.38,16.21,2.22,15.927,2.22c-0.001,0-0.001,0-0.002,0c-0.284,0-0.543,0.162-0.67,0.417
		L2.328,28.666c-0.115,0.232-0.103,0.508,0.034,0.729S2.74,29.75,3,29.75h26c0.26,0,0.502-0.135,0.639-0.356
		C29.775,29.172,29.787,28.896,29.67,28.664z M4.21,28.25L15.931,4.648L27.784,28.25H4.21z"></path>
	<path d="M15.578,7.269l-9.71,19.554c-0.062,0.124-0.055,0.271,0.019,0.389S6.088,27.4,6.227,27.4h19.531
		c0.139,0,0.268-0.072,0.341-0.19c0.072-0.118,0.079-0.266,0.017-0.39l-5.273-10.499c0,0,0,0,0,0l-4.548-9.054
		c-0.067-0.135-0.206-0.22-0.357-0.22h-0.001C15.784,7.047,15.646,7.133,15.578,7.269z M21.505,19.424l-1.689-1.689l0.56-0.56
		L21.505,19.424z M8.302,23.721l0.454-0.914l3.793,3.794h-1.368L8.302,23.721z M10.049,26.6H8.681l-1.209-1.209l0.454-0.914
		L10.049,26.6z M9.131,22.05l0.454-0.914l5.464,5.464h-1.368L9.131,22.05z M9.961,20.38l0.454-0.914l7.135,7.135h-1.368L9.961,20.38
		z M10.791,18.709l0.454-0.914l8.805,8.805h-1.368L10.791,18.709z M19,17.419l-0.717-0.717c-0.086-0.085-0.206-0.126-0.322-0.115
		c-0.119,0.012-0.228,0.076-0.294,0.176L16,19.264l-1.667-2.5c-0.066-0.1-0.175-0.165-0.294-0.176
		c-0.013-0.001-0.026-0.002-0.039-0.002c-0.105,0-0.207,0.042-0.283,0.117L13,17.419l-1.048-1.048l3.986-8.029l4.059,8.08L19,17.419
		z M12.958,18.376c0.015,0.002,0.028,0.008,0.042,0.008c0.106,0,0.208-0.042,0.283-0.117l0.466-0.467l0.94,0.94l0.978,1.466
		c0.074,0.111,0.199,0.178,0.333,0.178c0.091,0,0.17-0.039,0.24-0.094l6.309,6.309h-1.368L12.958,18.376z M16.715,19.634
		l0.547-0.821l7.787,7.787h-1.368L16.715,19.634z M17.715,18.134l0.348-0.521l0.654,0.655c0.145,0.144,0.37,0.149,0.526,0.026
		l3.404,3.404l1.381,2.749L17.715,18.134z M7.097,26.148L7.549,26.6H6.872L7.097,26.148z"></path>
</g>
</svg>
