<svg version="1.1" id="Layer_1" xmlns="http://www.w3.org/2000/svg" xmlns:xlink="http://www.w3.org/1999/xlink" x="0px" y="0px" viewBox="0 0 32 32" style="enable-background:new 0 0 32 32;" xml:space="preserve">
<g>
	<path d="M8.382,19.906L6.79,14.304H6.747c0.015,0.145,0.029,0.341,0.044,0.589c0.014,0.247,0.029,0.514,0.044,0.801
		c0.014,0.287,0.021,0.565,0.021,0.834v3.379H4.992v-7.782h2.801l1.624,5.526h0.044l1.591-5.526h2.801v7.782h-1.929v-3.411
		c0-0.247,0.004-0.51,0.011-0.79c0.007-0.28,0.018-0.545,0.033-0.796c0.014-0.251,0.025-0.449,0.033-0.594h-0.044l-1.569,5.591
		H8.382z"></path>
	<path d="M18.594,15.35h1.983v1.428h-1.983v1.918h-1.428v-1.918h-1.983V15.35h1.983v-1.951h1.428V15.35z"></path>
	<path d="M27.008,17.541c0,0.421-0.107,0.821-0.322,1.199c-0.214,0.377-0.545,0.685-0.992,0.921
		c-0.447,0.236-1.026,0.354-1.738,0.354c-0.356,0-0.666-0.016-0.932-0.049c-0.265-0.033-0.514-0.085-0.746-0.158
		c-0.233-0.072-0.473-0.167-0.719-0.283V17.65c0.421,0.211,0.846,0.372,1.275,0.485c0.429,0.113,0.817,0.169,1.166,0.169
		c0.211,0,0.382-0.025,0.512-0.076c0.131-0.051,0.229-0.12,0.294-0.207c0.066-0.087,0.098-0.186,0.098-0.295
		c0-0.138-0.047-0.254-0.141-0.349c-0.095-0.094-0.244-0.192-0.447-0.294c-0.203-0.102-0.476-0.229-0.817-0.382
		c-0.29-0.131-0.552-0.269-0.784-0.414c-0.233-0.145-0.431-0.309-0.594-0.49c-0.163-0.182-0.289-0.394-0.376-0.638
		c-0.087-0.243-0.131-0.532-0.131-0.866c0-0.501,0.124-0.921,0.37-1.259c0.247-0.338,0.591-0.592,1.03-0.763
		c0.44-0.171,0.95-0.256,1.531-0.256c0.509,0,0.967,0.056,1.374,0.169c0.406,0.112,0.77,0.242,1.09,0.387l-0.643,1.624
		c-0.334-0.153-0.663-0.274-0.986-0.365c-0.324-0.091-0.623-0.136-0.899-0.136c-0.182,0-0.331,0.022-0.447,0.065
		c-0.116,0.044-0.201,0.104-0.256,0.18s-0.082,0.162-0.082,0.256c0,0.124,0.047,0.233,0.141,0.327
		c0.095,0.095,0.253,0.198,0.474,0.311c0.222,0.112,0.525,0.256,0.91,0.43c0.378,0.167,0.699,0.351,0.965,0.55
		c0.265,0.2,0.469,0.436,0.61,0.709C26.937,16.795,27.008,17.134,27.008,17.541z"></path>
</g>
<path d="M16,2.5c7.444,0,13.5,6.056,13.5,13.5S23.444,29.5,16,29.5S2.5,23.444,2.5,16S8.556,2.5,16,2.5 M16,1C7.716,1,1,7.716,1,16
	s6.716,15,15,15s15-6.716,15-15S24.284,1,16,1L16,1z"></path>
</svg>
