<svg version="1.1" id="Layer_1" xmlns="http://www.w3.org/2000/svg" xmlns:xlink="http://www.w3.org/1999/xlink" x="0px" y="0px" viewBox="0 0 32 32" style="enable-background:new 0 0 32 32;" xml:space="preserve">
<g>
	<path d="M21.108,18.691c-1.168-1.206-1.749-2.621-2.329-4.035l-2.73,2.731c0.58,1.414,1.16,2.829,2.329,4.035L21.108,18.691z"></path>
	<path d="M28.885,18.021c-0.08-0.337-0.328-0.609-0.657-0.719c-3.816-1.272-4.718-3.375-5.761-5.809
		c-0.954-2.227-2.026-4.715-5.503-6.336l0.451-0.451L16,3.293L1.857,17.435l1.414,1.414l3.683-3.683
		c3.334,1.287,4.2,3.294,5.188,5.601c1.077,2.514,2.298,5.363,6.967,6.919c0.104,0.035,0.211,0.051,0.316,0.051
		c0.261,0,0.517-0.103,0.707-0.293l8.485-8.485C28.863,18.713,28.964,18.359,28.885,18.021z M13.981,19.979
		c-0.052-0.121-0.106-0.244-0.159-0.366l2.227-2.227c-0.58-1.414-1.16-2.829-2.329-4.035l-2.324,2.324
		c-0.734-0.755-1.664-1.452-2.915-2.035l2.241-2.241c1.316,0.539,2.273,1.204,2.998,1.952l2.73-2.731
		c-0.725-0.748-1.681-1.414-2.998-1.952l1.989-1.99c1.368,0.528,2.315,1.178,3.031,1.919l-2.022,2.022
		c1.168,1.206,1.749,2.621,2.329,4.035l2.008-2.008c0.571,1.321,1.229,2.706,2.427,3.938l-2.106,2.106
		c0.725,0.748,1.681,1.413,2.998,1.952l-2.73,2.731c-1.317-0.539-2.273-1.204-2.998-1.952l-2.241,2.241
		C15.107,22.596,14.565,21.34,13.981,19.979z"></path>
</g>
</svg>
