<svg version="1.1" id="Layer_1" xmlns="http://www.w3.org/2000/svg" xmlns:xlink="http://www.w3.org/1999/xlink" x="0px" y="0px" viewBox="0 0 32 32" style="enable-background:new 0 0 32 32;" xml:space="preserve">
<g>
	<rect x="9.536" y="23" transform="matrix(0.5 -0.866 0.866 0.5 -14.8619 22.2574)" width="4.619" height="2"></rect>
	<rect x="18.691" y="23" transform="matrix(0.4999 -0.8661 0.8661 0.4999 -10.284 30.1894)" width="4.618" height="2"></rect>
	<rect x="12.379" y="26" transform="matrix(0.4999 -0.8661 0.8661 0.4999 -16.0384 26.2237)" width="4.619" height="2"></rect>
	<path d="M26,10c-0.548,0-1.082,0.09-1.59,0.265C23.811,6.161,20.268,3,16,3c-2.976,0-5.748,1.592-7.274,4.118
		C8.321,7.04,7.911,7,7.5,7C7.085,7,6.68,7.043,6.286,7.118C6.276,7.12,6.265,7.121,6.255,7.123
		c-0.16,0.031-0.316,0.072-0.471,0.115c-0.052,0.014-0.105,0.025-0.157,0.04C5.505,7.315,5.386,7.36,5.267,7.404
		c-0.084,0.031-0.17,0.058-0.253,0.093C4.929,7.532,4.847,7.574,4.763,7.613C4.65,7.665,4.536,7.716,4.425,7.776
		C4.376,7.802,4.33,7.833,4.281,7.86C4.143,7.939,4.005,8.02,3.871,8.11c-0.01,0.007-0.019,0.014-0.029,0.021
		c-0.33,0.225-0.646,0.48-0.938,0.773l0.002,0.002C1.729,10.083,1,11.708,1,13.5C1,17.084,3.916,20,7.5,20h0.922l-1.443,2.5l1.732,1
		l2.021-3.5h6.847l-1.443,2.5l1.732,1l2.021-3.5H26c2.757,0,5-2.243,5-5S28.757,10,26,10z M26,18H7.5C5.019,18,3,15.981,3,13.5
		c0-1.389,0.646-2.618,1.639-3.444c0.119-0.099,0.232-0.208,0.358-0.292c0.133-0.089,0.28-0.155,0.423-0.23
		c0.12-0.063,0.234-0.137,0.358-0.188C5.913,9.289,6.06,9.257,6.202,9.213c0.141-0.042,0.279-0.097,0.423-0.125
		c0.181-0.036,0.371-0.043,0.559-0.056c0.371-0.026,0.742-0.02,1.108,0.045C8.386,9.094,8.478,9.123,8.57,9.146
		c0.773,0.189,1.509,0.569,2.112,1.172l1.414-1.414c-0.437-0.437-0.924-0.793-1.439-1.08C11.859,6.085,13.858,5,16,5
		c3.584,0,6.5,2.916,6.5,6.5c0,0.072-0.005,0.143-0.01,0.214l-0.01,0.155c-0.02,0.395,0.196,0.764,0.549,0.942
		c0.354,0.178,0.777,0.13,1.084-0.12C24.498,12.376,25.138,12,26,12c1.654,0,3,1.346,3,3S27.654,18,26,18z"></path>
</g>
</svg>
