<svg version="1.1" id="Layer_1" xmlns="http://www.w3.org/2000/svg" xmlns:xlink="http://www.w3.org/1999/xlink" x="0px" y="0px" viewBox="0 0 32 32" style="enable-background:new 0 0 32 32;" xml:space="preserve">
<g>
	<path d="M16,1C7.716,1,1,7.716,1,16c0,8.284,6.716,15,15,15c8.284,0,15-6.716,15-15C31,7.716,24.284,1,16,1z M16,29.5
		C8.556,29.5,2.5,23.444,2.5,16C2.5,8.556,8.556,2.5,16,2.5c7.444,0,13.5,6.056,13.5,13.5C29.5,23.444,23.444,29.5,16,29.5z"></path>
	<path d="M21,20h-4V10h-2v10h-4V10H9v11c0,0.553,0.448,1,1,1h12c0.553,0,1-0.447,1-1V10h-2V20z"></path>
</g>
</svg>
