<svg version="1.1" id="Layer_1" xmlns="http://www.w3.org/2000/svg" xmlns:xlink="http://www.w3.org/1999/xlink" x="0px" y="0px" viewBox="0 0 32 32" style="enable-background:new 0 0 32 32;" xml:space="preserve">
<g>
	<path d="M4,4h3V2H4C2.8,2,2,2.8,2,4v3h2V4z"></path>
	<path d="M28,2h-3v2h3v3h2V4C30,2.8,29.2,2,28,2z"></path>
	<path d="M4,25H2v3c0,1.2,0.8,2,2,2h3v-2H4V25z"></path>
	<path d="M28,28h-3v2h3c1.2,0,2-0.8,2-2v-3h-2V28z"></path>
	<path d="M16,4C9.4,4,4,9.4,4,16c0,6.6,5.4,12,12,12c6.6,0,12-5.4,12-12C28,9.4,22.6,4,16,4z M16,26c-5.5,0-10-4.5-10-10
		c0-5.5,4.5-10,10-10c5.5,0,10,4.5,10,10C26,21.5,21.5,26,16,26z"></path>
	<path d="M16,8c-4.4,0-8,3.6-8,8s3.6,8,8,8s8-3.6,8-8S20.4,8,16,8z M22,16c0,0.1,0,0.2,0,0.4l-3-1.7l-1.4-1l2.4-2.2
		C21.2,12.6,22,14.2,22,16z M16,15l1.2,0.9l-0.5,1.4h-1.5l-0.5-1.4L16,15z M18.1,10.4l-2.8,2.5L14,14L12.6,11c1-0.7,2.1-1,3.4-1
		C16.8,10,17.5,10.1,18.1,10.4z M11.1,12.5l1.6,3.3l0.5,1.6l-2.9,0.4C10.1,17.3,10,16.6,10,16C10,14.7,10.4,13.5,11.1,12.5z
		 M11.3,19.7l3.3-0.4h1.7L15.8,22C14,21.9,12.4,21,11.3,19.7z M17.9,21.7l0.6-3.2L19,17l2.5,1.4C20.8,20,19.5,21.2,17.9,21.7z"></path>
</g>
</svg>
