<svg version="1.1" id="Layer_1" xmlns="http://www.w3.org/2000/svg" xmlns:xlink="http://www.w3.org/1999/xlink" x="0px" y="0px" viewBox="0 0 32 32" style="enable-background:new 0 0 32 32;" xml:space="preserve">
<g>
	<path d="M4,4h3V2H4C2.8,2,2,2.8,2,4v3h2V4z"></path>
	<path d="M28,2h-3v2h3v3h2V4C30,2.8,29.2,2,28,2z"></path>
	<path d="M4,25H2v3c0,1.2,0.8,2,2,2h3v-2H4V25z"></path>
	<path d="M28,28h-3v2h3c1.2,0,2-0.8,2-2v-3h-2V28z"></path>
	<path d="M19.5,4H13C9.1,4,6,9.3,6,16c0,6.7,3.1,12,7,12h6.5c3.6,0,6.5-5.3,6.5-12C26,9.3,23.1,4,19.5,4z M8,16c0-6,2.6-10,5-10h2.9
		C14.1,8.1,13,11.8,13,16c0,4.2,1.1,7.9,2.9,10H13C10.6,26,8,22,8,16z M19.5,26c-2.1,0-4.5-4.1-4.5-10c0-5.9,2.4-10,4.5-10
		S24,10.1,24,16C24,21.9,21.6,26,19.5,26z"></path>
	<path d="M19.5,10c-2.4,0-2.5,5-2.5,6s0.1,6,2.5,6s2.5-5,2.5-6S21.9,10,19.5,10z M19.5,19.6C19.3,18.9,19,17.7,19,16
		s0.3-2.9,0.5-3.6c0.2,0.7,0.5,1.9,0.5,3.6S19.7,18.9,19.5,19.6z"></path>
</g>
</svg>
