<svg version="1.1" id="Layer_1" xmlns="http://www.w3.org/2000/svg" xmlns:xlink="http://www.w3.org/1999/xlink" x="0px" y="0px" viewBox="0 0 32 32" style="enable-background:new 0 0 32 32;" xml:space="preserve">
<g>
	<path d="M16,7c-4.962,0-9,4.038-9,9c0,4.963,4.038,9,9,9c4.963,0,9-4.037,9-9C25,11.038,20.963,7,16,7z M16,23c-3.86,0-7-3.141-7-7
		c0-3.86,3.14-7,7-7c3.859,0,7,3.14,7,7C23,19.859,19.859,23,16,23z"></path>
	<path d="M29.402,16.373c-0.088-0.241-0.088-0.505,0-0.746l0.825-2.249c0.492-1.338,0.008-2.827-1.177-3.621l-1.989-1.334
		c-0.213-0.143-0.368-0.356-0.438-0.603L25.97,5.517c-0.39-1.372-1.67-2.301-3.08-2.238l-2.395,0.09
		c-0.241,0.009-0.507-0.072-0.708-0.23l-1.884-1.48c-1.121-0.882-2.687-0.882-3.807,0l-1.884,1.48
		c-0.201,0.158-0.443,0.249-0.709,0.23L9.11,3.278C7.686,3.215,6.42,4.145,6.03,5.516L5.376,7.821
		c-0.07,0.246-0.226,0.46-0.438,0.603l-1.99,1.334c-1.184,0.794-1.667,2.283-1.176,3.621l0.826,2.249
		c0.088,0.241,0.088,0.505,0,0.746l-0.826,2.249c-0.492,1.338-0.008,2.827,1.176,3.62l1.99,1.336
		c0.212,0.142,0.368,0.356,0.438,0.602l0.654,2.306c0.39,1.371,1.651,2.309,3.08,2.237l2.394-0.091c0.254,0,0.507,0.073,0.709,0.23
		l1.884,1.48c0.561,0.44,1.232,0.661,1.903,0.661s1.343-0.221,1.903-0.661l1.883-1.479c0.202-0.159,0.452-0.231,0.709-0.231
		l2.395,0.091c1.416,0.07,2.691-0.865,3.08-2.237l0.655-2.307c0.068-0.245,0.224-0.458,0.438-0.602l1.988-1.334
		c1.185-0.793,1.669-2.282,1.177-3.621L29.402,16.373z M27.937,20.581l-1.987,1.334c-0.607,0.406-1.052,1.018-1.249,1.718
		l-0.654,2.306c-0.137,0.48-0.583,0.784-1.08,0.785l-2.395-0.091c-0.727-0.031-1.444,0.205-2.021,0.656l-1.884,1.48
		c-0.393,0.309-0.941,0.309-1.335,0l-1.884-1.48c-0.543-0.427-1.215-0.658-1.904-0.658c-0.039,0-0.077,0-0.116,0.002l-2.394,0.091
		c-0.524,0.001-0.944-0.306-1.081-0.785L7.3,23.633c-0.199-0.701-0.643-1.312-1.248-1.717l-1.99-1.336
		c-0.415-0.278-0.585-0.8-0.413-1.27l0.826-2.249c0.251-0.684,0.251-1.438,0-2.124l-0.826-2.249
		c-0.172-0.469-0.002-0.991,0.413-1.27l1.99-1.334C6.658,9.678,7.101,9.068,7.3,8.367l0.654-2.304
		C8.09,5.582,8.509,5.231,9.035,5.277l2.394,0.09c0.732,0.026,1.446-0.206,2.02-0.657l1.884-1.48c0.394-0.31,0.942-0.309,1.334,0
		l1.885,1.481c0.575,0.451,1.293,0.683,2.02,0.656l2.395-0.09c0.498-0.044,0.943,0.303,1.08,0.785l0.653,2.303
		c0.198,0.702,0.642,1.313,1.249,1.72l1.989,1.334c0.415,0.279,0.585,0.801,0.413,1.271l-0.825,2.249
		c-0.252,0.685-0.252,1.438,0,2.124l0.825,2.249C28.522,19.78,28.354,20.302,27.937,20.581z"></path>
	<polygon points="15,17.086 12.707,14.793 11.293,16.207 15,19.914 20.707,14.207 19.293,12.793"></polygon>
</g>
</svg>
