<svg version="1.1" id="Layer_1" xmlns="http://www.w3.org/2000/svg" xmlns:xlink="http://www.w3.org/1999/xlink" x="0px" y="0px" viewBox="0 0 32 32" style="enable-background:new 0 0 32 32;" xml:space="preserve">
<polygon points="28.074,18.553 26.887,16.755 23.423,19.042 18.154,16 23.422,12.958 26.887,15.245 28.074,13.447 25.509,11.753 
	28.662,9.933 27.586,8.067 24.432,9.888 24.248,6.82 22.098,6.949 22.346,11.093 17.077,14.135 17.077,8.05 20.789,6.194 
	19.826,4.268 17.077,5.642 17.077,2 14.923,2 14.923,5.642 12.174,4.268 11.211,6.194 14.923,8.05 14.923,14.135 9.654,11.093 
	9.903,6.949 7.752,6.82 7.568,9.888 4.414,8.067 3.337,9.933 6.491,11.754 3.926,13.447 5.113,15.245 8.577,12.958 13.846,16 
	8.577,19.042 5.113,16.755 3.926,18.553 6.492,20.246 3.337,22.067 4.414,23.933 7.568,22.112 7.752,25.18 9.903,25.051 
	9.654,20.907 14.923,17.865 14.923,23.95 11.21,25.807 12.174,27.732 14.923,26.358 14.923,30 17.077,30 17.077,26.358 
	19.826,27.732 20.789,25.807 17.077,23.95 17.077,17.865 22.346,20.907 22.098,25.051 24.248,25.18 24.432,22.112 27.586,23.933 
	28.662,22.067 25.508,20.246"></polygon>
</svg>
