<svg version="1.1" id="Layer_1" xmlns="http://www.w3.org/2000/svg" xmlns:xlink="http://www.w3.org/1999/xlink" x="0px" y="0px" viewBox="0 0 48 48" style="enable-background:new 0 0 48 48;" xml:space="preserve">
<g>
	<path d="M14,8c0-3.309-2.691-6-6-6S2,4.691,2,8s2.691,6,6,6S14,11.309,14,8z M4,8c0-2.206,1.794-4,4-4s4,1.794,4,4s-1.794,4-4,4
		S4,10.206,4,8z"></path>
	<path d="M40,9c-3.309,0-6,2.691-6,6s2.691,6,6,6s6-2.691,6-6S43.309,9,40,9z M40,19c-2.206,0-4-1.794-4-4s1.794-4,4-4s4,1.794,4,4
		S42.206,19,40,19z"></path>
	<path d="M40,12c-1.654,0-3,1.346-3,3s1.346,3,3,3s3-1.346,3-3S41.654,12,40,12z M40,16c-0.552,0-1-0.449-1-1s0.448-1,1-1
		s1,0.449,1,1S40.552,16,40,16z"></path>
	<path d="M10.5,8c0-1.378-1.121-2.5-2.5-2.5S5.5,6.622,5.5,8s1.121,2.5,2.5,2.5S10.5,9.378,10.5,8z M6.5,8
		c0-0.827,0.673-1.5,1.5-1.5S9.5,7.173,9.5,8S8.827,9.5,8,9.5S6.5,8.827,6.5,8z"></path>
	<path d="M24,31c-3.309,0-6,2.691-6,6s2.691,6,6,6s6-2.691,6-6S27.309,31,24,31z M24,41c-2.206,0-4-1.794-4-4s1.794-4,4-4
		s4,1.794,4,4S26.206,41,24,41z"></path>
	<path d="M24,28c-4.963,0-9,4.038-9,9s4.037,9,9,9s9-4.038,9-9S28.963,28,24,28z M24,44c-3.859,0-7-3.14-7-7s3.141-7,7-7s7,3.14,7,7
		S27.859,44,24,44z"></path>
	<path d="M4.781,15.318l8.441,19.479c0.2-0.979,0.538-1.905,0.979-2.771L7.24,15.962C6.372,15.879,5.546,15.656,4.781,15.318z"></path>
	<path d="M34.29,33.147c0.344,0.914,0.573,1.883,0.661,2.893l7.614-13.47c-0.798,0.271-1.65,0.425-2.539,0.428L34.29,33.147z"></path>
	<path d="M34.011,9.714c0.564-0.638,1.227-1.185,1.966-1.618l-21.438-4.69c0.488,0.693,0.87,1.463,1.12,2.293L34.011,9.714z"></path>
</g>
</svg>
