<svg version="1.1" id="Layer_1" xmlns="http://www.w3.org/2000/svg" xmlns:xlink="http://www.w3.org/1999/xlink" x="0px" y="0px" viewBox="0 0 48 48" style="enable-background:new 0 0 48 48;" xml:space="preserve">
<g>
	<path d="M36.617,32.924C36.741,32.975,36.871,33,37,33c0.26,0,0.516-0.102,0.707-0.293l8-8c0.391-0.391,0.391-1.023,0-1.414l-8-8
		c-0.286-0.286-0.715-0.371-1.09-0.217C36.243,15.231,36,15.596,36,16v3h-1v-5.916c0.53,0.261,1.108,0.416,1.717,0.416
		c1.051,0,2.038-0.409,2.781-1.152c1.107-1.107,3.041-1.107,4.148,0l0.707-0.707c-1.486-1.486-4.076-1.486-5.562,0
		c-1.033,1.032-2.644,1.125-3.791,0.293V3c0-0.553-0.447-1-1-1h-5c-0.011,0-0.02,0.006-0.031,0.006
		c-0.107,0.003-0.214,0.018-0.317,0.056l-13.5,5C14.761,7.208,14.5,7.582,14.5,8v2.978c-0.329,0.177-0.644,0.386-0.921,0.663
		c-1.145,1.145-3.004,1.145-4.148,0c-1.533-1.533-4.028-1.533-5.563,0l0.707,0.707c1.145-1.142,3.007-1.144,4.149,0
		c1.533,1.533,4.029,1.533,5.562,0c0.066-0.067,0.143-0.116,0.214-0.175V19H8c-0.553,0-1,0.448-1,1v8c0,0.552,0.447,1,1,1h6.5v6
		c-0.329,0.177-0.644,0.386-0.921,0.663c-1.145,1.145-3.004,1.145-4.148,0c-1.533-1.533-4.028-1.533-5.563,0l0.707,0.707
		c1.145-1.143,3.007-1.143,4.149,0c1.533,1.533,4.029,1.533,5.562,0c0.066-0.067,0.143-0.116,0.214-0.175V40
		c0,0.418,0.261,0.792,0.652,0.938l13.5,5C28.766,45.979,28.883,46,29,46h5c0.553,0,1-0.447,1-1v-7.893
		c0.53,0.261,1.108,0.416,1.717,0.416c1.051,0,2.038-0.409,2.781-1.152c1.107-1.107,3.041-1.107,4.148,0l0.707-0.707
		c-1.486-1.486-4.076-1.486-5.562,0c-1.033,1.032-2.644,1.125-3.791,0.293V29h1v3C36,32.404,36.243,32.769,36.617,32.924z M19,7.77
		l1.5-0.556v5.162c-0.504-0.12-0.981-0.358-1.358-0.736c-0.044-0.044-0.096-0.074-0.142-0.116V7.77z M19,12.809
		c0.46,0.315,0.971,0.523,1.5,0.62v3.242l-1.379-1.379c-0.036-0.036-0.081-0.06-0.121-0.09V12.809z M16.5,8.696L18,8.141v2.721
		c-0.477-0.219-0.985-0.339-1.5-0.357V8.696z M16.5,11.503c0.526,0.025,1.046,0.184,1.5,0.49v3.102
		c-0.355,0.162-0.586,0.513-0.586,0.905v3H16.5V11.503z M18,39.859l-1.5-0.556v-3.779c0.526,0.025,1.046,0.184,1.5,0.49V39.859z
		 M18,34.884c-0.477-0.219-0.985-0.339-1.5-0.357V29h0.914v3c0,0.392,0.231,0.743,0.586,0.905V34.884z M20.5,40.785L19,40.23v-3.398
		c0.46,0.315,0.971,0.523,1.5,0.62V40.785z M20.5,36.399c-0.504-0.12-0.981-0.358-1.358-0.736c-0.044-0.044-0.096-0.074-0.142-0.116
		v-2.76c0.039-0.029,0.086-0.045,0.121-0.081l1.379-1.379V36.399z M23,41.711l-1.5-0.556v-3.662c0.519-0.037,1.026-0.178,1.5-0.42
		V41.711z M23,35.897c-0.439,0.331-0.96,0.52-1.5,0.57v-6.139l1.5-1.5V35.897z M23,26l-3.586,3.586V28c0-0.552-0.447-1-1-1H9v-6
		h9.414c0.553,0,1-0.448,1-1v-1.586L23,22V26z M23,19.172l-1.5-1.5v-4.201c0.519-0.037,1.026-0.178,1.5-0.42V19.172z M23,11.875
		c-0.439,0.331-0.96,0.52-1.5,0.57V6.844L23,6.289V11.875z M25.5,42.637L24,42.082V28v-7V5.918l1.5-0.556V42.637z M28,43.563
		l-1.5-0.556V4.992L28,4.436V43.563z M33,20v8v16h-3V4h3V20z M35,27v-6h2c0.553,0,1-0.448,1-1v-1.586L43.586,24L38,29.586V28
		c0-0.552-0.447-1-1-1H35z"></path>
	<path d="M11.5,9.5C12.327,9.5,13,8.827,13,8s-0.673-1.5-1.5-1.5S10,7.173,10,8S10.673,9.5,11.5,9.5z M11.5,7.5
		C11.775,7.5,12,7.725,12,8s-0.225,0.5-0.5,0.5S11,8.275,11,8S11.225,7.5,11.5,7.5z"></path>
	<path d="M13,32c0-0.827-0.673-1.5-1.5-1.5S10,31.173,10,32s0.673,1.5,1.5,1.5S13,32.827,13,32z M11,32c0-0.275,0.225-0.5,0.5-0.5
		S12,31.725,12,32s-0.225,0.5-0.5,0.5S11,32.275,11,32z"></path>
	<path d="M8,16c0-0.827-0.673-1.5-1.5-1.5S5,15.173,5,16c0,0.827,0.673,1.5,1.5,1.5S8,16.827,8,16z M6,16c0-0.275,0.225-0.5,0.5-0.5
		S7,15.725,7,16c0,0.275-0.225,0.5-0.5,0.5S6,16.275,6,16z"></path>
	<path d="M6.5,38.5C5.673,38.5,5,39.173,5,40s0.673,1.5,1.5,1.5S8,40.827,8,40S7.327,38.5,6.5,38.5z M6.5,40.5
		C6.225,40.5,6,40.275,6,40s0.225-0.5,0.5-0.5S7,39.725,7,40S6.775,40.5,6.5,40.5z"></path>
</g>
</svg>
