<svg version="1.1" id="Layer_1" xmlns="http://www.w3.org/2000/svg" xmlns:xlink="http://www.w3.org/1999/xlink" x="0px" y="0px" viewBox="0 0 48 48" style="enable-background:new 0 0 48 48;" xml:space="preserve">
<g>
	<path d="M35.44,25.008c-0.466-0.008-0.922-0.117-1.317-0.314l-5.375-2.688C26.122,20.694,23.185,20,20.251,20H9.539
		c-0.834,0-1.669,0.197-2.415,0.57C6.122,21.072,5.5,22.078,5.5,23.197c0,0.25-0.098,0.486-0.274,0.663l-1.519,1.519
		C2.929,26.158,2.5,27.193,2.5,28.293c0,0.189-0.073,0.366-0.207,0.5C1.781,29.304,1.5,29.984,1.5,30.707v1.675
		c0,1.379,0.767,2.619,2,3.236C4,35.868,4.56,36,5.118,36h0.596C6.577,37.486,8.16,38.5,10,38.5s3.423-1.014,4.286-2.5h19.428
		c0.863,1.486,2.446,2.5,4.286,2.5s3.423-1.014,4.286-2.5h1.507c0.723,0,1.402-0.282,1.914-0.793s0.793-1.191,0.793-1.914V30
		C46.5,26.817,42.779,25.138,35.44,25.008z M10,36.5c-1.654,0-3-1.346-3-3s1.346-3,3-3s3,1.346,3,3S11.654,36.5,10,36.5z M38,36.5
		c-1.654,0-3-1.346-3-3s1.346-3,3-3s3,1.346,3,3S39.654,36.5,38,36.5z M44.5,33.293c0,0.189-0.073,0.366-0.207,0.5
		C44.159,33.926,43.981,34,43.793,34h-1.844C41.971,33.834,42,33.671,42,33.5c0-2.206-1.794-4-4-4s-4,1.794-4,4
		c0,0.171,0.029,0.334,0.051,0.5H13.949C13.971,33.834,14,33.671,14,33.5c0-2.206-1.794-4-4-4s-4,1.794-4,4
		c0,0.171,0.029,0.334,0.051,0.5H5.118c-0.25,0-0.5-0.059-0.724-0.171C3.843,33.553,3.5,32.999,3.5,32.382v-1.675
		c0-0.189,0.073-0.366,0.207-0.5C4.219,29.696,4.5,29.016,4.5,28.293c0-0.558,0.227-1.105,0.621-1.5l1.519-1.519
		c0.555-0.555,0.86-1.292,0.86-2.077c0-0.357,0.199-0.678,0.519-0.838C8.488,22.124,9.014,22,9.539,22h10.712
		c2.624,0,5.253,0.621,7.603,1.795l5.375,2.688c0.661,0.331,1.415,0.512,2.178,0.525C41.186,27.11,44.5,28.201,44.5,30V33.293z"></path>
	<path d="M25.5,25h-9c-1.379,0-2.5,1.122-2.5,2.5s1.121,2.5,2.5,2.5H20v0.5c0,0.161,0.077,0.312,0.208,0.406
		C20.294,30.968,20.396,31,20.5,31c0.053,0,0.106-0.008,0.158-0.026l3-1C23.862,29.906,24,29.715,24,29.5s-0.138-0.406-0.342-0.474
		l-3-1c-0.154-0.053-0.32-0.025-0.45,0.068C20.077,28.188,20,28.339,20,28.5V29h-3.5c-0.827,0-1.5-0.673-1.5-1.5s0.673-1.5,1.5-1.5
		h9c0.827,0,1.5,0.673,1.5,1.5h1C28,26.122,26.879,25,25.5,25z M21,29.194l0.919,0.306L21,29.806V29.194z"></path>
	<path d="M17.229,16.526h2.553L20.167,18h2.321l-2.597-7.887h-2.826L14.502,18h2.332L17.229,16.526z M18.011,13.501
		c0.044-0.176,0.098-0.392,0.16-0.649c0.062-0.257,0.124-0.517,0.187-0.781c0.062-0.264,0.108-0.484,0.138-0.66
		c0.036,0.176,0.088,0.403,0.154,0.682c0.065,0.279,0.132,0.548,0.197,0.809c0.066,0.261,0.117,0.46,0.154,0.6l0.341,1.287H17.67
		L18.011,13.501z"></path>
	<polygon points="27.328,10.036 25.47,10.036 22.543,18.11 24.402,18.11"></polygon>
	<path d="M26.92,14.095c0,0.792,0.129,1.49,0.386,2.095c0.256,0.605,0.656,1.076,1.198,1.414c0.543,0.337,1.239,0.506,2.091,0.506
		c0.41,0,0.797-0.035,1.16-0.104c0.363-0.069,0.717-0.181,1.062-0.335v-1.793c-0.33,0.14-0.658,0.257-0.984,0.352
		s-0.662,0.143-1.007,0.143c-0.389,0-0.711-0.086-0.968-0.259c-0.257-0.172-0.447-0.427-0.572-0.764s-0.187-0.752-0.187-1.243
		c0-0.367,0.036-0.693,0.109-0.979s0.18-0.53,0.319-0.731s0.308-0.355,0.506-0.462s0.422-0.16,0.671-0.16
		c0.33,0,0.642,0.046,0.936,0.138c0.293,0.092,0.583,0.207,0.869,0.346l0.648-1.672c-0.403-0.19-0.813-0.33-1.231-0.418
		s-0.818-0.132-1.199-0.132c-0.616,0-1.161,0.099-1.634,0.297c-0.473,0.198-0.871,0.479-1.193,0.841
		c-0.323,0.363-0.566,0.792-0.731,1.287S26.92,13.501,26.92,14.095z"></path>
</g>
</svg>
