<svg xml:space="preserve" style="enable-background:new 0 0 48 48;" viewBox="0 0 48 48" y="0px" x="0px" xmlns:xlink="http://www.w3.org/1999/xlink" xmlns="http://www.w3.org/2000/svg" id="Layer_1" version="1.1">
<g>
	<rect height="2" width="1" y="37" x="23.5"></rect>
	<rect height="2" width="1" y="41" x="23.5"></rect>
	<rect height="2" width="1" y="33" x="23.5"></rect>
	<path d="M18.822,17.547C20.483,18.179,22.226,18.5,24,18.5s3.517-0.321,5.178-0.953c0.194-0.074,0.322-0.26,0.322-0.467V17
		c0-1.434-0.547-2.79-1.54-3.817c-0.127-0.131-0.315-0.183-0.49-0.135c-2.229,0.601-4.711,0.601-6.939,0
		c-0.175-0.047-0.363,0.004-0.49,0.135c-0.993,1.028-1.54,2.383-1.54,3.897C18.5,17.288,18.628,17.474,18.822,17.547z
		 M20.567,14.089c2.217,0.545,4.648,0.545,6.865,0c0.633,0.743,1.003,1.666,1.06,2.644c-2.894,1.018-6.09,1.018-8.984,0
		C19.564,15.755,19.934,14.833,20.567,14.089z"></path>
	<path d="M45,15.5H33.789l2.454-0.982c0.764-0.305,1.257-1.034,1.257-1.857V12.5c0-1.103-0.897-2-2-2h-6.028
		c-0.689-0.58-1.47-1.047-2.307-1.382l-0.962-4.996C26.021,3.182,25.196,2.5,24.239,2.5h-0.479c-0.957,0-1.782,0.682-1.963,1.621
		l-0.962,4.996c-0.837,0.336-1.618,0.803-2.307,1.382H12.5c-1.103,0-2,0.897-2,2v0.162c0,0.823,0.494,1.552,1.258,1.857l2.454,0.981
		H3c-1.378,0-2.5,1.122-2.5,2.5v0.161c0,1.215,0.869,2.25,2.065,2.462l4.214,0.744C7.308,22.628,8.547,23.5,10,23.5
		c0.534,0,1.041-0.127,1.5-0.346V25c0,1.378,1.122,2.5,2.5,2.5h0.5c0.112,0,0.219-0.02,0.327-0.034L1.646,40.646l0.707,0.707
		l13.881-13.881c0.088,0.01,0.174,0.028,0.265,0.028H17c1.378,0,2.5-1.122,2.5-2.5v-0.792c0.549,0.344,1.141,0.6,1.75,0.809V27
		c0,1.293,0.99,2.347,2.25,2.475V31h1v-1.525c1.26-0.127,2.25-1.182,2.25-2.475v-1.983c0.609-0.209,1.201-0.465,1.75-0.809V25
		c0,1.378,1.122,2.5,2.5,2.5h0.5c0.091,0,0.177-0.018,0.265-0.028l13.881,13.881l0.707-0.707L33.173,27.466
		C33.281,27.48,33.388,27.5,33.5,27.5H34c1.378,0,2.5-1.122,2.5-2.5v-1.846c0.459,0.219,0.966,0.346,1.5,0.346
		c1.453,0,2.692-0.872,3.221-2.133l4.213-0.744c1.197-0.211,2.065-1.247,2.065-2.462V18C47.5,16.622,46.378,15.5,45,15.5z
		 M35.5,12.5v0.161l-4.458,1.783c-0.256-0.704-0.613-1.357-1.056-1.945H35.5z M23.761,4.5h0.479l0.984,5.109
		C24.824,9.543,24.417,9.5,24,9.5s-0.824,0.043-1.223,0.109L23.761,4.5z M24,10.5c3.584,0,6.5,2.916,6.5,6.5s-2.916,6.5-6.5,6.5
		s-6.5-2.916-6.5-6.5S20.416,10.5,24,10.5z M12.5,12.661V12.5h5.514c-0.443,0.588-0.8,1.241-1.056,1.945L12.5,12.661z M7.558,19.474
		l-4.645-0.821C2.674,18.611,2.5,18.404,2.5,18.161V18c0-0.276,0.225-0.5,0.5-0.5h7h6.525c0.093,1.405,0.571,2.705,1.335,3.794
		l-5.395-0.953C12.481,20.229,12.5,20.117,12.5,20c0-1.378-1.122-2.5-2.5-2.5C8.802,17.5,7.801,18.348,7.558,19.474z M10,21.5
		c-0.827,0-1.5-0.673-1.5-1.5s0.673-1.5,1.5-1.5s1.5,0.673,1.5,1.5S10.827,21.5,10,21.5z M14,25.5c-0.275,0-0.5-0.224-0.5-0.5v-2
		c0-0.172,0.093-0.316,0.225-0.406c0.037-0.025,0.077-0.046,0.119-0.062C13.894,22.515,13.944,22.5,14,22.5h0.5
		c0.094,0,0.178,0.033,0.253,0.079c0.016,0.01,0.032,0.02,0.046,0.031c0.069,0.054,0.129,0.12,0.163,0.203l0,0
		C14.986,22.871,15,22.934,15,23v2c0,0.276-0.225,0.5-0.5,0.5H14z M17.5,25c0,0.276-0.225,0.5-0.5,0.5h-0.5
		c-0.275,0-0.5-0.224-0.5-0.5v-2c0-0.001,0.001-0.002,0.001-0.003l0,0c0.001-0.206,0.127-0.382,0.306-0.458
		c0.06-0.025,0.125-0.039,0.193-0.039H17c0.275,0,0.5,0.224,0.5,0.5v0.261V25z M24.75,27c0,0.276-0.225,0.5-0.5,0.5h-0.5
		c-0.275,0-0.5-0.224-0.5-0.5v-1.533V25c0-0.276,0.225-0.5,0.5-0.5h0.5c0.275,0,0.5,0.224,0.5,0.5v0.467V27z M30.5,23.261V23
		c0-0.276,0.225-0.5,0.5-0.5h0.5c0.068,0,0.134,0.014,0.193,0.039c0.178,0.075,0.304,0.252,0.306,0.458h0c0,0.001,0,0.002,0,0.003v2
		c0,0.276-0.225,0.5-0.5,0.5H31c-0.275,0-0.5-0.224-0.5-0.5V23.261z M34.5,25c0,0.276-0.225,0.5-0.5,0.5h-0.5
		c-0.275,0-0.5-0.224-0.5-0.5v-2c0-0.066,0.015-0.129,0.038-0.187l0,0c0.033-0.083,0.094-0.149,0.163-0.203
		c0.015-0.011,0.03-0.022,0.046-0.031c0.075-0.046,0.159-0.079,0.253-0.079H34c0.056,0,0.106,0.015,0.157,0.032
		c0.042,0.016,0.082,0.037,0.119,0.062C34.407,22.684,34.5,22.828,34.5,23V25z M38,21.5c-0.827,0-1.5-0.673-1.5-1.5
		s0.673-1.5,1.5-1.5s1.5,0.673,1.5,1.5S38.827,21.5,38,21.5z M45.5,18.161c0,0.243-0.174,0.45-0.413,0.492l-4.645,0.821
		C40.199,18.348,39.198,17.5,38,17.5c-1.378,0-2.5,1.122-2.5,2.5c0,0.117,0.019,0.229,0.035,0.341l-5.395,0.953
		c0.764-1.089,1.242-2.389,1.335-3.794H38h7c0.275,0,0.5,0.224,0.5,0.5V18.161z"></path>
</g>
</svg>
