<svg version="1.1" id="Layer_1" xmlns="http://www.w3.org/2000/svg" xmlns:xlink="http://www.w3.org/1999/xlink" x="0px" y="0px" viewBox="0 0 48 48" style="enable-background:new 0 0 48 48;" xml:space="preserve">
<g>
	<path d="M42,21h-1c0-9.374-7.626-17-17-17S7,11.626,7,21H6c-2.206,0-4,1.794-4,4v5c0,2.206,1.794,4,4,4h2c0.552,0,1-0.447,1-1v-9
		v-2v-1c0-8.271,6.729-15,15-15c8.271,0,15,6.729,15,15v1v2v9c0,0.553,0.447,1,1,1h2c2.206,0,4-1.794,4-4v-5
		C46,22.794,44.206,21,42,21z M7,32H6c-1.103,0-2-0.897-2-2v-5c0-1.103,0.897-2,2-2h1v1V32z M44,30c0,1.103-0.897,2-2,2h-1v-8v-1h1
		c1.103,0,2,0.897,2,2V30z"></path>
	<path d="M39,37c0,1.654-1.346,3-3,3h-6.184c-0.414-1.161-1.514-2-2.816-2h-2c-1.654,0-3,1.346-3,3s1.346,3,3,3h2
		c1.302,0,2.402-0.839,2.816-2H36c2.757,0,5-2.243,5-5v-1h-2V37z M27,42h-2c-0.551,0-1-0.448-1-1s0.449-1,1-1h2c0.552,0,1,0.448,1,1
		S27.552,42,27,42z"></path>
	<path d="M19,22.5c-0.827,0-1.5,0.673-1.5,1.5s0.673,1.5,1.5,1.5s1.5-0.673,1.5-1.5S19.827,22.5,19,22.5z M19,24.5
		c-0.276,0-0.5-0.224-0.5-0.5s0.224-0.5,0.5-0.5s0.5,0.224,0.5,0.5S19.276,24.5,19,24.5z"></path>
	<path d="M29,25.5c0.827,0,1.5-0.673,1.5-1.5s-0.673-1.5-1.5-1.5s-1.5,0.673-1.5,1.5S28.173,25.5,29,25.5z M29,23.5
		c0.275,0,0.5,0.224,0.5,0.5s-0.225,0.5-0.5,0.5s-0.5-0.224-0.5-0.5S28.725,23.5,29,23.5z"></path>
	<path d="M25.5,24c0-0.827-0.673-1.5-1.5-1.5s-1.5,0.673-1.5,1.5s0.673,1.5,1.5,1.5S25.5,24.827,25.5,24z M23.5,24
		c0-0.276,0.224-0.5,0.5-0.5s0.5,0.224,0.5,0.5s-0.224,0.5-0.5,0.5S23.5,24.276,23.5,24z"></path>
	<path d="M26.646,33.354C26.742,33.449,26.87,33.5,27,33.5c0.064,0,0.13-0.013,0.191-0.038C27.378,33.385,27.5,33.202,27.5,33v-2.5
		H30c3.584,0,6.5-2.916,6.5-6.5s-2.916-6.5-6.5-6.5H18c-3.584,0-6.5,2.916-6.5,6.5s2.916,6.5,6.5,6.5h5.793L26.646,33.354z M12.5,24
		c0-3.033,2.467-5.5,5.5-5.5h12c3.032,0,5.5,2.467,5.5,5.5c0,3.032-2.468,5.5-5.5,5.5h-3c-0.276,0-0.5,0.224-0.5,0.5v1.793
		l-2.146-2.146C24.26,29.553,24.133,29.5,24,29.5h-6C14.967,29.5,12.5,27.032,12.5,24z"></path>
</g>
</svg>
