<svg version="1.1" id="Layer_1" xmlns="http://www.w3.org/2000/svg" xmlns:xlink="http://www.w3.org/1999/xlink" x="0px" y="0px" viewBox="0 0 48 48" style="enable-background:new 0 0 48 48;" xml:space="preserve">
<g>
	<path d="M24,3C12.421,3,3,12.42,3,24s9.421,21,21,21s21-9.42,21-21S35.579,3,24,3z M24,43C13.523,43,5,34.477,5,24S13.523,5,24,5
		s19,8.523,19,19S34.477,43,24,43z"></path>
	<path d="M37,17h-2.5v-1.5c0-0.276-0.224-0.5-0.5-0.5h-4c-0.276,0-0.5,0.224-0.5,0.5V17h-3.326l0-0.001
		c0.157-0.909-0.371-1.757-1.257-2.016c-0.884-0.256-1.786,0.171-2.144,1.021L22.354,17H18.5v-1.5c0-0.276-0.224-0.5-0.5-0.5h-4
		c-0.276,0-0.5,0.224-0.5,0.5V17H11c-0.553,0-1,0.448-1,1v14c0,0.552,0.447,1,1,1h10.407c-0.004,0.787,0.498,1.477,1.282,1.707
		c0.173,0.051,0.347,0.075,0.517,0.075c0.7,0,1.34-0.412,1.627-1.095L25.122,33H37c0.553,0,1-0.448,1-1V18
		C38,17.448,37.553,17,37,17z M30.5,16h3v1h-3V16z M23.967,23.9l2.241,0.388c0.127,0.022,0.19,0.106,0.217,0.155
		s0.063,0.147,0.014,0.265L23.792,31h-0.038l0.701-4.055c0.094-0.544-0.271-1.062-0.815-1.156l-2.242-0.388
		c-0.126-0.022-0.189-0.106-0.216-0.154s-0.063-0.147-0.014-0.265L23.683,19h0.115l-0.647,3.745
		C23.058,23.289,23.422,23.806,23.967,23.9z M14.5,16h3v1h-3V16z M12,19h9.514l-2.189,5.208c-0.273,0.651-0.236,1.38,0.104,2
		c0.34,0.62,0.934,1.044,1.63,1.164l1.257,0.217L21.725,31H12V19z M36,31H25.962l2.32-5.518c0.273-0.651,0.236-1.38-0.104-2
		c-0.339-0.62-0.933-1.044-1.63-1.165L25.292,22.1l0.536-3.1H36V31z"></path>
	<rect x="14" y="21.5" width="4" height="1"></rect>
	<polygon points="31.5,24 32.5,24 32.5,22.5 34,22.5 34,21.5 32.5,21.5 32.5,20 31.5,20 31.5,21.5 30,21.5 30,22.5 31.5,22.5"></polygon>
</g>
</svg>
