<svg version="1.1" id="Layer_1" xmlns="http://www.w3.org/2000/svg" xmlns:xlink="http://www.w3.org/1999/xlink" x="0px" y="0px" viewBox="0 0 48 48" xml:space="preserve">
<path d="M30,2c-7.72,0-14,9.87-14,22s6.28,22,14,22s14-9.87,14-22S37.72,2,30,2z M41.94,25.97c-0.01,0.21-0.04,0.42-0.05,0.64
	c-0.03,0.43-0.07,0.85-0.12,1.27c-0.03,0.26-0.07,0.52-0.11,0.78c-0.05,0.35-0.1,0.7-0.16,1.04c-0.06,0.32-0.12,0.63-0.19,0.94
	c-0.05,0.25-0.11,0.51-0.17,0.76c-0.1,0.41-0.21,0.81-0.32,1.2c-0.03,0.11-0.06,0.21-0.09,0.32c-1.75,5.71-5.11,9.59-8.98,9.59
	c-0.65,0-1.28-0.12-1.9-0.33c0.3,0.05,0.6,0.08,0.9,0.08C36.4,42.25,41,34.06,41,24c0-10.06-4.6-18.25-10.25-18.25
	c-0.3,0-0.6,0.03-0.9,0.08c0.62-0.21,1.25-0.33,1.9-0.33c3.86,0,7.23,3.88,8.98,9.59c0.03,0.11,0.06,0.21,0.09,0.32
	c0.11,0.39,0.22,0.79,0.32,1.2c0.06,0.25,0.11,0.51,0.17,0.76c0.07,0.31,0.13,0.62,0.19,0.93c0.06,0.34,0.11,0.69,0.16,1.04
	c0.04,0.26,0.08,0.52,0.11,0.78c0.05,0.42,0.08,0.85,0.12,1.27c0.02,0.21,0.04,0.42,0.05,0.63C41.98,22.68,42,23.34,42,24
	S41.98,25.32,41.94,25.97z M31.25,7.46c0.17,0,0.33,0.03,0.5,0.05C34.91,11.11,37,17.15,37,24c0,6.85-2.08,12.89-5.24,16.5
	c-0.17,0.02-0.34,0.04-0.51,0.04c-4.82,0-8.75-7.42-8.75-16.54S26.43,7.46,31.25,7.46z M39,24c0-5.94-1.52-11.31-3.96-15.27
	C37.99,11.62,40,17.38,40,24c0,6.62-2.02,12.38-4.96,15.27C37.48,35.31,39,29.94,39,24z M18,24c0-11.03,5.38-20,12-20
	c0.99,0,1.94,0.22,2.86,0.6c-0.36-0.06-0.73-0.1-1.11-0.1c-5.84,0-10.64,7.74-11.19,17.61c-0.04,0.62-0.06,1.25-0.06,1.89
	c0,0.64,0.02,1.27,0.06,1.89c0.55,9.87,5.36,17.61,11.19,17.61c0.37,0,0.74-0.04,1.11-0.1C31.94,43.78,30.99,44,30,44
	C23.38,44,18,35.03,18,24z"></path>
<g>
	<path d="M24.67,36.08C26.14,32.62,27,28.47,27,24s-0.86-8.62-2.33-12.08c-0.42,0.78-0.8,1.64-1.13,2.56C24.47,17.31,25,20.55,25,24
		s-0.53,6.69-1.46,9.52C23.87,34.45,24.25,35.3,24.67,36.08z"></path>
	<path d="M25.01,36.67c0.18,0.31,0.38,0.61,0.57,0.89C27.68,34.22,29,29.38,29,24c0-5.38-1.32-10.22-3.41-13.56
		c-0.2,0.28-0.39,0.58-0.57,0.89C26.85,14.48,28,18.99,28,24C28,29.01,26.85,33.52,25.01,36.67z"></path>
	<path d="M22.7,41.71c-0.93,0.51-1.92,0.79-2.95,0.79c-0.65,0-1.28-0.12-1.9-0.33c0.3,0.05,0.6,0.08,0.9,0.08
		c1.22,0,2.39-0.4,3.48-1.11c-0.5-0.63-0.96-1.31-1.4-2.03c-0.34,0.49-0.7,0.96-1.08,1.38c-0.17,0.02-0.34,0.04-0.51,0.04
		c-4.82,0-8.75-7.42-8.75-16.54s3.93-16.54,8.75-16.54c0.17,0,0.33,0.03,0.5,0.05c0.38,0.43,0.74,0.89,1.08,1.39
		c0.44-0.73,0.91-1.41,1.4-2.04c-1.09-0.7-2.26-1.11-3.48-1.11c-0.3,0-0.6,0.03-0.9,0.08c0.62-0.21,1.25-0.33,1.9-0.33
		c1.02,0,2.01,0.28,2.95,0.79c0.57-0.66,1.17-1.25,1.8-1.77C22.55,2.91,20.34,2,18,2C10.28,2,4,11.87,4,24s6.28,22,14,22
		c2.34,0,4.55-0.91,6.49-2.52C23.87,42.96,23.27,42.37,22.7,41.71z M18,44c-6.62,0-12-8.97-12-20C6,12.97,11.38,4,18,4
		c0.99,0,1.94,0.22,2.86,0.6c-0.36-0.06-0.73-0.1-1.11-0.1c-5.84,0-10.65,7.74-11.19,17.61C8.52,22.73,8.5,23.36,8.5,24
		c0,0.64,0.02,1.27,0.06,1.89c0.55,9.87,5.36,17.61,11.19,17.61c0.37,0,0.74-0.04,1.11-0.1C19.94,43.78,18.99,44,18,44z"></path>
	<path d="M27.72,8.18c-0.53,0.4-1.04,0.88-1.52,1.46c1.02,1.5,1.89,3.35,2.53,5.45c0.03,0.11,0.06,0.21,0.09,0.32
		c0.11,0.39,0.22,0.79,0.32,1.2c0.06,0.25,0.11,0.51,0.17,0.76c0.07,0.31,0.13,0.62,0.19,0.93c0.06,0.34,0.11,0.69,0.16,1.04
		c0.04,0.26,0.08,0.52,0.11,0.78c0.05,0.42,0.08,0.85,0.12,1.27c0.02,0.21,0.04,0.42,0.05,0.63C29.98,22.68,30,23.34,30,24
		s-0.02,1.32-0.06,1.97c-0.01,0.21-0.04,0.42-0.05,0.64c-0.03,0.43-0.07,0.85-0.12,1.27c-0.03,0.26-0.07,0.52-0.11,0.78
		c-0.05,0.35-0.1,0.7-0.16,1.04c-0.06,0.32-0.12,0.63-0.19,0.94c-0.05,0.25-0.11,0.51-0.17,0.76c-0.1,0.41-0.21,0.81-0.32,1.2
		c-0.03,0.11-0.06,0.21-0.09,0.32c-0.64,2.1-1.5,3.95-2.53,5.45c0.48,0.57,0.98,1.06,1.52,1.46C30.35,35.81,32,30.2,32,24
		S30.35,12.19,27.72,8.18z"></path>
</g>
</svg>
