<svg version="1.1" id="Layer_1" xmlns="http://www.w3.org/2000/svg" xmlns:xlink="http://www.w3.org/1999/xlink" x="0px" y="0px" viewBox="0 0 48 48" xml:space="preserve">
<path d="M24,2c-7.72,0-14,9.87-14,22s6.28,22,14,22s14-9.87,14-22S31.72,2,24,2z M35.94,25.97c-0.01,0.21-0.04,0.42-0.05,0.64
	c-0.03,0.43-0.07,0.85-0.12,1.27c-0.03,0.26-0.07,0.52-0.11,0.78c-0.05,0.35-0.1,0.7-0.16,1.04c-0.06,0.32-0.12,0.63-0.19,0.94
	c-0.05,0.25-0.11,0.51-0.17,0.76c-0.1,0.41-0.21,0.81-0.32,1.2c-0.03,0.11-0.06,0.21-0.09,0.32c-1.75,5.71-5.11,9.59-8.98,9.59
	c-0.65,0-1.28-0.12-1.9-0.33c0.3,0.05,0.6,0.08,0.9,0.08C30.4,42.25,35,34.06,35,24c0-10.06-4.6-18.25-10.25-18.25
	c-0.3,0-0.6,0.03-0.9,0.08c0.62-0.21,1.25-0.33,1.9-0.33c3.86,0,7.23,3.88,8.98,9.59c0.03,0.11,0.06,0.21,0.09,0.32
	c0.11,0.39,0.22,0.79,0.32,1.2c0.06,0.25,0.11,0.51,0.17,0.76c0.07,0.31,0.13,0.62,0.19,0.93c0.06,0.34,0.11,0.69,0.16,1.04
	c0.04,0.26,0.08,0.52,0.11,0.78c0.05,0.42,0.08,0.85,0.12,1.27c0.02,0.21,0.04,0.42,0.05,0.63C35.98,22.68,36,23.34,36,24
	S35.98,25.32,35.94,25.97z M25.25,7.46c0.17,0,0.33,0.03,0.5,0.05C28.91,11.11,31,17.15,31,24c0,6.85-2.08,12.89-5.24,16.5
	c-0.17,0.02-0.34,0.04-0.51,0.04c-4.82,0-8.75-7.42-8.75-16.54S20.43,7.46,25.25,7.46z M33,24c0-5.94-1.52-11.31-3.96-15.27
	C31.99,11.62,34,17.38,34,24c0,6.62-2.02,12.38-4.96,15.27C31.48,35.31,33,29.94,33,24z M12,24c0-11.03,5.38-20,12-20
	c0.99,0,1.94,0.22,2.86,0.6c-0.36-0.06-0.73-0.1-1.11-0.1c-5.84,0-10.64,7.74-11.19,17.61c-0.04,0.62-0.06,1.25-0.06,1.89
	c0,0.64,0.02,1.27,0.06,1.89c0.55,9.87,5.36,17.61,11.19,17.61c0.37,0,0.74-0.04,1.11-0.1C25.94,43.78,24.99,44,24,44
	C17.38,44,12,35.03,12,24z"></path>
</svg>
