<svg xml:space="preserve" style="enable-background:new 0 0 48 48;" viewBox="0 0 48 48" y="0px" x="0px" xmlns:xlink="http://www.w3.org/1999/xlink" xmlns="http://www.w3.org/2000/svg" id="Layer_1" version="1.1">
<path d="M38,20c-0.905,0-1.778,0.137-2.602,0.387l-0.913-2.508l-0.5-2L33.391,13.5H36c0.827,0,1.5,0.673,1.5,1.5s-0.673,1.5-1.5,1.5
	h-0.5v1H36c1.378,0,2.5-1.122,2.5-2.5s-1.122-2.5-2.5-2.5h-3.25c-0.154,0-0.299,0.071-0.394,0.192s-0.128,0.28-0.091,0.429
	l0.605,2.418l-14.517,0.937L17.027,12.5H20v-1h-6v1h1.973l1.476,4.426l-2.886,4.329C13.223,20.463,11.666,20,10,20
	c-4.963,0-9,4.038-9,9s4.037,9,9,9c3.964,0,7.33-2.579,8.528-6.144l2.372,0.099L20.59,33.5H19.5v1h3v-1h-0.89l0.301-1.503L21.979,32
	v-0.001C21.986,31.998,21.993,32,22,32c1.654,0,3-1.346,3-3c0-0.6-0.181-1.157-0.486-1.626l9.272-8.499l0.674,1.853
	C31.252,22.106,29,25.294,29,29c0,4.962,4.037,9,9,9s9-4.038,9-9S42.963,20,38,20z M17.849,18.128l2.645,7.934l-1.966,0.082
	c-0.586-1.745-1.692-3.248-3.135-4.332L17.849,18.128z M18.975,28.5c-0.026-0.465-0.078-0.923-0.172-1.366l0.898-0.037
	c-0.329,0.397-0.561,0.874-0.65,1.404H18.975z M16.427,26.232l-4.094,0.17l1.951-2.926C15.211,24.197,15.955,25.141,16.427,26.232z
	 M11.197,28.106c0.089,0.119,0.16,0.251,0.21,0.394h-0.473L11.197,28.106z M10.366,27.55l-0.782,1.172
	c-0.103,0.153-0.112,0.351-0.025,0.513C9.646,29.398,9.815,29.5,10,29.5h1.408c-0.207,0.581-0.757,1-1.408,1
	c-0.827,0-1.5-0.673-1.5-1.5s0.673-1.5,1.5-1.5C10.127,27.5,10.248,27.521,10.366,27.55z M12.449,29.5h4.525
	c-0.031,0.44-0.104,0.867-0.213,1.281l-4.84-0.202C12.176,30.271,12.367,29.907,12.449,29.5z M12.449,28.5
	c-0.083-0.407-0.273-0.771-0.528-1.08l4.84-0.202c0.109,0.414,0.182,0.841,0.213,1.281H12.449z M20.915,27.325l0.392,1.175h-1.235
	C20.198,28.011,20.501,27.593,20.915,27.325z M21.865,27.014c0.007,0,0.015-0.002,0.022-0.002l-0.009,0.044L21.865,27.014z
	 M21.39,29.5l-0.259,1.293c-0.52-0.253-0.912-0.722-1.061-1.293H21.39z M22.869,27.207c0.075,0.036,0.149,0.073,0.218,0.119
	l-0.296,0.272L22.869,27.207z M10,36c-3.86,0-7-3.14-7-7s3.14-7,7-7c1.256,0,2.433,0.337,3.453,0.919l-2.356,3.535L9.979,26.5v0.001
	C8.611,26.514,7.5,27.629,7.5,29s1.111,2.486,2.479,2.498V31.5l6.447,0.269C15.352,34.255,12.877,36,10,36z M18.975,29.5h0.076
	c0.089,0.53,0.321,1.007,0.65,1.404l-0.898-0.037C18.896,30.423,18.949,29.965,18.975,29.5z M24,29c0,1.065-0.838,1.929-1.888,1.989
	l0.346-1.73l1.3-1.191C23.907,28.347,24,28.661,24,29z M23.833,26.642c-0.231-0.18-0.485-0.33-0.764-0.437L23.41,24.5h1.09v-1h-3v1
	h0.89l-0.302,1.509C22.059,26.008,22.03,26,22,26c-0.007,0-0.014,0.002-0.021,0.002V26l-0.446,0.019l-2.854-8.562l14.437-0.932
	l0.328,1.305L23.833,26.642z M38,36c-3.86,0-7-3.14-7-7c0-2.843,1.706-5.291,4.146-6.385l1.55,4.262
	C35.981,27.318,35.5,28.101,35.5,29c0,1.378,1.122,2.5,2.5,2.5s2.5-1.122,2.5-2.5s-1.122-2.5-2.5-2.5
	c-0.125,0-0.244,0.019-0.364,0.037l-1.552-4.264C36.694,22.099,37.335,22,38,22c3.86,0,7,3.14,7,7S41.86,36,38,36z M37.53,29.171
	l0.939-0.342l-0.483-1.328c0.004,0,0.009-0.001,0.013-0.001c0.827,0,1.5,0.673,1.5,1.5s-0.673,1.5-1.5,1.5s-1.5-0.673-1.5-1.5
	c0-0.465,0.217-0.875,0.549-1.151L37.53,29.171z"></path>
</svg>
