<svg version="1.1" id="Layer_1" xmlns="http://www.w3.org/2000/svg" xmlns:xlink="http://www.w3.org/1999/xlink" x="0px" y="0px" viewBox="0 0 48 48" style="enable-background:new 0 0 48 48;" xml:space="preserve">
<g>
	<path d="M24,33c4.963,0,9-4.038,9-9s-4.037-9-9-9s-9,4.038-9,9S19.037,33,24,33z M24,17c3.859,0,7,3.14,7,7s-3.141,7-7,7
		s-7-3.14-7-7S20.141,17,24,17z"></path>
	<path d="M24,27c1.654,0,3-1.346,3-3s-1.346-3-3-3s-3,1.346-3,3S22.346,27,24,27z M24,22c1.103,0,2,0.897,2,2s-0.897,2-2,2
		s-2-0.897-2-2S22.897,22,24,22z"></path>
	<path d="M28.243,21.172c0.391-0.391,0.391-1.024,0-1.414c-0.391-0.391-1.024-0.391-1.414,0c-0.39,0.391-0.39,1.024,0,1.414
		C27.219,21.562,27.852,21.562,28.243,21.172z"></path>
	<path d="M21.172,28.243c0.39-0.391,0.39-1.024,0-1.414c-0.391-0.391-1.024-0.391-1.414,0c-0.391,0.391-0.391,1.024,0,1.414
		C20.148,28.633,20.781,28.633,21.172,28.243z"></path>
	<path d="M26.828,26.828c-0.39,0.391-0.39,1.024,0,1.414c0.391,0.391,1.024,0.391,1.414,0c0.391-0.391,0.391-1.024,0-1.414
		C27.852,26.438,27.219,26.438,26.828,26.828z"></path>
	<path d="M21.172,21.172c0.39-0.391,0.39-1.024,0-1.414c-0.391-0.391-1.024-0.391-1.414,0c-0.391,0.391-0.391,1.024,0,1.414
		C20.148,21.562,20.781,21.562,21.172,21.172z"></path>
	<path d="M24.172,4.009l0.315-0.038c-0.1-0.837-0.796-1.468-1.714-1.468c-0.002,0-0.004,0-0.006,0l-0.227,0.014l0.066,0.998
		L22.86,3.5c0.316,0,0.595,0.259,0.635,0.589l0.477-0.057C23.983,4.078,24,4.122,24,4.171v0.839h-0.5v1.959h1V6.025
		C34.192,6.293,42,14.243,42,24c0,9.925-8.075,18-18,18c-9.756,0-17.707-7.807-17.975-17.5h1.166v-1H5.232V24H4.212l-0.041-0.5
		c-0.363,0-0.671-0.293-0.67-0.671l0.003-0.047L3.005,22.75L2.5,22.86c0,0.833,0.64,1.515,1.524,1.619C4.282,35.284,13.133,44,24,44
		c11.028,0,20-8.972,20-20C44,13.03,35.121,4.103,24.172,4.009z"></path>
	<rect x="23.5" y="7.948" width="1" height="1.959"></rect>
	<path d="M12.688,19.042l-0.916-0.403c-0.272,0.62-0.5,1.266-0.675,1.92l0.967,0.258C12.225,20.212,12.435,19.615,12.688,19.042z"></path>
	<path d="M10.691,22.909c-0.01,0.118-0.054,0.231-0.126,0.328l0.797,0.604c0.188-0.249,0.301-0.543,0.325-0.851
		c0.034-0.419,0.091-0.842,0.168-1.255l-0.982-0.184C10.789,21.998,10.729,22.454,10.691,22.909z"></path>
	<path d="M16.043,14.56l-0.645-0.765c-0.518,0.436-1.006,0.916-1.451,1.425l0.754,0.658C15.112,15.407,15.564,14.963,16.043,14.56z"></path>
	<path d="M14.108,16.61l-0.799-0.601c-0.406,0.54-0.773,1.117-1.094,1.716l0.883,0.471C13.394,17.643,13.733,17.109,14.108,16.61z"></path>
	<path d="M18.388,12.998l-0.455-0.891c-0.603,0.308-1.186,0.666-1.734,1.062l0.586,0.811C17.291,13.613,17.831,13.283,18.388,12.998
		z"></path>
	<path d="M7.271,12.108l-0.814-0.58c-0.389,0.546-0.754,1.113-1.086,1.684l0.865,0.502C6.553,13.169,6.9,12.629,7.271,12.108z"></path>
	<path d="M9.093,9.895L8.366,9.209c-0.459,0.485-0.899,0.996-1.309,1.518l0.787,0.617C8.235,10.846,8.655,10.359,9.093,9.895z"></path>
	<path d="M22.907,10.691c-0.38,0.031-0.757,0.078-1.128,0.141l0.166,0.986c0.344-0.058,0.691-0.102,1.043-0.13
		c0.419-0.034,0.805-0.227,1.087-0.542l-0.746-0.666C23.219,10.602,23.069,10.678,22.907,10.691z"></path>
	<path d="M5.773,14.551l-0.887-0.462c-0.309,0.592-0.592,1.205-0.841,1.82l0.926,0.376C5.21,15.699,5.479,15.116,5.773,14.551z"></path>
	<path d="M4.633,17.177l-0.943-0.334c-0.222,0.626-0.416,1.272-0.578,1.92l0.971,0.242C4.236,18.388,4.422,17.773,4.633,17.177z"></path>
	<path d="M3.871,19.938l-0.98-0.197c-0.132,0.654-0.233,1.32-0.304,1.981l0.994,0.105C3.648,21.197,3.745,20.561,3.871,19.938z"></path>
	<polygon points="8.171,24.5 10.032,24.5 10.168,24.495 10.032,23.5 8.171,23.5"></polygon>
	<path d="M11.202,7.955l-0.623-0.781C10.058,7.59,9.551,8.035,9.072,8.497l0.693,0.72C10.223,8.776,10.705,8.352,11.202,7.955z"></path>
	<path d="M18.84,4.125l-0.252-0.968c-0.644,0.167-1.287,0.367-1.914,0.594l0.342,0.94C17.612,4.475,18.227,4.284,18.84,4.125z"></path>
	<path d="M21.655,3.601l-0.113-0.993c-0.663,0.076-1.329,0.183-1.979,0.32l0.205,0.979C20.389,3.776,21.023,3.673,21.655,3.601z"></path>
	<path d="M21.024,12.009l-0.24-0.971c-0.656,0.163-1.306,0.378-1.931,0.64l0.387,0.922C19.817,12.359,20.418,12.16,21.024,12.009z"></path>
	<path d="M13.562,6.325l-0.51-0.86c-0.572,0.339-1.136,0.71-1.675,1.102l0.588,0.809C12.479,7.002,13.017,6.648,13.562,6.325z"></path>
	<path d="M16.123,5.039l-0.385-0.923c-0.615,0.256-1.225,0.545-1.812,0.857l0.471,0.883C14.956,5.559,15.537,5.283,16.123,5.039z"></path>
</g>
</svg>
