<svg version="1.1" id="Layer_1" xmlns="http://www.w3.org/2000/svg" xmlns:xlink="http://www.w3.org/1999/xlink" x="0px" y="0px" viewBox="0 0 48 48" style="enable-background:new 0 0 48 48;" xml:space="preserve">
<g>
	<path d="M21.879,37.879C21.312,38.445,21,39.199,21,40s0.312,1.555,0.879,2.121c0.585,0.585,1.353,0.877,2.121,0.877
		s1.536-0.292,2.121-0.877C26.688,41.555,27,40.801,27,40s-0.312-1.555-0.879-2.121C24.951,36.709,23.049,36.709,21.879,37.879z
		 M25.414,41.414c-0.779,0.779-2.049,0.779-2.828,0C22.208,41.036,22,40.534,22,40s0.208-1.036,0.586-1.414
		c0.39-0.39,0.902-0.585,1.414-0.585s1.024,0.195,1.414,0.585C25.792,38.964,26,39.466,26,40S25.792,41.036,25.414,41.414z"></path>
	<circle cx="29" cy="40" r="1"></circle>
	<circle cx="19" cy="40" r="1"></circle>
	<circle cx="24" cy="45" r="1"></circle>
	<circle cx="24" cy="35" r="1"></circle>
	<path d="M10.5,12.985h0.838l1.878,2.274c0.38,0.46,0.945,0.726,1.542,0.726h2.55c0.362,0,0.717-0.098,1.027-0.284
		c1.676-1.003,3.603-1.534,5.572-1.534c1.969,0,3.896,0.53,5.572,1.534c0.311,0.186,0.666,0.284,1.027,0.284h2.813
		c0.597,0,1.162-0.266,1.542-0.726l1.878-2.274H37.5c1.104,0,2-0.895,2-2v-3c0-1.105-0.896-2-2-2h-0.656
		c-3.815-2.599-8.27-3.969-12.926-3.969c-4.656,0-9.113,1.37-12.933,3.969H10.5c-1.104,0-2,0.895-2,2v3
		C8.5,12.089,9.396,12.985,10.5,12.985z M10.5,7.985h1.117c3.661-2.646,7.981-3.97,12.301-3.969c4.318,0,8.636,1.323,12.294,3.969
		H37.5v3h-1.701l-2.478,3h-2.813c-2.025-1.212-4.312-1.818-6.6-1.818c-2.287,0-4.575,0.606-6.599,1.818h-2.55l-2.479-3H10.5V7.985z"></path>
	<path d="M14.929,12.57c0.188,0.26,0.49,0.415,0.811,0.415h1.052c0.162,0,0.32-0.043,0.462-0.12c1.639-0.897,3.446-1.446,5.31-1.626
		c0.525-0.05,0.937-0.469,0.937-0.997V6.082c0-0.549-0.442-1.006-0.982-1.006c-0.023,0-0.046,0.001-0.069,0.003
		c-3.363,0.241-6.57,1.305-9.395,3.133c-0.474,0.307-0.578,0.96-0.248,1.418L14.929,12.57z M22.518,6.077L22.5,6.082l-0.032,4.161
		c-2.019,0.194-3.934,0.781-5.676,1.741l-1.052,0l-2.142-2.932C16.29,7.31,19.291,6.308,22.518,6.077z"></path>
	<path d="M25.545,11.239c1.864,0.179,3.671,0.729,5.31,1.626c0.142,0.078,0.3,0.12,0.462,0.12h1.052
		c0.321,0,0.623-0.154,0.811-0.415l2.123-2.94c0.33-0.457,0.226-1.111-0.248-1.418C32.23,6.384,29.022,5.32,25.66,5.079
		c-0.023-0.002-0.046-0.003-0.069-0.003c-0.54,0-0.982,0.457-0.982,1.006v4.159C24.609,10.769,25.02,11.188,25.545,11.239z
		 M25.615,6.079c3.217,0.235,6.211,1.235,8.877,2.966l-2.123,2.94l-1.034,0.002c-1.76-0.963-3.676-1.55-5.727-1.745L25.615,6.079z"></path>
	<path d="M42.472,38.983l0.998-0.055c-0.037-0.677-0.109-1.359-0.216-2.028l-0.988,0.157C42.367,37.693,42.437,38.34,42.472,38.983z"></path>
	<path d="M42.5,40c0,0.624-0.032,1.258-0.096,1.885l0.994,0.102C43.466,41.326,43.5,40.657,43.5,40v-0.05L42.5,40z"></path>
	<path d="M43.066,35.897c-0.141-0.661-0.319-1.324-0.531-1.971l-0.951,0.312c0.201,0.614,0.371,1.242,0.504,1.868L43.066,35.897z"></path>
	<path d="M41.358,31.103l-0.891,0.456c0.292,0.569,0.558,1.164,0.792,1.767l0.932-0.361C41.945,32.329,41.665,31.703,41.358,31.103z"></path>
	<path d="M5.526,40.988l-0.998,0.053c0.036,0.677,0.107,1.359,0.213,2.029l0.988-0.156C5.629,42.279,5.561,41.631,5.526,40.988z"></path>
	<path d="M4.928,44.074C5.064,44.72,5.238,45.367,5.442,46h0.153l0.812-0.264c-0.2-0.614-0.368-1.243-0.501-1.869L4.928,44.074z"></path>
	<path d="M41.886,44.742l0.967,0.254c0.173-0.659,0.313-1.33,0.417-1.997l-0.988-0.153C42.183,43.478,42.05,44.116,41.886,44.742z"></path>
	<path d="M6.122,35.231l-0.967-0.256c-0.174,0.658-0.315,1.33-0.42,1.996l0.988,0.155C5.822,36.494,5.957,35.856,6.122,35.231z"></path>
	<path d="M39.751,28.499l-0.807,0.59c0.381,0.521,0.737,1.067,1.06,1.621l0.865-0.503C40.529,29.623,40.153,29.048,39.751,28.499z"></path>
	<path d="M5.599,38.086l-0.994-0.103C4.535,38.654,4.5,39.333,4.5,40v0.021L5.5,40C5.5,39.367,5.533,38.723,5.599,38.086z"></path>
	<path d="M5.443,33.996l0.951,0.308c0.198-0.613,0.431-1.222,0.69-1.808L6.171,32.09C5.896,32.709,5.652,33.35,5.443,33.996z"></path>
	<path d="M39.127,27.691c-0.315-0.387-0.652-0.76-0.993-1.118l0.241-0.241c0.326-0.326,0.506-0.778,0.493-1.239
		c-0.013-0.453-0.204-0.866-0.537-1.164c-2.839-2.535-6.182-4.176-9.675-4.949c-0.015-0.021-0.017-0.048-0.036-0.067l-4.267-4.267
		c-0.195-0.195-0.512-0.195-0.707,0l-4.267,4.267c-0.019,0.019-0.021,0.046-0.036,0.067c-3.493,0.773-6.835,2.414-9.674,4.948
		c-0.334,0.299-0.524,0.713-0.537,1.166c-0.014,0.461,0.166,0.912,0.492,1.237l4.145,4.145c0.609,0.609,1.593,0.653,2.24,0.103
		c4.555-3.87,11.425-3.87,15.981,0c0.303,0.258,0.68,0.385,1.058,0.385c0.429,0,0.858-0.164,1.182-0.487l3.187-3.187
		c0.32,0.338,0.643,0.676,0.934,1.034L39.127,27.691z M24,15.707l3.06,3.06h-0.927c-0.276,0-0.5,0.224-0.5,0.5V22.5h-3.267v-3.233
		c0-0.276-0.224-0.5-0.5-0.5H20.94L24,15.707z M33.523,29.77c-0.241,0.243-0.632,0.264-0.885,0.048
		c-2.504-2.127-5.57-3.189-8.639-3.189c-3.067,0-6.136,1.063-8.638,3.189c-0.255,0.215-0.645,0.195-0.886-0.048l-4.145-4.145
		c-0.133-0.132-0.205-0.315-0.2-0.502c0.005-0.176,0.077-0.335,0.204-0.448c2.98-2.66,6.542-4.285,10.238-4.908h0.792V23
		c0,0.276,0.224,0.5,0.5,0.5h4.267c0.276,0,0.5-0.224,0.5-0.5v-3.233h0.798c3.695,0.623,7.256,2.248,10.234,4.908
		c0.126,0.113,0.198,0.271,0.203,0.446c0.006,0.188-0.067,0.371-0.2,0.504L33.523,29.77z"></path>
	<path d="M8.206,28.56l0.809,0.587c0.376-0.518,0.785-1.024,1.218-1.505l-0.744-0.668C9.033,27.48,8.602,28.014,8.206,28.56z"></path>
	<path d="M6.609,31.168l0.893,0.452c0.289-0.571,0.614-1.135,0.966-1.677L7.628,29.4C7.258,29.971,6.915,30.566,6.609,31.168z"></path>
	<path d="M32.471,39.3c-0.058-0.698-0.2-1.385-0.424-2.044L31.1,37.578c0.198,0.581,0.324,1.188,0.375,1.804L32.471,39.3z"></path>
	<path d="M27.62,33.43c0.535,0.295,1.037,0.66,1.49,1.082l0.682-0.731c-0.514-0.478-1.081-0.891-1.689-1.226L27.62,33.43z"></path>
	<path d="M29.747,35.181c0.396,0.472,0.733,0.992,1.002,1.544l0.9-0.437c-0.305-0.627-0.688-1.216-1.137-1.751L29.747,35.181z"></path>
	<path d="M31.195,42.123l0.959,0.281c0.196-0.67,0.311-1.363,0.339-2.06l-1-0.04C31.469,40.919,31.368,41.531,31.195,42.123z"></path>
	<path d="M17.954,44.439l-0.807,0.591c0.25,0.341,0.531,0.667,0.833,0.971h1.052l0.185-0.222c-0.179-0.148-0.353-0.306-0.521-0.475
		C18.426,45.032,18.176,44.742,17.954,44.439z"></path>
	<path d="M29.945,44.573l0.791,0.611c0.427-0.552,0.784-1.157,1.062-1.797l-0.918-0.398C30.636,43.553,30.321,44.086,29.945,44.573z"></path>
	<path d="M16.758,41.958l-0.965,0.26c0.181,0.675,0.446,1.326,0.787,1.935l0.873-0.489C17.151,43.126,16.918,42.553,16.758,41.958z"></path>
	<path d="M15.72,38.076l0.975,0.225c0.138-0.598,0.351-1.18,0.633-1.728l-0.891-0.457C16.118,36.738,15.877,37.397,15.72,38.076z"></path>
	<path d="M18.698,34.696c0.104-0.104,0.209-0.204,0.316-0.299l-0.664-0.747c-0.123,0.109-0.244,0.223-0.36,0.34
		c-0.377,0.377-0.72,0.79-1.018,1.228l0.826,0.562C18.062,35.394,18.364,35.03,18.698,34.696z"></path>
	<path d="M16.5,40c0-0.263,0.014-0.527,0.041-0.789l-0.994-0.104C15.516,39.404,15.5,39.702,15.5,40
		c0,0.398,0.028,0.799,0.084,1.193l0.99-0.141C16.525,40.705,16.5,40.351,16.5,40z"></path>
	<path d="M25.006,32.567c0.61,0.082,1.21,0.239,1.781,0.468l0.371-0.929c-0.647-0.259-1.327-0.438-2.02-0.53L25.006,32.567z"></path>
	<path d="M22.023,31.732l0.232,0.973c0.569-0.136,1.156-0.205,1.828-0.205l0.016-1c-0.003,0-0.098,0-0.1,0
		C23.334,31.5,22.669,31.578,22.023,31.732z"></path>
	<path d="M21.371,32.974l-0.35-0.937c-0.652,0.243-1.275,0.568-1.851,0.966l0.568,0.822C20.247,33.475,20.796,33.189,21.371,32.974z"></path>
	<path d="M28.489,46h1.526l-0.711-0.697C29.049,45.557,28.774,45.786,28.489,46z"></path>
</g>
</svg>
