<svg version="1.1" id="Layer_1" xmlns="http://www.w3.org/2000/svg" xmlns:xlink="http://www.w3.org/1999/xlink" x="0px" y="0px" viewBox="0 0 48 48" style="enable-background:new 0 0 48 48;" xml:space="preserve">
<g>
	<path d="M28.5,21c0-4.136-3.364-7.5-7.5-7.5s-7.5,3.364-7.5,7.5s3.364,7.5,7.5,7.5S28.5,25.136,28.5,21z M21,27.5
		c-3.584,0-6.5-2.916-6.5-6.5s2.916-6.5,6.5-6.5s6.5,2.916,6.5,6.5S24.584,27.5,21,27.5z"></path>
	<path d="M21,18.5c-1.379,0-2.5,1.122-2.5,2.5s1.121,2.5,2.5,2.5s2.5-1.122,2.5-2.5S22.379,18.5,21,18.5z M21,22.5
		c-0.827,0-1.5-0.673-1.5-1.5s0.673-1.5,1.5-1.5s1.5,0.673,1.5,1.5S21.827,22.5,21,22.5z"></path>
	<path d="M23.121,17.464c-0.39,0.391-0.39,1.024,0,1.414c0.391,0.391,1.024,0.391,1.415,0s0.391-1.024,0-1.414
		C24.145,17.074,23.512,17.074,23.121,17.464z"></path>
	<path d="M17.464,23.121c-0.391,0.391-0.391,1.024,0,1.414c0.391,0.391,1.024,0.391,1.415,0c0.39-0.391,0.39-1.024,0-1.414
		C18.488,22.731,17.855,22.731,17.464,23.121z"></path>
	<path d="M23.121,23.121c-0.39,0.391-0.39,1.024,0,1.414c0.391,0.391,1.024,0.391,1.415,0c0.391-0.391,0.391-1.024,0-1.414
		C24.145,22.731,23.512,22.731,23.121,23.121z"></path>
	<path d="M18.879,18.879c0.39-0.391,0.39-1.024,0-1.414c-0.391-0.391-1.024-0.391-1.415,0c-0.391,0.391-0.391,1.024,0,1.414
		S18.488,19.269,18.879,18.879z"></path>
	<path d="M35.704,29.458c-0.391-0.386-1.018-0.386-1.408,0l-2.941,2.916c-0.977,0.967-1.514,2.255-1.514,3.625
		s0.537,2.658,1.514,3.626C32.359,40.622,33.68,41.12,35,41.12s2.641-0.498,3.646-1.494c0.977-0.968,1.514-2.255,1.514-3.625
		s-0.537-2.658-1.514-3.626L35.704,29.458z M37.237,38.205c-1.234,1.223-3.24,1.222-4.475,0c-0.595-0.59-0.922-1.373-0.922-2.206
		c0-0.833,0.327-1.616,0.922-2.205L35,31.577l2.237,2.217c0.595,0.59,0.922,1.373,0.922,2.206S37.832,37.616,37.237,38.205z"></path>
	<rect x="35.403" y="32.708" transform="matrix(0.7039 -0.7103 0.7103 0.7039 -13.5046 35.5609)" width="0.999" height="2.542"></rect>
	<path d="M37.654,24.338C37.874,23.258,38,22.144,38,21c0-9.036-7.092-16.427-16-16.949V4.029c0-0.552-0.23-1.085-0.631-1.464
		c-0.398-0.376-0.92-0.563-1.455-0.535C10.266,2.577,2.577,10.265,2.031,19.914C2,20.455,2.189,20.971,2.565,21.369
		C2.944,21.77,3.478,22,4.029,22h0.021C4.573,30.908,11.963,38,21,38c1.145,0,2.258-0.126,3.338-0.346C25.529,42.44,29.851,46,35,46
		c6.065,0,11-4.935,11-11C46,29.851,42.44,25.529,37.654,24.338z M4.029,19.996C4.533,11.378,11.405,4.516,20,4.029l0.02,5.011
		C14.136,9.519,9.519,14.136,9.046,20L4.029,19.996z M21,36c-7.934,0-14.431-6.196-14.949-14h2.995c1.031,0,1.904-0.798,1.988-1.819
		c0.392-4.823,4.324-8.755,9.147-9.148C21.201,10.951,22,10.077,22,9.045V6.051C29.805,6.569,36,13.067,36,21
		c0,1.395-0.203,2.74-0.562,4.022C35.292,25.016,35.148,25,35,25c-5.523,0-10,4.477-10,10c0,0.148,0.016,0.292,0.022,0.439
		C23.74,35.797,22.395,36,21,36z M35,44c-4.962,0-9-4.037-9-9c0-4.963,4.038-9,9-9s9,4.037,9,9C44,39.963,39.962,44,35,44z"></path>
</g>
</svg>
