<svg version="1.1" id="Layer_1" xmlns="http://www.w3.org/2000/svg" xmlns:xlink="http://www.w3.org/1999/xlink" x="0px" y="0px" viewBox="0 0 48 48" style="enable-background:new 0 0 48 48;" xml:space="preserve">
<g>
	<path d="M24.987,4.05c-0.031-0.555-0.267-1.085-0.672-1.468c-0.431-0.406-0.995-0.61-1.574-0.579
		C11.553,2.637,2.637,11.552,2.004,22.741c0,0,0,0,0,0c-0.033,0.585,0.173,1.144,0.579,1.575c0.383,0.405,0.913,0.64,1.467,0.672
		C4.57,35.555,13.305,44,24,44c11.028,0,20-8.972,20-20C44,13.306,35.556,4.57,24.987,4.05z M22.942,4.036
		C22.96,4.053,23,4.099,23,4.17v5.861c0,0.083-0.06,0.155-0.133,0.161c-6.791,0.552-12.121,5.882-12.675,12.676
		C10.187,22.941,10.115,23,10.032,23H4.171c-0.071,0-0.118-0.041-0.134-0.058C3.998,22.901,4,22.866,4,22.854
		C4.576,12.682,12.682,4.576,22.942,4.036z M24,42c-9.587,0-17.426-7.541-17.949-17h3.981c1.119,0,2.065-0.866,2.154-1.971
		c0.465-5.717,5.127-10.378,10.843-10.843C24.134,12.097,25,11.15,25,10.032V6.051C34.459,6.574,42,14.412,42,24
		C42,33.925,33.925,42,24,42z"></path>
	<path d="M24,15.5c-4.687,0-8.5,3.813-8.5,8.5s3.813,8.5,8.5,8.5s8.5-3.813,8.5-8.5S28.687,15.5,24,15.5z M24,31.5
		c-4.136,0-7.5-3.364-7.5-7.5s3.364-7.5,7.5-7.5s7.5,3.364,7.5,7.5S28.136,31.5,24,31.5z"></path>
	<path d="M24,21c-1.654,0-3,1.346-3,3s1.346,3,3,3s3-1.346,3-3S25.654,21,24,21z M24,26c-1.103,0-2-0.897-2-2s0.897-2,2-2
		s2,0.897,2,2S25.103,26,24,26z"></path>
	<path d="M26.829,19.757c-0.391,0.391-0.391,1.024,0,1.414c0.39,0.391,1.023,0.391,1.414,0s0.391-1.024,0-1.414
		C27.852,19.367,27.219,19.367,26.829,19.757z"></path>
	<path d="M19.757,26.828c-0.391,0.391-0.391,1.024,0,1.414c0.391,0.391,1.024,0.391,1.414,0c0.391-0.391,0.391-1.024,0-1.414
		C20.781,26.438,20.148,26.438,19.757,26.828z"></path>
	<path d="M26.829,26.828c-0.391,0.391-0.391,1.024,0,1.414c0.39,0.391,1.023,0.391,1.414,0c0.391-0.391,0.391-1.024,0-1.414
		C27.852,26.438,27.219,26.438,26.829,26.828z"></path>
	<path d="M21.171,21.172c0.391-0.391,0.391-1.024,0-1.414c-0.39-0.391-1.023-0.391-1.414,0c-0.391,0.391-0.391,1.024,0,1.414
		S20.781,21.562,21.171,21.172z"></path>
</g>
</svg>
