<svg version="1.1" id="Layer_1" xmlns="http://www.w3.org/2000/svg" xmlns:xlink="http://www.w3.org/1999/xlink" x="0px" y="0px" viewBox="0 0 48 48" xml:space="preserve">
<g>
	<path d="M34,2H14c-2.21,0-4,1.79-4,4v36c0,2.21,1.79,4,4,4h20c2.21,0,4-1.79,4-4V6C38,3.79,36.21,2,34,2z M30.19,4
		c-0.07,0.09-0.14,0.16-0.2,0.26l-0.85,1.48c-0.27,0.47-0.77,0.76-1.3,0.76h-7.68c-0.54,0-1.04-0.29-1.3-0.76l-0.85-1.48
		c-0.05-0.1-0.13-0.17-0.2-0.26H30.19z M36,42c0,1.1-0.9,2-2,2H14c-1.1,0-2-0.9-2-2V6c0-1.1,0.9-2,2-2h1.84
		c0.54,0,1.04,0.29,1.3,0.76l0.85,1.48c0.44,0.78,1.28,1.26,2.17,1.26h7.68c0.89,0,1.73-0.48,2.17-1.26l0.85-1.48
		C31.12,4.29,31.62,4,32.16,4H34c1.1,0,2,0.9,2,2V42z"></path>
	<path d="M31.08,27.91c-0.78-0.78-2.11-0.72-2.95,0.13l-0.7,0.7c-0.26,0.26-0.67,0.31-1.24,0.16c-2.06-0.55-5.04-3.53-5.59-5.59
		c-0.15-0.56-0.1-0.98,0.16-1.23l0.7-0.7c0.4-0.4,0.64-0.93,0.67-1.48c0.03-0.57-0.16-1.09-0.55-1.48l-1.87-1.87
		c-0.78-0.78-2.1-0.72-2.95,0.13l-1.39,1.39c-0.79,0.79-1.45,2.36-0.07,5.33c0.91,1.95,2.54,4.16,4.59,6.21
		c2.99,2.99,6.62,5.4,9.27,5.4c0.89,0,1.67-0.27,2.28-0.88l1.39-1.39c0.85-0.85,0.91-2.17,0.13-2.95L31.08,27.91z M32.12,32.03
		l-1.39,1.39c-1.82,1.82-6.58-0.97-10.13-4.52c-3.55-3.55-6.34-8.31-4.52-10.13l1.39-1.39c0.25-0.25,0.58-0.39,0.89-0.39
		c0.25,0,0.48,0.08,0.65,0.26l1.87,1.87c0.18,0.18,0.27,0.44,0.26,0.71c-0.02,0.3-0.15,0.59-0.38,0.82l-0.7,0.7
		c-0.36,0.36-0.73,1.04-0.42,2.2c0.65,2.41,3.88,5.65,6.29,6.29c1.16,0.31,1.84-0.06,2.2-0.42l0.7-0.7
		c0.46-0.46,1.15-0.52,1.54-0.13l1.87,1.87C32.63,30.88,32.57,31.57,32.12,32.03z"></path>
	<path d="M27.82,25.5h1c0-2.66-2.16-4.83-4.82-4.83v1C26.11,21.67,27.82,23.39,27.82,25.5z"></path>
	<path d="M29.99,25.5h1c0-3.86-3.14-7.01-6.99-7.01v1C27.3,19.49,29.99,22.19,29.99,25.5z"></path>
	<path d="M32.28,25.5h1c0-5.13-4.16-9.3-9.28-9.3v1C28.57,17.2,32.28,20.92,32.28,25.5z"></path>
</g>
</svg>
