<svg version="1.1" id="Layer_1" xmlns="http://www.w3.org/2000/svg" xmlns:xlink="http://www.w3.org/1999/xlink" x="0px" y="0px" viewBox="0 0 48 48" style="enable-background:new 0 0 48 48;" xml:space="preserve">
<g>
	<path d="M8.534,39.466c-0.586-0.586-1.536-0.586-2.121,0c-0.586,0.586-0.586,1.536,0,2.121c0.585,0.586,1.535,0.586,2.121,0
		C9.12,41.002,9.12,40.052,8.534,39.466z"></path>
	<path d="M39.293,6.586c-0.586,0.586-0.586,1.536,0,2.121c0.586,0.586,1.536,0.586,2.121,0C42,8.121,42,7.172,41.414,6.586
		C40.829,6,39.879,6,39.293,6.586z"></path>
	<path d="M46,8c0-1.603-0.624-3.109-1.758-4.243C43.109,2.624,41.603,2,40,2s-3.109,0.624-4.242,1.757l-3.77,3.77l-1.094-0.821
		c-1.105-0.828-2.672-0.606-3.5,0.5c-0.828,1.104-0.604,2.671,0.5,3.5l0.522,0.392l-0.671,0.671L26.65,10.95
		c-1.106-0.829-2.671-0.605-3.5,0.5c-0.828,1.104-0.604,2.672,0.5,3.5l0.523,0.392l-0.671,0.671l-1.094-0.82
		c-1.106-0.828-2.671-0.605-3.5,0.5c-0.828,1.104-0.604,2.671,0.5,3.5l0.522,0.392l-0.671,0.671l-1.094-0.821
		c-1.106-0.829-2.671-0.605-3.5,0.5c-0.828,1.104-0.604,2.672,0.5,3.5l0.522,0.392l-1.144,1.144l-0.707-0.707
		c-0.391-0.391-1.023-0.391-1.414,0l-6.365,6.364C4.89,31.797,4.89,33.7,6.059,34.87v0l-2.949,2.95
		c-1.493,1.493-1.493,3.921,0,5.414l1.656,1.657v0c0.747,0.746,1.728,1.119,2.707,1.119c0.98,0,1.961-0.373,2.707-1.119l2.95-2.95v0
		c0.566,0.567,1.32,0.879,2.121,0.879c0.802,0,1.556-0.312,2.121-0.879l6.364-6.364c0.188-0.188,0.293-0.442,0.293-0.707
		s-0.105-0.52-0.293-0.707l-0.707-0.707l2.356-2.356l1.094,0.821c0.45,0.337,0.976,0.5,1.498,0.5c0.76,0,1.511-0.345,2.002-1
		c0.828-1.104,0.604-2.672-0.5-3.5l-0.523-0.392l0.671-0.671l1.094,0.821c0.45,0.337,0.976,0.5,1.498,0.5
		c0.76,0,1.511-0.345,2.002-1c0.828-1.104,0.604-2.671-0.5-3.5l-0.522-0.392l0.671-0.671l1.094,0.821
		c0.45,0.337,0.976,0.5,1.498,0.5c0.76,0,1.511-0.345,2.002-1c0.828-1.104,0.604-2.672-0.5-3.5l-0.523-0.392l0.671-0.671
		l1.094,0.821c0.45,0.337,0.976,0.5,1.498,0.5c0.76,0,1.511-0.345,2.002-1c0.828-1.104,0.604-2.671-0.5-3.5L41.685,14.8l2.558-2.558
		C45.376,11.109,46,9.603,46,8z M8.766,43.477c-0.711,0.712-1.871,0.713-2.586,0L4.523,41.82c-0.713-0.713-0.713-1.873,0-2.586
		l2.949-2.95l2.122,2.121l2.122,2.121L8.766,43.477z M15.957,40.527c-0.376,0.376-1.034,0.378-1.413,0l-7.07-7.07
		c-0.391-0.39-0.391-1.025-0.001-1.415l5.657-5.657l8.485,8.485L15.957,40.527z M21.615,32.042l-5.657-5.657l1.346-1.346
		l6.465,4.849L21.615,32.042z M28.579,29.121c0.442,0.331,0.532,0.958,0.2,1.4c-0.196,0.262-0.496,0.4-0.801,0.4
		c-0.209,0-0.419-0.065-0.599-0.2l-0.923-0.692v0l-1.616-1.212l0,0l-8.775-6.581c-0.442-0.331-0.532-0.958-0.2-1.4
		c0.331-0.44,0.958-0.531,1.399-0.2l9.004,6.753v0l1.616,1.212v0L28.579,29.121z M27.34,26.316l-6.465-4.849l0.671-0.671
		l6.465,4.849L27.34,26.316z M33.021,26.278c-0.196,0.262-0.496,0.4-0.801,0.4c-0.209,0-0.419-0.065-0.599-0.2l-1.771-1.329
		l-0.767-0.575v0l-7.494-5.621l-0.587-0.44v0l-0.694-0.52c-0.442-0.331-0.532-0.958-0.2-1.4c0.332-0.44,0.959-0.531,1.399-0.2
		l0.922,0.692v0l1.616,1.212l0,0l6.465,4.849l0,0l0.84,0.63l1.47,1.103C33.264,25.209,33.354,25.836,33.021,26.278z M31.583,22.074
		l-6.465-4.849l0.671-0.671l6.465,4.849L31.583,22.074z M37.064,20.635c0.442,0.331,0.532,0.958,0.2,1.4
		c-0.196,0.262-0.496,0.4-0.801,0.4c-0.209,0-0.419-0.065-0.599-0.2l-0.923-0.692v0l-1.616-1.212l0,0l-6.979-5.234l-1.103-0.827v0
		l-0.694-0.521c-0.442-0.331-0.532-0.958-0.2-1.4c0.331-0.44,0.959-0.532,1.399-0.2l0.923,0.692l0,0l1.23,0.923l6.851,5.138v0
		l1.616,1.212v0L37.064,20.635z M35.826,17.831l-6.465-4.848l0.671-0.671l6.465,4.849L35.826,17.831z M41.507,17.793
		c-0.196,0.262-0.496,0.4-0.801,0.4c-0.209,0-0.419-0.065-0.599-0.2l-1.771-1.329l-0.767-0.575v0l-6.465-4.849v0l-1.616-1.212l0,0
		l-0.694-0.52c-0.442-0.331-0.532-0.958-0.2-1.4c0.332-0.44,0.959-0.532,1.399-0.2l2.019,1.514l0.52,0.39v0l6.465,4.849l0,0
		l0.84,0.63l1.47,1.103C41.749,16.724,41.839,17.351,41.507,17.793z M42.828,10.829l-2.76,2.76L33.604,8.74l3.568-3.568
		c1.512-1.511,4.145-1.511,5.656,0C43.584,5.927,44,6.932,44,8S43.584,10.073,42.828,10.829z"></path>
</g>
</svg>
