<svg version="1.1" id="Layer_1" xmlns="http://www.w3.org/2000/svg" xmlns:xlink="http://www.w3.org/1999/xlink" x="0px" y="0px" viewBox="0 0 48 48" style="enable-background:new 0 0 48 48;" xml:space="preserve">
<g>
	<path d="M8,21.5c0.827,0,1.5-0.673,1.5-1.5S8.827,18.5,8,18.5S6.5,19.173,6.5,20S7.173,21.5,8,21.5z M8,19.5
		c0.275,0,0.5,0.224,0.5,0.5S8.275,20.5,8,20.5S7.5,20.276,7.5,20S7.725,19.5,8,19.5z"></path>
	<path d="M34.5,24c0,0.827,0.673,1.5,1.5,1.5s1.5-0.673,1.5-1.5s-0.673-1.5-1.5-1.5S34.5,23.173,34.5,24z M36.5,24
		c0,0.276-0.225,0.5-0.5,0.5s-0.5-0.224-0.5-0.5s0.225-0.5,0.5-0.5S36.5,23.724,36.5,24z"></path>
	<path d="M42,28.5c1.379,0,2.5-1.122,2.5-2.5s-1.121-2.5-2.5-2.5s-2.5,1.122-2.5,2.5S40.621,28.5,42,28.5z M42,24.5
		c0.827,0,1.5,0.673,1.5,1.5s-0.673,1.5-1.5,1.5s-1.5-0.673-1.5-1.5S41.173,24.5,42,24.5z"></path>
	<path d="M12,18.499c0.64,0,1.28-0.244,1.768-0.731C14.24,17.296,14.5,16.668,14.5,16c0-0.668-0.26-1.296-0.732-1.768l-1.414-1.415
		c-0.188-0.188-0.52-0.188-0.707,0l-1.414,1.415C9.76,14.705,9.5,15.332,9.5,16c0,0.668,0.26,1.296,0.732,1.768
		C10.72,18.255,11.359,18.499,12,18.499z M10.939,14.939L12,13.878l1.061,1.061C13.344,15.223,13.5,15.599,13.5,16
		c0,0.401-0.156,0.777-0.439,1.061c-0.584,0.585-1.537,0.585-2.121,0C10.656,16.777,10.5,16.401,10.5,16
		C10.5,15.599,10.656,15.223,10.939,14.939z"></path>
	<path d="M17.646,12.818l-1.414,1.415C15.76,14.705,15.5,15.332,15.5,16c0,0.668,0.26,1.296,0.732,1.768
		c0.487,0.487,1.127,0.731,1.768,0.731c0.64,0,1.28-0.244,1.768-0.731C20.24,17.296,20.5,16.668,20.5,16
		c0-0.668-0.26-1.296-0.732-1.768l-1.414-1.415C18.166,12.63,17.834,12.63,17.646,12.818z M19.5,16c0,0.401-0.156,0.777-0.439,1.061
		c-0.584,0.585-1.537,0.585-2.121,0C16.656,16.777,16.5,16.401,16.5,16c0-0.401,0.156-0.777,0.439-1.061L18,13.878l1.061,1.061
		C19.344,15.223,19.5,15.599,19.5,16z"></path>
	<path d="M23.646,12.818l-1.414,1.415C21.76,14.705,21.5,15.332,21.5,16c0,0.668,0.26,1.296,0.732,1.768
		c0.487,0.487,1.127,0.731,1.768,0.731c0.64,0,1.28-0.244,1.768-0.731C26.24,17.296,26.5,16.668,26.5,16
		c0-0.668-0.26-1.296-0.732-1.768l-1.414-1.415C24.166,12.63,23.834,12.63,23.646,12.818z M25.5,16c0,0.401-0.156,0.777-0.439,1.061
		c-0.584,0.585-1.537,0.585-2.121,0C22.656,16.777,22.5,16.401,22.5,16c0-0.401,0.156-0.777,0.439-1.061L24,13.878l1.061,1.061
		C25.344,15.223,25.5,15.599,25.5,16z"></path>
	<path d="M29.646,12.818l-1.414,1.415C27.76,14.705,27.5,15.332,27.5,16c0,0.668,0.26,1.296,0.732,1.768
		c0.487,0.487,1.127,0.731,1.768,0.731c0.64,0,1.28-0.244,1.768-0.731C32.24,17.296,32.5,16.668,32.5,16
		c0-0.668-0.26-1.296-0.732-1.768l-1.414-1.415C30.166,12.63,29.834,12.63,29.646,12.818z M31.5,16c0,0.401-0.156,0.777-0.439,1.061
		c-0.584,0.585-1.537,0.585-2.121,0C28.656,16.777,28.5,16.401,28.5,16c0-0.401,0.156-0.777,0.439-1.061L30,13.878l1.061,1.061
		C31.344,15.223,31.5,15.599,31.5,16z"></path>
	<path d="M38.5,16c0-0.668-0.26-1.296-0.732-1.768l-1.414-1.415c-0.188-0.188-0.52-0.188-0.707,0l-1.414,1.415
		C33.76,14.705,33.5,15.332,33.5,16c0,0.668,0.26,1.296,0.732,1.768c0.487,0.487,1.127,0.731,1.768,0.731
		c0.64,0,1.28-0.244,1.768-0.731C38.24,17.296,38.5,16.668,38.5,16z M37.061,17.061c-0.584,0.585-1.537,0.585-2.121,0
		C34.656,16.777,34.5,16.401,34.5,16c0-0.401,0.156-0.777,0.439-1.061L36,13.878l1.061,1.061C37.344,15.223,37.5,15.599,37.5,16
		C37.5,16.401,37.344,16.777,37.061,17.061z"></path>
	<polygon points="38,9 25,9 25,7 23,7 23,9 10,9 10,11 38,11"></polygon>
	<path d="M35.44,28.008c-0.466-0.008-0.922-0.117-1.317-0.314l-2.002-1.001C31.68,25.98,30.898,25.5,30,25.5
		c-0.075,0-0.146,0.016-0.219,0.022l-1.033-0.516c-1.377-0.688-2.844-1.192-4.347-1.528C24.188,22.908,23.643,22.5,23,22.5
		c-0.477,0-0.897,0.228-1.172,0.576C21.303,23.031,20.777,23,20.251,23h-3.963c-0.387-0.881-1.265-1.5-2.288-1.5
		s-1.901,0.619-2.288,1.5H9.539c-0.834,0-1.669,0.197-2.415,0.57C6.122,24.072,5.5,25.078,5.5,26.197
		c0,0.25-0.098,0.486-0.274,0.663l-1.519,1.519C2.929,29.158,2.5,30.193,2.5,31.293c0,0.189-0.073,0.366-0.207,0.5
		C1.781,32.304,1.5,32.984,1.5,33.707v1.675c0,1.379,0.767,2.619,2,3.236C4,38.868,4.56,39,5.118,39h0.596
		C6.577,40.486,8.16,41.5,10,41.5s3.423-1.014,4.286-2.5h19.428c0.863,1.486,2.446,2.5,4.286,2.5s3.423-1.014,4.286-2.5h1.507
		c0.723,0,1.402-0.282,1.914-0.793s0.793-1.191,0.793-1.914V33C46.5,29.817,42.779,28.138,35.44,28.008z M21,29.5
		c0.827,0,1.5,0.673,1.5,1.5s-0.673,1.5-1.5,1.5s-1.5-0.673-1.5-1.5S20.173,29.5,21,29.5z M22.485,29
		c-0.375-0.28-0.83-0.452-1.325-0.484l-0.375-1.502c2.174,0.093,4.332,0.649,6.278,1.622l0.627,0.314
		c0.007,0.017,0.015,0.034,0.022,0.051H22.485z M28.5,28c0-0.827,0.673-1.5,1.5-1.5s1.5,0.673,1.5,1.5s-0.673,1.5-1.5,1.5
		S28.5,28.827,28.5,28z M23,23.5c0.275,0,0.5,0.224,0.5,0.5s-0.225,0.5-0.5,0.5s-0.5-0.224-0.5-0.5S22.725,23.5,23,23.5z
		 M21.981,25.095C22.25,25.344,22.606,25.5,23,25.5c0.23,0,0.445-0.056,0.64-0.149c1.451,0.296,2.865,0.773,4.189,1.433
		c-0.164,0.292-0.269,0.617-0.304,0.965l-0.016-0.008C25.22,26.596,22.694,26,20.134,26c-0.322,0-0.559,0.303-0.48,0.615l0.51,2.039
		c-0.326,0.117-0.621,0.295-0.868,0.527l-0.702-2.806C18.539,26.155,18.341,26,18.113,26h-2.628c0.347-0.258,0.627-0.599,0.803-1
		h3.963C20.829,25,21.406,25.035,21.981,25.095z M12.11,29c-0.165-0.183-0.373-0.323-0.61-0.408v-0.178L12.914,27h4.805l0.5,2H12.11
		z M11,29.5c0.275,0,0.5,0.224,0.5,0.5s-0.225,0.5-0.5,0.5s-0.5-0.224-0.5-0.5S10.725,29.5,11,29.5z M14,22.5
		c0.827,0,1.5,0.673,1.5,1.5s-0.673,1.5-1.5,1.5s-1.5-0.673-1.5-1.5S13.173,22.5,14,22.5z M10,39.5c-1.654,0-3-1.346-3-3
		s1.346-3,3-3s3,1.346,3,3S11.654,39.5,10,39.5z M38,39.5c-1.654,0-3-1.346-3-3s1.346-3,3-3s3,1.346,3,3S39.654,39.5,38,39.5z
		 M44.5,36.293c0,0.189-0.073,0.366-0.207,0.5C44.159,36.926,43.981,37,43.793,37h-1.844C41.971,36.834,42,36.671,42,36.5
		c0-2.206-1.794-4-4-4s-4,1.794-4,4c0,0.171,0.029,0.334,0.051,0.5H13.949C13.971,36.834,14,36.671,14,36.5c0-2.206-1.794-4-4-4
		s-4,1.794-4,4c0,0.171,0.029,0.334,0.051,0.5H5.118c-0.25,0-0.5-0.059-0.724-0.171C3.843,36.553,3.5,35.999,3.5,35.382v-1.675
		c0-0.189,0.073-0.366,0.207-0.5C4.219,32.696,4.5,32.016,4.5,31.293c0-0.558,0.227-1.105,0.621-1.5l1.519-1.519
		c0.555-0.555,0.86-1.292,0.86-2.077c0-0.357,0.199-0.678,0.519-0.838C8.488,25.124,9.014,25,9.539,25h2.173
		c0.182,0.415,0.475,0.769,0.84,1.03c-0.073,0.024-0.142,0.059-0.197,0.115l-1.71,1.71c-0.093,0.093-0.145,0.219-0.145,0.35v0.387
		c-0.581,0.207-1,0.757-1,1.408c0,0.827,0.673,1.5,1.5,1.5s1.5-0.673,1.5-1.5h6.212c-0.135,0.307-0.212,0.644-0.212,1
		c0,1.378,1.121,2.5,2.5,2.5s2.5-1.122,2.5-2.5c0-0.356-0.077-0.693-0.212-1h5.227c0.417,0.31,0.927,0.5,1.485,0.5
		c1.019,0,1.894-0.614,2.283-1.49l0.946,0.473c0.661,0.331,1.415,0.512,2.178,0.525C41.186,30.11,44.5,31.201,44.5,33V36.293z"></path>
</g>
</svg>
