<svg version="1.1" id="Layer_1" xmlns="http://www.w3.org/2000/svg" xmlns:xlink="http://www.w3.org/1999/xlink" x="0px" y="0px" viewBox="0 0 48 48" style="enable-background:new 0 0 48 48;" xml:space="preserve">
<g>
	<path d="M14.997,23.007c0.976-3.885,3.995-6.905,7.88-7.88c0.351-0.088,0.671-0.27,0.927-0.525l1.99-1.989
		c0.422-0.422,0.633-1.01,0.577-1.604l-0.28-2.936l0.537-0.537c0.78-0.781,0.78-2.047-0.001-2.828l-2.121-2.121
		C24.116,2.195,23.604,2,23.092,2s-1.023,0.195-1.414,0.586L21.214,3.05C11.93,4.81,4.695,12.044,2.93,21.334l-0.344,0.344
		c-0.781,0.781-0.781,2.047,0,2.828l2.121,2.121c0.375,0.375,0.884,0.586,1.414,0.586s1.039-0.211,1.415-0.586l0.592-0.592
		l2.937,0.279c0.063,0.006,0.126,0.009,0.189,0.009c0.527,0,1.037-0.209,1.414-0.586l1.803-1.803
		C14.727,23.679,14.908,23.358,14.997,23.007z M11.254,24.324L7.38,23.955l-1.259,1.258L4,23.092l0.79-0.79
		C6.226,13.385,13.264,6.341,22.182,4.91L23.092,4l2.121,2.121l-1.202,1.203l0.369,3.874l-1.99,1.989
		c-4.577,1.149-8.184,4.756-9.333,9.333L11.254,24.324z"></path>
	<path d="M11.848,12.554c-0.197-0.197-0.459-0.297-0.719-0.297c-0.272,0-0.542,0.109-0.733,0.331
		c-2.208,2.548-3.724,5.569-4.428,8.859c-0.118,0.552,0.271,1.088,0.827,1.178l3.579,0.578c0.054,0.009,0.106,0.013,0.159,0.013
		c0.264,0,0.519-0.104,0.707-0.293l0.744-0.744c0.114-0.114,0.196-0.256,0.241-0.412c0.525-1.793,1.415-3.46,2.605-4.904
		c0.336-0.407,0.33-0.994-0.043-1.367L11.848,12.554z M11.277,21.471l-0.744,0.744l-3.588-0.559
		c0.671-3.137,2.086-5.968,4.183-8.399l0.001,0l0.012,0.004l2.919,2.965C12.77,17.791,11.829,19.561,11.277,21.471z"></path>
	<path d="M21.844,12.149c0.155-0.045,0.298-0.127,0.412-0.241l0.743-0.744c0.228-0.227,0.332-0.549,0.28-0.866l-0.577-3.58
		c-0.079-0.489-0.503-0.849-0.979-0.849c-0.065,0-0.133,0.007-0.199,0.021c-3.29,0.704-6.312,2.22-8.859,4.428
		c-0.432,0.375-0.438,1.048-0.033,1.452l2.94,2.941c0.193,0.193,0.443,0.287,0.696,0.287c0.235,0,0.475-0.083,0.671-0.245
		C18.384,13.563,20.051,12.674,21.844,12.149z M13.32,11.074c2.44-2.115,5.265-3.528,8.395-4.202v0.005l0.577,3.58l-0.729,0.732
		c-1.926,0.564-3.695,1.503-5.284,2.815L13.32,11.074z"></path>
	<path d="M26,22c-6.617,0-12,5.389-12,12.012s5.383,12.012,12,12.012s12-5.389,12-12.012S32.617,22,26,22z M23.897,24.227
		c0.066-0.014,0.132-0.027,0.198-0.04c0.236-0.046,0.476-0.081,0.718-0.11c0.082-0.01,0.164-0.022,0.247-0.03
		C25.368,24.019,25.679,24,25.995,24c0.001,0,0.003,0,0.005,0s0.004,0,0.005,0c0.316,0,0.627,0.018,0.935,0.047
		c0.083,0.008,0.165,0.02,0.247,0.03c0.242,0.029,0.482,0.064,0.718,0.11c0.066,0.013,0.132,0.026,0.198,0.04
		c3.595,0.774,6.473,3.487,7.493,6.989c-0.006,0.182-0.073,0.33-0.146,0.43c-0.165,0.227-0.432,0.368-0.696,0.368
		c-0.144,0-0.286-0.042-0.421-0.125c-0.291-0.179-0.589-0.368-0.894-0.561c-2.03-1.288-4.556-2.89-7.44-2.89s-5.41,1.602-7.44,2.89
		c-0.305,0.193-0.603,0.382-0.894,0.561c-0.135,0.083-0.277,0.125-0.421,0.125c-0.264,0-0.531-0.141-0.696-0.368
		c-0.072-0.1-0.139-0.247-0.146-0.43C17.424,27.714,20.302,25.001,23.897,24.227z M23.375,43.138
		c-0.163,0.198-0.411,0.316-0.664,0.316c-0.001,0-0.003-0.001-0.004-0.001c-2.711-0.951-4.892-3.032-5.969-5.684
		c-0.016-0.246,0.081-0.436,0.136-0.521c0.074-0.113,0.289-0.375,0.694-0.375h1.888c0.946,0,1.872,0.385,2.537,1.055l0.045,0.046
		c0.492,0.496,0.825,1.12,0.962,1.805l0.537,2.683C23.601,42.78,23.484,43.005,23.375,43.138z M24.089,43.835
		c0.361-0.401,0.551-0.958,0.429-1.569l-0.537-2.683c-0.175-0.875-0.604-1.679-1.233-2.313l-0.044-0.045
		c-0.859-0.865-2.028-1.352-3.248-1.352h-1.888c-0.508,0-0.948,0.201-1.271,0.515C16.11,35.626,16,34.832,16,34.012
		c0-0.477,0.045-0.943,0.11-1.402c0.32,0.251,0.718,0.403,1.136,0.403c0.313,0,0.637-0.084,0.944-0.273
		c2.214-1.36,4.818-3.303,7.81-3.303s5.596,1.943,7.81,3.303c0.307,0.189,0.631,0.273,0.944,0.273c0.418,0,0.815-0.153,1.136-0.403
		c0.065,0.459,0.11,0.925,0.11,1.402c0,0.821-0.11,1.614-0.297,2.378c-0.323-0.314-0.763-0.515-1.271-0.515h-1.878
		c-1.226,0-2.401,0.489-3.265,1.359l-0.037,0.038c-0.629,0.634-1.058,1.438-1.233,2.313l-0.537,2.683
		c-0.122,0.611,0.068,1.168,0.429,1.569c-0.619,0.121-1.257,0.188-1.911,0.188S24.708,43.956,24.089,43.835z M29.293,43.454
		c-0.001,0-0.002,0.001-0.004,0.001c-0.253,0-0.501-0.118-0.664-0.316c-0.109-0.133-0.226-0.359-0.163-0.675L29,39.78
		c0.137-0.685,0.47-1.309,0.964-1.807l0.035-0.035c0.671-0.676,1.603-1.064,2.556-1.064h1.878c0.405,0,0.621,0.262,0.694,0.375
		c0.055,0.085,0.152,0.276,0.136,0.521C34.185,40.422,32.004,42.503,29.293,43.454z"></path>
	<path d="M29.25,34.035c0-1.791-1.458-3.247-3.25-3.247s-3.25,1.457-3.25,3.247s1.458,3.247,3.25,3.247S29.25,35.825,29.25,34.035z
		 M26,36.282c-1.24,0-2.25-1.008-2.25-2.247s1.01-2.247,2.25-2.247s2.25,1.008,2.25,2.247S27.24,36.282,26,36.282z"></path>
	<path d="M36.423,9.738l-2.974-6.077l-0.898,0.439l2.974,6.077c0.356,0.729,0.67,1.484,0.932,2.248l2.194,6.4l0.945-0.324
		l-2.194-6.4C37.127,11.299,36.798,10.504,36.423,9.738z"></path>
	<path d="M45.88,24.524c-0.249-0.602-0.848-0.949-1.462-0.918l-2.5-6.034L40.46,12.27c-0.462-1.679-1.132-3.298-1.993-4.813
		l-2.75-4.835L33.979,3.61l2.75,4.834c0.778,1.371,1.386,2.835,1.804,4.355l1.475,5.363l0.964-0.265l2.525,6.096
		c-0.163,0.147-0.301,0.32-0.388,0.529c-0.153,0.371-0.153,0.779,0,1.148c0.153,0.371,0.441,0.659,0.812,0.812
		c0.185,0.077,0.38,0.115,0.574,0.115s0.389-0.039,0.574-0.115C45.832,26.167,46.196,25.288,45.88,24.524z M44.686,25.56
		c-0.123,0.051-0.26,0.051-0.383,0c-0.123-0.051-0.22-0.147-0.271-0.271c-0.052-0.123-0.052-0.259,0-0.382
		c0.051-0.124,0.147-0.22,0.27-0.271c0.062-0.025,0.128-0.038,0.191-0.038c0.196,0,0.383,0.116,0.463,0.308
		C45.062,25.161,44.939,25.454,44.686,25.56z"></path>
</g>
</svg>
