<svg version="1.1" id="Layer_1" xmlns="http://www.w3.org/2000/svg" xmlns:xlink="http://www.w3.org/1999/xlink" x="0px" y="0px" viewBox="0 0 48 48" style="enable-background:new 0 0 48 48;" xml:space="preserve">
<g>
	<path d="M24,9.5c-3.645,0-6.5,6.369-6.5,14.5s2.855,14.5,6.5,14.5s6.5-6.369,6.5-14.5S27.645,9.5,24,9.5z M24,37.5
		c-2.178,0-4.104-3.306-4.987-7.938C19.335,27.8,19.5,25.931,19.5,24c0-1.918-0.161-3.782-0.479-5.538l-0.013,0.002
		c0.88-4.646,2.81-7.964,4.992-7.964c2.981,0,5.5,6.182,5.5,13.5S26.981,37.5,24,37.5z"></path>
	<path d="M46.5,14c0-3.584-2.916-6.5-6.5-6.5s-6.5,2.916-6.5,6.5c0,2.886,1.892,5.336,4.5,6.182V22c0,0.827,0.672,1.499,1.499,1.5
		c-0.019,11.191-0.726,12.814-7.836,12.983C33.148,32.907,34,28.579,34,23.999c0-9.063-3.377-17.257-8.405-20.389
		C24.051,2.647,20.999,2,18,2s-6.051,0.647-7.595,1.609C5.377,6.742,2,14.936,2,23.999c0,9.28,3.487,17.54,8.678,20.554
		C12.192,45.432,15.066,46,18,46s5.808-0.568,7.322-1.448c2.382-1.383,4.398-3.879,5.891-7.064
		c8.182-0.145,9.258-2.019,9.286-13.989H40.5c0.827,0,1.5-0.673,1.5-1.5v-1.818C44.608,19.336,46.5,16.886,46.5,14z M23.5,41.5
		c-4.687,0-8.5-7.851-8.5-17.5s3.813-17.5,8.5-17.5c2.885,0,5.435,2.98,6.972,7.518c0.103,0.314,0.203,0.632,0.296,0.956
		c0.021,0.07,0.042,0.14,0.062,0.211c0.246,0.876,0.456,1.786,0.628,2.725c0.002,0.014,0.005,0.027,0.007,0.041
		c0.081,0.449,0.153,0.906,0.216,1.367c0.012,0.089,0.022,0.179,0.034,0.269c0.051,0.397,0.097,0.798,0.135,1.203
		c0.02,0.22,0.034,0.443,0.049,0.666c0.022,0.297,0.046,0.593,0.06,0.894C31.984,22.892,32,23.442,32,23.999c0,0.005,0,0.01,0,0.016
		c0,0.561-0.015,1.115-0.041,1.663c-0.013,0.266-0.035,0.526-0.053,0.789c-0.019,0.274-0.036,0.55-0.061,0.82
		c-0.032,0.337-0.072,0.67-0.113,1.001c-0.023,0.183-0.043,0.367-0.069,0.548c-0.051,0.36-0.109,0.715-0.171,1.067
		c-0.026,0.151-0.052,0.302-0.08,0.451c-0.064,0.338-0.135,0.671-0.209,1.001c-0.042,0.184-0.084,0.367-0.128,0.547
		c-0.062,0.255-0.129,0.506-0.197,0.756c-0.094,0.338-0.19,0.674-0.295,0.998c-0.018,0.058-0.036,0.115-0.055,0.173
		C28.996,38.455,26.418,41.5,23.5,41.5z M18,44c-2.948,0-5.341-0.61-6.318-1.177C7.087,40.155,4,32.59,4,23.999
		C4,15.6,6.999,8.088,11.462,5.307C12.504,4.657,15.084,4,18,4s5.496,0.657,6.538,1.307c0.249,0.155,0.492,0.33,0.731,0.514
		C24.696,5.618,24.107,5.5,23.5,5.5C18.173,5.5,14,13.626,14,24s4.173,18.5,9.5,18.5c0.606,0,1.194-0.118,1.766-0.32
		c-0.309,0.236-0.623,0.454-0.947,0.642C23.341,43.39,20.948,44,18,44z M43.536,16.829l-0.707,0.707l0.688,0.688
		C42.563,19.02,41.337,19.5,40,19.5s-2.563-0.48-3.517-1.276l0.688-0.688l-0.707-0.707l-0.688,0.688
		c-0.695-0.834-1.147-1.875-1.251-3.017H35.5v-1h-0.975c0.104-1.141,0.555-2.183,1.251-3.017l0.688,0.688l0.707-0.707l-0.688-0.688
		c0.834-0.695,1.875-1.147,3.017-1.251V9.5h1V8.525c1.141,0.104,2.183,0.555,3.017,1.251l-0.688,0.688l0.707,0.707l0.688-0.688
		c0.695,0.834,1.147,1.875,1.251,3.017H44.5v1h0.975c-0.104,1.141-0.555,2.183-1.251,3.017L43.536,16.829z M41,22
		c0,0.276-0.224,0.5-0.5,0.5h-1c-0.276,0-0.5-0.224-0.5-0.5v-1.585c0.327,0.051,0.659,0.085,1,0.085s0.673-0.034,1-0.085V22z"></path>
	<path d="M41.157,10.139l-1.272,2.885c-0.339,0.041-0.651,0.238-0.799,0.573c-0.223,0.505,0.006,1.096,0.511,1.319
		c0.505,0.223,1.096-0.006,1.319-0.511c0.148-0.335,0.082-0.699-0.116-0.976l1.273-2.885L41.157,10.139z"></path>
</g>
</svg>
