<svg viewBox="0 0 48 48" version="1.1" xmlns="http://www.w3.org/2000/svg" id="Layer_1">
  
  <path d="M8.056,23.346c-.023-.279-.026-.563-.035-.846h6.42c.003.172.003.345.008.515l.999-.031c-.005-.16-.005-.323-.007-.484h8.059v.865h1v-.865h8.048c-.022,1.418-.125,2.821-.334,4.173l.988.153c.217-1.403.323-2.857.346-4.327h6.429c-.058,1.877-.422,3.707-1.116,5.441l1.857.743c.851-2.126,1.282-4.375,1.282-6.685,0-9.925-8.075-18-18-18S6,12.075,6,22c0,.509.021,1.013.062,1.511l1.993-.165ZM39.975,21.5h-6.422c-.035-2.28-.304-4.454-.774-6.438h5.617c.948,1.959,1.507,4.136,1.579,6.438ZM37.873,14.062h-5.358c-.87-3.109-2.228-5.686-3.895-7.376,3.943,1.192,7.238,3.869,9.253,7.376ZM24.5,6.025c.673.021,1.334.085,1.984.188,2.156,1.261,3.954,4.115,5.022,7.85h-7.006V6.025ZM24.5,15.062h7.262c.477,1.969.756,4.143.792,6.438h-8.054v-6.438ZM23.5,21.5h-8.054c.036-2.295.315-4.469.792-6.438h7.262v6.438ZM21.516,6.213c.65-.102,1.311-.167,1.984-.188v8.037h-7.006c1.069-3.735,2.867-6.589,5.022-7.85ZM19.38,6.687c-1.667,1.69-3.025,4.267-3.895,7.376h-5.358c2.015-3.507,5.31-6.184,9.253-7.376ZM9.604,15.062h5.617c-.47,1.983-.739,4.157-.774,6.438h-6.422c.072-2.302.631-4.478,1.579-6.438Z"></path>
  <path d="M18.594,28.375c-.055-.22-.253-.375-.48-.375h-5.408c-.131,0-.257.052-.35.145l-1.71,1.71c-.093.093-.145.219-.145.35v1.3c0,.273.222.495.495.495h7.871c.322,0,.559-.303.48-.615l-.752-3.01ZM11.5,31v-.586l1.414-1.414h4.805l.5,2h-6.719Z"></path>
  <path d="M30.151,31.062l-2.642-1.321c-2.29-1.145-4.815-1.741-7.375-1.741-.322,0-.559.303-.48.615l.752,3.01c.055.22.253.375.48.375h9.043c.522,0,.688-.704.221-.938ZM21.281,31l-.497-1.986c2.174.093,4.332.649,6.278,1.622l.729.364h-6.511Z"></path>
  <path d="M10,36.5c-1.103,0-2,.897-2,2s.897,2,2,2,2-.897,2-2-.897-2-2-2ZM10,39.5c-.552,0-1-.449-1-1s.448-1,1-1,1,.449,1,1-.448,1-1,1Z"></path>
  <path d="M38,36.5c-1.103,0-2,.897-2,2s.897,2,2,2,2-.897,2-2-.897-2-2-2ZM38,39.5c-.552,0-1-.449-1-1s.448-1,1-1,1,.449,1,1-.448,1-1,1Z"></path>
  <path d="M35.442,30.008c-.468-.008-.924-.117-1.319-.314l-5.375-2.688c-2.624-1.312-5.562-2.006-8.497-2.006h-10.712c-.833,0-1.668.197-2.415.57-1.002.5-1.624,1.507-1.624,2.627,0,.25-.098.486-.274.663l-1.519,1.519c-.778.778-1.207,1.813-1.207,2.914,0,.189-.074.366-.207.5-.512.512-.793,1.191-.793,1.914v1.675c0,1.379.767,2.62,2,3.236.5.25,1.06.382,1.618.382h.596c.863,1.486,2.446,2.5,4.286,2.5s3.423-1.014,4.286-2.5h19.428c.863,1.486,2.446,2.5,4.286,2.5s3.423-1.014,4.286-2.5h1.507c.724,0,1.403-.282,1.914-.793.512-.512.793-1.191.793-1.914v-3.293c0-3.183-3.721-4.863-11.058-4.992ZM10,41.5c-1.654,0-3-1.346-3-3s1.346-3,3-3,3,1.346,3,3-1.346,3-3,3ZM38,41.5c-1.654,0-3-1.346-3-3s1.346-3,3-3,3,1.346,3,3-1.346,3-3,3ZM44.5,38.293c0,.189-.074.366-.207.5-.134.134-.311.207-.5.207h-1.844c.021-.166.051-.329.051-.5,0-2.206-1.794-4-4-4s-4,1.794-4,4c0,.171.029.334.051.5H13.949c.021-.166.051-.329.051-.5,0-2.206-1.794-4-4-4s-4,1.794-4,4c0,.171.029.334.051.5h-.933c-.25,0-.5-.059-.724-.171-.552-.276-.895-.83-.895-1.447v-1.675c0-.189.074-.366.207-.5.512-.512.793-1.191.793-1.914,0-.566.221-1.099.622-1.5l1.518-1.519c.555-.555.86-1.292.86-2.077,0-.357.198-.679.518-.838.47-.235.996-.359,1.521-.359h10.712c2.626,0,5.255.621,7.603,1.795l5.375,2.688c.661.33,1.414.512,2.178.525,5.779.102,9.094,1.192,9.094,2.992v3.293Z"></path>
</svg>