<svg viewBox="0 0 48 48" version="1.1" xmlns="http://www.w3.org/2000/svg" id="Layer_1">
  
  <path d="M7.019,16.038L23.57,7.728c.281-.141.616-.141.897,0l2.037,1.023c-.948,1.528-1.505,3.323-1.505,5.249h0c0,.295.021.608.052.929.012.131.027.26.044.389.496,3.788,3.042,9.069,8,13.039.534.428,1.219.641,1.904.641s1.371-.214,1.904-.641c1.63-1.305,2.992-2.753,4.114-4.242v3.885h2v-7.034c1.051-2.014,1.666-3.975,1.885-5.648.017-.129.032-.259.044-.389.031-.321.052-.634.052-.928h0c0-5.515-4.486-10-10-10-2.856,0-5.43,1.21-7.253,3.137l-2.381-1.196c-.843-.424-1.85-.424-2.692,0L6.121,14.251c-.68.342-1.103,1.027-1.103,1.787v6.962h2v-6.962ZM27,14h0c0-4.411,3.589-8,8-8s8,3.589,8,8h0c0,2.78-1.956,8.481-7.346,12.795-.342.274-.966.275-1.309,0-5.39-4.314-7.346-10.016-7.346-12.795h0Z"></path>
  <path d="M39.1,14c0-2.261-1.839-4.1-4.1-4.1s-4.1,1.839-4.1,4.1,1.839,4.1,4.1,4.1,4.1-1.839,4.1-4.1ZM31.9,14c0-1.709,1.391-3.1,3.1-3.1s3.1,1.391,3.1,3.1-1.391,3.1-3.1,3.1-3.1-1.391-3.1-3.1Z"></path>
  <path d="M18.594,28.375c-.055-.22-.253-.375-.48-.375h-5.408c-.131,0-.257.052-.35.145l-1.71,1.71c-.093.093-.145.219-.145.35v1.3c0,.273.222.495.495.495h7.871c.322,0,.559-.303.48-.615l-.752-3.01ZM11.5,31v-.586l1.414-1.414h4.805l.5,2h-6.719Z"></path>
  <path d="M30.151,31.062l-2.642-1.321c-2.29-1.145-4.815-1.741-7.375-1.741-.322,0-.559.303-.48.615l.752,3.01c.055.22.253.375.48.375h9.043c.522,0,.688-.704.221-.938ZM21.281,31l-.497-1.986c2.174.093,4.332.649,6.278,1.622l.729.364h-6.511Z"></path>
  <path d="M10,36.5c-1.103,0-2,.897-2,2s.897,2,2,2,2-.897,2-2-.897-2-2-2ZM10,39.5c-.552,0-1-.449-1-1s.448-1,1-1,1,.449,1,1-.448,1-1,1Z"></path>
  <path d="M38,36.5c-1.103,0-2,.897-2,2s.897,2,2,2,2-.897,2-2-.897-2-2-2ZM38,39.5c-.552,0-1-.449-1-1s.448-1,1-1,1,.449,1,1-.448,1-1,1Z"></path>
  <path d="M35.442,30.008c-.468-.008-.924-.117-1.319-.314l-5.375-2.688c-2.624-1.312-5.562-2.006-8.497-2.006h-10.712c-.833,0-1.668.197-2.415.57-1.002.5-1.624,1.507-1.624,2.627,0,.25-.098.486-.274.663l-1.519,1.519c-.778.778-1.207,1.813-1.207,2.914,0,.189-.074.366-.207.5-.512.512-.793,1.191-.793,1.914v1.675c0,1.379.767,2.62,2,3.236.5.25,1.06.382,1.618.382h.596c.863,1.486,2.446,2.5,4.286,2.5s3.423-1.014,4.286-2.5h19.428c.863,1.486,2.446,2.5,4.286,2.5s3.423-1.014,4.286-2.5h1.507c.724,0,1.403-.282,1.914-.793.512-.512.793-1.191.793-1.914v-3.293c0-3.183-3.721-4.863-11.058-4.992ZM10,41.5c-1.654,0-3-1.346-3-3s1.346-3,3-3,3,1.346,3,3-1.346,3-3,3ZM38,41.5c-1.654,0-3-1.346-3-3s1.346-3,3-3,3,1.346,3,3-1.346,3-3,3ZM44.5,38.293c0,.189-.074.366-.207.5-.134.134-.311.207-.5.207h-1.844c.021-.166.051-.329.051-.5,0-2.206-1.794-4-4-4s-4,1.794-4,4c0,.171.029.334.051.5H13.949c.021-.166.051-.329.051-.5,0-2.206-1.794-4-4-4s-4,1.794-4,4c0,.171.029.334.051.5h-.933c-.25,0-.5-.059-.724-.171-.552-.276-.895-.83-.895-1.447v-1.675c0-.189.074-.366.207-.5.512-.512.793-1.191.793-1.914,0-.566.221-1.099.622-1.5l1.518-1.519c.555-.555.86-1.292.86-2.077,0-.357.198-.679.518-.838.47-.235.996-.359,1.521-.359h10.712c2.626,0,5.255.621,7.603,1.795l5.375,2.688c.661.33,1.414.512,2.178.525,5.779.102,9.094,1.192,9.094,2.992v3.293Z"></path>
</svg>