<svg version="1.1" id="Layer_1" xmlns="http://www.w3.org/2000/svg" xmlns:xlink="http://www.w3.org/1999/xlink" x="0px" y="0px" viewBox="0 0 48 48" style="enable-background:new 0 0 48 48;" xml:space="preserve">
<g>
	<path d="M31.5,11.5c0.551,0,1-0.448,1-1v-2c0-0.552-0.449-1-1-1h-15c-0.551,0-1,0.448-1,1v2c0,0.552,0.449,1,1,1h5v7.073
		c0,0.511,0.416,0.927,0.926,0.927H22.5v2.859l-0.621,0.155l0.242,0.971L22.5,23.39v0.969l-0.621,0.155l0.242,0.971L22.5,25.39
		v0.969l-0.621,0.155l0.242,0.971L22.5,27.39v0.969l-0.621,0.155l0.242,0.971L22.5,29.39v0.969l-0.621,0.155l0.242,0.971L22.5,31.39
		v0.969l-0.621,0.155l0.242,0.971L22.5,33.39v0.969l-0.621,0.155l0.242,0.971L22.5,35.39V38c0,0.077,0.018,0.154,0.053,0.224l1,2
		C23.638,40.392,23.811,40.5,24,40.5s0.362-0.107,0.447-0.276l1-2C25.482,38.154,25.5,38.077,25.5,38V34.64l0.621-0.155
		l-0.242-0.971L25.5,33.609V32.64l0.621-0.155l-0.242-0.971L25.5,31.609V30.64l0.621-0.155l-0.242-0.971L25.5,29.609V28.64
		l0.621-0.155l-0.242-0.971L25.5,27.609V26.64l0.621-0.155l-0.242-0.971L25.5,25.609V24.64l0.621-0.155l-0.242-0.971L25.5,23.609
		V22.64l0.621-0.155l-0.242-0.971L25.5,21.609V19.5h0.074c0.511,0,0.926-0.416,0.926-0.927V11.5H31.5z M16.5,8.5h15v2
		c0,0,0,0,0.001,0L31.5,11v-0.5H26h-4h-5.5V8.5z M24.5,37.882l-0.5,1l-0.5-1V35.14l1-0.25V37.882z M24.5,33.859l-1,0.25V33.14
		l1-0.25V33.859z M24.5,31.859l-1,0.25V31.14l1-0.25V31.859z M24.5,29.859l-1,0.25V29.14l1-0.25V29.859z M24.5,27.859l-1,0.25V27.14
		l1-0.25V27.859z M24.5,25.859l-1,0.25V25.14l1-0.25V25.859z M24.5,23.859l-1,0.25V23.14l1-0.25V23.859z M24.5,21.859l-1,0.25V19.5
		h1V21.859z M25.5,18.5h-3v-7h3V18.5z"></path>
	<path d="M18,23h-1c0-0.553-0.448-1-1-1h-3.5c-0.552,0-1,0.447-1,1h-1c-0.005-0.266-0.116-0.519-0.309-0.703
		c-0.197-0.189-0.471-0.295-0.735-0.276C2.886,22.308,2,28.238,2,34v6h2v-3.866C4,33.468,6.131,32,10,32h10.5v-2h0v-0.207L20.293,30
		h-1.586l1.793-1.793v-1.414L17.293,30h-1.586l4.793-4.793V24h0v-2H19C18.448,22,18,22.447,18,23z M8.077,24.216l-3.281,3.281
		C5.489,25.49,6.613,24.576,8.077,24.216z M4.108,31.185c0.053-0.655,0.124-1.259,0.217-1.803l4.588-4.588
		C9.079,24.917,9.277,25,9.5,25h0.793L4.108,31.185z M6.122,30.585L11.707,25H12.5c0.552,0,1-0.447,1-1h0.793l-6.112,6.112
		C7.432,30.208,6.747,30.369,6.122,30.585z M10,30c-0.103,0-0.2,0.007-0.302,0.009l5.477-5.477C15.353,24.807,15.648,25,16,25h0.293
		l-5,5H10z M14.293,30h-1.586l5-5H19c0.13,0,0.253-0.029,0.367-0.074L14.293,30z"></path>
	<path d="M38.544,22.02c-0.265-0.012-0.538,0.088-0.735,0.276C37.616,22.481,37.505,22.734,37.5,23h-1c0-0.553-0.448-1-1-1H32
		c-0.552,0-1,0.447-1,1h-1c0-0.553-0.448-1-1-1h-1.5v2h0v0.207L27.707,24H28c0,0.352,0.193,0.647,0.468,0.825L27.5,25.793v1.414
		L29.707,25h1.586L27.5,28.793V30h0v2H38c3.869,0,6,1.468,6,4.134V40h2v-6C46,28.238,45.114,22.308,38.544,22.02z M27.707,30l6-6
		H34.5c0,0.223,0.087,0.417,0.209,0.583L29.293,30H27.707z M30.707,30l5-5h1.586l-5,5H30.707z M33.707,30l5.047-5.047
		c0.343-0.092,0.603-0.354,0.696-0.696l0.117-0.117c0.432,0.079,0.835,0.202,1.211,0.374L35.293,30H33.707z M38,30h-1.293
		l4.941-4.941c0.276,0.227,0.53,0.5,0.76,0.826l-4.124,4.124C38.189,30.006,38.097,30,38,30z M39.616,30.091l3.304-3.304
		c0.159,0.345,0.303,0.727,0.429,1.157l-2.381,2.381C40.541,30.224,40.092,30.144,39.616,30.091z M43.143,31.15
		c-0.335-0.19-0.692-0.362-1.08-0.506l1.556-1.556c0.081,0.427,0.154,0.878,0.21,1.376L43.143,31.15z"></path>
</g>
</svg>
