<svg version="1.1" id="Layer_1" xmlns="http://www.w3.org/2000/svg" xmlns:xlink="http://www.w3.org/1999/xlink" x="0px" y="0px" viewBox="0 0 48 48" style="enable-background:new 0 0 48 48;" xml:space="preserve">
<g>
	<path d="M34,12.5c-0.319,0-0.633,0.016-0.944,0.042c-1.506-4.103-3.767-7.254-6.461-8.932C25.05,2.646,21.998,2,19,2
		s-6.05,0.646-7.595,1.609C6.377,6.741,3,14.935,3,23.999c0,9.279,3.487,17.539,8.678,20.554C13.193,45.432,16.068,46,19,46
		s5.807-0.568,7.322-1.447c2.818-1.636,5.174-4.846,6.733-9.094C33.366,35.484,33.68,35.5,34,35.5c6.34,0,11.5-5.16,11.5-11.5
		C45.5,17.66,40.34,12.5,34,12.5z M20.021,18.462l-0.013,0.002c0.88-4.646,2.81-7.964,4.992-7.964c1.459,0,2.923,1.601,3.97,4.287
		c-3.256,1.785-5.469,5.244-5.469,9.212c0,3.968,2.213,7.428,5.469,9.213C27.924,35.898,26.46,37.5,25,37.5
		c-2.178,0-4.105-3.307-4.987-7.938C20.334,27.801,20.5,25.931,20.5,24C20.5,22.081,20.339,20.218,20.021,18.462z M24.897,26.699
		c0.429-0.08,0.868-0.117,1.309-0.091c1.001,0.053,1.919-0.27,2.567-0.917l4.203-4.203l3.535,3.536l-4.202,4.202
		c-0.647,0.646-0.974,1.559-0.917,2.568c0.025,0.438-0.011,0.876-0.091,1.308C28.232,32.19,25.81,29.769,24.897,26.699z
		 M39.259,21.569l-0.064,0.064l-3.394-2.263l0.629-0.629L39.259,21.569z M34.123,21.221l3.291,2.194l-0.549,0.549L34.123,21.221z
		 M35.08,20.091l3.394,2.263l-0.34,0.34l-3.394-2.263L35.08,20.091z M32.39,31.739c-0.04-0.721,0.183-1.362,0.626-1.806l4.909-4.909
		l-0.353-0.354l3.102-3.102l-1.414-1.414l0.434-0.434l-1.414-1.414l-0.435,0.435l-1.414-1.414l-3.101,3.101l-0.354-0.354l-4.91,4.91
		c-0.444,0.443-1.084,0.663-1.805,0.626c-0.536-0.029-1.072,0.013-1.595,0.114c-0.103-0.56-0.165-1.135-0.165-1.725
		c0-5.238,4.262-9.5,9.5-9.5s9.5,4.262,9.5,9.5s-4.262,9.5-9.5,9.5c-0.59,0-1.165-0.061-1.725-0.165
		C32.377,32.809,32.42,32.273,32.39,31.739z M31.389,13.841c-0.522,0.134-1.032,0.298-1.52,0.508C28.651,11.269,26.899,9.5,25,9.5
		c-3.645,0-6.5,6.369-6.5,14.5s2.855,14.5,6.5,14.5c1.899,0,3.652-1.77,4.87-4.85c0.488,0.21,0.998,0.373,1.52,0.508
		c-1.614,4.606-4.166,7.343-6.89,7.343c-4.687,0-8.5-7.851-8.5-17.5s3.813-17.5,8.5-17.5C27.224,6.5,29.775,9.236,31.389,13.841z
		 M19,44c-2.947,0-5.341-0.61-6.318-1.178C8.087,40.154,5,32.59,5,23.999C5,15.6,7.999,8.087,12.462,5.307
		C13.505,4.657,16.085,4,19,4s5.495,0.657,6.538,1.307c0.238,0.148,0.469,0.325,0.7,0.502C25.671,5.607,25.09,5.5,24.5,5.5
		C19.173,5.5,15,13.626,15,24s4.173,18.5,9.5,18.5c0.597,0,1.184-0.109,1.756-0.314c-0.307,0.237-0.62,0.451-0.938,0.636
		C24.341,43.39,21.947,44,19,44z"></path>
</g>
</svg>
