<svg version="1.1" id="Layer_1" xmlns="http://www.w3.org/2000/svg" xmlns:xlink="http://www.w3.org/1999/xlink" x="0px" y="0px" viewBox="0 0 48 48" style="enable-background:new 0 0 48 48;" xml:space="preserve">
<g>
	<path d="M13.312,24h5.728c0.553,0,1-0.448,1-1v-9.625l2.79-6.974C22.926,6.157,23.158,6,23.42,6h0.528
		c0.352,0,0.637,0.286,0.637,0.636v4.091c0,0.552,0.447,1,1,1h5.262c0.655,0,1.278,0.283,1.71,0.776
		c0.432,0.493,0.63,1.148,0.543,1.797l-0.764,5.727C32.186,21.152,31.218,22,30.083,22h-8.589v2h8.589
		c2.133,0,3.953-1.594,4.235-3.708l0.764-5.727c0.163-1.221-0.209-2.453-1.021-3.379c-0.812-0.927-1.983-1.458-3.215-1.458h-4.262
		V6.636C26.585,5.183,25.402,4,23.948,4H23.42c-1.084,0-2.045,0.65-2.448,1.657l-2.61,6.524h-5.05c-0.553,0-1,0.448-1,1V23
		C12.312,23.552,12.759,24,13.312,24z M14.312,14.182h3.728V22h-3.728V14.182z"></path>
	<path d="M20.5,31h-1c0,1.378-1.121,2.5-2.5,2.5v1c1.379,0,2.5,1.122,2.5,2.5h1c0-1.378,1.121-2.5,2.5-2.5v-1
		C21.621,33.5,20.5,32.378,20.5,31z M20,35.199c-0.296-0.49-0.708-0.903-1.199-1.199c0.491-0.295,0.903-0.708,1.199-1.199
		c0.296,0.49,0.708,0.903,1.199,1.199C20.708,34.295,20.296,34.708,20,35.199z"></path>
	<path d="M6.5,24h1c0-1.378,1.121-2.5,2.5-2.5v-1c-1.379,0-2.5-1.122-2.5-2.5h-1c0,1.378-1.121,2.5-2.5,2.5v1
		C5.379,21.5,6.5,22.622,6.5,24z M7,19.801c0.296,0.49,0.708,0.903,1.199,1.199C7.708,21.295,7.296,21.708,7,22.199
		C6.704,21.708,6.292,21.295,5.801,21C6.292,20.705,6.704,20.291,7,19.801z"></path>
	<path d="M34,24.5h2c1.379,0,2.5,1.122,2.5,2.5v2h1v-2c0-1.378,1.121-2.5,2.5-2.5h2v-1h-2c-1.379,0-2.5-1.122-2.5-2.5v-2h-1v2
		c0,1.378-1.121,2.5-2.5,2.5h-2V24.5z M39,22.801c0.296,0.49,0.708,0.903,1.199,1.199c-0.491,0.295-0.903,0.708-1.199,1.199
		c-0.296-0.49-0.708-0.903-1.199-1.199C38.292,23.705,38.704,23.291,39,22.801z"></path>
	<path d="M35.44,31.008c-0.466-0.008-0.922-0.117-1.317-0.314l-5.375-2.688C26.122,26.694,23.185,26,20.251,26H9.539
		c-0.834,0-1.669,0.197-2.415,0.57C6.122,27.072,5.5,28.078,5.5,29.197c0,0.25-0.098,0.486-0.274,0.663l-1.519,1.519
		C2.929,32.158,2.5,33.193,2.5,34.293c0,0.189-0.073,0.366-0.207,0.5C1.781,35.304,1.5,35.984,1.5,36.707v1.675
		c0,1.379,0.767,2.619,2,3.236C4,41.868,4.56,42,5.118,42h0.596C6.577,43.486,8.16,44.5,10,44.5s3.423-1.014,4.286-2.5h19.428
		c0.863,1.486,2.446,2.5,4.286,2.5s3.423-1.014,4.286-2.5h1.507c0.723,0,1.402-0.282,1.914-0.793s0.793-1.191,0.793-1.914V36
		C46.5,32.817,42.779,31.138,35.44,31.008z M10,42.5c-1.654,0-3-1.346-3-3s1.346-3,3-3s3,1.346,3,3S11.654,42.5,10,42.5z M38,42.5
		c-1.654,0-3-1.346-3-3s1.346-3,3-3s3,1.346,3,3S39.654,42.5,38,42.5z M44.5,39.293c0,0.189-0.073,0.366-0.207,0.5
		C44.159,39.926,43.981,40,43.793,40h-1.844C41.971,39.834,42,39.671,42,39.5c0-2.206-1.794-4-4-4s-4,1.794-4,4
		c0,0.171,0.029,0.334,0.051,0.5H13.949C13.971,39.834,14,39.671,14,39.5c0-2.206-1.794-4-4-4s-4,1.794-4,4
		c0,0.171,0.029,0.334,0.051,0.5H5.118c-0.25,0-0.5-0.059-0.724-0.171C3.843,39.553,3.5,38.999,3.5,38.382v-1.675
		c0-0.189,0.073-0.366,0.207-0.5C4.219,35.696,4.5,35.016,4.5,34.293c0-0.558,0.227-1.105,0.621-1.5l1.519-1.519
		c0.555-0.555,0.86-1.292,0.86-2.077c0-0.357,0.199-0.678,0.519-0.838C8.488,28.124,9.014,28,9.539,28h10.712
		c2.624,0,5.253,0.621,7.603,1.795l5.375,2.688c0.661,0.331,1.415,0.512,2.178,0.525C41.186,33.11,44.5,34.201,44.5,36V39.293z"></path>
</g>
</svg>
