<svg version="1.1" id="Layer_1" xmlns="http://www.w3.org/2000/svg" xmlns:xlink="http://www.w3.org/1999/xlink" x="0px" y="0px" viewBox="0 0 48 48" style="enable-background:new 0 0 48 48;" xml:space="preserve">
<g>
	<path d="M36.242,20.996c0.794-0.84,1.258-1.816,1.258-2.925c0-0.89-0.32-2.15-1.71-3.37v-2.68c1.39-1.23,1.71-2.49,1.71-3.38
		C37.5,4.33,30.54,2,24,2S10.5,4.33,10.5,8.64c0,0.89,0.32,2.15,1.71,3.38v2.68c-1.39,1.22-1.71,2.48-1.71,3.37
		c0,1.1,0.456,2.069,1.237,2.905c-2.34,1.201-4.197,2.755-5.335,4.582C5.563,26.901,5,29.548,5,32.143
		c0,2.595,0.563,5.242,1.401,6.586C9.153,43.146,16.062,46,23.999,46c8.003,0,15.133-3.018,17.74-7.509
		C42.505,37.173,43,34.681,43,32.143s-0.495-5.03-1.26-6.348C40.633,23.888,38.701,22.253,36.242,20.996z M12.53,8.35
		C12.9,5.97,18.01,4,24,4s11.1,1.97,11.47,4.35c0.02,0.1,0.03,0.19,0.03,0.29c0,0.32-0.09,0.64-0.25,0.94
		c-0.12,0.22-0.27,0.43-0.46,0.64c-0.27,0.29-0.6,0.56-1,0.82c-2.05,1.34-5.71,2.25-9.79,2.25s-7.74-0.91-9.79-2.25
		c-0.4-0.26-0.73-0.53-1-0.82c-0.19-0.21-0.34-0.42-0.46-0.64c-0.16-0.3-0.25-0.62-0.25-0.94C12.5,8.54,12.51,8.45,12.53,8.35z
		 M33.79,12.19v5.02c0,1.83-3.94,3.79-9.79,3.79s-9.79-1.96-9.79-3.79v-5.02c2.27,1.29,5.78,2.1,9.79,2.1S31.52,13.48,33.79,12.19z
		 M13.21,16.52v0.69C13.21,19.9,17.95,22,24,22s10.79-2.1,10.79-4.79v-0.69c0.4,0.43,0.71,0.95,0.71,1.55
		c0,2.52-5.27,4.64-11.5,4.64s-11.5-2.12-11.5-4.64C12.5,17.47,12.81,16.95,13.21,16.52z M19.242,31.205
		C15.307,30.459,12.5,28.835,12.5,27c0-1.339,1.507-2.561,3.843-3.417c2.297,0.74,5.007,1.127,7.657,1.127s5.36-0.387,7.657-1.127
		C33.993,24.439,35.5,25.661,35.5,27c0,1.835-2.805,3.457-6.737,4.204c-3.021-0.547-6.503-0.554-9.523-0.007L19.242,31.205z
		 M12.46,22.858c0.339-0.179,0.711-0.336,1.078-0.496c0.444,0.259,0.92,0.5,1.434,0.717C12.822,24.087,11.5,25.458,11.5,27
		c0,3.164,5.49,5.643,12.5,5.643S36.5,30.164,36.5,27c0-1.542-1.322-2.913-3.472-3.921c0.508-0.215,0.98-0.453,1.42-0.709
		c0.452,0.197,0.894,0.401,1.305,0.625c1.982,1.225,3.176,2.761,3.176,4.433c0,3.978-6.697,7.214-14.929,7.214
		S9.071,31.406,9.071,27.429C9.071,25.695,10.344,24.104,12.46,22.858z M41,32.143c0,2.501-0.513,4.523-0.99,5.344
		C37.783,41.322,31.199,44,23.999,44c-7.151,0-13.542-2.543-15.9-6.33C7.553,36.795,7,34.615,7,32.143
		c0-2.472,0.553-4.652,1.099-5.528c0.022-0.035,0.05-0.068,0.072-0.103c-0.062,0.301-0.1,0.606-0.1,0.917
		c0,4.606,6.997,8.214,15.929,8.214s15.929-3.608,15.929-8.214c0-0.302-0.034-0.6-0.093-0.893c0.057,0.088,0.123,0.174,0.175,0.263
		C40.487,27.62,41,29.642,41,32.143L41,32.143z"></path>
	<path d="M43.426,15.737C43.334,15.59,43.173,15.5,43,15.5h-1V14h-1v1.5h-1c-0.173,0-0.334,0.09-0.426,0.237
		c-0.091,0.147-0.099,0.332-0.021,0.486l1.5,3c0.085,0.169,0.258,0.276,0.447,0.276s0.362-0.107,0.447-0.276l1.5-3
		C43.524,16.069,43.517,15.885,43.426,15.737z M41.5,17.882L40.809,16.5h1.383L41.5,17.882z"></path>
	<rect x="41" y="11" width="1" height="2"></rect>
	<rect x="41" y="8" width="1" height="2"></rect>
	<path d="M6.5,19.5c0.189,0,0.362-0.107,0.447-0.276l1.5-3c0.077-0.155,0.069-0.339-0.021-0.486C8.334,15.59,8.173,15.5,8,15.5H7V14
		H6v1.5H5c-0.173,0-0.334,0.09-0.426,0.237c-0.091,0.147-0.099,0.332-0.021,0.486l1.5,3C6.138,19.393,6.311,19.5,6.5,19.5z
		 M7.191,16.5L6.5,17.882L5.809,16.5H7.191z"></path>
	<rect x="6" y="8" width="1" height="2"></rect>
	<rect x="6" y="11" width="1" height="2"></rect>
	<path d="M14.21,9.35c0.85,2.09,5.45,3.22,9.79,3.22s8.94-1.13,9.79-3.22c0.03-0.06,0.05-0.13,0.06-0.19
		c0.06-0.17,0.08-0.34,0.08-0.52c0-2.55-5.12-3.93-9.93-3.93s-9.93,1.38-9.93,3.93c0,0.18,0.02,0.35,0.08,0.52
		C14.16,9.22,14.18,9.29,14.21,9.35z M24,5.71c5.26,0,8.93,1.55,8.93,2.93c0,1.39-3.67,2.93-8.93,2.93s-8.93-1.54-8.93-2.93
		C15.07,7.26,18.74,5.71,24,5.71z"></path>
</g>
</svg>
