<svg version="1.1" id="Layer_1" xmlns="http://www.w3.org/2000/svg" xmlns:xlink="http://www.w3.org/1999/xlink" x="0px" y="0px" viewBox="0 0 48 48" xml:space="preserve">
<g>
	<path d="M31.6,3.61C30.05,2.65,27,2,24,2s-6.05,0.65-7.6,1.61C11.38,6.74,8,14.94,8,24c0,9.28,3.49,17.54,8.68,20.55
		C18.19,45.43,21.07,46,24,46s5.81-0.57,7.32-1.45C36.51,41.54,40,33.28,40,24C40,14.94,36.62,6.74,31.6,3.61z M30.32,42.82
		C29.34,43.39,26.95,44,24,44s-5.34-0.61-6.32-1.18C13.09,40.15,10,32.59,10,24c0-8.4,3-15.91,7.46-18.69C18.5,4.66,21.08,4,24,4
		s5.5,0.66,6.54,1.31c0.24,0.15,0.48,0.31,0.71,0.5C30.68,5.6,30.1,5.5,29.5,5.5C24.17,5.5,20,13.63,20,24s4.17,18.5,9.5,18.5
		c0.6,0,1.18-0.1,1.74-0.3C30.94,42.43,30.64,42.64,30.32,42.82z M37.85,27.22c-0.03,0.39-0.07,0.77-0.12,1.15
		c-0.02,0.15-0.04,0.31-0.06,0.46c-0.05,0.4-0.12,0.79-0.19,1.18c-0.02,0.12-0.04,0.23-0.07,0.34c-0.17,0.94-0.38,1.83-0.63,2.68
		c0,0.01-0.01,0.02-0.01,0.04c-0.09,0.3-0.18,0.6-0.28,0.89c-1.54,4.55-4.1,7.54-6.99,7.54c-4.69,0-8.5-7.85-8.5-17.5
		c0-9.65,3.81-17.5,8.5-17.5c2.47,0,4.69,2.16,6.24,5.61c0.1,0.23,0.2,0.47,0.3,0.71c0.01,0.02,0.01,0.04,0.02,0.05
		c0.12,0.31,0.24,0.62,0.34,0.94c0.55,1.56,0.98,3.32,1.24,5.21c0.09,0.61,0.17,1.24,0.22,1.88c0.05,0.49,0.08,0.98,0.11,1.48v0.22
		C37.99,23.06,38,23.53,38,24c0,1.05-0.05,2.08-0.13,3.08C37.86,27.13,37.86,27.18,37.85,27.22z"></path>
	<path d="M30,9.5c-3.64,0-6.5,6.37-6.5,14.5s2.86,14.5,6.5,14.5s6.5-6.37,6.5-14.5S33.64,9.5,30,9.5z M30,37.5
		c-2.18,0-4.11-3.3-4.99-7.93c0.33-1.76,0.49-3.63,0.49-5.57c0-1.92-0.16-3.78-0.48-5.54H25c0.88-4.65,2.82-7.96,5-7.96
		c2.98,0,5.5,6.18,5.5,13.5S32.98,37.5,30,37.5z"></path>
</g>
</svg>
