<svg version="1.1" id="Layer_1" xmlns="http://www.w3.org/2000/svg" xmlns:xlink="http://www.w3.org/1999/xlink" x="0px" y="0px" viewBox="0 0 48 48" style="enable-background:new 0 0 48 48;" xml:space="preserve">
<g>
	<path d="M19,41c2.565,0,4.5-4.729,4.5-11S21.565,19,19,19s-4.5,4.729-4.5,11S16.435,41,19,41z M19,20c1.655,0,3.5,4.107,3.5,10
		S20.655,40,19,40s-3.5-4.107-3.5-10S17.345,20,19,20z"></path>
	<path d="M38,29c2.565,0,4.5-4.729,4.5-11S40.565,7,38,7s-4.5,4.729-4.5,11S35.435,29,38,29z M38,8c1.655,0,3.5,4.107,3.5,10
		S39.655,28,38,28s-3.5-4.107-3.5-10S36.345,8,38,8z"></path>
	<path d="M39.871,3.49L39.871,3.49c-0.001-0.002-0.003-0.003-0.005-0.004c-0.002-0.002-0.005-0.004-0.007-0.006l-0.001,0.001
		C38.589,2.568,36.255,2,33.761,2c-2.502,0-4.548,0.596-5.629,1.154c0,0,0,0,0,0c0,0,0,0-0.001,0l0,0
		c-3.408,1.756-5.773,7.034-6.091,13.381c-0.37-0.404-0.759-0.757-1.168-1.046l0.005-0.007c-1.269-0.919-3.612-1.491-6.116-1.491
		s-4.552,0.597-5.634,1.156l0.004,0.007C5.463,17.045,3,23.01,3,30c0,7.104,2.627,13.258,6.39,14.97l-0.001,0.001
		C10.414,45.441,12.178,46,14.761,46c2.654,0,5.009-0.582,6.121-1.497c2.929-2.077,4.88-7.251,5.097-13.367
		c0.737,0.829,1.548,1.452,2.413,1.845l0.003-0.007C29.42,33.443,31.182,34,33.761,34c2.654,0,5.009-0.582,6.121-1.497
		C42.991,30.299,45,24.606,45,18C45,11.381,42.987,5.689,39.871,3.49z M14.761,44c-1.734,0-3.346-0.301-4.54-0.847v-0.001
		C7.196,41.779,5,36.248,5,30c0-6.065,2.123-11.562,5.047-13.067l0.005,0.007c0.832-0.43,2.563-0.931,4.708-0.931
		c1.085,0,2.049,0.121,2.855,0.303C14.658,17.643,12.5,23.176,12.5,30c0,6.854,2.176,12.409,5.154,13.71
		C16.858,43.883,15.884,44,14.761,44z M19.734,42.864C19.493,42.944,19.249,43,19,43c-2.981,0-5.5-5.953-5.5-13s2.519-13,5.5-13
		c0.248,0,0.492,0.056,0.733,0.136C22.246,18.925,24,24.206,24,30C24,35.782,22.249,41.064,19.734,42.864z M33.761,32
		c-1.734,0-3.346-0.301-4.54-0.847l-0.039,0.086l0.043-0.095c-1.246-0.565-2.429-1.934-3.345-3.855
		c-0.247-2.86-0.882-5.452-1.819-7.545C24.024,19.166,24,18.581,24,18c0-6.065,2.123-11.562,5.047-13.067l0.001,0
		C29.88,4.502,31.614,4,33.761,4c1.089,0,2.057,0.122,2.866,0.305C33.663,5.628,31.5,11.167,31.5,18
		c0,6.854,2.176,12.409,5.154,13.71C35.858,31.883,34.884,32,33.761,32z M38.734,30.864C38.493,30.944,38.249,31,38,31
		c-2.981,0-5.5-5.953-5.5-13S35.019,5,38,5c0.248,0,0.492,0.056,0.733,0.136C41.246,6.925,43,12.206,43,18
		C43,23.782,41.249,29.064,38.734,30.864z"></path>
	<path d="M18.5,6.535V7.5c0,0.173,0.09,0.334,0.237,0.425C18.817,7.975,18.909,8,19,8c0.077,0,0.153-0.018,0.224-0.053l3-1.5
		C22.393,6.362,22.5,6.189,22.5,6s-0.107-0.362-0.276-0.447l-3-1.5c-0.155-0.077-0.339-0.069-0.486,0.022S18.5,4.327,18.5,4.5v1.035
		c-6.457,0.267-9,2.386-9,7.465h1C10.5,8.508,12.616,6.779,18.5,6.535z M19.5,5.309L20.882,6L19.5,6.691V5.309z"></path>
	<path d="M29.811,41.482v-0.965c0-0.173-0.09-0.334-0.237-0.425c-0.148-0.091-0.332-0.099-0.486-0.022l-3,1.5
		c-0.169,0.085-0.276,0.258-0.276,0.447s0.107,0.362,0.276,0.447l3,1.5c0.071,0.035,0.147,0.053,0.224,0.053
		c0.091,0,0.183-0.025,0.263-0.075c0.147-0.091,0.237-0.252,0.237-0.425v-1.035c6.458-0.267,9-2.386,9-7.465h-1
		C37.811,39.51,35.695,41.238,29.811,41.482z M28.811,42.708l-1.382-0.691l1.382-0.691V42.708z"></path>
</g>
</svg>
