<svg version="1.1" id="Layer_1" xmlns="http://www.w3.org/2000/svg" xmlns:xlink="http://www.w3.org/1999/xlink" x="0px" y="0px" viewBox="0 0 48 48" style="enable-background:new 0 0 48 48;" xml:space="preserve">
<g>
	<path d="M29.5,12.499c-2.923,0-4.5,5.925-4.5,11.5s1.577,11.5,4.5,11.5s4.5-5.925,4.5-11.5S32.423,12.499,29.5,12.499z
		 M29.5,34.499c-1.655,0-3.5-4.312-3.5-10.5s1.845-10.5,3.5-10.5s3.5,4.312,3.5,10.5S31.155,34.499,29.5,34.499z"></path>
	<path d="M37,24c0-8.84-3.22-15.5-7.5-15.5c-1,0-2.43,0.36-3.82,2h-1.459c0.222-0.364,0.449-0.715,0.687-1.032L24.106,8.87
		c-0.367,0.492-0.717,1.043-1.045,1.63h-0.74c-1.39-1.64-2.82-2-3.82-2C14.22,8.5,11,15.16,11,24c0,8.84,3.22,15.5,7.5,15.5
		c1,0,2.43-0.37,3.82-2h3.36c1.39,1.63,2.82,2,3.82,2C33.78,39.5,37,32.84,37,24z M18.5,37.5c-2.98,0-5.5-6.18-5.5-13.5
		s2.52-13.5,5.5-13.5c0.8,0,1.48,0.45,2.02,1H19.5c-3.08,0-5.5,5.49-5.5,12.5s2.42,12.5,5.5,12.5h1.02
		C19.98,37.05,19.3,37.5,18.5,37.5z M23.186,35.5c-0.046-0.105-0.096-0.205-0.14-0.312L22.303,35.5H19.5c-2.17,0-4.5-4.62-4.5-11.5
		s2.33-11.5,4.5-11.5h2.591c-0.13,0.313-0.255,0.634-0.373,0.96l0.94,0.341c0.163-0.449,0.341-0.88,0.526-1.301h2.306
		C23.97,15.13,23,19.27,23,24c0,4.73,0.97,8.87,2.49,11.5H23.186z M29.8,37.48c-0.1,0.01-0.2,0.02-0.3,0.02
		c-0.31,0-0.62-0.07-0.91-0.2c-0.39-0.16-0.77-0.43-1.13-0.8c-0.27-0.28-0.54-0.61-0.79-1C25.08,33.09,24,28.79,24,24
		c0-4.79,1.08-9.09,2.67-11.5c0.25-0.39,0.52-0.72,0.79-1c0.36-0.37,0.74-0.64,1.13-0.8c0.29-0.13,0.6-0.2,0.91-0.2
		c0.1,0,0.2,0.01,0.3,0.02C32.65,10.92,35,16.93,35,24S32.65,37.08,29.8,37.48z"></path>
	<path d="M37.876,17.419l0.981-0.192c-0.133-0.674-0.284-1.333-0.454-1.976l-0.967,0.256C37.601,16.128,37.748,16.766,37.876,17.419
		z"></path>
	<path d="M19.686,3.973L19.46,2.999c-0.755,0.175-1.423,0.384-1.984,0.623l0.391,0.921C18.367,4.329,18.996,4.133,19.686,3.973z"></path>
	<path d="M22.566,3.55l-0.071-0.997c-0.688,0.049-1.37,0.131-2.029,0.244l0.169,0.985C21.261,3.675,21.911,3.597,22.566,3.55z"></path>
	<path d="M25.484,3.554l0.073-0.997c-0.664-0.048-1.355-0.065-2.042-0.052l0.021,1C24.19,3.489,24.85,3.507,25.484,3.554z"></path>
	<path d="M17.063,4.967l-0.544-0.839c-0.56,0.363-1.109,0.799-1.631,1.296l0.689,0.725C16.055,5.695,16.555,5.297,17.063,4.967z"></path>
	<path d="M11.85,11.759l-0.918-0.397c-0.263,0.608-0.51,1.246-0.733,1.896l0.946,0.324C11.359,12.956,11.596,12.343,11.85,11.759z"></path>
	<path d="M13.187,9.163l-0.854-0.521c-0.346,0.566-0.674,1.169-0.977,1.793l0.899,0.437C12.545,10.276,12.858,9.701,13.187,9.163z"></path>
	<path d="M14.908,6.836l-0.742-0.67c-0.441,0.489-0.87,1.033-1.273,1.617l0.823,0.568C14.094,7.803,14.495,7.293,14.908,6.836z"></path>
	<path d="M37.55,32.046l0.971,0.24c0.16-0.644,0.301-1.306,0.424-1.981l-0.984-0.179C37.842,30.782,37.705,31.422,37.55,32.046z"></path>
	<path d="M38.121,29.158l0.989,0.148c0.099-0.658,0.179-1.328,0.242-2.009l-0.996-0.091C38.295,27.868,38.217,28.518,38.121,29.158z"></path>
	<path d="M38.499,24.261c-0.005,0.663-0.028,1.318-0.068,1.965l0.998,0.062c0.042-0.665,0.065-1.338,0.07-2.021L38.499,24.261z"></path>
	<path d="M10.844,14.514l-0.957-0.29c-0.192,0.635-0.368,1.294-0.522,1.96l0.975,0.225C10.488,15.765,10.658,15.128,10.844,14.514z"></path>
	<path d="M36.698,34.858l0.94,0.342c0.226-0.622,0.435-1.272,0.622-1.933l-0.962-0.272C37.118,33.632,36.916,34.259,36.698,34.858z"></path>
	<path d="M28.592,3.011c-0.638-0.15-1.317-0.269-2.018-0.354l-0.121,0.992c0.665,0.082,1.308,0.194,1.911,0.336L28.592,3.011z"></path>
	<path d="M37.171,14.563l0.957-0.288c-0.198-0.659-0.418-1.305-0.655-1.922l-0.934,0.358C36.767,13.305,36.98,13.929,37.171,14.563z"></path>
	<path d="M32.523,6.249c-0.651-0.36-1.326-0.597-2.008-0.695l-0.143,0.99c0.579,0.083,1.156,0.286,1.715,0.602l0.48-0.85
		c0.188,0.185,0.376,0.374,0.558,0.577l0.745-0.667c-0.479-0.535-0.983-1.016-1.499-1.432l-0.627,0.778
		C32.008,5.764,32.267,6,32.523,6.249z"></path>
	<path d="M30.979,4.995l0.547-0.837l-0.195-0.125c-0.44-0.274-1.026-0.527-1.741-0.751l-0.299,0.954
		c0.625,0.196,1.148,0.419,1.507,0.643L30.979,4.995z"></path>
	<path d="M38.311,20.333l0.995-0.104c-0.071-0.681-0.161-1.35-0.269-2.006l-0.987,0.162C38.154,19.022,38.242,19.672,38.311,20.333z"></path>
	<path d="M17.886,44.558c0.577,0.214,1.249,0.399,2,0.549l0.195-0.98c-0.688-0.137-1.326-0.312-1.845-0.506L17.886,44.558z"></path>
	<path d="M23.986,44.499l-0.023,0.297L24,45.499c0.684,0,1.37-0.031,2.038-0.093l-0.092-0.996
		C25.308,44.469,24.653,44.499,23.986,44.499z"></path>
	<path d="M20.895,45.281c0.655,0.094,1.339,0.159,2.032,0.193l0.049-0.999c-0.662-0.032-1.314-0.094-1.938-0.184L20.895,45.281z"></path>
	<path d="M26.913,44.298l0.14,0.99c0.715-0.101,1.393-0.236,2.014-0.4l-0.256-0.967C28.228,44.076,27.589,44.202,26.913,44.298z"></path>
	<path d="M38.493,23.277l1-0.021c-0.014-0.682-0.046-1.356-0.097-2.02l-0.997,0.076C38.448,21.958,38.48,22.614,38.493,23.277z"></path>
	<path d="M30.569,43.254c-0.227,0.132-0.513,0.261-0.851,0.384l0.344,0.939c0.392-0.144,0.731-0.298,1.009-0.458
		c0.291-0.169,0.576-0.355,0.857-0.56l-0.588-0.809C31.088,42.934,30.831,43.102,30.569,43.254z"></path>
	<path d="M35.535,37.544L36.424,38c0.301-0.588,0.587-1.211,0.849-1.852l-0.926-0.378C36.096,36.384,35.823,36.981,35.535,37.544z"></path>
	<path d="M33.364,40.844l-0.441-0.557c-0.519,0.411-1.058,0.721-1.603,0.924l0.349,0.938c0.284-0.106,0.564-0.245,0.842-0.397
		c-0.142,0.138-0.283,0.28-0.427,0.406l0.659,0.752c0.498-0.436,0.984-0.935,1.443-1.483l-0.767-0.643
		C33.401,40.805,33.382,40.823,33.364,40.844z"></path>
	<path d="M10.134,17.369l-0.981-0.194c-0.129,0.652-0.24,1.318-0.332,1.998l0.991,0.134C9.901,18.648,10.009,18.002,10.134,17.369z"></path>
	<path d="M9.566,26.176l-0.998,0.061c0.042,0.682,0.102,1.354,0.18,2.015l0.993-0.117C9.666,27.492,9.607,26.838,9.566,26.176z"></path>
	<path d="M9.872,29.108l-0.989,0.146c0.101,0.678,0.221,1.343,0.358,1.993l0.979-0.207C10.086,30.41,9.969,29.765,9.872,29.108z"></path>
	<path d="M9.5,23.996c0-0.258,0.002-0.515,0.008-0.771l-1-0.021C8.503,23.468,8.5,23.732,8.5,23.997
		c0,0.413,0.007,0.822,0.021,1.229l0.999-0.034C9.507,24.797,9.5,24.398,9.5,23.996z"></path>
	<path d="M15.217,42.874c0.542,0.479,1.109,0.893,1.687,1.23l0.505-0.863c-0.521-0.305-1.036-0.681-1.529-1.116L15.217,42.874z"></path>
	<path d="M10.438,31.997l-0.971,0.238c0.164,0.667,0.349,1.324,0.551,1.954l0.952-0.306C10.775,33.277,10.596,32.642,10.438,31.997z"></path>
	<path d="M9.694,20.283L8.7,20.177c-0.07,0.662-0.123,1.335-0.156,2.017l0.999,0.049C9.575,21.58,9.626,20.926,9.694,20.283z"></path>
	<path d="M11.284,34.81l-0.94,0.34c0.233,0.647,0.491,1.282,0.765,1.885l0.91-0.413C11.756,36.042,11.509,35.433,11.284,34.81z"></path>
	<path d="M13.148,40.574c0.418,0.574,0.863,1.106,1.32,1.582l0.721-0.693c-0.426-0.443-0.841-0.94-1.233-1.478L13.148,40.574z"></path>
	<path d="M12.443,37.499l-0.891,0.454c0.316,0.621,0.658,1.218,1.016,1.773l0.841-0.541C13.069,38.658,12.745,38.091,12.443,37.499z"></path>
	<path d="M21,23.999l0.003-0.458l-1-0.013L20,23.999c0,0.531,0.012,1.056,0.035,1.575l0.999-0.044
		C21.012,25.026,21.001,24.514,21,23.999z"></path>
	<path d="M21.607,17.615l-0.981-0.193c-0.129,0.657-0.241,1.332-0.332,2.023l0.991,0.131C21.374,18.906,21.482,18.252,21.607,17.615
		z"></path>
	<path d="M22.341,14.736l-0.953-0.301c-0.201,0.636-0.384,1.303-0.543,1.982l0.974,0.229C21.972,15.992,22.148,15.349,22.341,14.736
		z"></path>
	<path d="M21.092,26.524l-0.997,0.073c0.051,0.692,0.121,1.372,0.21,2.037l0.991-0.133C21.21,27.855,21.142,27.195,21.092,26.524z"></path>
	<path d="M21.171,20.563l-0.995-0.101c-0.068,0.668-0.116,1.35-0.145,2.043l0.999,0.041C21.058,21.874,21.105,21.212,21.171,20.563z"></path>
	<path d="M21.444,29.482l-0.986,0.165c0.114,0.681,0.25,1.358,0.405,2.011l0.973-0.23C21.686,30.796,21.554,30.141,21.444,29.482z"></path>
	<path d="M24.77,8.054l0.746,0.666c0.45-0.504,0.924-0.93,1.409-1.267l-0.57-0.821C25.805,7.014,25.273,7.492,24.77,8.054z"></path>
	<path d="M25.566,39.334c-0.406-0.447-0.799-0.965-1.168-1.54l-0.841,0.541c0.399,0.62,0.826,1.182,1.269,1.67L25.566,39.334z"></path>
	<path d="M35.676,38.736l-0.822-0.568c-0.387,0.56-0.799,1.06-1.224,1.486l0.708,0.706c0.018-0.018,0.035-0.04,0.053-0.059
		l0.429,0.315c0.392-0.534,0.767-1.112,1.116-1.719l-0.267-0.154C35.671,38.741,35.674,38.739,35.676,38.736z"></path>
	<path d="M21.118,32.654c0.187,0.674,0.397,1.333,0.627,1.96l0.939-0.344c-0.221-0.602-0.423-1.236-0.603-1.883L21.118,32.654z"></path>
	<path d="M33.477,6.874l-0.612,0.791c0.469,0.363,0.926,0.812,1.36,1.333l0.313-0.26c0.101,0.156,0.205,0.307,0.303,0.468
		l0.854-0.52c-0.365-0.601-0.756-1.169-1.163-1.691l-0.484,0.378C33.859,7.2,33.67,7.024,33.477,6.874z"></path>
	<path d="M27.367,41.953l0.424-0.905c-0.527-0.247-1.048-0.597-1.548-1.041l-0.664,0.748C26.15,41.263,26.752,41.666,27.367,41.953z"></path>
	<path d="M28.649,41.358L28.4,42.327c0.444,0.114,0.898,0.172,1.35,0.172c0.284,0,0.57-0.023,0.852-0.068l-0.159-0.987
		C29.856,41.538,29.242,41.51,28.649,41.358z"></path>
	<path d="M29.406,5.51c-0.718,0.046-1.43,0.239-2.117,0.572l0.437,0.899c0.57-0.276,1.157-0.436,1.745-0.474L29.406,5.51z"></path>
	<path d="M35.629,9.194L34.81,9.767c0.355,0.507,0.693,1.069,1.005,1.671l0.153-0.079c0.068,0.149,0.138,0.294,0.203,0.446
		l0.919-0.396c-0.275-0.64-0.574-1.257-0.888-1.836L35.96,9.705C35.851,9.533,35.743,9.356,35.629,9.194z"></path>
</g>
</svg>
