<svg version="1.1" id="Layer_1" xmlns="http://www.w3.org/2000/svg" xmlns:xlink="http://www.w3.org/1999/xlink" x="0px" y="0px" viewBox="0 0 48 48" xml:space="preserve">
<path d="M29,3H19c-2.86,0-5.61,1.74-7.75,4.9c-0.31,0.46-0.19,1.08,0.27,1.39c0.03,0.02,0.05,0.02,0.08,0.03
	c-0.75,1.23-1.4,2.63-1.94,4.2c-0.02,0.05-0.04,0.1-0.06,0.15c0,0,0,0.01,0,0.01l0,0c-0.1,0.34-0.03,0.71,0.24,0.98l1.39,1.4
	c-0.31,1.25-0.56,2.54-0.72,3.88c-0.03,0.27,0.16,0.52,0.44,0.56c0.02,0,0.04,0,0.06,0c0.25,0,0.47-0.19,0.5-0.44
	c0.13-1.08,0.32-2.14,0.55-3.17l1.53,1.54c0.02,0.02,0.04,0.02,0.06,0.04c0.05,0.04,0.11,0.08,0.17,0.11
	c0.06,0.03,0.11,0.06,0.18,0.09c0.02,0.01,0.04,0.02,0.06,0.03c0.08,0.02,0.16,0.03,0.25,0.03c0,0,0,0,0,0c0,0,0,0,0,0c0,0,0,0,0,0
	c0.12,0,0.24-0.03,0.35-0.07c0.03-0.01,0.06-0.04,0.1-0.05c0.08-0.04,0.15-0.08,0.21-0.14c0.01-0.01,0.03-0.02,0.05-0.03
	c0.02-0.02,0.03-0.05,0.04-0.07c0.05-0.06,0.09-0.12,0.13-0.2c0.02-0.04,0.04-0.09,0.06-0.13c0.01-0.02,0.02-0.04,0.03-0.07
	c0.23-0.91,0.51-1.74,0.84-2.51h1.53c-0.39,1.43-0.69,2.93-0.87,4.48c-0.03,0.27,0.16,0.52,0.44,0.56c0.02,0,0.04,0,0.06,0
	c0.25,0,0.47-0.19,0.5-0.44c0.18-1.5,0.47-2.95,0.85-4.34c0.05,0.04,0.12,0.06,0.16,0.11l2.61,2.62c0.17,0.17,0.4,0.26,0.64,0.28
	c0.33,1.54,0.54,3.32,0.54,5.26c0,6.3-2.11,11-4,11c-0.86,0-1.82-1.04-2.57-2.79c-0.16-0.36-0.51-0.6-0.91-0.61
	c-0.44-0.01-0.76,0.23-0.92,0.59l-2.06,4.55c-0.6,1.44-0.39,3.05,0.6,4.53C14.05,43.32,16.88,45,19,45h10c6.73,0,12-9.22,12-21
	C41,12.22,35.73,3,29,3z M29,43c-2.15,0-4.2-1.3-5.94-3.75c-0.02-0.03-0.05-0.04-0.07-0.06c0.36-0.32,0.65-0.73,0.84-1.19l1.72-4.17
	c0.96,1.74,2.16,2.68,3.45,2.68c3.08,0,5.5-5.49,5.5-12.5c0-7.01-2.42-12.5-5.5-12.5c-1.29,0-2.49,0.94-3.45,2.68l-1.98-4.82
	c-0.11-0.26-0.27-0.48-0.45-0.68C24.84,6.28,26.87,5,29,5c5.42,0,10,8.7,10,19S34.42,43,29,43z M28.55,35.43
	c1.27-3.38,1.95-7.32,1.95-11.43c0-4.11-0.68-8.05-1.95-11.43c0.15-0.04,0.3-0.07,0.45-0.07c2.17,0,4.5,4.62,4.5,11.5
	S31.17,35.5,29,35.5C28.85,35.5,28.7,35.47,28.55,35.43z M22.51,16.75L20.75,15l-0.53-0.53c-0.01-0.01-0.03-0.02-0.04-0.03
	l-0.02-0.02c-0.19-0.19-0.4-0.34-0.63-0.48c0.63-1.89,1.42-3.53,2.35-4.91c0.34,0.12,0.62,0.37,0.76,0.71l1.4,3.4
	C23.43,14.18,22.92,15.39,22.51,16.75z M15.68,13.46h-3.87c0.66-1.73,1.48-3.27,2.42-4.47l-0.04-0.03h6.55
	c-0.83,1.32-1.54,2.84-2.11,4.55c-0.05,0-0.1,0-0.15,0.01c-0.21-0.04-0.42-0.06-0.64-0.06h-0.06H15.68z M19,5h6.53
	c-1.17,0.69-2.26,1.74-3.25,3.12c-0.26-0.1-0.52-0.17-0.81-0.17H13.7C14.96,6.44,16.74,5,19,5z M12.72,14.46h1.64
	c-0.2,0.44-0.38,0.89-0.55,1.38l-1.16-1.16C12.68,14.6,12.7,14.53,12.72,14.46z M18.54,37c3.42,0,6-5.59,6-13
	c0-2.74-0.37-5.19-0.99-7.24c0.28-0.88,0.61-1.7,0.98-2.43l0.52,1.27c0.08,0.19,0.26,0.31,0.46,0.31c0,0,0,0,0,0
	c0.2,0,0.38-0.12,0.46-0.3c0.49-1.15,1.08-2.01,1.7-2.53c1.19,3.24,1.83,7,1.83,10.93c0,3.93-0.64,7.69-1.83,10.93
	c-0.62-0.52-1.2-1.37-1.7-2.53c-0.08-0.18-0.26-0.3-0.46-0.3c0,0,0,0,0,0c-0.2,0-0.38,0.12-0.46,0.31l-2.14,5.21
	c-0.36,0.87-1.19,1.43-2.13,1.43h-5.95c-0.34,0-0.65-0.16-0.84-0.45c-0.19-0.28-0.22-0.63-0.09-0.94l0.4-0.97l0.84-1.85
	C16.1,36.25,17.27,37,18.54,37z M14.34,40.16c-0.05-0.07-0.08-0.15-0.12-0.22c0.2,0.06,0.4,0.11,0.61,0.11h5.95
	c0.5,0,0.99-0.11,1.42-0.32c0.01,0.04,0.02,0.08,0.05,0.11c1,1.41,2.11,2.47,3.28,3.17H19C17.69,43,15.42,41.78,14.34,40.16z"></path>
</svg>
