<svg version="1.1" id="Layer_1" xmlns="http://www.w3.org/2000/svg" xmlns:xlink="http://www.w3.org/1999/xlink" x="0px" y="0px" viewBox="0 0 48 48" xml:space="preserve">
<path d="M29,2c-7.64,0-14.04,7.4-15.62,17.26C13.03,19.1,12.64,19,12.23,19c-1.15,0-2.19,0.72-2.6,1.8L7.31,27H3c-0.55,0-1,0.45-1,1
	v10c0,0.55,0.45,1,1,1h5c0.55,0,1-0.45,1-1v-9.82l2.51-6.68c0.11-0.3,0.4-0.5,0.72-0.5c0.43,0,0.77,0.35,0.77,0.77V26
	c0,0.55,0.45,1,1,1h4.28c0.88,0,1.72,0.39,2.29,1.06c0.57,0.67,0.82,1.56,0.67,2.43l-0.67,4C20.33,35.95,19.08,37,17.61,37H11v2
	h6.31c2.92,4.3,7.08,7,11.69,7c8.82,0,16-9.87,16-22S37.82,2,29,2z M7,37H4v-8h3V37z M29,44c-3.67,0-7.01-2.05-9.51-5.37
	c1.57-0.64,2.76-2.04,3.05-3.8l0.67-4c0.24-1.45-0.16-2.93-1.12-4.05C21.14,25.64,19.75,25,18.28,25H15v-1h0c0-11.03,6.28-20,14-20
	c3.49,0,6.68,1.84,9.13,4.87c-1.19-0.88-2.5-1.37-3.88-1.37c-3.17,0-5.98,2.58-7.76,6.56c-0.04,0.08-0.07,0.16-0.1,0.24
	c-0.11,0.26-0.22,0.52-0.32,0.78c-0.1,0.25-0.19,0.5-0.27,0.76c-0.05,0.15-0.1,0.3-0.15,0.46c-0.11,0.35-0.21,0.7-0.3,1.07
	c-0.03,0.1-0.06,0.2-0.08,0.31c-0.1,0.39-0.18,0.8-0.26,1.21c-0.02,0.1-0.04,0.19-0.06,0.29c-0.07,0.41-0.13,0.82-0.19,1.24
	c-0.01,0.11-0.03,0.22-0.05,0.33c-0.05,0.41-0.08,0.83-0.11,1.26c-0.01,0.12-0.02,0.24-0.03,0.36C24.52,22.9,24.5,23.44,24.5,24
	s0.02,1.1,0.05,1.65c0.01,0.12,0.02,0.24,0.03,0.36c0.03,0.42,0.07,0.84,0.11,1.26c0.01,0.11,0.03,0.22,0.05,0.33
	c0.05,0.42,0.12,0.83,0.19,1.24c0.02,0.1,0.04,0.19,0.06,0.28c0.08,0.41,0.17,0.81,0.26,1.21c0.03,0.1,0.05,0.2,0.08,0.3
	c0.1,0.36,0.2,0.72,0.31,1.07c0.05,0.15,0.1,0.3,0.15,0.45c0.09,0.26,0.18,0.52,0.28,0.77c0.1,0.27,0.21,0.52,0.32,0.78
	c0.04,0.08,0.07,0.16,0.11,0.24c1.78,3.98,4.59,6.56,7.76,6.56c1.38,0,2.69-0.49,3.88-1.37C35.68,42.16,32.49,44,29,44z M31.17,24
	c0-4.21-0.87-8.27-2.52-11.79c1.23-1.7,2.73-2.71,4.35-2.71c4.14,0,7.5,6.5,7.5,14.5S37.14,38.5,33,38.5
	c-1.62,0-3.12-1.01-4.35-2.71C30.29,32.27,31.17,28.21,31.17,24z M28.64,29.4c-0.2,1.02-0.46,2.07-0.78,3.08
	c-0.88-2.43-1.36-5.36-1.36-8.48c0-3.08,0.47-6,1.34-8.42c0.04,0.12,0.09,0.24,0.13,0.37c0.27,0.85,0.49,1.71,0.66,2.59
	c0.36,1.8,0.54,3.63,0.54,5.47C29.17,25.81,29,27.62,28.64,29.4z M42.86,26.65c-0.02,0.24-0.05,0.49-0.08,0.73
	c-0.87,6.93-4.36,12.12-8.53,12.12c-0.21,0-0.42-0.03-0.63-0.06c4.4-0.58,7.88-7.28,7.88-15.44S38.01,9.14,33.62,8.56
	c0.21-0.03,0.42-0.06,0.63-0.06c4.17,0,7.66,5.2,8.53,12.12c0.03,0.24,0.06,0.49,0.08,0.73c0.03,0.28,0.05,0.56,0.07,0.85
	C42.97,22.8,43,23.39,43,24s-0.03,1.2-0.06,1.8C42.92,26.08,42.89,26.36,42.86,26.65z"></path>
</svg>
