<svg version="1.1" id="Layer_1" xmlns="http://www.w3.org/2000/svg" xmlns:xlink="http://www.w3.org/1999/xlink" x="0px" y="0px" viewBox="0 0 48 48" xml:space="preserve">
<g>
	<path d="M36.6,3.61C35.05,2.65,32,2,29,2s-6.05,0.65-7.6,1.61c-4.12,2.57-7.13,8.55-8.08,15.62c-0.34-0.14-0.7-0.23-1.09-0.23
		c-1.15,0-2.19,0.72-2.6,1.8L7.31,27H3c-0.55,0-1,0.45-1,1v10c0,0.55,0.45,1,1,1h5c0.55,0,1-0.45,1-1v-9.82l2.51-6.68
		c0.11-0.3,0.4-0.5,0.72-0.5c0.43,0,0.77,0.35,0.77,0.77V26c0,0.55,0.45,1,1,1h4.28c0.88,0,1.72,0.39,2.29,1.06
		c0.57,0.67,0.82,1.56,0.67,2.43l-0.67,4C20.33,35.95,19.08,37,17.61,37H11v2h5.56c1.39,2.46,3.13,4.39,5.12,5.55
		C23.19,45.43,26.07,46,29,46s5.81-0.57,7.32-1.45C41.51,41.54,45,33.28,45,24C45,14.94,41.62,6.74,36.6,3.61z M7,37H4v-8h3V37z
		 M35.32,42.82C34.34,43.39,31.95,44,29,44s-5.34-0.61-6.32-1.18c-1.48-0.86-2.8-2.23-3.91-3.97c1.92-0.46,3.44-2,3.77-4.03l0.67-4
		c0.24-1.45-0.17-2.93-1.12-4.05C21.14,25.64,19.75,25,18.28,25H15v-1h0c0-8.4,3-15.91,7.46-18.69C23.5,4.66,26.08,4,29,4
		s5.5,0.66,6.54,1.31c0.24,0.15,0.48,0.31,0.71,0.5C35.68,5.6,35.1,5.5,34.5,5.5C29.17,5.5,25,13.63,25,24s4.17,18.5,9.5,18.5
		c0.6,0,1.18-0.1,1.74-0.3C35.94,42.43,35.64,42.64,35.32,42.82z M42.85,27.22c-0.03,0.39-0.07,0.77-0.12,1.15
		c-0.02,0.15-0.04,0.31-0.06,0.46c-0.05,0.4-0.12,0.79-0.19,1.18c-0.02,0.12-0.04,0.23-0.07,0.34c-0.17,0.94-0.38,1.83-0.63,2.68
		c0,0.01-0.01,0.02-0.01,0.04c-0.09,0.3-0.18,0.6-0.28,0.89c-1.54,4.55-4.1,7.54-6.99,7.54c-4.69,0-8.5-7.85-8.5-17.5
		c0-9.65,3.81-17.5,8.5-17.5c2.47,0,4.69,2.16,6.24,5.61c0.1,0.23,0.2,0.47,0.3,0.71c0.01,0.02,0.01,0.04,0.02,0.05
		c0.12,0.31,0.24,0.62,0.34,0.94c0.55,1.56,0.98,3.32,1.24,5.21c0.09,0.61,0.17,1.24,0.22,1.88c0.05,0.49,0.08,0.98,0.11,1.48v0.22
		C42.99,23.06,43,23.53,43,24c0,1.05-0.05,2.08-0.13,3.08C42.86,27.13,42.86,27.18,42.85,27.22z"></path>
	<path d="M35,9.5c-3.64,0-6.5,6.37-6.5,14.5s2.86,14.5,6.5,14.5s6.5-6.37,6.5-14.5S38.64,9.5,35,9.5z M35,37.5
		c-2.18,0-4.11-3.3-4.99-7.93c0.33-1.76,0.49-3.63,0.49-5.57c0-1.92-0.16-3.78-0.48-5.54H30c0.88-4.65,2.82-7.96,5-7.96
		c2.98,0,5.5,6.18,5.5,13.5S37.98,37.5,35,37.5z"></path>
</g>
</svg>
