<svg version="1.1" id="Layer_1" xmlns="http://www.w3.org/2000/svg" xmlns:xlink="http://www.w3.org/1999/xlink" x="0px" y="0px" viewBox="0 0 48 48" xml:space="preserve">
<path d="M28,2c-6.68,0-12.26,7.39-13.65,17.24C14,19.09,13.63,19,13.23,19c-1.15,0-2.19,0.72-2.6,1.8L8.31,27H4c-0.55,0-1,0.45-1,1
	v10c0,0.55,0.45,1,1,1h5c0.55,0,1-0.45,1-1v-9.82l2.51-6.68c0.11-0.3,0.4-0.5,0.72-0.5c0.43,0,0.77,0.35,0.77,0.77V26
	c0,0.55,0.45,1,1,1h4.28c0.88,0,1.72,0.39,2.29,1.06c0.57,0.67,0.82,1.56,0.67,2.43l-0.67,4C21.33,35.95,20.08,37,18.61,37H12v2
	h5.77c2.56,4.3,6.2,7,10.23,7c7.72,0,14-9.87,14-22S35.72,2,28,2z M8,37H5v-8h3V37z M28,4c0.99,0,1.94,0.22,2.86,0.6
	c-0.36-0.06-0.73-0.1-1.11-0.1c-5.84,0-10.65,7.74-11.19,17.61c-0.04,0.62-0.06,1.25-0.06,1.89c0,0.34,0.02,0.67,0.03,1h-2.5
	C16.02,24.67,16,24.34,16,24C16,12.97,21.38,4,28,4z M20.55,25.17C20.53,24.78,20.5,24.4,20.5,24c0-9.12,3.93-16.54,8.75-16.54
	c0.17,0,0.33,0.03,0.5,0.05C32.91,11.11,35,17.15,35,24c0,6.85-2.08,12.89-5.24,16.5c-0.17,0.02-0.34,0.04-0.51,0.04
	c-2.34,0-4.47-1.76-6.04-4.6c0.15-0.35,0.27-0.72,0.34-1.12l0.67-4c0.24-1.45-0.16-2.93-1.12-4.05
	C22.42,25.98,21.53,25.43,20.55,25.17z M33.04,8.73C35.99,11.62,38,17.38,38,24c0,6.62-2.02,12.38-4.96,15.27
	C35.48,35.31,37,29.94,37,24C37,18.06,35.48,12.69,33.04,8.73z M28,44c-3.09,0-5.91-1.99-8.04-5.2c0.69-0.19,1.34-0.52,1.87-0.97
	c2.03,3.5,4.83,5.68,7.91,5.68c0.37,0,0.74-0.04,1.11-0.1C29.94,43.78,28.99,44,28,44z M39.89,26.6c-0.03,0.43-0.07,0.85-0.12,1.27
	c-0.03,0.26-0.07,0.52-0.11,0.78c-0.05,0.35-0.1,0.7-0.16,1.04c-0.06,0.32-0.12,0.63-0.19,0.94c-0.05,0.25-0.11,0.51-0.17,0.76
	c-0.1,0.41-0.21,0.81-0.32,1.2c-0.03,0.11-0.06,0.21-0.09,0.32c-1.75,5.71-5.11,9.59-8.98,9.59c-0.65,0-1.28-0.12-1.9-0.33
	c0.3,0.05,0.6,0.08,0.9,0.08C34.4,42.25,39,34.06,39,24c0-10.06-4.6-18.25-10.25-18.25c-0.3,0-0.6,0.03-0.9,0.08
	c0.62-0.21,1.25-0.33,1.9-0.33c3.86,0,7.23,3.88,8.98,9.59c0.03,0.11,0.06,0.21,0.09,0.32c0.11,0.39,0.22,0.79,0.32,1.2
	c0.06,0.25,0.11,0.51,0.17,0.76c0.07,0.31,0.13,0.62,0.19,0.93c0.06,0.34,0.11,0.69,0.16,1.04c0.04,0.26,0.08,0.52,0.11,0.78
	c0.05,0.42,0.08,0.85,0.12,1.27c0.02,0.21,0.04,0.42,0.05,0.63C39.98,22.68,40,23.34,40,24s-0.02,1.32-0.06,1.97
	C39.93,26.18,39.9,26.39,39.89,26.6z"></path>
</svg>
