<svg version="1.1" id="Layer_1" xmlns="http://www.w3.org/2000/svg" xmlns:xlink="http://www.w3.org/1999/xlink" x="0px" y="0px" viewBox="0 0 48 48" xml:space="preserve">
<g>
	<path d="M39.94,19.01C39.98,18.68,40,18.34,40,18c0-4.41-3.59-8-8-8c-2,0-3.88,0.73-5.33,2.04C24.91,8.97,21.59,7,18,7
		C12.49,7,8,11.49,8,17c0,0.35,0.02,0.71,0.06,1.06C4.64,18.52,2,21.46,2,25c0,3.86,3.14,7,7,7h8v-2H9c-2.76,0-5-2.24-5-5
		c0-2.75,2.24-5,5.07-5c0.01,0,0.12,0.01,0.13,0.01c0.33,0.01,0.61-0.12,0.81-0.36c0.2-0.24,0.27-0.56,0.2-0.86
		C10.07,18.18,10,17.58,10,17c0-4.41,3.59-8,8-8c3.29,0,6.3,2.07,7.47,5.16c0.13,0.34,0.43,0.58,0.79,0.63
		c0.36,0.05,0.72-0.1,0.94-0.39C28.35,12.88,30.1,12,32,12c3.31,0,6,2.69,6,6c0,0.6-0.09,1.2-0.27,1.77
		c-0.1,0.33-0.03,0.69,0.2,0.95c0.22,0.26,0.57,0.39,0.91,0.34C39.05,21.02,39.27,21,39.5,21c2.48,0,4.5,2.02,4.5,4.5
		S41.98,30,39.5,30H31v2h8.5c3.58,0,6.5-2.92,6.5-6.5C46,22.06,43.32,19.24,39.94,19.01z"></path>
	<path d="M12.16,21.59c-1.09,2.97,0.23,4.85,4.08,4.85c0.92,0,1.79-0.06,2.65-0.28l0.76-2.08C19,24.25,18,24.37,17.16,24.37
		c-1.79,0-2.57-0.63-2.02-2.2c0.58-1.69,1.72-2.12,3.2-2.12c0.87,0,1.89,0.22,2.5,0.49l0.71-2c-0.9-0.32-2.07-0.55-3.28-0.55
		C15.5,18,13.18,18.8,12.16,21.59z"></path>
	<path d="M27.3,18c-3.16,0-4.93,1.02-5.93,3.72c-1,2.68-0.04,4.72,4.01,4.72c3.14,0,4.91-1.02,5.92-3.73
		C32.29,20.04,31.33,18,27.3,18z M28.24,22.42c-0.58,1.57-1.32,2.03-2.55,2.03c-1.5,0-1.83-0.86-1.26-2.45
		c0.57-1.56,1.31-2.02,2.55-2.02C28.46,19.99,28.8,20.84,28.24,22.42z"></path>
	<path d="M33.75,24.11l-1.65,0.88c-0.28,0.15-0.41,0.31-0.53,0.65l-0.23,0.6h3.92l0.35-0.97h-2.01l0.79-0.41
		c0.85-0.41,1.35-0.64,1.6-1.28c0.34-0.88-0.18-1.46-1.77-1.46c-0.58,0-1.02,0.08-1.48,0.19l-0.35,0.96c0.32-0.09,0.77-0.2,1.36-0.2
		c0.65,0,0.75,0.21,0.65,0.49C34.32,23.79,34.04,23.96,33.75,24.11z"></path>
	<path d="M31,33h-2v-3c0-0.55-0.45-1-1-1h-8c-0.55,0-1,0.45-1,1v3h-2c-0.4,0-0.77,0.24-0.92,0.62s-0.07,0.8,0.22,1.09l7,7
		C23.49,41.9,23.74,42,24,42s0.51-0.1,0.71-0.29l7-7c0.29-0.29,0.37-0.72,0.22-1.09C31.77,33.24,31.4,33,31,33z M24,39.59L19.41,35
		H20c0.55,0,1-0.45,1-1v-3h6v3c0,0.55,0.45,1,1,1h0.59L24,39.59z"></path>
	<path d="M38,35.59l-2.29-2.29l-1.41,1.41l3,3C37.49,37.9,37.74,38,38,38s0.51-0.1,0.71-0.29l3-3l-1.41-1.41L38,35.59z"></path>
	<path d="M10,35.59l-2.29-2.29l-1.41,1.41l3,3C9.49,37.9,9.74,38,10,38s0.51-0.1,0.71-0.29l3-3l-1.41-1.41L10,35.59z"></path>
</g>
</svg>
