<svg version="1.1" id="Layer_1" xmlns="http://www.w3.org/2000/svg" xmlns:xlink="http://www.w3.org/1999/xlink" x="0px" y="0px" viewBox="0 0 48 48" xml:space="preserve">
<g>
	<path d="M26,10c1.93,0,3.5-1.57,3.5-3.5S27.93,3,26,3s-3.5,1.57-3.5,3.5S24.07,10,26,10z M26,4c1.38,0,2.5,1.12,2.5,2.5
		S27.38,9,26,9c-1.38,0-2.5-1.12-2.5-2.5S24.62,4,26,4z"></path>
	<path d="M46.48,32.28l-3-10c-0.32-1.07-1.28-1.78-2.39-1.78h-7.7l-1.2-3H39c0.23,0,0.42-0.15,0.48-0.37l1.08-4
		c0.04-0.15,0.01-0.31-0.08-0.43s-0.24-0.2-0.4-0.2h-9.91l-0.97-2.43c-0.1-0.26-0.39-0.38-0.65-0.28l-3.71,1.49
		c-0.26,0.1-0.38,0.39-0.28,0.65l4.8,12c0.38,0.96,1.29,1.57,2.32,1.57h7.54l2.47,8.22c0.06,0.22,0.26,0.36,0.48,0.36
		c0.05,0,0.1-0.01,0.14-0.02l3.83-1.15C46.41,32.82,46.56,32.55,46.48,32.28z M42.5,32.95l-2.43-8.09
		c-0.06-0.21-0.26-0.36-0.48-0.36h-7.91c-0.62,0-1.16-0.37-1.39-0.94l-4.62-11.54l2.78-1.11l0.91,2.28
		c0.08,0.19,0.26,0.31,0.46,0.31h9.59l-0.81,3h-7.18c-0.17,0-0.32,0.08-0.41,0.22s-0.11,0.31-0.05,0.47l1.6,4
		c0.08,0.19,0.26,0.31,0.46,0.31h8.04c0.67,0,1.25,0.43,1.44,1.07l2.86,9.52L42.5,32.95z"></path>
	<rect x="37.38" y="14.5" transform="matrix(0.2425 -0.9701 0.9701 0.2425 16.8826 51.6229)" width="8.25" height="1"></rect>
	<path d="M38.5,30.59V28c0-0.55-0.45-1-1-1h-5.96c-1.73,0-3.27-1.04-3.91-2.65l-4.65-11.62c-0.2-0.51-0.79-0.76-1.3-0.56l-0.88,0.35
		c-0.13-0.43-0.22-0.87-0.26-1.32h0.95c0.55,0,1-0.45,1-1V6.5v-1c0-0.55-0.45-1-1-1h-3c-0.55,0-1,0.45-1,1v4.71c0,0.55,0.45,1,1,1
		h1.02c0.04,0.58,0.15,1.15,0.33,1.7l-0.6,0.24C19.1,13.06,18.92,13,18.73,13h-3.15c-3.86,0-7,3.14-7,7c0,0.4,0.04,0.81,0.11,1.21
		C4.62,22.09,1.58,25.74,1.58,30c0,4.96,4.04,9,9,9c0.45,0,0.9-0.04,1.35-0.11c1.04,3.59,4.32,6.11,8.15,6.11
		c2.98,0,5.68-1.53,7.21-4c1.45,1.29,3.31,2,5.29,2c4.41,0,8-3.59,8-8C40.58,33,39.87,30.99,38.5,30.59z M18.5,10.21V5.5h3l0,4.71
		H18.5z M22.06,13.11l4.65,11.62c0.8,1.99,2.7,3.27,4.84,3.27h5.96v2.5l-7.12,0c-2.42,0-4.55-1.45-5.45-3.69l-5.12-12.8L22.06,13.11
		z M32.58,41c-0.22,0-0.44-0.01-0.65-0.04c-0.07-0.01-0.15-0.02-0.22-0.03c-0.14-0.02-0.28-0.04-0.42-0.07
		c-0.09-0.02-0.17-0.04-0.26-0.07c-0.12-0.03-0.24-0.07-0.35-0.1c-0.09-0.03-0.18-0.06-0.26-0.1c-0.11-0.04-0.22-0.09-0.33-0.14
		c-0.08-0.04-0.17-0.08-0.25-0.12c-0.12-0.06-0.23-0.13-0.34-0.19c-0.06-0.04-0.13-0.08-0.19-0.12c-0.17-0.11-0.33-0.23-0.49-0.36
		c0,0-0.01-0.01-0.01-0.01c-0.35-0.28-0.66-0.61-0.95-0.97c-0.79-1.02-1.27-2.29-1.27-3.68h-1c0,1.25,0.34,2.43,0.91,3.45
		c-0.17,0.11-0.3,0.26-0.38,0.46c-0.99,2.49-3.36,4.1-6.04,4.1c-1.95,0-3.71-0.86-4.9-2.24c-0.04-0.05-0.08-0.09-0.12-0.13
		c-0.21-0.26-0.41-0.54-0.58-0.84c-0.02-0.03-0.04-0.06-0.05-0.09c-0.18-0.32-0.33-0.65-0.46-1.01c0,0,0,0,0,0
		c-0.13-0.36-0.23-0.74-0.29-1.14c0,0,0-0.01,0-0.01c-0.05-0.34-0.09-0.69-0.09-1.04c0-1.74,0.68-3.37,1.9-4.6l-0.71-0.71
		c-1.42,1.42-2.2,3.3-2.2,5.3c0,0.07,0.01,0.15,0.01,0.22c-0.06,0.01-0.11,0.01-0.17,0.02C11.81,36.91,11.19,37,10.58,37
		c-3.86,0-7-3.14-7-7c0-3.62,2.83-6.68,6.44-6.97c0,0,0,0,0.01,0C10.21,23.01,10.4,23,10.58,23c1.87,0,3.63,0.73,4.95,2.05
		l0.71-0.71c-1.43-1.43-3.31-2.24-5.32-2.33c0-0.11,0-0.22-0.04-0.32c-0.2-0.55-0.3-1.12-0.3-1.69c0-2.76,2.24-5,5-5h2.47
		l5.02,12.55c1.2,3.01,4.07,4.95,7.31,4.95h7.56c0.23,0.2,0.64,1.19,0.64,2.5C38.58,38.31,35.89,41,32.58,41z"></path>
</g>
</svg>
