<svg xml:space="preserve" style="enable-background:new 0 0 48 48;" viewBox="0 0 48 48" y="0px" x="0px" xmlns:xlink="http://www.w3.org/1999/xlink" xmlns="http://www.w3.org/2000/svg" id="Layer_1" version="1.1">
<g>
	<rect height="1" width="14" y="14.5" x="16"></rect>
	<rect height="1" width="8" y="10.5" x="16"></rect>
	<path d="M7.9,22.2l-0.7,0.7l2,2C9.2,24.9,9.4,25,9.5,25s0.3,0,0.4-0.1l5-5l-0.7-0.7l-4.6,4.6L7.9,22.2z"></path>
	<path d="M46,40.5h-2.5V39c0-0.3-0.2-0.5-0.5-0.5h-7.7c0.4-0.7,0.7-1.6,0.7-2.5v-5.9l6.6,6.6c0.1,0.1,0.2,0.1,0.4,0.1s0.3,0,0.4-0.1
		l1.4-1.4c0.2-0.2,0.2-0.5,0-0.7l-8.1-8.1l2.2-2.2c0.2,0.1,0.4,0.2,0.6,0.2c0.4,0,0.8-0.1,1.1-0.4c0.6-0.6,0.6-1.5,0-2.1v0L36,17.4
		V13h6.4c0.4,0,0.7-0.2,0.9-0.5c0.5-0.8,0.7-1.6,0.7-2.5c0-2.8-2.2-5-5-5H15c-2.8,0-5,2.2-5,5v3.1c-4.5,0.5-8,4.3-8,8.9
		s3.5,8.4,8,8.9V33H3.6c-0.4,0-0.7,0.2-0.9,0.5C2.2,34.3,2,35.1,2,36c0,2.8,2.2,5,5,5h18.5v2c0,0.3,0.2,0.5,0.5,0.5h20
		c0.3,0,0.5-0.2,0.5-0.5v-2C46.5,40.7,46.3,40.5,46,40.5z M42.5,40.5h-13v-1h13V40.5z M29.3,38.5C28.5,38,28,37,28,36
		c0-0.2,0-0.3,0.1-0.5H30v-1h-1.6c0.2-0.3,0.2-0.7,0-1c-0.2-0.3-0.5-0.5-0.9-0.5H12v-3.1c1.9-0.2,3.6-1.1,4.8-2.4h8.1c0,0,0,0,0,0
		l3,3H16v1h12.9l1,1c0.3,0.3,0.7,0.4,1.1,0.4c0,0,0,0,0,0c0.4,0,0.8-0.2,1.1-0.4c0.5-0.5,0.5-1.1,0.3-1.7l1.7-1.7V36
		c0,1-0.5,2-1.3,2.5H29.3z M12,15.1L12,15.1c3.4,0.5,6,3.4,6,6.9c0,3.5-2.6,6.4-6,6.9l0,0c-0.3,0-0.7,0.1-1,0.1s-0.7,0-1-0.1l0,0
		c-3.4-0.5-6-3.4-6-6.9c0-3.5,2.6-6.4,6-6.9l0,0c0.3,0,0.7-0.1,1-0.1S11.7,15,12,15.1z M25.6,26.8c-0.1-0.1-0.1-0.2-0.1-0.4
		c0-0.1,0.1-0.3,0.1-0.4C25.7,26,25.9,26,26,26s0.3,0,0.4,0.1l5,4.9c0.2,0.2,0.2,0.5,0,0.7c-0.1,0.1-0.2,0.1-0.4,0.1h0
		c-0.1,0-0.3-0.1-0.4-0.1L25.6,26.8z M26.6,25.1c-0.6-0.3-1.2-0.2-1.7,0.3c-0.3,0.3-0.4,0.7-0.4,1.1c0,0,0,0,0,0h-6.9
		c0.6-0.9,1-1.9,1.2-3h9.4L26.6,25.1z M35.9,27.2l7.8,7.8L43,35.7l-7.8-7.8l0.4-0.4L35.9,27.2z M34.8,26.8l-0.7,0.7c0,0,0,0,0,0
		L31.7,30l-4.2-4.2l6.4-6.4l2.1,2.1l2.1,2.1L34.8,26.8z M39.8,23.3c-0.2,0.2-0.5,0.2-0.7,0l-4.9-4.9c-0.2-0.2-0.2-0.5,0-0.7
		c0.1-0.1,0.2-0.1,0.4-0.1s0.3,0,0.4,0.1l5,4.9C40,22.8,40,23.1,39.8,23.3z M39,7c1.7,0,3,1.3,3,3c0,0.3-0.1,0.7-0.2,1H36v-1
		C36,8.3,37.3,7,39,7z M15,7h20c-0.6,0.8-1,1.9-1,3v6.6c-0.2,0.1-0.4,0.2-0.6,0.3c-0.5,0.5-0.5,1.1-0.3,1.7l-3.9,3.9H19
		c0-0.2,0-0.3,0-0.5c0-0.9-0.1-1.7-0.4-2.5H30v-1H18.2c-1.2-2.4-3.5-4.1-6.2-4.4V10C12,8.3,13.3,7,15,7z M7,39c-1.7,0-3-1.3-3-3
		c0-0.3,0.1-0.7,0.2-1h21.9C26,35.3,26,35.7,26,36c0,1.1,0.4,2.2,1,3H7z M45.5,42.5h-19v-1H29h14h2.5V42.5z"></path>
</g>
</svg>
