<svg version="1.1" id="Layer_1" xmlns="http://www.w3.org/2000/svg" xmlns:xlink="http://www.w3.org/1999/xlink" x="0px" y="0px" viewBox="0 0 48 48" style="enable-background:new 0 0 48 48;" xml:space="preserve">
<g>
	<path d="M24,3C12.421,3,3,12.42,3,24s9.421,21,21,21s21-9.42,21-21S35.579,3,24,3z M24,43C13.523,43,5,34.477,5,24S13.523,5,24,5
		s19,8.523,19,19S34.477,43,24,43z"></path>
	<path d="M31.637,32.141c-1.486-1.486-4.076-1.486-5.562,0c-1.145,1.144-3.004,1.144-4.148,0c-1.486-1.486-4.076-1.486-5.562,0
		c-1.144,1.143-3.006,1.145-4.149,0l-0.707,0.707c1.533,1.533,4.028,1.533,5.563,0c1.145-1.144,3.004-1.144,4.148,0
		c0.767,0.767,1.774,1.15,2.781,1.15s2.015-0.384,2.781-1.15c1.145-1.144,3.004-1.144,4.148,0c1.534,1.532,4.029,1.534,5.563,0
		l-0.707-0.707C34.64,33.285,32.779,33.283,31.637,32.141z"></path>
	<path d="M18.005,28.597l1.414-1.414c-1.729-1.729-4.542-1.728-6.271,0c-0.949,0.948-2.492,0.948-3.441,0l-1.414,1.414
		c0.864,0.864,1.999,1.296,3.135,1.296s2.271-0.432,3.135-1.296C15.482,27.677,17.085,27.679,18.005,28.597z"></path>
	<path d="M38.293,27.183c-0.949,0.948-2.492,0.948-3.441,0c-1.728-1.728-4.541-1.729-6.271,0l1.414,1.414
		c0.92-0.917,2.522-0.919,3.442,0c0.864,0.864,1.999,1.296,3.135,1.296s2.271-0.432,3.135-1.296L38.293,27.183z"></path>
	<path d="M24,30.192c1.824,0,3.308-1.484,3.308-3.308c0-1.473-0.974-2.71-2.308-3.137v-1.402h3.615v-2H25v-1.461h3.615v-2H25v-1.462
		h3.615v-2H25v-2.692h-2v13.017c-1.333,0.427-2.308,1.663-2.308,3.137C20.692,28.708,22.176,30.192,24,30.192z M24,25.577
		c0.721,0,1.308,0.587,1.308,1.308S24.721,28.192,24,28.192s-1.308-0.586-1.308-1.308S23.279,25.577,24,25.577z"></path>
</g>
</svg>
