<svg version="1.1" id="Layer_1" xmlns="http://www.w3.org/2000/svg" xmlns:xlink="http://www.w3.org/1999/xlink" x="0px" y="0px" viewBox="0 0 48 48" style="enable-background:new 0 0 48 48;" xml:space="preserve">
<g>
	<path d="M24,3C12.421,3,3,12.42,3,24s9.421,21,21,21s21-9.42,21-21S35.579,3,24,3z M24,43C13.523,43,5,34.477,5,24S13.523,5,24,5
		s19,8.523,19,19S34.477,43,24,43z"></path>
	<path d="M37,21h-2c-0.553,0-1,0.448-1,1v1h-1v-2.5c0-0.827-0.673-1.5-1.5-1.5H29v-1.5c0-0.827-0.673-1.5-1.5-1.5H25v-1h2
		c0.552,0,1-0.448,1-1c0-0.552-0.448-1-1-1h-8c-0.552,0-1,0.448-1,1c0,0.552,0.448,1,1,1h2v1h-2.5c-0.827,0-1.5,0.673-1.5,1.5V18
		h-2.5c-0.827,0-1.5,0.673-1.5,1.5V23h-1v-3c0-0.552-0.448-1-1-1s-1,0.448-1,1v8c0,0.552,0.448,1,1,1s1-0.448,1-1v-3h1v3.5
		c0,0.827,0.673,1.5,1.5,1.5h2.672c0.263,0,0.521,0.107,0.707,0.293l1.828,1.828C20.273,32.688,21.027,33,21.828,33H24.5
		c0,1.378-1.121,2.5-2.5,2.5h-2v1h2c1.379,0,2.5,1.122,2.5,2.5v2h1v-2c0-1.378,1.121-2.5,2.5-2.5h2v-1h-2
		c-1.379,0-2.5-1.122-2.5-2.5h6c0.827,0,1.5-0.673,1.5-1.5V30h1v1c0,0.552,0.447,1,1,1h2c0.494,0,2,0,2-5.5S37.494,21,37,21z
		 M26.199,36c-0.491,0.295-0.903,0.708-1.199,1.199c-0.296-0.49-0.708-0.903-1.199-1.199c0.491-0.295,0.903-0.708,1.199-1.199
		C25.296,35.292,25.708,35.705,26.199,36z M36.627,30H36v-1c0-0.552-0.447-1-1-1h-3c-0.553,0-1,0.448-1,1v2h-5.5h-1h-2.672
		c-0.263,0-0.521-0.107-0.707-0.293l-1.828-1.828C18.727,28.312,17.973,28,17.172,28H15v-8h3c0.553,0,1-0.448,1-1v-1h8v2
		c0,0.552,0.447,1,1,1h3v3c0,0.552,0.447,1,1,1h3c0.553,0,1-0.448,1-1v-1h0.627C37.122,24.246,37.122,28.754,36.627,30z"></path>
	<path d="M31.5,17h1c0-1.378,1.121-2.5,2.5-2.5v-1c-1.379,0-2.5-1.122-2.5-2.5h-1c0,1.378-1.121,2.5-2.5,2.5v1
		C30.379,14.5,31.5,15.622,31.5,17z M32,12.801c0.296,0.49,0.708,0.903,1.199,1.199c-0.491,0.295-0.903,0.708-1.199,1.199
		c-0.296-0.49-0.708-0.903-1.199-1.199C31.292,13.705,31.704,13.292,32,12.801z"></path>
	<path d="M22,26.5c-0.827,0-1.5,0.673-1.5,1.5s0.673,1.5,1.5,1.5s1.5-0.673,1.5-1.5S22.827,26.5,22,26.5z M22,28.5
		c-0.275,0-0.5-0.224-0.5-0.5s0.225-0.5,0.5-0.5s0.5,0.224,0.5,0.5S22.275,28.5,22,28.5z"></path>
	<path d="M14,16.5c0.827,0,1.5-0.673,1.5-1.5s-0.673-1.5-1.5-1.5s-1.5,0.673-1.5,1.5S13.173,16.5,14,16.5z M14,14.5
		c0.275,0,0.5,0.224,0.5,0.5s-0.225,0.5-0.5,0.5s-0.5-0.224-0.5-0.5S13.725,14.5,14,14.5z"></path>
	<path d="M16,31.5c-1.379,0-2.5,1.122-2.5,2.5s1.121,2.5,2.5,2.5s2.5-1.122,2.5-2.5S17.379,31.5,16,31.5z M16,35.5
		c-0.827,0-1.5-0.673-1.5-1.5s0.673-1.5,1.5-1.5s1.5,0.673,1.5,1.5S16.827,35.5,16,35.5z"></path>
</g>
</svg>
