<svg version="1.1" id="Layer_1" xmlns="http://www.w3.org/2000/svg" xmlns:xlink="http://www.w3.org/1999/xlink" x="0px" y="0px" viewBox="0 0 48 48" xml:space="preserve">
<g>
	<path d="M15,37c-2.21,0-4,1.79-4,4s1.79,4,4,4s4-1.79,4-4S17.21,37,15,37z M15,43c-1.1,0-2-0.9-2-2s0.9-2,2-2s2,0.9,2,2
		S16.1,43,15,43z"></path>
	<path d="M36,37c-2.21,0-4,1.79-4,4s1.79,4,4,4s4-1.79,4-4S38.21,37,36,37z M36,43c-1.1,0-2-0.9-2-2s0.9-2,2-2s2,0.9,2,2
		S37.1,43,36,43z"></path>
	<path d="M43.77,17.36c-0.18-0.21-0.43-0.34-0.71-0.36l-7.86-0.46c-0.09-0.75-0.36-1.47-0.86-2.08C33.58,13.53,32.46,13,31.25,13
		h-2.5v-1.58c0-1.34-1.09-2.42-2.42-2.42c-1,0-1.88,0.6-2.25,1.53L22.3,15H19c-0.38,0-0.7,0.22-0.87,0.54l-8.49-0.5L8.99,9.88
		C8.93,9.38,8.5,9,8,9H2v2h5.12l2.45,19.62c0.31,2.5,2.45,4.38,4.96,4.38h22.94c2.52,0,4.65-1.88,4.96-4.38l1.56-12.5
		C44.03,17.85,43.95,17.57,43.77,17.36z M20,17h1.98v6H20V17z M40.45,30.37c-0.19,1.5-1.47,2.63-2.98,2.63H14.53
		c-1.51,0-2.79-1.13-2.98-2.63L9.89,17.05L18,17.53V24c0,0.55,0.45,1,1,1h3.98c0.55,0,1-0.45,1-1v-7.81l1.96-4.93
		C26,11.11,26.16,11,26.33,11c0.23,0,0.42,0.19,0.42,0.42V14c0,0.55,0.45,1,1,1h3.5c0.6,0,1.17,0.27,1.55,0.73
		c0.38,0.47,0.53,1.07,0.42,1.66l-0.8,4C32.23,22.32,31.4,23,30.45,23H26v2h4.45c1.9,0,3.55-1.35,3.92-3.22l0.65-3.25l6.85,0.4
		L40.45,30.37z"></path>
	<rect x="14.38" y="9" transform="matrix(0.5 -0.866 0.866 0.5 -2.0882 18.3833)" width="1" height="4"></rect>
	<rect x="19.5" y="3.88" transform="matrix(0.866 -0.5 0.5 0.866 -0.2585 10.7866)" width="1" height="4"></rect>
	<rect x="26.5" y="2" width="1" height="4"></rect>
	<rect x="32" y="5.38" transform="matrix(0.5003 -0.8658 0.8658 0.5003 11.901 32.374)" width="4" height="1"></rect>
	<rect x="37.12" y="10.5" transform="matrix(0.8661 -0.4999 0.4999 0.8661 -0.2592 21.0323)" width="4" height="1"></rect>
</g>
</svg>
