<svg version="1.1" id="Layer_1" xmlns="http://www.w3.org/2000/svg" xmlns:xlink="http://www.w3.org/1999/xlink" x="0px" y="0px" viewBox="0 0 48 48" xml:space="preserve">
<g>
	<path d="M11.29,11.26c0.44-0.44,0.92-0.87,1.41-1.26l-1.25-1.56c-0.55,0.44-1.07,0.91-1.57,1.4C6.09,13.61,4,18.62,4,23.95h2
		C6,19.15,7.88,14.65,11.29,11.26z"></path>
	<path d="M24.05,6V5.5c0.31,0,0.63,0.01,0.94,0.03l0.05-1c-0.33-0.02-0.66-0.03-0.99-0.03V4c-0.7,0-1.41,0.04-2.1,0.11l0.21,1.99
		C22.79,6.03,23.42,6,24.05,6z"></path>
	<path d="M16.47,7.66l-0.84-1.82c-0.99,0.46-1.96,1-2.86,1.62l1.12,1.66C14.71,8.56,15.57,8.07,16.47,7.66z"></path>
	<path d="M20.69,6.31l-0.37-1.97c-1.08,0.2-2.14,0.49-3.17,0.87l0.68,1.88C18.76,6.75,19.72,6.49,20.69,6.31z"></path>
	<path d="M37.83,10.25c-0.24-0.24-0.49-0.48-0.74-0.71l-0.67,0.74c0.24,0.22,0.48,0.44,0.71,0.67L37.83,10.25z"></path>
	<path d="M28.8,5.1c-0.61-0.16-1.24-0.28-1.86-0.38l-0.15,0.99c0.59,0.09,1.19,0.21,1.76,0.36L28.8,5.1z"></path>
	<path d="M35.61,8.34c-0.51-0.38-1.04-0.73-1.58-1.05l-0.52,0.86c0.51,0.31,1.02,0.64,1.5,1L35.61,8.34z"></path>
	<path d="M32.36,6.39c-0.57-0.27-1.16-0.52-1.75-0.73L30.27,6.6c0.56,0.2,1.12,0.43,1.66,0.69L32.36,6.39z"></path>
	<path d="M5,25.59l-2.29-2.29l-1.41,1.41l3,3C4.49,27.9,4.74,28,5,28s0.51-0.1,0.71-0.29l3-3l-1.41-1.41L5,25.59z"></path>
	<path d="M36.71,36.74c-0.45,0.44-0.92,0.87-1.41,1.26l1.26,1.56c0.54-0.44,1.07-0.91,1.57-1.4C41.91,34.39,44,29.38,44,24.05h-2
		C42,28.84,40.12,33.35,36.71,36.74z"></path>
	<path d="M23.95,42v0.5c-0.31,0-0.63-0.01-0.94-0.03l-0.06,1c0.33,0.02,0.66,0.03,1,0.03V44c0.7,0,1.4-0.04,2.1-0.11l-0.2-1.99
		C25.21,41.97,24.58,42,23.95,42z"></path>
	<path d="M27.31,41.69l0.37,1.96c1.08-0.2,2.14-0.49,3.17-0.87l-0.69-1.88C29.24,41.25,28.28,41.51,27.31,41.69z"></path>
	<path d="M31.53,40.34l0.84,1.82c0.99-0.46,1.96-1,2.86-1.62l-1.12-1.65C33.29,39.44,32.43,39.93,31.53,40.34z"></path>
	<path d="M10.17,37.75c0.24,0.24,0.49,0.48,0.74,0.71l0.67-0.74c-0.24-0.22-0.48-0.44-0.71-0.67L10.17,37.75z"></path>
	<path d="M12.39,39.66c0.51,0.38,1.04,0.73,1.58,1.06l0.52-0.86c-0.51-0.31-1.02-0.65-1.5-1L12.39,39.66z"></path>
	<path d="M15.64,41.61c0.57,0.27,1.16,0.52,1.75,0.73l0.34-0.94c-0.56-0.2-1.12-0.43-1.66-0.69L15.64,41.61z"></path>
	<path d="M19.2,42.9c0.62,0.16,1.24,0.28,1.86,0.38l0.15-0.99c-0.58-0.09-1.18-0.21-1.76-0.36L19.2,42.9z"></path>
	<path d="M43.71,20.29c-0.39-0.39-1.02-0.39-1.41,0l-3,3l1.41,1.41L43,22.41l2.29,2.29l1.41-1.41L43.71,20.29z"></path>
	<path d="M26.06,22.83l-1.22-0.21l0.72-4.17c0.1-0.56-0.23-1.08-0.78-1.24c-0.55-0.16-1.1,0.11-1.32,0.63l-2.64,6.28
		c-0.18,0.42-0.15,0.9,0.07,1.3c0.22,0.4,0.61,0.68,1.06,0.76l1.22,0.21l-0.72,4.17c-0.1,0.56,0.23,1.08,0.77,1.24
		c0.11,0.03,0.21,0.05,0.32,0.05c0.43,0,0.83-0.25,1-0.68l2.64-6.28c0.18-0.42,0.15-0.9-0.07-1.3S26.51,22.9,26.06,22.83z
		 M26.26,24.5l-2.64,6.28c-0.01,0.03-0.03,0.08-0.12,0.06c-0.09-0.02-0.08-0.08-0.07-0.11l0.81-4.66c0.02-0.13-0.01-0.26-0.08-0.37
		c-0.08-0.11-0.19-0.18-0.32-0.21l-1.72-0.3c-0.15-0.03-0.28-0.12-0.35-0.25c-0.07-0.13-0.08-0.29-0.02-0.43l2.64-6.28
		c0.01-0.03,0.03-0.06,0.08-0.06c0.01,0,0.03,0,0.04,0.01c0.09,0.02,0.08,0.08,0.07,0.11l-0.81,4.66c-0.02,0.13,0.01,0.26,0.08,0.37
		c0.08,0.11,0.19,0.18,0.32,0.2l1.72,0.3c0.15,0.03,0.28,0.12,0.35,0.25C26.31,24.2,26.32,24.36,26.26,24.5z"></path>
	<path d="M28,12v-1c0-1.1-0.9-2-2-2h-4c-1.1,0-2,0.9-2,2v1c-1.65,0-3,1.35-3,3v19c0,1.65,1.35,3,3,3h8c1.65,0,3-1.35,3-3V15
		C31,13.35,29.65,12,28,12z M22,11h4v1h-4V11z M29,34c0,0.55-0.45,1-1,1h-8c-0.55,0-1-0.45-1-1V15c0-0.55,0.45-1,1-1h8
		c0.55,0,1,0.45,1,1V34z"></path>
</g>
</svg>
