<svg version="1.1" id="Layer_1" xmlns="http://www.w3.org/2000/svg" xmlns:xlink="http://www.w3.org/1999/xlink" x="0px" y="0px" viewBox="0 0 48 48" style="enable-background:new 0 0 48 48;" xml:space="preserve">
<path d="M43.34,4.66C42.58,3.9,41.7,3.31,40.88,3c-1.13-0.43-2.15-0.3-2.8,0.35L36.1,5.34c-2.39-1.24-4.48-1.28-5.69-0.07
	L19.39,16.3c-1.43,1.42-1.1,4.06,0.78,6.89l-1.26,1.26c-1.26,1.26-1.96,2.94-1.96,4.72c0,1.78,0.7,3.46,1.96,4.72
	c0.04,0.04,0.04,0.11,0,0.15l-0.22,0.21c-0.64,0.03-1.24,0.29-1.7,0.75l-0.96,0.96c-0.46,0.46-0.72,1.06-0.74,1.7l-0.22,0.21
	c-0.04,0.05-0.11,0.05-0.15,0c-1.26-1.26-2.94-1.95-4.72-1.95c-1.78,0-3.46,0.69-4.72,1.95L3.26,40.1c-0.91,0.9-0.58,2.49,0.78,3.86
	c0.82,0.82,1.76,1.29,2.58,1.29c0.5,0,0.96-0.18,1.28-0.51l2.23-2.22c0.04-0.04,0.11-0.04,0.15,0c1.26,1.26,2.93,1.95,4.72,1.95
	c1.78,0,3.45-0.69,4.71-1.95l0.22-0.22c0.64-0.02,1.24-0.28,1.7-0.74l0.96-0.96c0.46-0.46,0.72-1.06,0.74-1.7l0.22-0.22
	c1.26-1.26,1.96-2.93,1.96-4.72c0-1.78-0.7-3.46-1.96-4.72c-0.04-0.04-0.04-0.1,0-0.15l1.26-1.26c2.83,1.88,5.47,2.21,6.89,0.78
	l11.03-11.02c1.21-1.22,1.17-3.3-0.07-5.69l1.99-1.98C45.81,8.75,45.27,6.59,43.34,4.66z M18.48,41.28
	c-0.93,0.93-2.17,1.44-3.48,1.44c-1.32,0-2.56-0.51-3.49-1.44c-0.72-0.72-1.9-0.72-2.62,0l-2.21,2.21c-0.13,0.05-0.73-0.1-1.4-0.77
	c-0.67-0.67-0.83-1.28-0.78-1.39l2.22-2.22c0.93-0.93,2.17-1.44,3.48-1.44c1.32,0,2.55,0.51,3.48,1.44c0.73,0.72,1.9,0.72,2.63,0
	l0.14-0.14c0.02,0.05,0.06,0.09,0.11,0.14l0.41,0.41v0l1.1,1.1v0l0.41,0.41c0.04,0.04,0.09,0.09,0.14,0.11L18.48,41.28z
	 M21.58,38.88c-0.01,0.18-0.09,0.35-0.23,0.48l-0.95,0.96c-0.13,0.13-0.31,0.22-0.49,0.24c-0.2,0.03-0.41-0.02-0.59-0.12
	c-0.05-0.04-0.1-0.08-0.14-0.12l-0.37-0.38l-1.17-1.17l-0.37-0.37c-0.04-0.04-0.08-0.08-0.11-0.13v-0.01
	c-0.12-0.18-0.17-0.39-0.12-0.59c0.02-0.18,0.09-0.34,0.23-0.48l0.96-0.96c0.13-0.13,0.3-0.22,0.49-0.24
	c0.04-0.01,0.07-0.01,0.11-0.01c0.17,0,0.33,0.05,0.47,0.14c0,0,0,0,0.01,0c0.04,0.03,0.09,0.07,0.13,0.11l0.38,0.38l1.16,1.17
	l0.37,0.37c0.05,0.05,0.08,0.09,0.11,0.15C21.58,38.47,21.63,38.68,21.58,38.88z M22.31,27.86c-0.72,0.72-0.72,1.9,0,2.62
	c1.92,1.92,1.92,5.05,0,6.97l-0.14,0.14c-0.02-0.05-0.06-0.09-0.11-0.14l-0.4-0.4v0l-1.11-1.11l-0.41-0.41
	c-0.04-0.04-0.09-0.08-0.14-0.11l0.14-0.14c0.73-0.73,0.73-1.9,0-2.63c-1.92-1.92-1.92-5.04,0-6.96l3.82-3.83
	c0.12-0.05,0.73,0.1,1.4,0.78c0.68,0.67,0.83,1.27,0.79,1.38L22.31,27.86z M30.46,27.37v0.01c-0.48,0.48-1.47,0.5-2.71,0.03
	c-0.75-0.28-1.53-0.71-2.31-1.27l0.54-0.54l0.88-0.87c0.18-0.19,0.27-0.42,0.27-0.69c0.04-0.61-0.34-1.39-1.06-2.11
	c-0.43-0.43-0.92-0.77-1.38-0.94c-0.29-0.11-0.53-0.14-0.73-0.12c-0.35,0.01-0.57,0.16-0.69,0.27l-0.87,0.88l-0.54,0.54
	c-0.56-0.78-0.99-1.56-1.27-2.31c-0.47-1.24-0.45-2.23,0.03-2.71h0.01c0.25-0.25,0.63-0.37,1.09-0.37c0.1,0,0.21,0.01,0.32,0.01
	c1.42,0.15,3.53,1.21,5.55,3.23c2.02,2.02,3.09,4.13,3.23,5.55C30.87,26.59,30.76,27.07,30.46,27.37z M37.69,20.15
	c-0.01,0.02-0.02,0.03-0.03,0.04l-5.84,5.83c-0.02-0.29-0.07-0.6-0.14-0.92c-0.41-1.64-1.59-3.6-3.39-5.39
	c-1.79-1.8-3.75-2.98-5.39-3.39c-0.32-0.07-0.63-0.12-0.92-0.14l5.841-5.841c0.3-0.299,0.789-0.419,1.409-0.349
	c0.39,0.03,0.83,0.14,1.3,0.32c1.38,0.52,2.89,1.55,4.25,2.91c1.36,1.36,2.39,2.87,2.91,4.25c0.18,0.47,0.29,0.91,0.32,1.3
	C38.07,19.37,37.97,19.85,37.69,20.15z M41.49,16.35l-2.47,2.47c-0.02-0.28-0.06-0.59-0.15-0.91c-0.06-0.25-0.14-0.52-0.24-0.79
	c-0.57-1.51-1.69-3.15-3.14-4.61c-1.46-1.45-3.1-2.57-4.61-3.14c-0.27-0.1-0.54-0.18-0.79-0.24C29.77,9.04,29.46,9,29.18,8.98
	l2.47-2.47C32.27,5.89,33.76,6.05,35.5,7c0.15,0.08,0.29,0.17,0.44,0.26c0.15,0.08,0.29,0.18,0.44,0.28c0.2,0.13,0.4,0.27,0.6,0.41
	c0.54,0.41,1.09,0.89,1.64,1.43c0.52,0.53,1,1.08,1.43,1.64v0.01c0.15,0.19,0.29,0.39,0.42,0.59c0.09,0.14,0.19,0.29,0.28,0.43
	c0.08,0.15,0.17,0.3,0.25,0.45c0.21,0.38,0.39,0.77,0.53,1.14C41.99,14.88,41.98,15.86,41.49,16.35z M43.41,8.68l-2.22,2.22
	c-0.15-0.2-0.29-0.41-0.45-0.61c-0.42-0.55-0.9-1.09-1.42-1.61c-0.52-0.53-1.07-1-1.61-1.42c-0.2-0.16-0.41-0.31-0.61-0.45
	l2.22-2.22c0.1-0.1,0.42-0.15,0.95,0.05c0.58,0.22,1.25,0.68,1.83,1.26C43.33,7.13,43.7,8.38,43.41,8.68z"></path>
</svg>
