<svg version="1.1" id="Layer_1" xmlns="http://www.w3.org/2000/svg" xmlns:xlink="http://www.w3.org/1999/xlink" x="0px" y="0px" viewBox="0 0 48 48" style="enable-background:new 0 0 48 48;" xml:space="preserve">
<g>
	<path d="M10.093,39.948c0-0.001,0-0.001,0-0.002c-0.377-0.905-0.817-1.286-1.268-1.098c-0.208,0.087-0.438,0.309-0.354,0.874
		c0.035,0.232,0.119,0.517,0.236,0.798c0.312,0.757,0.668,1.146,1.041,1.146c0.074,0,0.149-0.016,0.225-0.047
		c0.209-0.086,0.439-0.307,0.355-0.874C10.294,40.516,10.21,40.231,10.093,39.948z"></path>
	<path d="M44.223,32.846c-0.816,0.337-1.845,0.073-2.9-0.743c-0.666-0.516-1.275-1.223-1.812-2.04l2.277,0.108
		c0.068,0.003,0.136,0.005,0.204,0.005c3.138,0,5.089-3.493,3.366-6.18l-5.338-8.326C35.59,8.584,27.959,4.353,19.604,4.353H6.014
		c-2.48,0-4.366,2.227-3.958,4.673l2.702,16.212c0.311,1.864,1.88,3.259,3.768,3.349l15.458,0.736L7.678,36.077
		c-1.317,0.546-1.57,2.744-0.588,5.114c0.838,2.021,2.222,3.32,3.429,3.319c0.207,0,0.41-0.038,0.604-0.118l2.224-0.922
		c0.189,0.178,0.374,0.367,0.571,0.519c0.937,0.726,1.889,1.098,2.771,1.098c0.391,0,0.768-0.073,1.124-0.221L44.605,33.77
		c0.255-0.105,0.376-0.398,0.271-0.653C44.771,32.862,44.48,32.738,44.223,32.846z M6.73,24.909L4.028,8.697
		C3.93,8.104,4.089,7.524,4.478,7.065c0.389-0.459,0.935-0.712,1.536-0.712h13.589c7.661,0,14.659,3.879,18.732,10.396l5.338,8.326
		c0.582,0.907,0.245,1.736,0.073,2.05c-0.258,0.472-0.673,0.801-1.158,0.952c-0.07-0.125-0.128-0.256-0.206-0.378l-4.259-6.643
		c-3.878-6.204-10.56-9.907-17.872-9.907H6.663c-0.409,0-0.66,0.225-0.773,0.358s-0.294,0.418-0.227,0.822l1.583,9.498
		c0,0.001,0,0.002,0,0.003l0,0l0.771,4.629C7.358,26.213,6.851,25.63,6.73,24.909z M16.751,13.551
		c0.996,1.301,1.147,3.923,0.387,5.66c-2.209-0.876-5.88-1.321-8.099-0.379c0.06-0.07,0.104-0.151,0.17-0.217l5.439-5.439
		c0.112-0.112,0.238-0.203,0.362-0.297C15.713,12.73,16.286,12.941,16.751,13.551z M13.941,12.468l-5.439,5.439
		c-0.288,0.288-0.527,0.613-0.724,0.96L6.663,12.15h7.666C14.198,12.254,14.061,12.348,13.941,12.468z M9.064,26.611l-0.836-5.033
		c-0.02-0.138-0.016-0.276-0.019-0.415c0.036-0.433,0.234-0.786,0.606-1.069c1.624-1.232,5.945-0.911,8.343,0.215
		c0.232,0.11,0.517,0.022,0.646-0.204c1.17-2.041,1.045-5.455-0.26-7.162c-0.245-0.321-0.526-0.568-0.832-0.752
		c0.136-0.016,0.271-0.04,0.41-0.04V12.15h3.127c6.966,0,13.33,3.528,17.03,9.447l4.205,6.558l-3.065-0.146
		c-0.433-0.983-1.021-1.834-1.677-2.404c-0.788-0.683-1.593-0.907-2.274-0.625l-6.151,2.548L9.064,26.611z M8.014,40.809
		c-0.38-0.917-0.559-1.844-0.504-2.61c0.044-0.625,0.25-1.072,0.551-1.197c0.064-0.026,0.137-0.04,0.215-0.04
		c0.285,0,0.649,0.175,1.021,0.497c0.581,0.504,1.109,1.286,1.489,2.203s0.56,1.844,0.505,2.61c-0.044,0.625-0.25,1.072-0.551,1.197
		C10.084,43.733,8.78,42.658,8.014,40.809z M12.615,42.691l-0.408,0.169c0.039-0.18,0.065-0.368,0.078-0.569
		C12.391,42.432,12.505,42.559,12.615,42.691z M17.43,43.943c-0.817,0.339-1.846,0.072-2.9-0.743
		c-1.136-0.88-2.137-2.272-2.82-3.922c-0.438-1.058-1.062-1.972-1.757-2.575c-0.143-0.124-0.286-0.215-0.429-0.308l25.33-10.492
		c0.654-0.267,1.958,0.808,2.726,2.659c0.749,1.809,1.861,3.346,3.132,4.33c0.47,0.364,0.944,0.64,1.412,0.823L17.43,43.943z"></path>
	<rect x="12.945" y="38.936" transform="matrix(0.9238 -0.3828 0.3828 0.9238 -14.0349 8.3404)" width="1.99" height="1"></rect>
	<rect x="15.707" y="37.79" transform="matrix(0.9238 -0.3828 0.3828 0.9238 -13.3852 9.3123)" width="2" height="1"></rect>
	<rect x="32.337" y="30.902" transform="matrix(0.9238 -0.3828 0.3828 0.9238 -9.4816 15.1538)" width="2" height="1"></rect>
	<rect x="35.108" y="29.754" transform="matrix(0.9238 -0.3828 0.3828 0.9238 -8.831 16.1273)" width="2" height="1"></rect>
	<rect x="29.565" y="32.05" transform="matrix(0.9238 -0.3828 0.3828 0.9238 -10.1322 14.1802)" width="2" height="1"></rect>
	<rect x="18.479" y="36.643" transform="matrix(0.9238 -0.3828 0.3828 0.9238 -12.7349 10.2859)" width="2" height="1"></rect>
	<rect x="21.25" y="35.494" transform="matrix(0.9238 -0.3828 0.3828 0.9238 -12.0841 11.2594)" width="2" height="1"></rect>
	<rect x="26.793" y="33.198" transform="matrix(0.9238 -0.3828 0.3828 0.9238 -10.7829 13.2066)" width="2.001" height="1"></rect>
	<rect x="24.022" y="34.346" transform="matrix(0.9238 -0.3828 0.3828 0.9238 -11.4335 12.2329)" width="2" height="1"></rect>
</g>
</svg>
