<svg version="1.1" id="Layer_1" xmlns="http://www.w3.org/2000/svg" xmlns:xlink="http://www.w3.org/1999/xlink" x="0px" y="0px" viewBox="0 0 48 48" xml:space="preserve">
<g>
	<path d="M14.5,34.83c2.41,0,4.96-0.82,4.96-2.33s-2.56-2.33-4.96-2.33s-4.96,0.82-4.96,2.33S12.09,34.83,14.5,34.83z M14.5,31.16
		c2.38,0,3.96,0.8,3.96,1.33s-1.58,1.33-3.96,1.33s-3.96-0.8-3.96-1.33S12.12,31.16,14.5,31.16z"></path>
	<path d="M33.5,21C27.61,21,23,23.85,23,27.49v1.15C21.11,27.03,18.04,26,14.5,26C8.61,26,4,28.85,4,32.49v4.88
		C4,41.09,8.61,44,14.5,44c4.26,0,7.84-1.53,9.5-3.77c1.66,2.25,5.24,3.77,9.5,3.77c5.89,0,10.5-2.91,10.5-6.62v-9.88
		C44,23.85,39.39,21,33.5,21z M25,32.49v-2.43c1.55,1.86,4.73,3.12,8.5,3.12c3.77,0,6.96-1.26,8.5-3.13v2.43h0
		c0,2.55-3.89,4.7-8.5,4.7c-4.57,0-8.43-2.12-8.5-4.64V32.49z M33.5,23c4.6,0,8.49,2.05,8.5,4.48h0c0,2.55-3.89,4.7-8.5,4.7
		c-4.57,0-8.43-2.12-8.5-4.64v-0.06C25,25.06,28.89,23,33.5,23z M14.5,28c4.6,0,8.49,2.05,8.5,4.48h0c0,2.55-3.89,4.7-8.5,4.7
		c-4.57,0-8.43-2.12-8.5-4.64v-0.06C6,30.06,9.89,28,14.5,28z M14.5,42C9.89,42,6,39.88,6,37.38v-2.31c1.55,1.86,4.73,3.12,8.5,3.12
		c3.77,0,6.96-1.26,8.5-3.13v2.32C23,39.88,19.11,42,14.5,42z M33.5,42c-4.61,0-8.5-2.12-8.5-4.62v-2.31
		c1.55,1.86,4.73,3.12,8.5,3.12c3.77,0,6.96-1.26,8.5-3.13v2.32C42,39.88,38.11,42,33.5,42z"></path>
	<path d="M33.5,29.83c2.41,0,4.96-0.82,4.96-2.33s-2.56-2.33-4.96-2.33s-4.96,0.82-4.96,2.33S31.09,29.83,33.5,29.83z M33.5,26.16
		c2.38,0,3.96,0.8,3.96,1.33s-1.58,1.33-3.96,1.33s-3.96-0.8-3.96-1.33S31.12,26.16,33.5,26.16z"></path>
	<path d="M9,14.24c0-0.38,0.21-0.72,0.55-0.89l13.55-6.78c0.56-0.28,1.23-0.28,1.79,0l13.55,6.78c0.34,0.17,0.55,0.51,0.55,0.89V20
		h2v-5.76c0-1.14-0.64-2.17-1.66-2.68L25.79,4.78c-1.12-0.56-2.46-0.56-3.58,0L8.66,11.55C7.64,12.06,7,13.09,7,14.24V25h2V14.24z"></path>
</g>
</svg>
