<svg version="1.1" id="Layer_1" xmlns="http://www.w3.org/2000/svg" xmlns:xlink="http://www.w3.org/1999/xlink" x="0px" y="0px" viewBox="0 0 48 48" xml:space="preserve">
<g>
	<g>
		<path d="M5,36.5c-0.08,0-0.15-0.02-0.22-0.05l-3-1.5C1.61,34.86,1.5,34.69,1.5,34.5s0.11-0.36,0.28-0.45l3-1.5
			c0.15-0.08,0.34-0.07,0.49,0.02C5.41,32.67,5.5,32.83,5.5,33v3c0,0.17-0.09,0.33-0.24,0.43C5.18,36.47,5.09,36.5,5,36.5z
			 M3.12,34.5l1.38,0.69v-1.38L3.12,34.5z"></path>
	</g>
	<g>
		<path d="M10,35H8v-1h2V35z M7,35H5v-1h2V35z"></path>
	</g>
</g>
<g>
	<g>
		<path d="M43,36.5c-0.09,0-0.18-0.03-0.26-0.07c-0.15-0.09-0.24-0.25-0.24-0.43v-3c0-0.17,0.09-0.33,0.24-0.43
			c0.15-0.09,0.33-0.1,0.49-0.02l3,1.5c0.17,0.08,0.28,0.26,0.28,0.45s-0.11,0.36-0.28,0.45l-3,1.5C43.15,36.48,43.08,36.5,43,36.5z
			 M43.5,33.81v1.38l1.38-0.69L43.5,33.81z"></path>
	</g>
	<g>
		<path d="M43,35h-2v-1h2V35z M40,35h-2v-1h2V35z"></path>
	</g>
</g>
<g>
	<path d="M18.09,42.91c-0.34,0-0.67-0.05-1-0.16l-1.55-0.52c-0.8-0.27-1.45-0.83-1.83-1.59c-0.2-0.4-0.6-0.64-1.04-0.64H4v-2h8.66
		c1.21,0,2.29,0.67,2.83,1.75c0.14,0.27,0.38,0.49,0.67,0.58l1.55,0.52c0.21,0.07,0.43,0.08,0.65,0.02l2.86-0.72
		c0.5-0.13,1.03-0.13,1.54,0l2.7,0.68c0.27,0.06,0.55,0.04,0.8-0.09l0.57-0.28c0.68-0.34,1.45-0.42,2.18-0.24l1.54,0.38
		c0.44,0.11,0.91-0.05,1.19-0.4l0.82-1.02c0.6-0.75,1.5-1.18,2.47-1.18H44v2h-8.96c-0.36,0-0.69,0.16-0.91,0.44l-0.82,1.02
		c-0.77,0.96-2.04,1.39-3.24,1.09l-1.54-0.38c-0.27-0.07-0.56-0.04-0.8,0.09l-0.57,0.28c-0.67,0.34-1.45,0.42-2.18,0.24l-2.7-0.68
		c-0.18-0.04-0.38-0.05-0.57,0l-2.86,0.71C18.6,42.88,18.34,42.91,18.09,42.91z"></path>
</g>
<g>
	<g>
		<path d="M12.21,39.62c-1.6-2.04-0.9-4.92-0.15-7.96C12.53,29.79,13,27.86,13,26v-9c0-11.64,0.35-15,8.27-15h5.45
			C34.65,2,35,5.36,35,17v9c0,1.83,0.45,3.76,0.88,5.63c0.7,3.03,1.37,5.89-0.06,7.94l-1.64-1.15c0.92-1.32,0.35-3.76-0.25-6.34
			C33.47,30.11,33,28.06,33,26v-9c0-12.28-0.71-13-6.27-13h-5.45C15.71,4,15,4.72,15,17v9c0,2.1-0.53,4.24-0.99,6.13
			c-0.66,2.67-1.22,4.98-0.22,6.25L12.21,39.62z"></path>
	</g>
</g>
<g>
	<path d="M25,34h-2c0-1.8-4.61-4-10-4v-2C18.8,28,25,30.41,25,34z"></path>
</g>
<g>
	<path d="M25,42h-2c0-1.8-4.61-4-10-4v-2C18.8,36,25,38.41,25,42z"></path>
</g>
<g>
	<path d="M25,30h-2c0-3.36,4.83-6,11-6v2C28.7,26,25,28.11,25,30z"></path>
</g>
<g>
	<path d="M25,38h-2c0-3.45,7.02-5,12-5v2C29.12,35,25,36.95,25,38z"></path>
</g>
<g>
	<path d="M25,26h-2c0-2.71-4.12-5-9-5v-2C20.17,19,25,22.07,25,26z"></path>
</g>
<g>
	<path d="M25,21h-2c0-3.93,4.83-7,11-7v2C29.12,16,25,18.29,25,21z"></path>
</g>
<g>
	<path d="M25,16h-2c0-1.89-3.7-4-9-4v-2C20.17,10,25,12.64,25,16z"></path>
</g>
<g>
	<path d="M25,12h-2c0-3.36,4.83-6,11-6v2C28.7,8,25,10.11,25,12z"></path>
</g>
<g>
	<path d="M25,8h-2c0-0.96-2.4-2.51-6.89-2.91l0.18-1.99C21.58,3.57,25,5.5,25,8z"></path>
</g>
<g>
	<path d="M37,43.5c-0.83,0-1.5-0.67-1.5-1.5s0.67-1.5,1.5-1.5s1.5,0.67,1.5,1.5S37.83,43.5,37,43.5z M37,41.5
		c-0.28,0-0.5,0.22-0.5,0.5s0.22,0.5,0.5,0.5s0.5-0.22,0.5-0.5S37.28,41.5,37,41.5z"></path>
</g>
<g>
	<path d="M34,46.5c-0.83,0-1.5-0.67-1.5-1.5s0.67-1.5,1.5-1.5s1.5,0.67,1.5,1.5S34.83,46.5,34,46.5z M34,44.5
		c-0.28,0-0.5,0.22-0.5,0.5s0.22,0.5,0.5,0.5s0.5-0.22,0.5-0.5S34.28,44.5,34,44.5z"></path>
</g>
<g>
	<path d="M6,44.5c-0.83,0-1.5-0.67-1.5-1.5s0.67-1.5,1.5-1.5s1.5,0.67,1.5,1.5S6.83,44.5,6,44.5z M6,42.5c-0.28,0-0.5,0.22-0.5,0.5
		s0.22,0.5,0.5,0.5s0.5-0.22,0.5-0.5S6.28,42.5,6,42.5z"></path>
</g>
<g>
	<path d="M21,46.5c-0.83,0-1.5-0.67-1.5-1.5s0.67-1.5,1.5-1.5s1.5,0.67,1.5,1.5S21.83,46.5,21,46.5z M21,44.5
		c-0.28,0-0.5,0.22-0.5,0.5s0.22,0.5,0.5,0.5s0.5-0.22,0.5-0.5S21.28,44.5,21,44.5z"></path>
</g>
<g>
	<path d="M42,42c-0.55,0-1,0.45-1,1s0.45,1,1,1s1-0.45,1-1S42.55,42,42,42L42,42z"></path>
</g>
<g>
	<path d="M11,41c-0.55,0-1,0.45-1,1s0.45,1,1,1s1-0.45,1-1S11.55,41,11,41L11,41z"></path>
</g>
<g>
	<path d="M15,44c-0.55,0-1,0.45-1,1s0.45,1,1,1s1-0.45,1-1S15.55,44,15,44L15,44z"></path>
</g>
<g>
	<path d="M29,43c-0.55,0-1,0.45-1,1s0.45,1,1,1s1-0.45,1-1S29.55,43,29,43L29,43z"></path>
</g>
</svg>
