<svg xml:space="preserve" style="enable-background:new 0 0 48 48;" viewBox="0 0 48 48" y="0px" x="0px" xmlns:xlink="http://www.w3.org/1999/xlink" xmlns="http://www.w3.org/2000/svg" id="Layer_1" version="1.1">
<g>
	<path d="M46.243,19.934l-1-6.473c-0.238-1.558-1.299-2.897-2.771-3.492C40.033,8.994,37.464,8.5,34.83,8.5H26.5
		C25.122,8.5,24,9.622,24,11v17.61c0,0.75,0.333,1.429,0.866,1.89h-1.514C22.029,28.921,20.083,28,18,28h-8
		c-2.083,0-4.029,0.921-5.352,2.5H2.5C1.671,30.5,1,31.172,1,32v4.5C1,37.328,1.671,38,2.5,38h2c0.444,0,0.843-0.193,1.118-0.5
		h0.065C6.559,39.031,8.179,40,10,40c1.62,0,3.082-0.767,4-2.014C14.919,39.233,16.38,40,18,40c1.821,0,3.442-0.969,4.316-2.5h0.065
		c0.275,0.307,0.674,0.5,1.118,0.5H32c0.444,0,0.843-0.193,1.118-0.5h0.065c0.875,1.531,2.496,2.5,4.316,2.5
		c1.821,0,3.442-0.969,4.316-2.5h0.065C42.157,37.807,42.556,38,43,38h1.5c1.378,0,2.5-1.122,2.5-2.5v-5.61
		C47,26.586,46.746,23.236,46.243,19.934z M45,29.895V31.5h-1v-2h0.992C44.993,29.631,45,29.763,45,29.895z M44,28.5
		c-0.552,0-1,0.449-1,1v2c0,0.551,0.448,1,1,1h1v3c0,0.276-0.225,0.5-0.5,0.5h-1v-1c0-3.309-2.691-6-6-6
		c-1.266,0-2.441,0.394-3.411,1.066l0.001-0.007l-7.648-0.952C26.19,29.077,26,28.864,26,28.61V11c0-0.276,0.225-0.5,0.5-0.5h8.328
		c2.373,0,4.692,0.447,6.896,1.328c0.818,0.327,1.409,1.071,1.543,1.941l0.266,1.731H32.11c-0.301,0-0.583,0.134-0.773,0.366
		s-0.266,0.535-0.207,0.83l0.332,1.658c0.369,1.846,1.868,3.279,3.729,3.565l9.465,1.456c0.176,1.704,0.281,3.415,0.319,5.124H44z
		 M37.5,38c-1.654,0-3-1.346-3-3s1.346-3,3-3s3,1.346,3,3S39.154,38,37.5,38z M37.5,31c-2.206,0-4,1.794-4,4
		c0,0.171,0.029,0.334,0.051,0.5H32.5V35c0-2.757,2.243-5,5-5s5,2.243,5,5v0.5h-1.051c0.021-0.166,0.051-0.329,0.051-0.5
		C41.5,32.794,39.706,31,37.5,31z M23.447,32.5h8.622C31.715,33.264,31.5,34.104,31.5,35v1H24v-1
		C24,34.107,23.799,33.262,23.447,32.5z M18,38c-1.654,0-3-1.345-3-3v0l0,0c0-1.654,1.346-3,3-3s3,1.346,3,3S19.654,38,18,38z
		 M10,38c-1.654,0-3-1.346-3-3s1.346-3,3-3s3,1.346,3,3S11.654,38,10,38z M18,31c-2.206,0-4,1.794-4,4c0-2.206-1.794-4-4-4
		s-4,1.794-4,4c0,0.171,0.029,0.334,0.051,0.5H5V35c0-2.757,2.243-5,5-5h8c2.757,0,5,2.243,5,5v0.5h-1.051
		C21.971,35.334,22,35.171,22,35C22,32.794,20.206,31,18,31z M32.657,31.5H27.5v-1.254l5.585,0.695
		C32.926,31.114,32.795,31.31,32.657,31.5z M44.262,20.239c0.107,0.7,0.199,1.404,0.283,2.109l-9.204-1.416
		c-1.447-0.223-2.613-1.337-2.9-2.773L32.11,16.5h11.577L44.262,20.239z M4.546,32.5C4.195,33.261,4,34.108,4,35v1H3v-3.5H4.546z"></path>
	<path d="M10,33c-1.103,0-2,0.897-2,2s0.897,2,2,2s2-0.897,2-2S11.103,33,10,33z M10,36c-0.552,0-1-0.449-1-1s0.448-1,1-1
		s1,0.449,1,1S10.552,36,10,36z"></path>
	<path d="M18,33c-1.103,0-2,0.897-2,2s0.897,2,2,2s2-0.897,2-2S19.103,33,18,33z M18,36c-0.552,0-1-0.449-1-1s0.448-1,1-1
		s1,0.449,1,1S18.552,36,18,36z"></path>
	<path d="M37.5,33c-1.103,0-2,0.897-2,2s0.897,2,2,2s2-0.897,2-2S38.603,33,37.5,33z M37.5,36c-0.552,0-1-0.449-1-1s0.448-1,1-1
		s1,0.449,1,1S38.052,36,37.5,36z"></path>
</g>
</svg>
