<svg viewBox="0 0 48 48" version="1.1" xmlns="http://www.w3.org/2000/svg" id="Layer_1">
  
  <path d="M46.243,19.934l-1-6.473c-.237-1.558-1.299-2.897-2.77-3.492-2.439-.976-5.009-1.469-7.642-1.469h-8.33c-1.378,0-2.5,1.122-2.5,2.5v17.61c0,.75.333,1.429.866,1.89h-1.514c-.359-.429-.768-.804-1.209-1.13.521-.458.857-1.123.857-1.87V11c0-1.378-1.122-2.5-2.5-2.5H1v2h19.5c.276,0,.5.224.5.5v16.5c0,.276-.224.5-.5.5H1v2h4.116c-.162.159-.32.324-.468.5h-2.148c-.828,0-1.5.672-1.5,1.5v4.5c0,.828.672,1.5,1.5,1.5h2c.444,0,.844-.193,1.118-.5h.065c.875,1.531,2.495,2.5,4.316,2.5,1.62,0,3.081-.767,4-2.014.919,1.247,2.38,2.014,4,2.014,1.821,0,3.442-.969,4.316-2.5h.065c.275.307.674.5,1.118.5h8.5c.444,0,.844-.193,1.118-.5h.065c.875,1.531,2.495,2.5,4.316,2.5s3.442-.969,4.316-2.5h.065c.275.307.674.5,1.118.5h1.5c1.378,0,2.5-1.122,2.5-2.5v-5.61c0-3.305-.255-6.655-.757-9.956ZM4,35v1h-1v-3.5h1.546c-.351.761-.546,1.608-.546,2.5ZM10,38c-1.654,0-3-1.346-3-3s1.346-3,3-3,3,1.346,3,3-1.346,3-3,3ZM18,38c-1.654,0-3-1.346-3-3s1.346-3,3-3,3,1.346,3,3-1.346,3-3,3ZM23,35.5h-1.051c.021-.166.051-.329.051-.5,0-2.206-1.794-4-4-4s-4,1.794-4,4c0-2.206-1.794-4-4-4s-4,1.794-4,4c0,.171.03.334.051.5h-1.051v-.5c0-2.757,2.243-5,5-5,1.389,0,2.681.559,3.638,1.573.003.004.007.008.011.012.193.194.505.195.702.005.019-.019.037-.039.052-.059.952-.988,2.227-1.531,3.597-1.531,2.757,0,5,2.243,5,5v.5ZM44.262,20.239c.107.7.199,1.404.283,2.108l-9.203-1.416c-1.447-.223-2.613-1.337-2.9-2.773l-.332-1.658h11.577l.575,3.739ZM31.5,35v1h-7.5v-1c0-.893-.201-1.738-.553-2.5h8.622c-.353.764-.569,1.604-.569,2.5ZM27.5,31.5v-1.254l5.585.695c-.159.173-.29.368-.428.559h-5.157ZM37.5,38c-1.654,0-3-1.346-3-3s1.346-3,3-3,3,1.346,3,3-1.346,3-3,3ZM42.5,35.5h-1.051c.021-.166.051-.329.051-.5,0-2.206-1.794-4-4-4s-4,1.794-4,4c0,.171.03.334.051.5h-1.051v-.5c0-2.757,2.243-5,5-5s5,2.243,5,5v.5ZM45,35.5c0,.276-.224.5-.5.5h-1v-1c0-3.309-2.691-6-6-6-1.266,0-2.442.394-3.411,1.066v-.008s-7.647-.952-7.647-.952c-.252-.03-.442-.243-.442-.497V11c0-.276.224-.5.5-.5h8.328c2.373,0,4.693.447,6.896,1.328.818.327,1.409,1.071,1.542,1.941l.266,1.731h-11.423c-.301,0-.583.133-.773.366-.191.232-.266.535-.207.83l.332,1.658c.369,1.846,1.868,3.279,3.728,3.565l9.465,1.456c.176,1.704.281,3.415.319,5.124h-.973c-.551,0-1,.449-1,1v2c0,.551.449,1,1,1h1v3ZM45,31.5h-1v-2h.992c0,.131.008.263.008.394v1.606Z"></path>
  <path d="M10,33c-1.103,0-2,.897-2,2s.897,2,2,2,2-.897,2-2-.897-2-2-2ZM10,36c-.551,0-1-.449-1-1s.449-1,1-1,1,.449,1,1-.449,1-1,1Z"></path>
  <path d="M18,33c-1.103,0-2,.897-2,2s.897,2,2,2,2-.897,2-2-.897-2-2-2ZM18,36c-.551,0-1-.449-1-1s.449-1,1-1,1,.449,1,1-.449,1-1,1Z"></path>
  <path d="M37.5,33c-1.103,0-2,.897-2,2s.897,2,2,2,2-.897,2-2-.897-2-2-2ZM37.5,36c-.551,0-1-.449-1-1s.449-1,1-1,1,.449,1,1-.449,1-1,1Z"></path>
</svg>