<svg version="1.1" id="Layer_1" xmlns="http://www.w3.org/2000/svg" xmlns:xlink="http://www.w3.org/1999/xlink" x="0px" y="0px" viewBox="0 0 48 48" xml:space="preserve">
<g>
	<rect x="39.75" y="14.59" transform="matrix(0.7037 -0.7105 0.7105 0.7037 0.292 33.4471)" width="1" height="3.57"></rect>
	<path d="M45.92,34.62C45.77,34.24,45.4,34,45,34h-2v-6c0-0.55-0.45-1-1-1h-6c-0.55,0-1,0.45-1,1v6h-2c-0.4,0-0.77,0.24-0.92,0.62
		c-0.16,0.37-0.07,0.8,0.22,1.09l6,6C38.49,41.9,38.74,42,39,42s0.51-0.1,0.71-0.29l6-6C45.99,35.42,46.08,34.99,45.92,34.62z
		 M39,39.59L35.41,36H36c0.55,0,1-0.45,1-1v-6h4v6c0,0.55,0.45,1,1,1h0.59L39,39.59z"></path>
	<path d="M26.84,15.43l3.11-3.11c0.19-0.19,0.44-0.29,0.71-0.29h5.89l-2.4,2.38c-1.29,1.28-2.01,2.99-2.01,4.8
		c0,1.81,0.71,3.52,2.01,4.8c1.33,1.32,3.08,1.98,4.83,1.98c1.75,0,3.5-0.66,4.83-1.98c1.29-1.28,2.01-2.99,2.01-4.8
		c0-1.82-0.71-3.52-2.01-4.8L40,10.63v-3.6c0-0.55-0.45-1-1-1h-8.34c-1.87,0-3.63,0.73-4.95,2.05l-3.69,3.69
		c-1.63-0.34-3.36,0.17-4.55,1.36l-9.76,9.76c-0.99,0.99-1.14,2.5-0.46,3.66C3.86,30.24,2,35.01,2,40.07V42h2v-1.93
		c0-4.83,1.88-9.36,5.29-12.78l1.41,1.41C7.67,31.74,6,35.78,6,40.07V42h2v-1.93c0-3.46,1.24-6.72,3.51-9.29
		c0.64,0.37,1.42,0.46,2.15,0.3l0.81,0.81c0.98,0.97,2.26,1.46,3.54,1.46s2.56-0.49,3.54-1.46l4.79-4.79
		c0.97,0.22,2.04-0.04,2.79-0.79l0.76-0.76c1.95-1.95,1.95-5.12,0-7.07L26.84,15.43z M43.82,19.21c0,1.28-0.5,2.48-1.41,3.38
		c-1.89,1.87-4.96,1.87-6.85,0c-0.91-0.9-1.42-2.11-1.42-3.38c0-1.28,0.5-2.48,1.42-3.38l3.43-3.4l3.43,3.4
		C43.32,16.73,43.82,17.93,43.82,19.21z M38,10.02h-2.5v-2H38V10.02z M27.12,9.49c0.94-0.94,2.2-1.46,3.54-1.46h3.84v2h-3.84
		c-0.8,0-1.56,0.31-2.12,0.88l-3.82,3.82l-0.81-0.81c-0.2-0.2-0.43-0.38-0.66-0.54L27.12,9.49z M20.12,30.46
		c-1.17,1.17-3.07,1.17-4.24,0L15.41,30L22,23.41l0.94,0.94l-5.29,5.29l0.71,0.71l5.29-5.29L24.59,26L20.12,30.46z M28.46,24.12
		l-0.76,0.76c-0.39,0.39-1.02,0.39-1.41,0l-3.59-3.59c-0.39-0.39-1.02-0.39-1.41,0l-7.59,7.59c-0.38,0.38-1.04,0.38-1.41,0
		l-0.17-0.17c0,0-0.01,0-0.01-0.01L9.3,25.89c0,0,0-0.01-0.01-0.01l-0.17-0.17c-0.39-0.39-0.39-1.02,0-1.41l9.76-9.76
		c0.82-0.82,2.01-1.1,3.11-0.71c0.01,0,0.02,0,0.03,0c0.44,0.18,0.84,0.44,1.19,0.78l1.52,1.52c0,0,0,0,0,0l3.75,3.75
		C29.63,21.05,29.63,22.95,28.46,24.12z"></path>
</g>
</svg>
