<svg version="1.1" id="Layer_1" xmlns="http://www.w3.org/2000/svg" xmlns:xlink="http://www.w3.org/1999/xlink" x="0px" y="0px" viewBox="0 0 48 48" xml:space="preserve">
<g>
	<path d="M33,11.5c-3.08,0-5.5,5.49-5.5,12.5c0,7.01,2.42,12.5,5.5,12.5s5.5-5.49,5.5-12.5C38.5,16.99,36.08,11.5,33,11.5z M33,35.5
		c-2.17,0-4.5-4.62-4.5-11.5s2.33-11.5,4.5-11.5s4.5,4.62,4.5,11.5S35.17,35.5,33,35.5z"></path>
	<path d="M17,24.04c0-1.65-1.35-3-3-3s-3,1.35-3,3c0,1.65,1.35,3,3,3S17,25.7,17,24.04z M14,26.04c-1.1,0-2-0.9-2-2s0.9-2,2-2
		s2,0.9,2,2S15.1,26.04,14,26.04z"></path>
	<path d="M33,3H23c-4.44,0-8.23,4.02-10.31,10.13C7.24,13.78,3,18.42,3,24.04c0,5.63,4.26,10.28,9.72,10.92
		C14.8,41.02,18.59,45,23,45h10c6.73,0,12-9.22,12-21C45,12.22,39.73,3,33,3z M33,43c-4.4,0-8.23-5.73-9.53-13.39
		c0.97-1.64,1.53-3.53,1.53-5.57c0-2.04-0.57-3.95-1.54-5.59C24.74,10.76,28.59,5,33,5h0c0.68,0,1.34,0.14,1.99,0.39
		c3.76,1.51,6.81,7.18,7.73,14.25C42.89,21.05,43,22.5,43,24C43,34.3,38.42,43,33,43z M14,33.04c-0.57,0-1.13-0.06-1.67-0.16
		c0.28-0.36,0.43-0.83,0.32-1.35l-0.49-2.44c-0.16-0.8-0.55-1.53-1.12-2.1L11,26.95c-0.78-0.79-1.84-1.23-2.95-1.23H6.33
		c-0.43,0-0.8,0.16-1.08,0.41C5.09,25.46,5,24.76,5,24.04c0-0.42,0.04-0.83,0.1-1.24c0.28,0.19,0.6,0.31,0.95,0.31
		c0.28,0,0.58-0.08,0.86-0.25c2.01-1.24,4.38-3.01,7.1-3.01s5.09,1.77,7.1,3.01c0.28,0.17,0.57,0.25,0.86,0.25
		c0.34,0,0.67-0.12,0.95-0.31c0.06,0.41,0.1,0.82,0.1,1.24c0,0.72-0.09,1.41-0.25,2.08c-0.29-0.25-0.66-0.41-1.08-0.41h-1.71
		c-1.11,0-2.18,0.45-2.97,1.24l-0.03,0.03c-0.57,0.58-0.96,1.31-1.12,2.1l-0.49,2.44c-0.1,0.52,0.04,0.99,0.32,1.35
		C15.13,32.99,14.57,33.04,14,33.04z M16.98,32.53c-0.2,0-0.4-0.1-0.53-0.25c-0.09-0.11-0.18-0.29-0.13-0.54l0.49-2.44
		c0.12-0.61,0.42-1.16,0.88-1.63c0.59-0.6,1.42-0.94,2.26-0.94h1.71c0.31,0,0.48,0.19,0.55,0.3c0.04,0.07,0.12,0.22,0.11,0.42
		C21.36,29.81,19.41,31.67,16.98,32.53z M22.52,21.82c-0.13,0.18-0.35,0.3-0.56,0.3c-0.11,0-0.23-0.03-0.33-0.1
		c-0.26-0.16-0.53-0.33-0.81-0.51c-1.86-1.18-4.16-2.64-6.81-2.64s-4.96,1.47-6.81,2.64c-0.28,0.18-0.55,0.35-0.81,0.51
		c-0.11,0.07-0.22,0.1-0.33,0.1c-0.21,0-0.43-0.11-0.56-0.3c-0.07-0.1-0.1-0.21-0.11-0.32c1.1-3.72,4.55-6.45,8.63-6.45
		s7.52,2.73,8.63,6.45C22.62,21.61,22.59,21.72,22.52,21.82z M5.67,27.44c-0.01-0.2,0.06-0.35,0.11-0.42
		c0.07-0.11,0.24-0.3,0.55-0.3h1.72c0.84,0,1.65,0.34,2.24,0.93l0.04,0.04c0.44,0.44,0.73,0.99,0.85,1.6l0.49,2.44
		c0.05,0.25-0.04,0.43-0.13,0.54c-0.13,0.16-0.33,0.25-0.53,0.25C8.59,31.67,6.64,29.81,5.67,27.44z M23,5h6.58
		c-3.22,1.92-5.78,6.48-6.92,12.28c-1.84-2.35-4.62-3.93-7.77-4.19C16.72,8.24,19.7,5,23,5z M14.92,35c3.14-0.26,5.91-1.85,7.75-4.2
		c1.14,5.76,3.7,10.29,6.91,12.2H23C19.72,43,16.75,39.8,14.92,35z"></path>
</g>
</svg>
