<svg version="1.1" id="Layer_1" xmlns="http://www.w3.org/2000/svg" xmlns:xlink="http://www.w3.org/1999/xlink" x="0px" y="0px" viewBox="0 0 48 48" xml:space="preserve">
<g>
	<path d="M42,21h-1c0-9.37-7.63-17-17-17S7,11.63,7,21H6c-2.21,0-4,1.79-4,4v5c0,2.21,1.79,4,4,4h2c0.55,0,1-0.45,1-1v-9v-2v-1
		c0-8.27,6.73-15,15-15c8.27,0,15,6.73,15,15v1v2v9c0,0.55,0.45,1,1,1h2c2.21,0,4-1.79,4-4v-5C46,22.79,44.21,21,42,21z M7,32H6
		c-1.1,0-2-0.9-2-2v-5c0-1.1,0.9-2,2-2h1v1V32z M44,30c0,1.1-0.9,2-2,2h-1v-8v-1h1c1.1,0,2,0.9,2,2V30z"></path>
	<path d="M39,37c0,1.65-1.35,3-3,3h-6.18c-0.41-1.16-1.51-2-2.82-2h-2c-1.65,0-3,1.35-3,3s1.35,3,3,3h2c1.3,0,2.4-0.84,2.82-2H36
		c2.76,0,5-2.24,5-5v-1h-2V37z M27,42h-2c-0.55,0-1-0.45-1-1s0.45-1,1-1h2c0.55,0,1,0.45,1,1S27.55,42,27,42z"></path>
	<path d="M19,22.5c-0.83,0-1.5,0.67-1.5,1.5s0.67,1.5,1.5,1.5s1.5-0.67,1.5-1.5S19.83,22.5,19,22.5z M19,24.5
		c-0.28,0-0.5-0.22-0.5-0.5s0.22-0.5,0.5-0.5s0.5,0.22,0.5,0.5S19.28,24.5,19,24.5z"></path>
	<path d="M29,25.5c0.83,0,1.5-0.67,1.5-1.5s-0.67-1.5-1.5-1.5s-1.5,0.67-1.5,1.5S28.17,25.5,29,25.5z M29,23.5
		c0.28,0,0.5,0.22,0.5,0.5s-0.22,0.5-0.5,0.5s-0.5-0.22-0.5-0.5S28.72,23.5,29,23.5z"></path>
	<path d="M25.5,24c0-0.83-0.67-1.5-1.5-1.5s-1.5,0.67-1.5,1.5s0.67,1.5,1.5,1.5S25.5,24.83,25.5,24z M23.5,24
		c0-0.28,0.22-0.5,0.5-0.5s0.5,0.22,0.5,0.5s-0.22,0.5-0.5,0.5S23.5,24.28,23.5,24z"></path>
	<path d="M26.65,33.35c0.1,0.1,0.22,0.15,0.35,0.15c0.06,0,0.13-0.01,0.19-0.04c0.19-0.08,0.31-0.26,0.31-0.46v-2.5H30
		c3.58,0,6.5-2.92,6.5-6.5s-2.92-6.5-6.5-6.5H18c-3.58,0-6.5,2.92-6.5,6.5s2.92,6.5,6.5,6.5h5.79L26.65,33.35z M12.5,24
		c0-3.03,2.47-5.5,5.5-5.5h12c3.03,0,5.5,2.47,5.5,5.5c0,3.03-2.47,5.5-5.5,5.5h-3c-0.28,0-0.5,0.22-0.5,0.5v1.79l-2.15-2.15
		c-0.09-0.09-0.22-0.15-0.35-0.15h-6C14.97,29.5,12.5,27.03,12.5,24z"></path>
</g>
</svg>
