<svg version="1.1" id="Layer_1" xmlns="http://www.w3.org/2000/svg" xmlns:xlink="http://www.w3.org/1999/xlink" x="0px" y="0px" viewBox="0 0 48 48" xml:space="preserve">
<path d="M45.23,26.03l-4.97-4.97c0.81-1.23,1.23-2.64,1.23-4.06c0-1.92-0.74-3.84-2.2-5.3c-0.48-0.48-1-0.88-1.56-1.19
	c-0.71-0.42-1.48-0.71-2.27-0.86c-0.58-0.12-1.18-0.16-1.77-0.13c-1.37-2.59-3.1-4.66-5.11-5.91C27.05,2.65,24,2,21,2
	s-6.05,0.65-7.59,1.61C8.38,6.74,5,14.94,5,24c0,9.28,3.49,17.54,8.68,20.55C15.19,45.43,18.07,46,21,46s5.81-0.57,7.32-1.45
	C33.51,41.54,37,33.28,37,24c0-0.04,0-0.09,0-0.13c0.3-0.13,0.6-0.28,0.88-0.46c0.1-0.06,0.19-0.13,0.29-0.2l4.94,4.94
	c0.28,0.28,0.66,0.44,1.06,0.44l0,0c0.4,0,0.78-0.16,1.06-0.44C45.82,27.57,45.82,26.62,45.23,26.03z M38.6,12.4
	c2.15,2.16,2.47,5.45,0.96,7.95c-0.35-2.89-0.85-5.7-1.48-8.41C38.26,12.08,38.43,12.23,38.6,12.4z M27.32,42.82
	C26.34,43.39,23.95,44,21,44s-5.34-0.61-6.32-1.18C10.09,40.15,7,32.59,7,24c0-8.4,3-15.91,7.46-18.69C15.5,4.66,18.08,4,21,4
	s5.5,0.66,6.54,1.31c0.25,0.16,0.49,0.33,0.73,0.51C27.7,5.62,27.11,5.5,26.5,5.5C21.17,5.5,17,13.63,17,24s4.17,18.5,9.5,18.5
	c0.61,0,1.19-0.12,1.76-0.32C27.96,42.42,27.64,42.63,27.32,42.82z M34.96,25.68c-0.01,0.26-0.03,0.52-0.05,0.79
	c-0.02,0.28-0.04,0.55-0.06,0.82c-0.03,0.34-0.07,0.67-0.11,1c-0.02,0.19-0.04,0.37-0.07,0.55c-0.05,0.36-0.11,0.71-0.17,1.06
	c-0.03,0.15-0.05,0.3-0.08,0.46c-0.06,0.34-0.13,0.67-0.21,1c-0.04,0.18-0.08,0.37-0.13,0.55c-0.06,0.25-0.13,0.51-0.2,0.75
	c-0.09,0.34-0.19,0.68-0.3,1c-0.02,0.06-0.04,0.11-0.05,0.17C32,38.45,29.42,41.5,26.5,41.5c-4.69,0-8.5-7.85-8.5-17.5
	s3.81-17.5,8.5-17.5c1.88,0,3.62,1.28,5.03,3.43c-0.62,0.22-1.21,0.52-1.76,0.91C28.93,9.98,28,9.5,27,9.5
	c-3.65,0-6.5,6.37-6.5,14.5s2.85,14.5,6.5,14.5c3.57,0,6.38-6.13,6.49-14.03c0.17,0.01,0.34,0.03,0.51,0.03
	c0.33,0,0.66-0.02,0.99-0.07C34.98,24.85,34.98,25.27,34.96,25.68z M22.02,18.46h-0.01c0.88-4.65,2.81-7.96,4.99-7.96
	c0.69,0,1.36,0.36,1.97,0.97c-0.06,0.06-0.13,0.1-0.19,0.16c-0.03,0.02-0.05,0.04-0.08,0.07c-2.93,2.92-2.93,7.68,0,10.6
	c0.69,0.69,1.47,1.22,2.32,1.58c0.33,0.15,0.68,0.27,1.03,0.36c0.15,0.04,0.3,0.06,0.44,0.09C32.42,31.5,29.94,37.5,27,37.5
	c-2.18,0-4.1-3.31-4.99-7.94c0.32-1.76,0.49-3.63,0.49-5.56C22.5,22.08,22.34,20.22,22.02,18.46z M29.4,21.6
	c-2.42-2.43-2.52-6.3-0.31-8.85c0.82,3.03,1.44,6.38,1.82,9.96C30.36,22.43,29.86,22.05,29.4,21.6z M31.95,23.16
	c-0.4-4.04-1.12-7.81-2.08-11.18C31.07,11,32.53,10.5,34,10.5c0.59,0,1.19,0.08,1.76,0.25c0.92,3.66,1.61,7.53,2.01,11.54
	C36.06,23.52,33.88,23.81,31.95,23.16z M44.53,27.44c-0.09,0.09-0.22,0.15-0.35,0.15l0,0c-0.13,0-0.26-0.05-0.35-0.15l-4.85-4.85
	c0.11-0.1,0.22-0.19,0.33-0.29c0.13-0.13,0.26-0.27,0.37-0.42l4.85,4.85C44.72,26.93,44.72,27.25,44.53,27.44z"></path>
</svg>
