<svg version="1.1" id="Layer_1" xmlns="http://www.w3.org/2000/svg" xmlns:xlink="http://www.w3.org/1999/xlink" x="0px" y="0px" viewBox="0 0 48 48" xml:space="preserve">
<g>
	<polygon points="42,36 40,36 40,38 38,38 38,40 40,40 40,42 42,42 42,40 44,40 44,38 42,38"></polygon>
	<rect x="4" y="38" width="6" height="2"></rect>
	<path d="M42,4h-4c-1.1,0-2,0.9-2,2v4c0-1.1-0.9-2-2-2h-4c-1.1,0-2,0.9-2,2v1.78C27.47,11.3,26.77,11,26,11h-4c-1.65,0-3,1.35-3,3
		v1.18C18.69,15.07,18.35,15,18,15h-4c-1.65,0-3,1.35-3,3v1.18C10.69,19.07,10.35,19,10,19H6c-1.65,0-3,1.35-3,3v11
		c0,1.65,1.35,3,3,3h4c0.77,0,1.47-0.3,2-0.78C12.53,35.7,13.23,36,14,36h4c0.77,0,1.47-0.3,2-0.78c0.3,0.27,0.65,0.47,1.03,0.61
		C21.02,35.88,21,35.94,21,36v2.5h-9v1h9V42c0,0.55,0.45,1,1,1h4c0.55,0,1-0.45,1-1v-2.5h9v-1h-9V36c0-0.06-0.02-0.12-0.03-0.17
		c0.71-0.24,1.29-0.74,1.65-1.39C28.98,34.78,29.46,35,30,35h4c1.1,0,2-0.9,2-2c0,1.1,0.9,2,2,2h4c1.1,0,2-0.9,2-2V6
		C44,4.9,43.1,4,42,4z M10,34H6c-0.55,0-1-0.45-1-1V22c0-0.55,0.45-1,1-1h4c0.55,0,1,0.45,1,1v11C11,33.55,10.55,34,10,34z M18,34
		h-4c-0.55,0-1-0.45-1-1V22v-4c0-0.55,0.45-1,1-1h4c0.55,0,1,0.45,1,1v15C19,33.55,18.55,34,18,34z M25,41h-2v-4.59l1-1l1,1V41z
		 M27,33c0,0.55-0.45,1-1,1h-0.59l-0.71-0.71c-0.39-0.39-1.02-0.39-1.41,0L22.59,34H22c-0.55,0-1-0.45-1-1V18v-4c0-0.55,0.45-1,1-1
		h4c0.55,0,1,0.45,1,1V33z M35,33c0,0.55-0.45,1-1,1h-4c-0.55,0-1-0.45-1-1V14v-4c0-0.55,0.45-1,1-1h4c0.55,0,1,0.45,1,1V33z M43,33
		c0,0.55-0.45,1-1,1h-4c-0.55,0-1-0.45-1-1V6c0-0.55,0.45-1,1-1h4c0.55,0,1,0.45,1,1V33z"></path>
</g>
</svg>
