<svg version="1.1" id="Layer_1" xmlns="http://www.w3.org/2000/svg" xmlns:xlink="http://www.w3.org/1999/xlink" x="0px" y="0px" viewBox="0 0 48 48" style="enable-background:new 0 0 48 48;" xml:space="preserve">
<g>
	<path d="M41,25.5c-1.379,0-2.5-1.122-2.5-2.5v-2h-1v2c0,1.378-1.121,2.5-2.5,2.5h-0.435l-0.474-4.262
		C34.922,20.832,35.5,19.985,35.5,19c0-1.259-0.938-2.293-2.151-2.465c-0.449-1.207-1.24-2.265-2.335-2.996
		c-0.225-0.149-0.46-0.283-0.703-0.402C30.434,12.781,30.5,12.398,30.5,12V9c0-1.93-1.57-3.5-3.5-3.5h-6c-1.93,0-3.5,1.57-3.5,3.5v3
		c0,0.398,0.066,0.781,0.189,1.138c-0.244,0.118-0.479,0.252-0.703,0.402c-1.524,1.017-2.516,2.645-2.719,4.467l-1.265,11.385
		c-0.145,1.295,0.182,2.559,0.861,3.597c-1.403,0.729-2.364,2.196-2.364,3.883V37c0,2.939,2.391,5.33,5.33,5.33h14.34
		c2.939,0,5.33-2.391,5.33-5.33v-0.128c0-1.688-0.961-3.154-2.364-3.883c0.68-1.038,1.006-2.301,0.861-3.596L34.676,26.5H35
		c1.379,0,2.5,1.122,2.5,2.5v2h1v-2c0-1.378,1.121-2.5,2.5-2.5h2v-1H41z M32.088,21.322l0.921,8.291
		c0.109,0.988-0.208,1.98-0.871,2.721c-0.411,0.459-0.939,0.779-1.514,0.97c-0.081-0.07-0.164-0.152-0.249-0.256
		c-1.823-2.224-3.444-10.44-1.972-18.457c0.532,0.107,1.042,0.307,1.5,0.612c0.695,0.464,1.201,1.125,1.511,1.879
		C30.861,17.541,30.5,18.226,30.5,19C30.5,20.056,31.16,20.956,32.088,21.322z M21,7.5h6c0.827,0,1.5,0.673,1.5,1.5v3
		c0,0.827-0.673,1.5-1.5,1.5h-6c-0.827,0-1.5-0.673-1.5-1.5V9C19.5,8.173,20.173,7.5,21,7.5z M20.595,14.5H21h6h0.405
		c-1.486,8.202,0.141,16.383,2.069,19H18.525C20.454,30.883,22.081,22.702,20.595,14.5z M19.596,14.592
		c1.472,8.017-0.149,16.233-1.972,18.457c-0.085,0.104-0.168,0.186-0.249,0.256c-0.574-0.19-1.103-0.51-1.514-0.97
		c-0.663-0.741-0.98-1.733-0.871-2.721l1.266-11.386c0.138-1.233,0.808-2.335,1.84-3.024C18.554,14.898,19.064,14.698,19.596,14.592
		z M15.872,34.5h2.597h11.062h2.597c1.308,0,2.372,1.064,2.372,2.373V37c0,1.836-1.494,3.33-3.33,3.33H16.83
		c-1.836,0-3.33-1.494-3.33-3.33v-0.127C13.5,35.564,14.564,34.5,15.872,34.5z M34.5,19c0,0.827-0.673,1.5-1.5,1.5
		s-1.5-0.673-1.5-1.5s0.673-1.5,1.5-1.5S34.5,18.173,34.5,19z M38,27.199c-0.296-0.49-0.708-0.903-1.199-1.199
		c0.491-0.295,0.903-0.708,1.199-1.199c0.296,0.49,0.708,0.903,1.199,1.199C38.708,26.295,38.296,26.708,38,27.199z"></path>
	<path d="M38.5,17c0,0.827,0.673,1.5,1.5,1.5s1.5-0.673,1.5-1.5s-0.673-1.5-1.5-1.5S38.5,16.173,38.5,17z M40.5,17
		c0,0.276-0.225,0.5-0.5,0.5s-0.5-0.224-0.5-0.5s0.225-0.5,0.5-0.5S40.5,16.724,40.5,17z"></path>
	<path d="M8,25.5c1.379,0,2.5-1.122,2.5-2.5S9.379,20.5,8,20.5S5.5,21.622,5.5,23S6.621,25.5,8,25.5z M8,21.5
		c0.827,0,1.5,0.673,1.5,1.5S8.827,24.5,8,24.5S6.5,23.827,6.5,23S7.173,21.5,8,21.5z"></path>
	<path d="M36.5,14h1c0-1.378,1.121-2.5,2.5-2.5v-1c-1.379,0-2.5-1.122-2.5-2.5h-1c0,1.378-1.121,2.5-2.5,2.5v1
		C35.379,11.5,36.5,12.622,36.5,14z M37,9.801c0.296,0.49,0.708,0.903,1.199,1.199c-0.491,0.295-0.903,0.708-1.199,1.199
		c-0.296-0.49-0.708-0.903-1.199-1.199C36.292,10.705,36.704,10.291,37,9.801z"></path>
	<path d="M8.5,28h-1c0,1.378-1.121,2.5-2.5,2.5v1c1.379,0,2.5,1.122,2.5,2.5h1c0-1.378,1.121-2.5,2.5-2.5v-1
		C9.621,30.5,8.5,29.378,8.5,28z M8,32.199C7.704,31.708,7.292,31.295,6.801,31C7.292,30.705,7.704,30.291,8,29.801
		c0.296,0.49,0.708,0.903,1.199,1.199C8.708,31.295,8.296,31.708,8,32.199z"></path>
</g>
</svg>
