<svg version="1.1" id="Layer_1" xmlns="http://www.w3.org/2000/svg" xmlns:xlink="http://www.w3.org/1999/xlink" x="0px" y="0px" viewBox="0 0 48 48" style="enable-background:new 0 0 48 48;" xml:space="preserve">
<g>
	<path d="M27.294,14C24.475,14,23,18.527,23,23s1.475,9,4.294,9C35.381,32,39,27.48,39,23S35.381,14,27.294,14z M27.294,30
		C26.516,30,25,27.529,25,23s1.516-7,2.294-7C33.1,16,37,18.813,37,23S33.1,30,27.294,30z"></path>
	<path d="M24,3C12.421,3,3,12.42,3,24s9.421,21,21,21s21-9.42,21-21S35.579,3,24,3z M24,43C13.523,43,5,34.477,5,24S13.523,5,24,5
		s19,8.523,19,19S34.477,43,24,43z"></path>
	<polygon points="12,33.705 18.5,31.383 18.5,35.793 17.354,34.647 16.646,35.354 19,37.707 21.354,35.354 20.646,34.647 
		19.5,35.793 19.5,31.026 22,30.133 22,28.01 12,31.581"></polygon>
	<polygon points="12,29.705 22,26.133 22,24.01 12,27.581"></polygon>
	<polygon points="12,25.705 22,22.133 22,20.01 12,23.581"></polygon>
	<polygon points="19.5,12.207 20.646,13.354 21.354,12.647 19,10.293 16.646,12.647 17.354,13.354 18.5,12.207 18.5,17.26 
		12,19.581 12,21.705 22,18.133 22,16.01 19.5,16.902"></polygon>
</g>
</svg>
