<svg version="1.1" id="Layer_1" xmlns="http://www.w3.org/2000/svg" xmlns:xlink="http://www.w3.org/1999/xlink" x="0px" y="0px" viewBox="0 0 48 48" xml:space="preserve">
<g>
	<path d="M40,8H8c-2.21,0-4,1.79-4,4v24c0,2.21,1.79,4,4,4h32c2.21,0,4-1.79,4-4V12C44,9.79,42.21,8,40,8z M42,36c0,1.1-0.9,2-2,2H8
		c-1.1,0-2-0.9-2-2V12c0-1.1,0.9-2,2-2h32c1.1,0,2,0.9,2,2V36z"></path>
	<path d="M38.65,12.65L25.06,26.23c-0.57,0.57-1.55,0.57-2.12,0L9.35,12.65l-0.71,0.71L19.29,24L8.65,34.65l0.71,0.71L20,24.71
		l2.23,2.23c0.47,0.47,1.1,0.73,1.77,0.73s1.3-0.26,1.77-0.73L28,24.71l10.65,10.65l0.71-0.71L28.71,24l10.65-10.65L38.65,12.65z"></path>
</g>
</svg>
