<svg version="1.1" id="Layer_1" xmlns="http://www.w3.org/2000/svg" xmlns:xlink="http://www.w3.org/1999/xlink" x="0px" y="0px" viewBox="0 0 48 48" xml:space="preserve">
<g>
	<path d="M19.41,10.06c-0.25-0.1-0.52-0.1-0.77,0c-0.51,0.21-0.75,0.8-0.54,1.31c0.1,0.25,0.29,0.44,0.54,0.54
		c0.12,0.05,0.25,0.08,0.38,0.08c0.13,0,0.26-0.03,0.38-0.08c0.25-0.1,0.44-0.29,0.54-0.54c0.1-0.25,0.1-0.52,0-0.77
		C19.85,10.36,19.65,10.17,19.41,10.06z M19.03,10.99C19.03,10.99,19.02,10.99,19.03,10.99l0.46-0.19L19.03,10.99z"></path>
	<path d="M12.37,17.1c-0.25-0.1-0.52-0.1-0.76,0c-0.25,0.1-0.44,0.29-0.54,0.54c-0.1,0.25-0.1,0.52,0,0.77
		c0.1,0.25,0.29,0.44,0.54,0.54c0.12,0.05,0.25,0.08,0.38,0.08c0.39,0,0.77-0.23,0.93-0.62c0.1-0.25,0.1-0.52,0-0.77
		C12.81,17.39,12.62,17.2,12.37,17.1z M11.99,18.02L11.99,18.02C11.99,18.02,11.99,18.02,11.99,18.02l0.19-0.46L11.99,18.02z"></path>
	<path d="M29.36,10.06c-0.25-0.1-0.52-0.1-0.77,0c-0.25,0.1-0.44,0.29-0.54,0.54c-0.21,0.51,0.03,1.1,0.54,1.31
		c0.12,0.05,0.25,0.08,0.38,0.08c0.13,0,0.26-0.03,0.38-0.08c0.25-0.1,0.44-0.29,0.54-0.54c0.1-0.25,0.1-0.52,0-0.76
		C29.8,10.36,29.61,10.17,29.36,10.06z M28.97,10.99C28.97,10.99,28.97,10.99,28.97,10.99l0.46,0.19L28.97,10.99z"></path>
	<path d="M35.63,18.95c0.12,0.05,0.25,0.08,0.38,0.08s0.26-0.03,0.38-0.08c0.51-0.21,0.75-0.8,0.54-1.31
		c-0.21-0.51-0.8-0.75-1.31-0.54c-0.25,0.1-0.44,0.29-0.54,0.54c-0.1,0.25-0.1,0.52,0,0.76C35.19,18.65,35.38,18.85,35.63,18.95z
		 M36.01,18.02l0.19,0.46L36.01,18.02C36.01,18.02,36.01,18.02,36.01,18.02z"></path>
	<path d="M28.02,13.3c-0.76-0.31-1.64,0-2.03,0.72l-4.3,8.02c-0.53,1.27,0.08,2.74,1.35,3.27c0.31,0.13,0.63,0.19,0.95,0.19
		c0.98,0,1.92-0.59,2.33-1.59l2.61-8.66C29.18,14.45,28.78,13.62,28.02,13.3z M27.98,14.96l-2.6,8.62c-0.32,0.76-1.2,1.13-1.96,0.81
		c-0.76-0.32-1.13-1.2-0.83-1.92l4.28-7.97c0.11-0.2,0.32-0.32,0.53-0.32c0.08,0,0.16,0.02,0.23,0.05
		C27.92,14.34,28.07,14.66,27.98,14.96z"></path>
	<path d="M43,26h-2.27c0.56-3.11,0.26-6.39-1.03-9.5c-1.74-4.2-5-7.46-9.2-9.2c-4.2-1.74-8.82-1.74-13.01,0
		C9.99,10.41,5.92,18.31,7.3,26H5c-1.1,0-2,0.9-2,2v9c0,1.1,0.9,2,2,2h38c1.1,0,2-0.9,2-2v-9C45,26.9,44.1,26,43,26z M40.84,28
		c0,0.36-0.02,0.66-0.05,0.9c-0.04,0.24-0.09,0.42-0.18,0.54c-0.08,0.12-0.2,0.18-0.36,0.18s-0.27-0.06-0.36-0.18
		c-0.08-0.12-0.14-0.3-0.18-0.54c-0.03-0.24-0.05-0.53-0.05-0.89c0,0,0,0,0,0L40.84,28C40.84,28,40.84,28,40.84,28z M24,10.5
		c0.28,0,0.5,0.22,0.5,0.5s-0.22,0.5-0.5,0.5s-0.5-0.22-0.5-0.5S23.72,10.5,24,10.5z M9.02,23.5h1.57c0.21,0.58,0.76,1,1.41,1
		c0.83,0,1.5-0.67,1.5-1.5s-0.67-1.5-1.5-1.5c-0.65,0-1.2,0.42-1.41,1H9.02c0.13-3.62,1.57-7.09,4.04-9.74l1.11,1.11
		c-0.09,0.2-0.15,0.42-0.15,0.64c0,0.4,0.16,0.78,0.44,1.06s0.66,0.44,1.06,0.44c0.4,0,0.78-0.16,1.06-0.44
		c0.28-0.28,0.44-0.66,0.44-1.06c0-0.4-0.16-0.78-0.44-1.06c0,0,0,0,0,0s0,0,0,0c-0.44-0.44-1.14-0.53-1.69-0.28l-1.12-1.12
		c1.28-1.2,2.78-2.2,4.49-2.91c1.69-0.7,3.46-1.07,5.24-1.13v1.57c-0.58,0.21-1,0.76-1,1.41c0,0.83,0.67,1.5,1.5,1.5
		s1.5-0.67,1.5-1.5c0-0.65-0.42-1.2-1-1.41V8.02c1.78,0.06,3.55,0.42,5.24,1.13c1.69,0.7,3.2,1.69,4.5,2.91l-1.12,1.12
		c-0.56-0.26-1.24-0.18-1.7,0.28c-0.28,0.28-0.44,0.66-0.44,1.06c0,0.4,0.16,0.78,0.44,1.06c0.29,0.29,0.68,0.44,1.06,0.44
		s0.77-0.15,1.06-0.44c0.28-0.28,0.44-0.66,0.44-1.06c0-0.23-0.06-0.44-0.15-0.64l1.11-1.11c1.22,1.3,2.21,2.81,2.91,4.5
		c0.71,1.71,1.07,3.48,1.14,5.24h-1.59c-0.21-0.58-0.76-1-1.41-1c-0.83,0-1.5,0.67-1.5,1.5s0.67,1.5,1.5,1.5c0.65,0,1.2-0.42,1.41-1
		h1.6c-0.03,0.85-0.15,1.68-0.32,2.5H9.35C9.18,25.17,9.05,24.33,9.02,23.5z M11.5,23c0-0.28,0.22-0.5,0.5-0.5s0.5,0.22,0.5,0.5
		s-0.22,0.5-0.5,0.5S11.5,23.27,11.5,23z M15.01,14.51c0-0.13,0.05-0.26,0.15-0.35c0.09-0.09,0.22-0.15,0.35-0.15
		c0.13,0,0.26,0.05,0.35,0.15c0,0,0,0,0,0c0.09,0.09,0.15,0.22,0.15,0.35c0,0.13-0.05,0.26-0.15,0.35c-0.19,0.19-0.52,0.19-0.71,0
		C15.07,14.77,15.01,14.65,15.01,14.51z M32.99,14.51c0,0.13-0.05,0.26-0.15,0.35c-0.2,0.2-0.51,0.2-0.71,0
		c-0.09-0.09-0.15-0.22-0.15-0.35c0-0.13,0.05-0.26,0.15-0.35c0.1-0.1,0.23-0.15,0.35-0.15s0.26,0.05,0.35,0.15
		C32.93,14.25,32.99,14.38,32.99,14.51z M36.5,23c0,0.28-0.22,0.5-0.5,0.5s-0.5-0.22-0.5-0.5s0.22-0.5,0.5-0.5S36.5,22.72,36.5,23z
		 M10.5,37H5v-9h5.5V37z M17,37h-5.5v-9H17V37z M23.5,37H18v-9h5.5V37z M30,37h-5.5v-9H30V37z M36.5,37H31v-9h5.5V37z M43,37h-5.5
		v-9h0.98c0,0,0,0,0,0c0,0.54,0.06,1,0.19,1.38c0.12,0.38,0.32,0.68,0.58,0.88c0.26,0.21,0.6,0.31,1.01,0.31
		c0.33,0,0.6-0.06,0.83-0.17s0.41-0.29,0.55-0.51s0.24-0.49,0.3-0.81s0.09-0.68,0.09-1.08c0,0,0,0,0,0H43V37z"></path>
	<path d="M7.57,31.64c0.06-0.05,0.12-0.1,0.18-0.16c0.07-0.06,0.12-0.12,0.15-0.16c0,0.1-0.01,0.22-0.01,0.36
		c0,0.14-0.01,0.27-0.01,0.38c0,0.12,0,0.21,0,0.28v2.69h1.2v-5H8.07l-1.66,1.34L7,32.11L7.57,31.64z"></path>
	<path d="M14,35.1c0.45,0,0.82-0.07,1.12-0.21c0.3-0.14,0.52-0.34,0.67-0.59c0.15-0.26,0.22-0.57,0.22-0.94
		c0-0.34-0.07-0.62-0.2-0.85s-0.32-0.41-0.55-0.53c-0.23-0.12-0.5-0.18-0.79-0.18c-0.16,0-0.29,0.01-0.37,0.02
		c-0.08,0.02-0.17,0.03-0.25,0.05l0.08-0.83h1.75v-1H12.9l-0.19,2.59l0.46,0.23c0.09-0.02,0.21-0.05,0.34-0.07
		c0.13-0.03,0.26-0.04,0.39-0.04c0.31,0,0.54,0.06,0.7,0.18c0.15,0.12,0.23,0.29,0.23,0.51c0,0.16-0.03,0.3-0.1,0.4
		c-0.07,0.1-0.17,0.18-0.3,0.24s-0.29,0.08-0.48,0.08c-0.21,0-0.44-0.03-0.68-0.1s-0.45-0.14-0.63-0.22v1
		c0.18,0.09,0.38,0.16,0.62,0.2C13.47,35.08,13.73,35.1,14,35.1z"></path>
	<path d="M19.74,34.83c0.26,0.21,0.6,0.31,1.01,0.31c0.33,0,0.6-0.06,0.83-0.17s0.41-0.29,0.55-0.51s0.24-0.49,0.3-0.81
		s0.09-0.68,0.09-1.08c0-0.54-0.06-1-0.19-1.39c-0.13-0.38-0.32-0.68-0.58-0.88c-0.26-0.21-0.59-0.31-1-0.31
		c-0.43,0-0.78,0.1-1.04,0.31c-0.26,0.21-0.45,0.5-0.56,0.88c-0.11,0.38-0.17,0.84-0.17,1.39c0,0.54,0.06,1,0.19,1.38
		C19.29,34.33,19.48,34.63,19.74,34.83z M20.21,31.68c0.04-0.24,0.09-0.42,0.18-0.54c0.08-0.12,0.2-0.18,0.36-0.18
		s0.27,0.06,0.36,0.18c0.08,0.12,0.14,0.3,0.18,0.54c0.03,0.24,0.05,0.54,0.05,0.89c0,0.36-0.02,0.66-0.05,0.9
		c-0.04,0.24-0.09,0.42-0.18,0.54c-0.08,0.12-0.2,0.18-0.36,0.18s-0.27-0.06-0.36-0.18c-0.08-0.12-0.14-0.3-0.18-0.54
		c-0.03-0.24-0.05-0.53-0.05-0.89S20.18,31.91,20.21,31.68z"></path>
	<path d="M26.24,34.83c0.26,0.21,0.6,0.31,1.01,0.31c0.33,0,0.6-0.06,0.83-0.17s0.41-0.29,0.55-0.51s0.24-0.49,0.3-0.81
		s0.09-0.68,0.09-1.08c0-0.54-0.06-1-0.19-1.39c-0.13-0.38-0.32-0.68-0.58-0.88c-0.26-0.21-0.59-0.31-1-0.31
		c-0.43,0-0.78,0.1-1.04,0.31c-0.26,0.21-0.45,0.5-0.56,0.88c-0.11,0.38-0.17,0.84-0.17,1.39c0,0.54,0.06,1,0.19,1.38
		C25.79,34.33,25.98,34.63,26.24,34.83z M26.71,31.68c0.04-0.24,0.09-0.42,0.18-0.54c0.08-0.12,0.2-0.18,0.36-0.18
		s0.27,0.06,0.36,0.18c0.08,0.12,0.14,0.3,0.18,0.54c0.03,0.24,0.05,0.54,0.05,0.89c0,0.36-0.02,0.66-0.05,0.9
		c-0.04,0.24-0.09,0.42-0.18,0.54c-0.08,0.12-0.2,0.18-0.36,0.18s-0.27-0.06-0.36-0.18c-0.08-0.12-0.14-0.3-0.18-0.54
		c-0.03-0.24-0.05-0.53-0.05-0.89S26.68,31.91,26.71,31.68z"></path>
	<path d="M32.74,34.83c0.26,0.21,0.6,0.31,1.01,0.31c0.33,0,0.6-0.06,0.83-0.17s0.41-0.29,0.55-0.51s0.24-0.49,0.3-0.81
		s0.09-0.68,0.09-1.08c0-0.54-0.06-1-0.19-1.39c-0.13-0.38-0.32-0.68-0.58-0.88c-0.26-0.21-0.59-0.31-1-0.31
		c-0.43,0-0.78,0.1-1.04,0.31c-0.26,0.21-0.45,0.5-0.56,0.88c-0.11,0.38-0.17,0.84-0.17,1.39c0,0.54,0.06,1,0.19,1.38
		C32.29,34.33,32.48,34.63,32.74,34.83z M33.21,31.68c0.04-0.24,0.09-0.42,0.18-0.54c0.08-0.12,0.2-0.18,0.36-0.18
		s0.27,0.06,0.36,0.18c0.08,0.12,0.14,0.3,0.18,0.54c0.03,0.24,0.05,0.54,0.05,0.89c0,0.36-0.02,0.66-0.05,0.9
		c-0.04,0.24-0.09,0.42-0.18,0.54c-0.08,0.12-0.2,0.18-0.36,0.18s-0.27-0.06-0.36-0.18c-0.08-0.12-0.14-0.3-0.18-0.54
		c-0.03-0.24-0.05-0.53-0.05-0.89S33.18,31.91,33.21,31.68z"></path>
	<path d="M39,35.33l0.6,0.74l0.57-0.47c0.06-0.05,0.12-0.1,0.18-0.16c0.07-0.06,0.12-0.12,0.15-0.16c0,0.1-0.01,0.22-0.01,0.36
		c0,0.14-0.01,0.27-0.01,0.38c0,0.12,0,0.21,0,0.28V37h1.2v-3h-1.03L39,35.33z"></path>
</g>
</svg>
