<svg xml:space="preserve" style="enable-background:new 0 0 48 48;" viewBox="0 0 48 48" y="0px" x="0px" xmlns:xlink="http://www.w3.org/1999/xlink" xmlns="http://www.w3.org/2000/svg" id="Layer_1" version="1.1">
<g>
	<path d="M44.632,21.823l-1.809-0.603l-1.565-5.72H43c0.552,0,1-0.448,1-1v-3c0-0.552-0.448-1-1-1H28.1
		c-0.351,0-0.677,0.184-0.857,0.486L25.434,14H4c-0.477,0-0.887,0.336-0.98,0.804l-1,5c-0.104,0.515,0.21,1.022,0.717,1.161
		l9.516,2.595c-2.897,1.216-4.667,4.252-4.17,7.529c0.461,3.037,3.015,5.502,6.074,5.861c1.998,0.236,4.002-0.391,5.494-1.718
		c1.241-1.104,2.043-2.608,2.277-4.232h6.144c0.486,3.388,3.408,6,6.929,6c3.555,0,6.499-2.664,6.942-6.1
		c0.506-0.133,0.97-0.399,1.351-0.779l1.828-1.828C45.688,27.727,46,26.973,46,26.171v-2.451C46,22.858,45.45,22.096,44.632,21.823z
		 M4.164,19.281L4.82,16H26c0.352,0,0.677-0.184,0.857-0.486l1.809-3.014H42v1h-2h-0.053H32c-0.206,0-0.39,0.126-0.465,0.317
		l-4.601,11.692L14.36,22.08c-0.033-0.013-0.062-0.035-0.097-0.044L4.164,19.281z M40.524,20.395L36.5,19.59V17.5h3.231
		L40.524,20.395z M19.903,30.954c-0.004,0.024-0.006,0.049-0.012,0.073c-0.061,0.292-0.152,0.573-0.263,0.845
		c-0.015,0.036-0.026,0.073-0.042,0.108c-0.115,0.265-0.254,0.518-0.411,0.757c-0.021,0.031-0.04,0.063-0.061,0.094
		c-0.165,0.239-0.35,0.462-0.552,0.668c-0.022,0.023-0.045,0.045-0.068,0.067c-0.212,0.208-0.441,0.4-0.688,0.568
		c-0.012,0.009-0.025,0.016-0.037,0.024c-0.783,0.523-1.72,0.829-2.728,0.837c-0.021,0-0.041,0.002-0.061,0.002
		c-0.286-0.001-0.563-0.037-0.837-0.084c-0.101-0.018-0.2-0.038-0.299-0.062c-0.206-0.049-0.406-0.113-0.601-0.187
		c-0.095-0.036-0.19-0.068-0.282-0.11c-0.189-0.085-0.367-0.188-0.542-0.295c-0.084-0.051-0.173-0.094-0.253-0.149
		c-0.233-0.161-0.451-0.341-0.652-0.538c-0.079-0.076-0.144-0.164-0.218-0.245c-0.128-0.143-0.255-0.288-0.367-0.445
		c-0.061-0.086-0.114-0.177-0.17-0.266c-0.109-0.176-0.21-0.357-0.297-0.547c-0.038-0.081-0.073-0.163-0.106-0.246
		c-0.084-0.214-0.151-0.435-0.206-0.662c-0.018-0.078-0.042-0.154-0.056-0.232c-0.034-0.181-0.042-0.37-0.056-0.558
		c-0.011-0.162-0.03-0.325-0.026-0.485c0.004-0.184,0.031-0.361,0.054-0.539c0.019-0.147,0.031-0.297,0.062-0.441
		c0.045-0.202,0.114-0.395,0.183-0.587c0.037-0.105,0.065-0.213,0.109-0.314c0.102-0.234,0.228-0.455,0.363-0.669
		c0.031-0.049,0.055-0.103,0.088-0.151c0.16-0.233,0.342-0.449,0.538-0.651c0.024-0.025,0.043-0.054,0.068-0.078
		c0.181-0.18,0.384-0.337,0.591-0.488c0.058-0.042,0.108-0.091,0.168-0.13c0.157-0.104,0.329-0.184,0.497-0.27
		c0.132-0.067,0.259-0.143,0.398-0.199c0.107-0.043,0.224-0.068,0.334-0.104c0.212-0.068,0.424-0.136,0.65-0.176
		C14.405,25.038,14.698,25,15,25c2.757,0,5,2.243,5,5C20,30.327,19.964,30.645,19.903,30.954z M38.927,33.058
		C38.011,34.231,36.6,35,35,35c-1.306,0-2.486-0.515-3.377-1.337c-0.05-0.046-0.108-0.082-0.156-0.129s-0.083-0.106-0.129-0.156
		C30.515,32.486,30,31.306,30,30c0-2.757,2.243-5,5-5s5,2.243,5,5C40,31.157,39.589,32.209,38.927,33.058z M44,26.171
		c0,0.268-0.104,0.519-0.293,0.708l-1.828,1.827C41.69,28.896,41.438,29,41.172,29H41c-0.031,0-0.057,0.015-0.087,0.018
		C40.443,26.172,37.978,24,35,24s-5.443,2.172-5.913,5.018C29.057,29.015,29.031,29,29,29h-8c-0.031,0-0.057,0.015-0.087,0.018
		C20.443,26.172,17.978,24,15,24v-0.709l12.103,3.301c0.044,0.012,0.088,0.018,0.132,0.018c0.201,0,0.389-0.122,0.465-0.317
		L32,15.365V15.5h7.184l0.274,1H36c-0.276,0-0.5,0.224-0.5,0.5v3c0,0.238,0.168,0.444,0.402,0.49l4.917,0.983l0.076,0.275
		c0.177,0.646,0.661,1.158,1.296,1.369L44,23.721V26.171z"></path>
	<path d="M35,27c-1.657,0-3,1.343-3,3s1.343,3,3,3s3-1.343,3-3S36.657,27,35,27z M35,32c-1.103,0-2-0.897-2-2s0.897-2,2-2
		s2,0.897,2,2S36.103,32,35,32z"></path>
	<path d="M15,27c-1.657,0-3,1.343-3,3s1.343,3,3,3s3-1.343,3-3S16.657,27,15,27z M15,32c-1.103,0-2-0.897-2-2s0.897-2,2-2
		s2,0.897,2,2S16.103,32,15,32z"></path>
</g>
</svg>
