<svg version="1.1" id="Layer_1" xmlns="http://www.w3.org/2000/svg" xmlns:xlink="http://www.w3.org/1999/xlink" x="0px" y="0px" viewBox="0 0 48 48" xml:space="preserve">
<g>
	<path d="M45.55,22.11l-2,1c-0.1,0.05-0.18,0.11-0.26,0.19l-1.83,1.83l-2.78,0.93c-0.08,0.03-0.16,0.07-0.24,0.12L35.7,28H33
		c-0.27,0-0.52,0.11-0.71,0.29L29.59,31H27c-0.38,0-0.72,0.21-0.89,0.55L25.38,33H22c-0.11,0-0.21,0.02-0.32,0.05l-3,1
		c-0.08,0.03-0.16,0.07-0.24,0.12L15.7,36H12c-0.22,0-0.43,0.07-0.6,0.2l-3.58,2.69l-2.5-0.83C5.02,37.95,4.7,38,4.45,38.17l-3,2
		l1.11,1.66l2.59-1.73l2.54,0.84C8,41.05,8.34,41,8.6,40.8l3.73-2.8H16c0.2,0,0.39-0.06,0.55-0.17l2.89-1.93L22.16,35H26
		c0.38,0,0.72-0.21,0.89-0.55L27.62,33H30c0.27,0,0.52-0.11,0.71-0.29L33.41,30H36c0.2,0,0.39-0.06,0.55-0.17l2.89-1.93l2.87-0.96
		c0.15-0.05,0.28-0.13,0.39-0.24l1.89-1.89l1.85-0.93L45.55,22.11z"></path>
	<path d="M25.48,13l1.53,3.69c0.1,0.25,0.29,0.44,0.54,0.54c0.12,0.05,0.25,0.08,0.38,0.08s0.26-0.03,0.38-0.08l1.49-0.62
		c0.25-0.1,0.44-0.3,0.54-0.54s0.1-0.52,0-0.76l-1.53-3.7c-0.1-0.25-0.29-0.44-0.54-0.54c-0.25-0.1-0.52-0.1-0.77,0l-1.49,0.62
		c-0.25,0.1-0.44,0.29-0.54,0.54C25.38,12.48,25.38,12.76,25.48,13z M27.9,12l1.53,3.7l-1.49,0.62l-1.53-3.7L27.9,12z"></path>
	<path d="M31.28,14.93c0.1,0.25,0.29,0.44,0.54,0.54c0.12,0.05,0.25,0.08,0.38,0.08c0.13,0,0.26-0.03,0.38-0.08l3.7-1.53
		c0.51-0.21,0.75-0.8,0.54-1.31l-0.42-1c-0.15-0.37-0.44-0.66-0.81-0.81l-3.15-1.31c-0.37-0.15-0.78-0.15-1.15,0l-1,0.42
		c-0.51,0.21-0.75,0.8-0.54,1.31L31.28,14.93z M31.67,10.44c0.06-0.03,0.13-0.04,0.19-0.04s0.13,0.01,0.19,0.04l3.15,1.31
		c0.12,0.05,0.22,0.15,0.27,0.27l0.42,1l-3.7,1.53l-1.53-3.7L31.67,10.44z"></path>
	<path d="M8.36,31.46c0.32,0.77,1.06,1.23,1.85,1.23c0.25,0,0.51-0.05,0.76-0.15l1.05-0.44c0.42,0.56,0.98,1.02,1.65,1.3
		c0.49,0.2,1.01,0.31,1.53,0.31s1.04-0.1,1.53-0.31c0.99-0.41,1.76-1.18,2.17-2.17c0.03-0.08,0.05-0.17,0.08-0.25
		c0.55,0.27,1.16,0.42,1.78,0.42c0.51,0,1.03-0.1,1.53-0.3c1.72-0.71,2.66-2.49,2.42-4.25l6.72-2.79c0.76,1.01,1.95,1.6,3.19,1.6
		c0.51,0,1.03-0.1,1.53-0.3c0.99-0.41,1.76-1.18,2.17-2.17c0.28-0.67,0.35-1.38,0.25-2.08l2.9-1.2c0.49-0.2,0.88-0.59,1.08-1.08
		c0.21-0.49,0.21-1.04,0-1.53l-2.92-7.06c-0.18-0.43-0.51-0.79-0.92-1l-6.18-3.24c-0.53-0.28-1.15-0.3-1.69-0.08L22.4,9.41
		c-0.34,0.14-0.66,0.34-0.96,0.61c-1.33,1.16-2.73,1.74-4.27,1.77c-0.43,0.01-0.84,0.15-1.18,0.41c-1.74,1.33-3.55,2.09-5.39,2.25
		c-0.39,0.03-0.76,0.18-1.07,0.43c-1.46,1.19-3.18,1.92-5.1,2.2c-0.47,0.07-0.87,0.34-1.1,0.75c-0.23,0.4-0.26,0.88-0.08,1.31
		L8.36,31.46z M10.21,30.69l-1.72-4.16l17.09-7.08l1.72,4.16l-3.36,1.39c-0.42-0.56-0.98-1.02-1.65-1.29
		c-0.99-0.41-2.08-0.41-3.06,0c-1.11,0.46-1.89,1.37-2.24,2.42c-0.08-0.04-0.15-0.09-0.24-0.13c-0.99-0.41-2.08-0.41-3.06,0
		c-0.99,0.41-1.76,1.18-2.17,2.16c-0.28,0.67-0.35,1.38-0.25,2.08L10.21,30.69z M19.19,21.02l-5.08,2.1l-2.8-6.75
		c1.75-0.24,3.47-0.92,5.12-2.02L19.19,21.02z M17.06,30.47c-0.2,0.49-0.59,0.88-1.08,1.08c-0.49,0.21-1.04,0.21-1.53,0
		c-0.49-0.2-0.88-0.59-1.08-1.08c-0.2-0.49-0.2-1.04,0-1.53c0.2-0.49,0.59-0.88,1.08-1.08c0.25-0.1,0.51-0.15,0.77-0.15
		s0.52,0.05,0.77,0.15c0.49,0.2,0.88,0.59,1.08,1.08S17.26,29.98,17.06,30.47z M21.52,29.26c-1.02,0.42-2.19-0.06-2.61-1.08
		c-0.42-1.02,0.06-2.19,1.08-2.61c0.25-0.1,0.51-0.15,0.77-0.15c0.26,0,0.52,0.05,0.77,0.15c0.49,0.21,0.88,0.59,1.08,1.08
		C23.02,27.66,22.53,28.83,21.52,29.26z M36.46,22.43c-0.2,0.49-0.59,0.88-1.08,1.08c-1.02,0.42-2.19-0.06-2.61-1.08
		c-0.42-1.02,0.06-2.19,1.08-2.61c0.25-0.1,0.51-0.15,0.76-0.15c0.79,0,1.53,0.47,1.85,1.23C36.66,21.4,36.66,21.94,36.46,22.43z
		 M31.59,7.76l6.18,3.24l2.92,7.06l-2.9,1.2c-1.07-1.42-2.99-2.01-4.71-1.3c-1.72,0.71-2.66,2.49-2.42,4.25l-2.44,1.01l-4.97-12.01
		L31.59,7.76z M22.4,11.8l2.79,6.73l-5.08,2.1l-2.84-6.86C19.11,13.73,20.83,13.06,22.4,11.8z M10.37,16.73l2.81,6.78l-5.08,2.1
		l-2.76-6.66C7.21,18.59,8.89,17.83,10.37,16.73z"></path>
</g>
</svg>
