<svg version="1.1" id="Layer_1" xmlns="http://www.w3.org/2000/svg" xmlns:xlink="http://www.w3.org/1999/xlink" x="0px" y="0px" viewBox="0 0 48 48" style="enable-background:new 0 0 48 48;" xml:space="preserve">
<g>
	<path d="M7.019,13.617l16.552-8.31c0.281-0.142,0.616-0.141,0.897,0l16.551,8.31V27h2V13.617c0-0.761-0.422-1.445-1.103-1.787
		L25.365,3.52c-0.844-0.424-1.851-0.423-2.692,0L6.121,11.83c-0.68,0.342-1.103,1.027-1.103,1.787V20h2V13.617z"></path>
	<path d="M35.26,27.02C34.55,25.77,33.22,25,31.79,25h-3.371c-0.631,0-1.104,0.577-0.981,1.196l0.519,2.6
		c0.178,0.892,0.936,1.551,1.844,1.605l5.881,0.347c0.021,0.001,0.042,0.002,0.062,0.002c0.768,0,1.258-0.846,0.852-1.517
		L35.26,27.02z M29.86,29.403c-0.454-0.027-0.833-0.357-0.922-0.802L28.419,26h3.371c1.074,0,2.07,0.58,2.614,1.537l1.337,2.213
		L29.86,29.403z"></path>
	<path d="M46.976,37.619l-0.402-3.142c-0.238-1.862-1.481-3.419-3.246-4.063l-2.681-0.977c-0.443-0.162-0.816-0.477-1.051-0.886
		l-1.728-3.024C36.625,23.352,34.296,22,31.79,22H7.031c-1.646,0-3.104,0.987-3.714,2.514C2.443,26.699,2,29,2,31.354v3.939
		c0,0.189-0.073,0.366-0.207,0.5C1.281,36.304,1,36.984,1,37.707v0.238c0,1.032,0.573,1.96,1.496,2.421
		C3.325,40.781,4.254,41,5.181,41h1.583c0.637,2.023,2.506,3.5,4.737,3.5s4.1-1.477,4.737-3.5h16.799
		c0.637,2.023,2.506,3.5,4.737,3.5s4.1-1.477,4.737-3.5H44c0.861,0,1.683-0.371,2.252-1.018S47.085,38.474,46.976,37.619z
		 M11.5,42.5c-1.654,0-3-1.346-3-3s1.346-3,3-3s3,1.346,3,3S13.154,42.5,11.5,42.5z M37.772,42.5c-1.654,0-3-1.346-3-3s1.346-3,3-3
		s3,1.346,3,3S39.427,42.5,37.772,42.5z M44.751,38.661C44.558,38.879,44.291,39,44,39h-2.278c-0.249-1.968-1.915-3.5-3.949-3.5
		s-3.7,1.532-3.949,3.5H15.449c-0.249-1.968-1.915-3.5-3.949-3.5S7.8,37.032,7.551,39h-2.37c-0.618,0-1.237-0.146-1.79-0.423
		C3.149,38.457,3,38.214,3,37.945v-0.238c0-0.189,0.073-0.366,0.207-0.5C3.719,36.696,4,36.016,4,35.293v-3.939
		c0-2.098,0.396-4.149,1.175-6.097C5.479,24.493,6.209,24,7.031,24H31.79c1.79,0,3.453,0.965,4.342,2.519l1.728,3.023
		c0.468,0.82,1.214,1.45,2.102,1.773l2.681,0.977c1.059,0.386,1.805,1.32,1.947,2.438l0.402,3.143
		C45.028,38.162,44.943,38.442,44.751,38.661z"></path>
</g>
</svg>
