<svg version="1.1" id="Layer_1" xmlns="http://www.w3.org/2000/svg" xmlns:xlink="http://www.w3.org/1999/xlink" x="0px" y="0px" viewBox="0 0 48 48" xml:space="preserve">
<path d="M32,5c-3.93,0-7.48,2.22-10.03,5.77C19.96,9.03,17.57,8,15,8C7.83,8,2,15.85,2,25.5S7.83,43,15,43
	c3.17,0,6.07-1.56,8.33-4.11C25.72,41.45,28.73,43,32,43c7.72,0,14-8.52,14-19S39.72,5,32,5z M17,25.5c0-3.46-0.74-6.8-2.14-9.66
	c-0.01-0.01-0.03-0.05-0.05-0.07C15.74,14.65,16.83,14,18,14c0.65,0,1.27,0.22,1.85,0.59C18.68,17.37,18,20.57,18,24
	c0,4.34,1.09,8.34,2.9,11.54C20.04,36.46,19.06,37,18,37c-1.17,0-2.25-0.65-3.18-1.76C16.25,32.36,17,28.99,17,25.5z M14.52,30.06
	c-0.14,0.65-0.32,1.29-0.53,1.92C13.35,30.11,13,27.87,13,25.5c0-2.36,0.35-4.61,0.99-6.49c0.21,0.65,0.39,1.3,0.54,1.97
	c0.32,1.48,0.47,3,0.47,4.52C15,27.03,14.84,28.57,14.52,30.06z M20.27,13.67c-0.56-0.33-1.14-0.55-1.76-0.63
	C18.67,13.02,18.83,13,19,13c0.5,0,0.98,0.1,1.45,0.28C20.39,13.41,20.33,13.54,20.27,13.67z M15,41C8.93,41,4,34.05,4,25.5
	S8.93,10,15,10c2.13,0,4.12,0.87,5.81,2.36C20.23,12.13,19.62,12,19,12c-2.86,0-5.36,2.55-6.78,6.37c-0.04,0.11-0.08,0.22-0.12,0.33
	c-0.06,0.18-0.13,0.36-0.19,0.55c-0.09,0.29-0.17,0.58-0.25,0.89c-0.01,0.06-0.03,0.11-0.04,0.17c-0.09,0.38-0.18,0.77-0.25,1.17
	c0,0.01,0,0.02-0.01,0.03c-0.07,0.4-0.14,0.82-0.19,1.24c0,0.02-0.01,0.04-0.01,0.06c-0.05,0.39-0.08,0.79-0.11,1.2
	c0,0.05-0.01,0.1-0.01,0.15C11.01,24.59,11,25.04,11,25.5c0,0.46,0.01,0.91,0.04,1.36c0,0.05,0.01,0.1,0.01,0.15
	c0.03,0.41,0.06,0.81,0.11,1.2c0,0.02,0.01,0.04,0.01,0.06c0.05,0.42,0.12,0.84,0.19,1.24c0,0.01,0,0.02,0.01,0.03
	c0.07,0.4,0.16,0.79,0.25,1.17c0.01,0.06,0.03,0.11,0.04,0.17c0.08,0.3,0.16,0.6,0.25,0.89c0.06,0.19,0.12,0.37,0.19,0.55
	c0.04,0.11,0.08,0.22,0.12,0.33C13.64,36.45,16.14,39,19,39c0.62,0,1.23-0.13,1.81-0.36C19.12,40.13,17.13,41,15,41z M19,38
	c-0.17,0-0.33-0.02-0.49-0.04c1.06-0.13,2.05-0.67,2.92-1.53c0.12,0.18,0.24,0.36,0.36,0.53C20.93,37.62,19.99,38,19,38z M32,41
	c-6.62,0-12-7.63-12-17S25.38,7,32,7c2.64,0,5.07,1.23,7.05,3.28c-0.88-0.5-1.82-0.78-2.8-0.78c-4.26,0-7.81,5.07-8.59,11.75
	c-0.02,0.14-0.02,0.28-0.04,0.42c-0.03,0.3-0.06,0.61-0.08,0.92c-0.03,0.46-0.04,0.94-0.04,1.41c0,0.48,0.02,0.95,0.04,1.41
	c0.02,0.31,0.05,0.61,0.08,0.92c0.01,0.14,0.02,0.28,0.04,0.42c0.78,6.68,4.33,11.75,8.59,11.75c0.98,0,1.92-0.28,2.8-0.78
	C37.07,39.77,34.64,41,32,41z M31.38,29.38c-0.17,0.7-0.37,1.39-0.61,2.07c-0.82-2.12-1.27-4.7-1.27-7.45
	c0-2.71,0.44-5.25,1.24-7.35c0.17,0.39,0.33,0.77,0.44,1.15C31.73,19.81,32,21.91,32,24C32,25.81,31.8,27.62,31.38,29.38z M34,24
	c0-3.76-0.8-7.39-2.32-10.5c-0.01-0.02-0.02-0.03-0.03-0.05c1.04-1.23,2.28-1.95,3.6-1.95C38.97,11.5,42,17.11,42,24
	s-3.03,12.5-6.75,12.5c-1.32,0-2.56-0.72-3.6-1.95C33.18,31.43,34,27.79,34,24z M43.89,26.2c-0.02,0.26-0.05,0.52-0.08,0.78
	c-0.04,0.33-0.09,0.65-0.14,0.97c-0.01,0.05-0.02,0.1-0.03,0.14c-1,5.45-3.93,9.41-7.38,9.41c-0.17,0-0.33-0.03-0.5-0.04
	C39.79,37,43,31.15,43,24c0-7.15-3.21-13-7.25-13.46c0.17-0.02,0.33-0.04,0.5-0.04c3.46,0,6.39,3.96,7.38,9.41
	c0.01,0.05,0.02,0.09,0.03,0.14c0.06,0.32,0.1,0.64,0.14,0.97c0.03,0.26,0.06,0.51,0.08,0.77c0.02,0.22,0.04,0.43,0.06,0.65
	C43.98,22.96,44,23.48,44,24c0,0.52-0.02,1.04-0.06,1.55C43.93,25.77,43.91,25.99,43.89,26.2z"></path>
</svg>
