<svg viewBox="0 0 48 48" version="1.1" xmlns="http://www.w3.org/2000/svg" id="Layer_1">
  
  <path d="M41.02,24.083c1.663-1.761,1.643-4.541-.081-6.265l-2.879-2.879-4.25-4.25-1.414,1.414,3.189,3.189-3.207,3.207h-.757l-1.389-1.389c-1.039-1.039-2.419-1.611-3.889-1.611h-2.009c-1.182,0-2.354.391-3.3,1.1l-2.534,1.9h-3.43c-.167,0-.323-.083-.416-.223l-.812-1.219c-.651-.976-1.74-1.559-2.912-1.559h-5.93c-.829,0-1.5.672-1.5,1.5v1c0,.521.27,1.004.714,1.278l10.46,6.437-1.497.599c-1.314-1.445-3.191-2.313-5.177-2.313-3.86,0-7,3.14-7,7s3.14,7,7,7c2.961,0,5.525-1.828,6.538-4.5h.659c.857,0,1.733.281,2.602.834,1.198.763,2.583,1.166,4.003,1.166h7.296c1.678,0,3.264-.659,4.453-1.782,1.075,2.567,3.585,4.282,6.449,4.282,3.86,0,7-3.14,7-7,0-3.513-2.603-6.421-5.98-6.917ZM39.745,19.5c.327.432.512.949.512,1.5,0,.17-.018.337-.051.5h-1.207c-.276,0-.5-.224-.5-.5v-1c0-.276.224-.5.5-.5h.745ZM22.234,18.2c.602-.451,1.348-.7,2.1-.7h2.009c.935,0,1.814.364,2.475,1.025l1.475,1.475-1.689,1.689c-.523.523-1.218.811-1.958.811h-2.556c-.596,0-1.186-.197-1.661-.554l-2.596-1.946,2.401-1.8ZM5.5,17.721v-.221h5.43c.503,0,.969.25,1.248.668l.812,1.219c.464.697,1.242,1.113,2.08,1.113h3.763l2.995,2.246c.648.486,1.451.754,2.262.754h2.556c.055,0,.108-.014.163-.016l-1.284,1.284c-.473.472-1.1.732-1.768.732h-5.616l-12.641-7.779ZM8,36c-2.757,0-5-2.243-5-5s2.243-5,5-5c1.529,0,2.975.713,3.917,1.895l-1.003.402c-.755-.815-1.786-1.296-2.913-1.296-2.206,0-4,1.794-4,4s1.794,4,4,4c1.627,0,3.089-1.014,3.695-2.5h1.062c-.644,2.06-2.539,3.5-4.757,3.5ZM7.871,29.513c-.766.066-1.371.704-1.371,1.487,0,.827.673,1.5,1.5,1.5h2.587c-.529.905-1.509,1.5-2.587,1.5-1.654,0-3-1.346-3-3s1.346-3,3-3c.715,0,1.386.248,1.918.694l-2.047.819ZM8.5,31c0,.276-.225.5-.5.5s-.5-.224-.5-.5.225-.5.5-.5.5.224.5.5ZM33.081,31.101l-.075.131c-.799,1.398-2.296,2.268-3.907,2.268h-7.296c-1.039,0-2.052-.295-2.929-.854-1.195-.761-2.432-1.146-3.676-1.146h-5.79c.056-.157.092-.324.092-.5,0-.353-.127-.673-.332-.929l8.928-3.571h5.661c.935,0,1.814-.364,2.475-1.025l4.975-4.975h1.793c.133,0,.26-.053.354-.146l3.646-3.646,1.812,1.812c-.738.094-1.312.718-1.312,1.481v1c0,.827.673,1.5,1.5,1.5h.745c-.07.092-.137.185-.22.268l-.337.337c-.374.374-.725.768-1.082,1.157-.009.002-.018.003-.027.006l.005.018c-1.912,2.082-3.6,4.361-5.004,6.816ZM41.36,30.375s0,0,0-.001l-.803-2.293c1.385.263,2.444,1.458,2.444,2.919,0,1.654-1.346,3-3,3s-3-1.346-3-3c0-.444.106-.86.284-1.237l1.422,1.989s.005.004.007.006c.261.442.738.742,1.287.742.827,0,1.5-.673,1.5-1.5,0-.223-.052-.434-.14-.625ZM40,31.5c-.276,0-.5-.224-.5-.5s.224-.5.5-.5.5.224.5.5-.224.5-.5.5ZM38.779,30.135l-1.99-2.783c.123-.16.257-.311.383-.469.493-.339,1.052-.582,1.65-.728l1.172,3.345c-.502.002-.944.253-1.215.634ZM40,36c-.323,0-.637-.037-.943-.095-.085-.016-.167-.044-.251-.065-.223-.055-.442-.119-.652-.203-.08-.031-.156-.069-.233-.104-.212-.098-.418-.208-.613-.333-.059-.038-.117-.075-.174-.115-.211-.148-.409-.312-.594-.491-.033-.031-.068-.06-.1-.093-.213-.217-.41-.451-.581-.704,0-.001-.002-.003-.003-.004-.179-.265-.333-.548-.459-.846-.004-.009-.005-.018-.009-.027-.247-.592-.386-1.24-.386-1.92,0-.538.107-1.046.265-1.532.287-.432.597-.847.902-1.266l.481.673c-.399.617-.649,1.337-.649,2.125,0,2.206,1.794,4,4,4s4-1.794,4-4c0-2.143-1.697-3.883-3.816-3.981l-.351-1.002c.057-.002.109-.017.167-.017,2.757,0,5,2.243,5,5s-2.243,5-5,5Z"></path>
  <path d="M32.061,22.232l-2.561,2.561c-.287.287-.372.715-.217,1.09s.518.617.924.617h1.793v-1h-1.793l2.561-2.561c.279-.279.666-.439,1.061-.439h1.172v-1h-1.172c-.667,0-1.295.26-1.768.732Z"></path>
</svg>