<svg viewBox="0 0 48 48" version="1.1" xmlns="http://www.w3.org/2000/svg" id="Layer_1">
  
  <path d="M47.061,37.939l-.561-.561v-2.379c0-.501-.251-.97-.668-1.248-3.072-2.048-7.939-3.167-14.107-3.247l-1.752-2.19c-1.431-1.789-3.566-2.815-5.857-2.815h-.38c-4.034,0-7.974,1.13-11.395,3.268l-2.65,1.656c-.08.05-.171.076-.265.076h-1.246l-.451-1.868c-.163-.674-.766-1.148-1.458-1.148h-.006l-4.271.016c-.459.002-.892.214-1.175.575-.283.361-.385.833-.277,1.279l.729,3c.163.673.765,1.146,1.458,1.146h.19l.453,1.359c.085.255.128.521.128.79v3.287c0,.828.672,1.5,1.5,1.5h2.461c.929,1.278,2.427,2.064,4.039,2.064,1.604,0,3.096-.78,4.027-2.049l16.976.034c.933,1.248,2.416,2.015,3.998,2.015,1.573,0,3.051-.761,3.985-2h5.515c.607,0,1.154-.365,1.386-.926s.104-1.206-.325-1.635ZM3.122,31.5l-.486-2.002,3.243-.012.486,2.014h-3.243ZM7.622,38.436h-2.122v-1.936h2.142c-.083.322-.142.653-.142,1,0,.324.049.634.122.936ZM11.5,40.5c-1.654,0-3-1.346-3-3s1.346-3,3-3,3,1.346,3,3-1.346,3-3,3ZM36.5,40.5c-1.654,0-3-1.346-3-3s1.346-3,3-3,3,1.346,3,3-1.346,3-3,3ZM40,35.5v.104c-.678-1.246-1.984-2.104-3.5-2.104-2.206,0-4,1.794-4,4,0,.347.059.678.142,1H15.358c.083-.322.142-.653.142-1,0-2.206-1.794-4-4-4-1.472,0-2.741.812-3.435,2h-2.577c-.014-.433-.082-.862-.219-1.274l-.575-1.726h4.732c.469,0,.927-.131,1.325-.38l2.649-1.656c3.102-1.939,6.676-2.964,10.335-2.964h.38c1.68,0,3.245.752,4.294,2.064l2.199,2.748c.095.119.239.188.391.188,5.873,0,10.649.983,13.5,2.772v.228h-4.5ZM40.358,38.5c.083-.322.142-.653.142-1s-.059-.678-.142-1h4.142v1.5c0,.133.053.26.146.354l.146.146h-4.435Z"></path>
  <path d="M36.5,35.5c-1.103,0-2,.897-2,2s.897,2,2,2,2-.897,2-2-.897-2-2-2ZM36.5,38.5c-.551,0-1-.449-1-1s.449-1,1-1,1,.449,1,1-.449,1-1,1Z"></path>
  <path d="M11.5,35.5c-1.103,0-2,.897-2,2s.897,2,2,2,2-.897,2-2-.897-2-2-2ZM11.5,38.5c-.551,0-1-.449-1-1s.449-1,1-1,1,.449,1,1-.449,1-1,1Z"></path>
  <path d="M30.354,36.354c-.093.093-.222.146-.354.146h-11.434c-.175,0-.339-.093-.429-.243l-1.543-2.573-.857.515,1.543,2.573c.27.449.763.728,1.287.728h11.434c.4,0,.777-.156,1.061-.439.55-.55.854-1.282.854-2.061h-1c0,.512-.199.992-.561,1.354Z"></path>
  <path d="M28.89,32.217c.083-.173.06-.379-.06-.529l-1.199-1.499c-.858-1.073-2.139-1.688-3.514-1.688h-.382c-3.471,0-6.861.972-9.804,2.812l-.423.264c-.189.118-.277.347-.215.562s.257.362.48.362h14.666c.192,0,.367-.11.451-.283ZM22.88,29.526l1.577,1.974h-8.847c2.25-1.18,4.727-1.85,7.269-1.974ZM25.738,31.5l-1.596-1.997c1.059.007,2.045.482,2.708,1.311l.549.687h-1.661Z"></path>
  <path d="M9.105,22.447c.169.339.516.553.895.553,4.162,0,5.934-2.587,7.358-4.666,1.162-1.696,2.102-3.068,4.041-3.299l1.482,2.965-2.776,5.553,1.789.895,2.105-4.211,2.105,4.211,1.789-.895-2.776-5.553,1.482-2.965c1.939.231,2.879,1.603,4.041,3.299,1.424,2.079,3.196,4.666,7.358,4.666.379,0,.725-.214.895-.553l4-8c.155-.31.138-.678-.044-.973-.182-.294-.504-.474-.851-.474-3.108,0-4.313-1.759-5.708-3.796-1.35-1.97-2.88-4.204-6.292-4.204-.379,0-.725.214-.895.553l-5.105,10.211-5.105-10.211c-.169-.339-.516-.553-.895-.553-3.412,0-4.941,2.233-6.292,4.204-1.396,2.037-2.601,3.796-5.708,3.796-.347,0-.668.18-.851.474-.182.295-.199.663-.044.973l4,8ZM30.601,7.035c1.939.231,2.879,1.603,4.041,3.299,1.233,1.8,2.727,3.98,5.807,4.534l-3.054,6.108c-2.666-.216-3.802-1.873-5.103-3.772-1.128-1.647-2.383-3.479-4.758-4.035l3.067-6.134ZM13.358,10.334c1.162-1.696,2.102-3.068,4.041-3.299l3.067,6.134c-2.375.556-3.629,2.388-4.758,4.035-1.301,1.899-2.437,3.557-5.103,3.772l-3.054-6.108c3.08-.553,4.574-2.734,5.807-4.534Z"></path>
</svg>