<svg version="1.1" id="Layer_1" xmlns="http://www.w3.org/2000/svg" xmlns:xlink="http://www.w3.org/1999/xlink" x="0px" y="0px" viewBox="0 0 48 48" xml:space="preserve">
<path d="M24,2C15.18,2,8,11.87,8,24s7.18,22,16,22s16-9.87,16-22S32.82,2,24,2z M24,44c-7.72,0-14-8.97-14-20c0-11.03,6.28-20,14-20
	c3.49,0,6.68,1.84,9.13,4.87c-1.19-0.88-2.5-1.37-3.88-1.37c-3.17,0-5.98,2.58-7.76,6.56c-0.04,0.08-0.07,0.16-0.11,0.24
	c-0.11,0.26-0.22,0.52-0.32,0.78c-0.1,0.25-0.19,0.5-0.27,0.76c-0.05,0.15-0.1,0.3-0.15,0.46c-0.11,0.35-0.21,0.7-0.3,1.07
	c-0.03,0.1-0.06,0.2-0.08,0.31c-0.1,0.39-0.18,0.8-0.26,1.21c-0.02,0.1-0.04,0.19-0.06,0.29c-0.07,0.41-0.13,0.82-0.19,1.24
	c-0.01,0.11-0.03,0.22-0.05,0.33c-0.05,0.41-0.08,0.83-0.11,1.26c-0.01,0.12-0.02,0.24-0.03,0.36C19.52,22.9,19.5,23.44,19.5,24
	s0.02,1.1,0.05,1.65c0.01,0.12,0.02,0.24,0.03,0.36c0.03,0.42,0.07,0.84,0.11,1.26c0.01,0.11,0.03,0.22,0.05,0.33
	c0.05,0.42,0.12,0.83,0.19,1.24c0.02,0.1,0.04,0.19,0.06,0.28c0.08,0.41,0.16,0.81,0.26,1.21c0.03,0.1,0.05,0.2,0.08,0.3
	c0.1,0.36,0.2,0.72,0.31,1.07c0.05,0.15,0.1,0.3,0.15,0.45c0.09,0.26,0.18,0.52,0.28,0.77c0.1,0.27,0.21,0.52,0.32,0.78
	c0.04,0.08,0.07,0.16,0.11,0.24c1.78,3.98,4.59,6.56,7.76,6.56c1.38,0,2.69-0.49,3.88-1.37C30.68,42.16,27.49,44,24,44z M26.17,24
	c0-4.21-0.87-8.27-2.52-11.79c1.23-1.7,2.73-2.71,4.35-2.71c4.14,0,7.5,6.5,7.5,14.5S32.14,38.5,28,38.5
	c-1.62,0-3.12-1.01-4.35-2.71C25.29,32.27,26.17,28.21,26.17,24z M23.64,29.4c-0.2,1.02-0.46,2.07-0.78,3.08
	c-0.88-2.43-1.36-5.36-1.36-8.48c0-3.08,0.47-6,1.34-8.42c0.04,0.12,0.09,0.24,0.13,0.37c0.27,0.85,0.49,1.71,0.66,2.59
	c0.36,1.8,0.54,3.63,0.54,5.47C24.17,25.81,24,27.62,23.64,29.4z M37.86,26.65c-0.02,0.24-0.05,0.49-0.08,0.73
	c-0.87,6.93-4.36,12.12-8.53,12.12c-0.21,0-0.42-0.03-0.63-0.06c4.4-0.58,7.88-7.28,7.88-15.44S33.02,9.14,28.62,8.56
	c0.21-0.03,0.42-0.06,0.63-0.06c4.17,0,7.66,5.2,8.53,12.12c0.03,0.24,0.06,0.49,0.08,0.73c0.03,0.28,0.05,0.56,0.07,0.85
	C37.97,22.8,38,23.39,38,24s-0.03,1.2-0.06,1.8C37.92,26.08,37.89,26.36,37.86,26.65z"></path>
</svg>
