<svg version="1.1" id="Layer_1" xmlns="http://www.w3.org/2000/svg" xmlns:xlink="http://www.w3.org/1999/xlink" x="0px" y="0px" viewBox="0 0 48 48" style="enable-background:new 0 0 48 48;" xml:space="preserve">
<g>
	<path d="M24,9.5c-3.645,0-6.5,6.369-6.5,14.5s2.855,14.5,6.5,14.5s6.5-6.369,6.5-14.5S27.645,9.5,24,9.5z M24,37.5
		c-2.178,0-4.105-3.307-4.987-7.939C19.335,27.803,19.5,25.934,19.5,24c0-1.92-0.161-3.783-0.479-5.539l-0.013,0.002
		c0.88-4.645,2.81-7.964,4.992-7.964c2.981,0,5.5,6.182,5.5,13.5S26.981,37.5,24,37.5z"></path>
	<path d="M43.5,19.767v-1.426c0-1.103-0.897-2-2-2h-0.013c-0.065-3.556-0.491-5.197-1.466-5.691
		c-1.002-0.508-2.141,0.325-3.579,1.379c-1.103,0.807-2.403,1.753-3.825,2.207c-1.439-4.816-3.913-8.69-7.021-10.627
		C24.051,2.646,20.998,2,18,2s-6.051,0.646-7.596,1.609C5.378,6.742,2,14.935,2,23.998c0,9.28,3.487,17.54,8.678,20.554
		C12.192,45.432,15.066,46,18,46s5.808-0.568,7.322-1.448C30.513,41.538,34,33.279,34,23.998c0-3.091-0.401-6.074-1.118-8.797
		c1.582-0.494,2.972-1.503,4.151-2.366c1.024-0.751,2.083-1.525,2.536-1.294c0.39,0.198,0.849,1.22,0.921,4.801
		c-1.098,0.006-1.989,0.9-1.989,1.999v1.426c-1.478,0.874-2.5,3.01-2.5,5.574V42c0,4,2.701,4,4,4h1h1c1.299,0,4,0,4-4V25.341
		C46,22.777,44.978,20.64,43.5,19.767z M31.458,17.906c0.003,0.015,0.005,0.031,0.008,0.046c0.081,0.448,0.152,0.903,0.215,1.362
		c0.012,0.091,0.023,0.184,0.034,0.275c0.051,0.395,0.097,0.794,0.134,1.197c0.02,0.221,0.034,0.447,0.05,0.67
		c0.021,0.296,0.045,0.591,0.059,0.89C31.984,22.892,32,23.442,32,23.999c0,0.005,0,0.01,0,0.016c0,0.561-0.016,1.115-0.041,1.663
		c-0.012,0.264-0.035,0.524-0.053,0.786c-0.019,0.276-0.036,0.553-0.061,0.825c-0.031,0.335-0.072,0.665-0.113,0.995
		c-0.023,0.185-0.044,0.372-0.069,0.555c-0.05,0.358-0.109,0.711-0.17,1.062c-0.027,0.153-0.053,0.306-0.081,0.456
		c-0.064,0.337-0.135,0.668-0.208,0.997c-0.042,0.185-0.084,0.37-0.129,0.552c-0.062,0.254-0.128,0.503-0.196,0.752
		c-0.095,0.341-0.192,0.679-0.297,1.005c-0.017,0.055-0.034,0.11-0.052,0.164c-1.531,4.627-4.11,7.673-7.028,7.673
		c-4.687,0-8.5-7.851-8.5-17.5s3.813-17.5,8.5-17.5c2.885,0,5.435,2.981,6.972,7.519c0.103,0.313,0.202,0.63,0.295,0.952
		c0.021,0.071,0.043,0.142,0.063,0.214C31.076,16.06,31.287,16.969,31.458,17.906z M18,44c-2.947,0-5.342-0.61-6.318-1.177
		C7.087,40.155,4,32.59,4,23.998C4,15.6,6.999,8.088,11.463,5.307C12.505,4.657,15.085,4,18,4s5.495,0.657,6.537,1.307
		c0.249,0.155,0.491,0.33,0.731,0.514C24.696,5.618,24.107,5.5,23.5,5.5C18.173,5.5,14,13.626,14,24s4.173,18.5,9.5,18.5
		c0.606,0,1.194-0.118,1.766-0.32c-0.309,0.236-0.623,0.454-0.947,0.642C23.342,43.39,20.947,44,18,44z M41.5,19.341H41h-0.5v-1h1
		V19.341z M44,42c0,2-0.627,2-2,2h-1h-1c-1.373,0-2,0-2-2V25.341c0-2.29,1.056-4,2-4h1h1c0.944,0,2,1.71,2,4V42z"></path>
	<path d="M37.368,5.546c-0.006-0.18-0.014-0.37-0.023-0.572c-0.009-0.201-0.018-0.402-0.027-0.603
		c-0.009-0.201-0.019-0.388-0.032-0.563h0.036l2.592,4.707h1.98V2.09h-1.377v2.979c0.006,0.174,0.012,0.357,0.018,0.549
		s0.013,0.385,0.022,0.58c0.009,0.195,0.017,0.377,0.022,0.545h-0.027L37.971,2.09H36v6.425h1.368V5.546z"></path>
	<path d="M44.249,5.49V5.454l0.443-0.408c0.26-0.24,0.48-0.456,0.66-0.648c0.18-0.192,0.316-0.386,0.408-0.582
		c0.092-0.196,0.138-0.414,0.138-0.654c0-0.224-0.057-0.423-0.171-0.597c-0.114-0.174-0.274-0.312-0.48-0.414
		C45.041,2.051,44.794,2,44.507,2c-0.268,0-0.496,0.031-0.684,0.093c-0.188,0.062-0.353,0.142-0.495,0.24
		c-0.142,0.098-0.275,0.203-0.399,0.315l0.558,0.654c0.172-0.144,0.332-0.254,0.48-0.33c0.148-0.076,0.296-0.114,0.444-0.114
		c0.14,0,0.254,0.035,0.342,0.105c0.088,0.07,0.132,0.181,0.132,0.333c0,0.124-0.027,0.241-0.081,0.351
		c-0.054,0.11-0.145,0.237-0.273,0.381c-0.128,0.144-0.3,0.328-0.516,0.552l-1.062,1.073v0.69H46V5.49H44.249z"></path>
</g>
</svg>
