<svg version="1.1" id="Layer_1" xmlns="http://www.w3.org/2000/svg" xmlns:xlink="http://www.w3.org/1999/xlink" x="0px" y="0px" viewBox="0 0 48 48" style="enable-background:new 0 0 48 48;" xml:space="preserve">
<g>
	<g>
		<path d="M29.8,28.4l-0.7-1.3l0.6-1.4l0.5-1.5l1.2-1c0.1-0.1,0.1-0.1,0.1-0.2l0.4-1.6l0.7-1.6c0-0.1,0-0.2,0-0.3L32,18l-0.3-1.6
			l-0.9,0.1l0.3,1.7c0,0,0,0.1,0,0.1l0.6,1.4l-0.6,1.5l-0.4,1.5l-1.2,1c-0.1,0.1-0.1,0.1-0.1,0.2l-0.5,1.6L28.2,27
			c-0.1,0.1,0,0.3,0,0.4l0.8,1.4l0.5,1.6c0,0.1,0.1,0.2,0.1,0.2l1.4,1.1l0.5-0.7l-1.3-1L29.8,28.4z"></path>
		<path d="M37.2,28.4l-0.7-1.3l0.6-1.4l0.5-1.5l1.2-1c0.1-0.1,0.1-0.1,0.1-0.2l0.4-1.6l0.7-1.6c0-0.1,0-0.2,0-0.3L39.4,18l-0.3-1.6
			l-0.9,0.1l0.3,1.7c0,0,0,0.1,0,0.1l0.6,1.4l-0.6,1.5l-0.4,1.5l-1.2,1c-0.1,0.1-0.1,0.1-0.1,0.2l-0.5,1.6L35.6,27
			c-0.1,0.1,0,0.3,0,0.4l0.8,1.4l0.5,1.6c0,0.1,0.1,0.2,0.1,0.2l1.4,1.1L39,31l-1.3-1L37.2,28.4z"></path>
		<path d="M36.1,18.2l0.2,0.4l0.8-0.3L37,18l-0.1-0.3L36,17.7l0.1,0.4C36.1,18.2,36.1,18.2,36.1,18.2z"></path>
		<polygon points="36.9,21.4 37,21.3 36.2,20.9 35.8,22 36.7,22.3"></polygon>
		<polygon points="33.8,25.4 33.7,25.5 34.5,25.9 34.9,24.8 34.1,24.5"></polygon>
		<path d="M34.1,26.9l-0.8-0.3L33.1,27c-0.1,0.1,0,0.3,0,0.4l0.2,0.4l0.8-0.4L34,27.1L34.1,26.9z"></path>
		<path d="M35.2,29.7L34.3,30l0.1,0.4c0,0.1,0.1,0.2,0.1,0.2l0.3,0.2l0.5-0.7L35.3,30L35.2,29.7z"></path>
		<rect x="33.4" y="16.4" transform="matrix(0.9885 -0.1514 0.1514 0.9885 -2.1271 5.3166)" width="0.9" height="0.5"></rect>
		<path d="M34.3,19.7L34.1,20l0.8,0.3l0.2-0.5c0-0.1,0-0.2,0-0.3L35,19l-0.8,0.3L34.3,19.7z"></path>
		<rect x="32.4" y="23" transform="matrix(0.78 -0.6257 0.6257 0.78 -7.4101 25.7623)" width="1.1" height="0.9"></rect>
		<path d="M30.8,26.5L30.6,27c-0.1,0.1,0,0.3,0,0.4l0.2,0.4l0.8-0.4l-0.1-0.2l0.1-0.3L30.8,26.5z"></path>
		<polygon points="32.1,28.1 31.3,28.5 31.5,28.8 31.6,29.2 32.5,28.9 32.3,28.4"></polygon>
		<path d="M26.7,22.3c0.1,0.1,0.2,0.1,0.3,0.1h1.5c0.1,0,0.1,0,0.2,0l1.5-0.8c0.2-0.1,0.3-0.3,0.2-0.5l-0.8-1.5
			c0-0.1-0.1-0.1-0.2-0.2l-1.5-0.8c-0.2-0.1-0.4,0-0.5,0.1l-1.5,2.2c-0.1,0.1-0.1,0.3,0,0.5L26.7,22.3z M27.9,19.6l1.1,0.5l0.5,1.1
			l-1.1,0.5h-1.3l-0.4-0.4L27.9,19.6z"></path>
		<path d="M41.3,25.9c-0.1-0.1-0.2-0.2-0.3-0.2h-0.8l-0.9-0.9c-0.1-0.1-0.2-0.1-0.4-0.1c-0.1,0-0.2,0.1-0.3,0.2l-1,3
			c0,0.1,0,0.3,0.1,0.4l1,1c0.1,0.1,0.2,0.1,0.3,0.1h1c0.1,0,0.1,0,0.2,0l2-1c0.2-0.1,0.3-0.3,0.2-0.5L41.3,25.9z M39.9,28.7h-0.8
			L38.4,28l0.7-2.2l0.6,0.6c0.1,0.1,0.2,0.1,0.3,0.1h0.8l0.7,1.5L39.9,28.7z"></path>
		<path d="M42,22.7h-2c-0.2,0-0.4,0.2-0.4,0.4v1c0,0.1,0,0.2,0.1,0.3l1,1c0.1,0.1,0.2,0.1,0.3,0.1s0.2,0,0.3-0.1l1-1
			c0.1-0.1,0.1-0.2,0.1-0.3v-1C42.4,22.9,42.2,22.7,42,22.7z M41.6,23.9L41,24.5l-0.6-0.6v-0.5h1.2V23.9z"></path>
		<path d="M28.4,24c0-0.1-0.1-0.2-0.2-0.3l-2-1c-0.1-0.1-0.3,0-0.4,0.1l-1,1c-0.1,0.1-0.1,0.4,0,0.5l1,1c0.1,0.1,0.2,0.1,0.3,0.1h1
			c0.1,0,0.2,0,0.3-0.1l1-1C28.4,24.3,28.4,24.1,28.4,24z M26.8,24.7h-0.7l-0.6-0.6l0.5-0.5l1.3,0.6L26.8,24.7z"></path>
		<path d="M34,12c-0.7,0-1.4,0.1-2.1,0.2l0,0c-1.5-3.9-3.6-6.9-6.3-8.6C24,2.6,21,2,18,2s-6,0.6-7.6,1.6C5.4,6.7,2,14.9,2,24
			c0,9.3,3.5,17.5,8.7,20.5c1.5,0.9,4.4,1.5,7.3,1.5s5.8-0.6,7.3-1.5c2.8-1.6,5.1-4.8,6.6-8.7l0,0c0.7,0.1,1.4,0.2,2.1,0.2
			c6.6,0,12-5.4,12-12S40.6,12,34,12z M24.3,42.8c-1,0.6-3.4,1.2-6.3,1.2s-5.3-0.6-6.3-1.2C7.1,40.1,4,32.6,4,24
			c0-8.4,3-15.9,7.5-18.7C12.5,4.7,15.1,4,18,4s5.5,0.7,6.5,1.3c0.2,0.1,0.5,0.3,0.7,0.5c-0.6-0.2-1.2-0.3-1.8-0.3
			C18.2,5.5,14,13.6,14,24s4.2,18.5,9.5,18.5c0.6,0,1.2-0.1,1.7-0.3C24.9,42.4,24.6,42.6,24.3,42.8z M23.5,41.5
			c-4.7,0-8.5-7.9-8.5-17.5c0-9.7,3.8-17.5,8.5-17.5c2.5,0,4.7,2.2,6.2,5.6c0.1,0.2,0.2,0.5,0.3,0.7c0,0,0,0,0,0
			c0.1,0.3,0.2,0.5,0.3,0.8c-0.5,0.2-1,0.4-1.5,0.6C27.7,11.3,26,9.5,24,9.5c-3.7,0-6.5,6.4-6.5,14.5s2.8,14.5,6.5,14.5
			c2,0,3.7-1.8,4.9-4.8c0.5,0.3,1,0.5,1.5,0.6C28.8,38.7,26.3,41.5,23.5,41.5z M19,18.5L19,18.5c0.9-4.6,2.8-8,5-8
			c1.5,0,3,1.7,4,4.3c-3,2-5,5.4-5,9.2s2,7.2,5,9.2c-1,2.6-2.4,4.3-4,4.3c-2.2,0-4.1-3.3-5-7.9c0.3-1.8,0.5-3.6,0.5-5.6
			C19.5,22.1,19.3,20.2,19,18.5z M34,34c-0.3,0-0.5,0-0.8,0c-0.2,0-0.4,0-0.6-0.1C27.7,33.2,24,29,24,24c0-5,3.7-9.2,8.6-9.9
			c0.2,0,0.4-0.1,0.6-0.1c0.3,0,0.5,0,0.8,0c5.5,0,10,4.5,10,10S39.5,34,34,34z"></path>
	</g>
</g>
</svg>
