<svg version="1.1" id="Layer_1" xmlns="http://www.w3.org/2000/svg" xmlns:xlink="http://www.w3.org/1999/xlink" x="0px" y="0px" viewBox="0 0 48 48" style="enable-background:new 0 0 48 48;" xml:space="preserve">
<g>
	<path d="M24,3C12.421,3,3,12.42,3,24s9.421,21,21,21s21-9.42,21-21S35.579,3,24,3z M24,43C13.523,43,5,34.477,5,24S13.523,5,24,5
		s19,8.523,19,19S34.477,43,24,43z"></path>
	<path d="M39.582,18.793c-0.255-0.254-0.623-0.352-0.97-0.258l-2.909,0.793l-0.035-0.036l-7.496,2.089l-1.59-1.589
		c-0.188-0.188-0.441-0.293-0.707-0.293h-3v-1h2v-2h-3h-3v2h2v1h-4v-1c0-0.477-0.337-0.887-0.804-0.98l-5-1
		c-0.442-0.089-0.889,0.131-1.091,0.533l-1,2c-0.13,0.259-0.141,0.562-0.029,0.83c0.111,0.268,0.333,0.474,0.607,0.566l5.316,1.772
		V27.5c0,0.552,0.447,1,1,1h13c0.266,0,0.52-0.105,0.707-0.293l7.062-7.062l1.934-0.527l1.09,1.089l1.414-1.414L39.582,18.793z
		 M11.428,18.63l3.447,0.689v0.793l-3.59-1.197L11.428,18.63z M28.461,26.5H16.875v-5h8.586l1.707,1.707
		c0.255,0.253,0.625,0.35,0.97,0.258l4.617-1.259L28.461,26.5z"></path>
	<polygon points="23.375,11.5 23.375,15 24.375,15 24.375,11.5 24.875,11.5 25.875,11.5 25.875,10.5 24.875,10.5 24.875,8.5 
		25.875,8.5 25.875,7.5 21.875,7.5 21.875,8.5 22.875,8.5 22.875,10.5 21.875,10.5 21.875,11.5 22.875,11.5"></polygon>
	<path d="M23.375,35.5v5c0,0.276,0.224,0.5,0.5,0.5s0.5-0.224,0.5-0.5v-5V33h-1V35.5z"></path>
	<path d="M29.48,30.293c-0.768,0.77-2.022,0.772-2.794,0c-1.551-1.551-4.072-1.551-5.623,0c-0.771,0.771-2.025,0.77-2.794,0
		c-1.552-1.551-4.072-1.55-5.622,0l1.414,1.414c0.745-0.745,2.047-0.747,2.794,0c1.552,1.55,4.072,1.549,5.622,0
		c0.771-0.771,2.023-0.771,2.795,0c0.775,0.775,1.793,1.163,2.812,1.163c1.018,0,2.035-0.388,2.811-1.163
		c0.747-0.747,2.049-0.745,2.794,0l1.414-1.414C33.552,28.744,31.031,28.743,29.48,30.293z"></path>
</g>
</svg>
