<svg version="1.1" id="Layer_1" xmlns="http://www.w3.org/2000/svg" xmlns:xlink="http://www.w3.org/1999/xlink" x="0px" y="0px" viewBox="0 0 48 48" style="enable-background:new 0 0 48 48;" xml:space="preserve">
<g>
	<g>
		<path d="M34,12c-0.7,0-1.4,0.1-2.1,0.2l0,0c-1.5-3.9-3.6-6.9-6.3-8.6C24,2.6,21,2,18,2s-6,0.6-7.6,1.6C5.4,6.7,2,14.9,2,24
			c0,9.3,3.5,17.5,8.7,20.5c1.5,0.9,4.4,1.5,7.3,1.5s5.8-0.6,7.3-1.5c2.8-1.6,5.1-4.8,6.6-8.7l0,0c0.7,0.1,1.4,0.2,2.1,0.2
			c6.6,0,12-5.4,12-12S40.6,12,34,12z M24.3,42.8c-1,0.6-3.4,1.2-6.3,1.2s-5.3-0.6-6.3-1.2C7.1,40.1,4,32.6,4,24
			c0-8.4,3-15.9,7.5-18.7C12.5,4.7,15.1,4,18,4s5.5,0.7,6.5,1.3c0.2,0.1,0.5,0.3,0.7,0.5c-0.6-0.2-1.2-0.3-1.8-0.3
			C18.2,5.5,14,13.6,14,24s4.2,18.5,9.5,18.5c0.6,0,1.2-0.1,1.7-0.3C24.9,42.4,24.6,42.6,24.3,42.8z M23.5,41.5
			c-4.7,0-8.5-7.9-8.5-17.5c0-9.7,3.8-17.5,8.5-17.5c2.5,0,4.7,2.2,6.2,5.6c0.1,0.2,0.2,0.5,0.3,0.7c0,0,0,0,0,0
			c0.1,0.3,0.2,0.5,0.3,0.8c-0.5,0.2-1,0.4-1.5,0.6C27.7,11.3,26,9.5,24,9.5c-3.7,0-6.5,6.4-6.5,14.5s2.8,14.5,6.5,14.5
			c2,0,3.7-1.8,4.9-4.8c0.5,0.3,1,0.5,1.5,0.6C28.8,38.7,26.3,41.5,23.5,41.5z M19,18.5L19,18.5c0.9-4.6,2.8-8,5-8
			c1.5,0,3,1.7,4,4.3c-3,2-5,5.4-5,9.2s2,7.2,5,9.2c-1,2.6-2.4,4.3-4,4.3c-2.2,0-4.1-3.3-5-7.9c0.3-1.8,0.5-3.6,0.5-5.6
			C19.5,22.1,19.3,20.2,19,18.5z M34,34c-0.3,0-0.5,0-0.8,0c-0.2,0-0.4,0-0.6-0.1C27.7,33.2,24,29,24,24c0-5,3.7-9.2,8.6-9.9
			c0.2,0,0.4-0.1,0.6-0.1c0.3,0,0.5,0,0.8,0c5.5,0,10,4.5,10,10S39.5,34,34,34z"></path>
		<rect x="22.4" y="23.1" transform="matrix(0.132 -0.9912 0.9912 0.132 2.7451 50.135)" width="15.1" height="0.9"></rect>
		<rect x="33.6" y="21" width="0.9" height="2"></rect>
		<rect x="33.6" y="17" width="0.9" height="2"></rect>
		<rect x="33.6" y="25" width="0.9" height="2"></rect>
		<rect x="33.6" y="29" width="0.9" height="2"></rect>
		<rect x="37.6" y="15.9" transform="matrix(0.9912 -0.1322 0.1322 0.9912 -2.7725 5.2284)" width="0.9" height="15.1"></rect>
	</g>
</g>
</svg>
