<svg xml:space="preserve" style="enable-background:new 0 0 48 48;" viewBox="0 0 48 48" y="0px" x="0px" xmlns:xlink="http://www.w3.org/1999/xlink" xmlns="http://www.w3.org/2000/svg" id="Layer_1" version="1.1">
<path d="M34.942,23.008c-0.467-0.008-0.924-0.117-1.319-0.314l-5.375-2.688C25.623,18.694,22.685,18,19.751,18H9.039
	c-0.834,0-1.668,0.197-2.415,0.57C5.622,19.071,5,20.078,5,21.197c0,0.25-0.098,0.486-0.274,0.663l-1.519,1.519
	C2.429,24.157,2,25.192,2,26.293c0,0.189-0.073,0.366-0.207,0.5C1.281,27.304,1,27.984,1,28.707v1.675c0,1.379,0.767,2.619,2,3.236
	C3.5,33.868,4.06,34,4.618,34h0.556c0.885,1.538,2.517,2.5,4.326,2.5s3.441-0.962,4.326-2.5h19.348c0.885,1.538,2.517,2.5,4.326,2.5
	s3.441-0.962,4.326-2.5h1.467c0.723,0,1.403-0.282,1.914-0.793C45.719,32.696,46,32.016,46,31.293V28
	C46,24.817,42.279,23.137,34.942,23.008z M12.317,32.555c-0.012,0.024-0.031,0.044-0.041,0.07C11.814,33.764,10.725,34.5,9.5,34.5
	s-2.314-0.736-2.776-1.875c-0.01-0.025-0.029-0.045-0.041-0.069C6.572,32.207,6.5,31.85,6.5,31.5c0-1.654,1.346-3,3-3s3,1.346,3,3
	C12.5,31.85,12.428,32.207,12.317,32.555z M40.317,32.555c-0.012,0.024-0.031,0.044-0.041,0.07C39.814,33.764,38.725,34.5,37.5,34.5
	s-2.314-0.736-2.776-1.875c-0.01-0.025-0.029-0.045-0.041-0.069C34.572,32.207,34.5,31.85,34.5,31.5c0-1.654,1.346-3,3-3
	s3,1.346,3,3C40.5,31.85,40.428,32.207,40.317,32.555z M44,31.293c0,0.189-0.073,0.366-0.207,0.5C43.659,31.926,43.481,32,43.293,32
	h-1.842c0.02-0.167,0.049-0.333,0.049-0.5c0-2.206-1.794-4-4-4s-4,1.794-4,4c0,0.167,0.029,0.333,0.049,0.5H13.451
	c0.02-0.167,0.049-0.333,0.049-0.5c0-2.206-1.794-4-4-4s-4,1.794-4,4c0,0.167,0.029,0.333,0.049,0.5H4.618
	c-0.25,0-0.5-0.059-0.724-0.171C3.343,31.553,3,30.999,3,30.382v-1.675c0-0.189,0.073-0.366,0.207-0.5
	C3.719,27.696,4,27.016,4,26.293c0-0.567,0.221-1.099,0.621-1.5l1.519-1.519C6.694,22.72,7,21.982,7,21.197
	c0-0.357,0.199-0.678,0.519-0.838C7.988,20.124,8.514,20,9.039,20h10.712c2.625,0,5.254,0.621,7.603,1.795l5.375,2.688
	c0.661,0.33,1.414,0.512,2.178,0.525C40.686,25.109,44,26.2,44,28V31.293z"></path>
<path d="M18.094,21.375C18.039,21.155,17.841,21,17.613,21h-5.408c-0.131,0-0.257,0.052-0.35,0.145l-1.71,1.71
	C10.052,22.948,10,23.074,10,23.205v1.3C10,24.778,10.222,25,10.495,25h7.871c0.322,0,0.559-0.303,0.48-0.615L18.094,21.375z M11,24
	v-0.586L12.414,22h4.805l0.5,2H11z"></path>
<path d="M29.651,24.062l-2.642-1.321C24.72,21.596,22.194,21,19.634,21c-0.322,0-0.559,0.303-0.48,0.615l0.752,3.01
	c0.055,0.22,0.253,0.375,0.48,0.375h9.043C29.953,25,30.119,24.296,29.651,24.062z M20.781,24l-0.497-1.986
	c2.174,0.093,4.332,0.649,6.278,1.622L27.292,24H20.781z"></path>
<path d="M9.5,29.5c-1.103,0-2,0.897-2,2s0.897,2,2,2s2-0.897,2-2S10.603,29.5,9.5,29.5z M9.5,32.5c-0.552,0-1-0.449-1-1s0.448-1,1-1
	s1,0.449,1,1S10.052,32.5,9.5,32.5z"></path>
<path d="M37.5,29.5c-1.103,0-2,0.897-2,2s0.897,2,2,2s2-0.897,2-2S38.603,29.5,37.5,29.5z M37.5,32.5c-0.552,0-1-0.449-1-1
	s0.448-1,1-1s1,0.449,1,1S38.052,32.5,37.5,32.5z"></path>
</svg>
