<svg version="1.1" id="Layer_1" xmlns="http://www.w3.org/2000/svg" xmlns:xlink="http://www.w3.org/1999/xlink" x="0px" y="0px" viewBox="0 0 48 48" style="enable-background:new 0 0 48 48;" xml:space="preserve">
<g>
	<path d="M18.594,25.875c-0.055-0.22-0.253-0.375-0.48-0.375h-5.408c-0.131,0-0.257,0.052-0.35,0.145l-1.71,1.71
		c-0.093,0.093-0.145,0.219-0.145,0.35v1.3c0,0.273,0.222,0.495,0.495,0.495h7.871c0.322,0,0.559-0.303,0.48-0.615L18.594,25.875z
		 M11.5,28.5v-0.586l1.414-1.414h4.805l0.5,2H11.5z"></path>
	<path d="M30.151,28.562l-2.642-1.321c-2.29-1.145-4.815-1.741-7.375-1.741c-0.322,0-0.559,0.303-0.48,0.615l0.752,3.01
		c0.055,0.22,0.253,0.375,0.48,0.375h9.043C30.453,29.5,30.619,28.796,30.151,28.562z M21.281,28.5l-0.497-1.986
		c2.174,0.093,4.332,0.649,6.278,1.622l0.729,0.365H21.281z"></path>
	<path d="M16.5,8h1c0-1.378,1.121-2.5,2.5-2.5v-1c-1.379,0-2.5-1.122-2.5-2.5h-1c0,1.378-1.121,2.5-2.5,2.5v1
		C15.379,5.5,16.5,6.622,16.5,8z M17,3.801c0.296,0.49,0.708,0.903,1.199,1.199C17.708,5.295,17.296,5.708,17,6.199
		C16.704,5.708,16.292,5.295,15.801,5C16.292,4.705,16.704,4.291,17,3.801z"></path>
	<path d="M31.5,40h-1c0,1.378-1.121,2.5-2.5,2.5v1c1.379,0,2.5,1.122,2.5,2.5h1c0-1.378,1.121-2.5,2.5-2.5v-1
		C32.621,42.5,31.5,41.378,31.5,40z M31,44.199c-0.296-0.49-0.708-0.903-1.199-1.199c0.491-0.295,0.903-0.708,1.199-1.199
		c0.296,0.49,0.708,0.903,1.199,1.199C31.708,43.295,31.296,43.708,31,44.199z"></path>
	<path d="M40.5,16.5v2c0,1.378-1.121,2.5-2.5,2.5h-2v1h2c1.379,0,2.5,1.122,2.5,2.5v2h1v-2c0-1.378,1.121-2.5,2.5-2.5h2v-1h-2
		c-1.379,0-2.5-1.122-2.5-2.5v-2H40.5z M42.199,21.5c-0.491,0.295-0.903,0.708-1.199,1.199c-0.296-0.49-0.708-0.903-1.199-1.199
		c0.491-0.295,0.903-0.708,1.199-1.199C41.296,20.791,41.708,21.205,42.199,21.5z"></path>
	<path d="M15.414,21.5h13.172c1.056,0,1.914-0.858,1.914-1.914v-0.172c0-1.056-0.858-1.914-1.914-1.914H24.5v-1h0.634
		c0.625,0,1.148-0.425,1.31-1H28c0.276,0,0.5-0.224,0.5-0.5v-0.5h10c1.103,0,2-0.897,2-2s-0.897-2-2-2h-10V10
		c0-0.276-0.224-0.5-0.5-0.5h-1.556c-0.162-0.575-0.685-1-1.31-1h-1.52c-3.371,0-6.114,2.743-6.114,6.115v0.519
		c0,0.753,0.613,1.366,1.366,1.366H19.5v1h-4.086c-1.056,0-1.914,0.858-1.914,1.914v0.172C13.5,20.642,14.358,21.5,15.414,21.5z
		 M38.5,11.5c0.552,0,1,0.449,1,1s-0.448,1-1,1h-10v-2H38.5z M27.5,11v3v0.5h-1v-4h1V11z M18.5,15.134v-0.519
		c0-2.82,2.294-5.115,5.114-5.115h1.52c0.202,0,0.366,0.164,0.366,0.366V10v5v0.134c0,0.202-0.164,0.366-0.366,0.366H24h-4h-1.134
		C18.664,15.5,18.5,15.336,18.5,15.134z M20.5,16.5h3v1h-3V16.5z M14.5,19.414c0-0.504,0.41-0.914,0.914-0.914H20h4h4.586
		c0.504,0,0.914,0.41,0.914,0.914v0.172c0,0.504-0.41,0.914-0.914,0.914H15.414c-0.504,0-0.914-0.41-0.914-0.914V19.414z"></path>
	<path d="M12.672,22.329l0.707-0.707c-0.566-0.567-0.879-1.32-0.879-2.122s0.312-1.554,0.879-2.121l-0.707-0.707
		c-0.756,0.755-1.172,1.76-1.172,2.828S11.916,21.573,12.672,22.329z"></path>
	<path d="M31.328,22.329c0.756-0.756,1.172-1.76,1.172-2.829s-0.416-2.073-1.172-2.828l-0.707,0.707
		c0.566,0.567,0.879,1.32,0.879,2.121s-0.312,1.555-0.879,2.122L31.328,22.329z"></path>
	<path d="M34.5,19.5c0-1.603-0.624-3.109-1.758-4.243l-0.707,0.707c0.944,0.944,1.465,2.2,1.465,3.536s-0.521,2.591-1.465,3.536
		l0.707,0.707C33.876,22.609,34.5,21.103,34.5,19.5z"></path>
	<path d="M6.5,16v2h1v-2c0-1.378,1.121-2.5,2.5-2.5h2v-1h-2c-1.379,0-2.5-1.122-2.5-2.5V8h-1v2c0,1.378-1.121,2.5-2.5,2.5H2v1h2
		C5.379,13.5,6.5,14.622,6.5,16z M7,11.801c0.296,0.49,0.708,0.903,1.199,1.199C7.708,13.295,7.296,13.708,7,14.199
		C6.704,13.708,6.292,13.295,5.801,13C6.292,12.705,6.704,12.291,7,11.801z"></path>
	<path d="M35.44,27.508c-0.466-0.008-0.922-0.117-1.317-0.314l-5.375-2.688c-2.626-1.312-5.563-2.006-8.497-2.006h-8.727
		c-0.653-0.863-1.024-1.899-1.024-3c0-1.335,0.521-2.591,1.465-3.536l-0.707-0.707C10.124,16.391,9.5,17.897,9.5,19.5
		c0,1.071,0.285,2.097,0.809,3h-0.77c-0.834,0-1.669,0.197-2.415,0.57C6.122,23.572,5.5,24.578,5.5,25.697
		c0,0.25-0.098,0.486-0.274,0.663l-1.519,1.519C2.929,28.658,2.5,29.693,2.5,30.793c0,0.189-0.073,0.366-0.207,0.5
		C1.781,31.804,1.5,32.484,1.5,33.207v1.675c0,1.379,0.767,2.619,2,3.236C4,38.368,4.56,38.5,5.118,38.5h0.596
		C6.577,39.986,8.16,41,10,41s3.423-1.014,4.286-2.5h19.428C34.577,39.986,36.16,41,38,41s3.423-1.014,4.286-2.5h1.507
		c0.723,0,1.402-0.282,1.914-0.793s0.793-1.191,0.793-1.914V32.5C46.5,29.317,42.779,27.638,35.44,27.508z M10,39
		c-1.654,0-3-1.346-3-3s1.346-3,3-3s3,1.346,3,3S11.654,39,10,39z M38,39c-1.654,0-3-1.346-3-3s1.346-3,3-3s3,1.346,3,3
		S39.654,39,38,39z M44.5,35.793c0,0.189-0.073,0.366-0.207,0.5c-0.134,0.133-0.312,0.207-0.5,0.207h-1.844
		C41.971,36.334,42,36.171,42,36c0-2.206-1.794-4-4-4s-4,1.794-4,4c0,0.171,0.029,0.334,0.051,0.5H13.949
		C13.971,36.334,14,36.171,14,36c0-2.206-1.794-4-4-4s-4,1.794-4,4c0,0.171,0.029,0.334,0.051,0.5H5.118
		c-0.25,0-0.5-0.059-0.724-0.171C3.843,36.053,3.5,35.499,3.5,34.882v-1.675c0-0.189,0.073-0.366,0.207-0.5
		C4.219,32.196,4.5,31.516,4.5,30.793c0-0.558,0.227-1.105,0.621-1.5l1.519-1.519c0.555-0.555,0.86-1.292,0.86-2.077
		c0-0.357,0.199-0.678,0.519-0.838c0.47-0.235,0.995-0.359,1.521-0.359h10.712c2.624,0,5.253,0.621,7.603,1.795l5.375,2.688
		c0.661,0.331,1.415,0.512,2.178,0.525C41.186,29.61,44.5,30.701,44.5,32.5V35.793z"></path>
</g>
</svg>
