<svg version="1.1" id="Layer_1" xmlns="http://www.w3.org/2000/svg" xmlns:xlink="http://www.w3.org/1999/xlink" x="0px" y="0px" viewBox="0 0 48 48" xml:space="preserve">
<g>
	<path d="M32,3H22c-6.18,0-11.32,8.09-11.94,18.82l2,0.12C12.61,12.44,16.98,5,22,5h6.53c-3.31,1.97-5.97,6.72-7.04,13.02l0.99,0.17
		C23.8,10.42,27.72,5,32,5c5.42,0,10,8.7,10,19s-4.58,19-10,19c-4.76,0-8.89-6.45-9.81-15.33l-1,0.1c0.76,7.29,3.67,13.01,7.4,15.22
		H22c-4.01,0-7.74-4.79-9.27-11.93l-1.96,0.42C12.53,39.7,16.94,45,22,45h10c6.73,0,12-9.22,12-21C44,12.22,38.73,3,32,3z"></path>
	<path d="M32,35.5c-1.65,0-3.27-2.6-4.03-6.46l-0.98,0.19c0.88,4.48,2.8,7.27,5.01,7.27c3.08,0,5.5-5.49,5.5-12.5
		c0-7.01-2.42-12.5-5.5-12.5c-2.24,0-4.17,2.84-5.04,7.41l0.98,0.19c0.75-3.94,2.38-6.59,4.06-6.59c2.17,0,4.5,4.62,4.5,11.5
		S34.17,35.5,32,35.5z"></path>
	<path d="M6.71,20.29c-0.39-0.39-1.02-0.39-1.41,0l-3,3c-0.39,0.39-0.39,1.02,0,1.41l3,3C5.49,27.9,5.74,28,6,28s0.51-0.1,0.71-0.29
		l3-3c0.39-0.39,0.39-1.02,0-1.41L6.71,20.29z M6,25.59L4.41,24L6,22.41L7.59,24L6,25.59z"></path>
	<path d="M23.03,21.53c-1.36,1.36-1.36,3.58,0,4.95c0.66,0.66,1.54,1.03,2.47,1.03c0.93,0,1.81-0.36,2.47-1.03
		c1.36-1.36,1.36-3.58,0-4.95C26.65,20.2,24.35,20.2,23.03,21.53z M26.56,22.94c0.58,0.58,0.58,1.54,0,2.12
		c-0.57,0.57-1.55,0.57-2.12,0c-0.58-0.58-0.58-1.54,0-2.12c0.28-0.28,0.66-0.44,1.06-0.44S26.28,22.66,26.56,22.94z"></path>
	<path d="M13.5,25h1c0-1.93,1.57-3.5,3.5-3.5h2.07l-0.48,0.72l0.83,0.55L21.6,21l-1.18-1.78l-0.83,0.55l0.48,0.72H18
		C15.52,20.5,13.5,22.52,13.5,25z"></path>
	<path d="M11.58,25.72L10.4,27.5l1.18,1.78l0.83-0.55L11.93,28H14c2.48,0,4.5-2.02,4.5-4.5h-1c0,1.93-1.57,3.5-3.5,3.5h-2.07
		l0.48-0.72L11.58,25.72z"></path>
</g>
</svg>
