<svg version="1.1" id="Layer_1" xmlns="http://www.w3.org/2000/svg" xmlns:xlink="http://www.w3.org/1999/xlink" x="0px" y="0px" viewBox="0 0 48 48" xml:space="preserve">
<g>
	<rect x="5" y="41" width="38" height="2"></rect>
	<rect x="19.45" y="18.83" transform="matrix(0.9362 -0.3514 0.3514 0.9362 -5.4891 8.4205)" width="2" height="1"></rect>
	<rect x="10.88" y="21.53" transform="matrix(0.97 -0.2432 0.2432 0.97 -5.0014 3.5512)" width="2" height="1"></rect>
	<path d="M37.8,9.59l1.08-0.94C39.19,8.87,39.58,9,40,9c1.1,0,2-0.9,2-2s-0.9-2-2-2s-2,0.9-2,2c0,0.32,0.08,0.62,0.22,0.89
		l-1.08,0.95L37.8,9.59z M40,6c0.55,0,1,0.45,1,1s-0.45,1-1,1s-1-0.45-1-1S39.45,6,40,6z"></path>
	<rect x="34.96" y="10.03" transform="matrix(0.7529 -0.6582 0.6582 0.7529 1.955 26.2718)" width="2" height="1"></rect>
	<rect x="27.66" y="15.17" transform="matrix(0.8944 -0.4472 0.4472 0.8944 -3.9821 14.4715)" width="2" height="1"></rect>
	<path d="M10,38.96c0.83,0,1.5-0.67,1.5-1.5V29c0-0.83-0.67-1.5-1.5-1.5H6c-0.83,0-1.5,0.67-1.5,1.5v8.46c0,0.83,0.67,1.5,1.5,1.5
		H10z M5.5,37.46V29c0-0.28,0.22-0.5,0.5-0.5h4c0.28,0,0.5,0.22,0.5,0.5v8.46c0,0.28-0.22,0.5-0.5,0.5H6
		C5.72,37.96,5.5,37.74,5.5,37.46z"></path>
	<path d="M28.5,20v17.46c0,0.83,0.67,1.5,1.5,1.5h4c0.83,0,1.5-0.67,1.5-1.5V20c0-0.83-0.67-1.5-1.5-1.5h-4
		C29.17,18.5,28.5,19.17,28.5,20z M29.5,20c0-0.28,0.22-0.5,0.5-0.5h4c0.28,0,0.5,0.22,0.5,0.5v17.46c0,0.28-0.22,0.5-0.5,0.5h-4
		c-0.28,0-0.5-0.22-0.5-0.5V20z"></path>
	<path d="M12.5,27v10.46c0,0.83,0.67,1.5,1.5,1.5h4c0.83,0,1.5-0.67,1.5-1.5V27c0-0.83-0.67-1.5-1.5-1.5h-4
		C13.17,25.5,12.5,26.17,12.5,27z M13.5,27c0-0.28,0.22-0.5,0.5-0.5h4c0.28,0,0.5,0.22,0.5,0.5v10.46c0,0.28-0.22,0.5-0.5,0.5h-4
		c-0.28,0-0.5-0.22-0.5-0.5V27z"></path>
	<path d="M20.5,24v13.46c0,0.83,0.67,1.5,1.5,1.5h4c0.83,0,1.5-0.67,1.5-1.5V24c0-0.83-0.67-1.5-1.5-1.5h-4
		C21.17,22.5,20.5,23.17,20.5,24z M21.5,24c0-0.28,0.22-0.5,0.5-0.5h4c0.28,0,0.5,0.22,0.5,0.5v13.46c0,0.28-0.22,0.5-0.5,0.5h-4
		c-0.28,0-0.5-0.22-0.5-0.5V24z"></path>
	<path d="M42,11.5h-4c-0.83,0-1.5,0.67-1.5,1.5v24.46c0,0.83,0.67,1.5,1.5,1.5h4c0.83,0,1.5-0.67,1.5-1.5V13
		C43.5,12.17,42.83,11.5,42,11.5z M42.5,37.46c0,0.28-0.22,0.5-0.5,0.5h-4c-0.28,0-0.5-0.22-0.5-0.5V13c0-0.28,0.22-0.5,0.5-0.5h4
		c0.28,0,0.5,0.22,0.5,0.5V37.46z"></path>
	<path d="M8,25c1.1,0,1.99-0.89,2-1.98L10.06,23l-0.24-0.97l-0.07,0.02C9.41,21.43,8.76,21,8,21c-1.1,0-2,0.9-2,2S6.9,25,8,25z
		 M8,22c0.55,0,1,0.45,1,1s-0.45,1-1,1s-1-0.45-1-1S7.45,22,8,22z"></path>
	<path d="M16,23c1.1,0,2-0.9,2-2c0-0.07-0.01-0.14-0.02-0.21l0.77-0.29l-0.35-0.94l-0.77,0.29C17.27,19.34,16.68,19,16,19
		c-1.1,0-2,0.9-2,2S14.9,23,16,23z M16,20c0.55,0,1,0.45,1,1s-0.45,1-1,1s-1-0.45-1-1S15.45,20,16,20z"></path>
	<path d="M24,20c1.1,0,2-0.9,2-2c0-0.14-0.02-0.28-0.05-0.42l1.14-0.57l-0.45-0.89l-1.15,0.57C25.13,16.27,24.6,16,24,16
		c-1.1,0-2,0.9-2,2S22.9,20,24,20z M24,17c0.55,0,1,0.45,1,1s-0.45,1-1,1s-1-0.45-1-1S23.45,17,24,17z"></path>
	<path d="M32,16c1.1,0,2-0.9,2-2c0-0.32-0.08-0.62-0.22-0.89l1.01-0.88l-0.66-0.75l-1,0.88C32.81,12.13,32.42,12,32,12
		c-1.1,0-2,0.9-2,2S30.9,16,32,16z M32,13c0.55,0,1,0.45,1,1s-0.45,1-1,1s-1-0.45-1-1S31.45,13,32,13z"></path>
</g>
</svg>
