<svg version="1.1" id="Layer_1" xmlns="http://www.w3.org/2000/svg" xmlns:xlink="http://www.w3.org/1999/xlink" x="0px" y="0px" viewBox="0 0 48 48" xml:space="preserve">
<g>
	<path d="M32,36.5c3.08,0,5.5-5.49,5.5-12.5c0-7.01-2.42-12.5-5.5-12.5s-5.5,5.49-5.5,12.5C26.5,31.01,28.92,36.5,32,36.5z M32,12.5
		c2.17,0,4.5,4.62,4.5,11.5S34.17,35.5,32,35.5s-4.5-4.62-4.5-11.5S29.83,12.5,32,12.5z"></path>
	<path d="M7,28c-1.65,0-3,1.35-3,3s1.35,3,3,3c1.48,0,2.71-1.08,2.95-2.5H11v-1H9.95C9.71,29.08,8.48,28,7,28z M7,32
		c-0.55,0-1-0.45-1-1s0.45-1,1-1s1,0.45,1,1S7.55,32,7,32z"></path>
	<rect x="13.86" y="25.5" width="2" height="1"></rect>
	<rect x="10.86" y="25.5" width="2" height="1"></rect>
	<rect x="16.86" y="25.5" width="2" height="1"></rect>
	<rect x="18" y="30.5" width="2" height="1"></rect>
	<rect x="12" y="30.5" width="2" height="1"></rect>
	<path d="M21.53,26.79l0.52-0.86c-0.47-0.28-1-0.43-1.55-0.43h-0.64v1h0.64C20.87,26.5,21.22,26.6,21.53,26.79z"></path>
	<path d="M7.65,21.9l0.54,0.84C8.43,22.58,8.71,22.5,9,22.5h0.86v-1H9C8.52,21.5,8.05,21.64,7.65,21.9z"></path>
	<path d="M8.19,25.26L7.65,26.1c0.4,0.26,0.87,0.4,1.35,0.4h0.86v-1H9C8.71,25.5,8.43,25.42,8.19,25.26z"></path>
	<path d="M6.5,24c0,0.42,0.11,0.83,0.31,1.2l0.88-0.48C7.56,24.5,7.5,24.25,7.5,24s0.06-0.5,0.18-0.72L6.81,22.8
		C6.61,23.17,6.5,23.58,6.5,24z"></path>
	<rect x="15" y="30.5" width="2" height="1"></rect>
	<rect x="13.86" y="21.5" width="2" height="1"></rect>
	<rect x="15" y="16.5" width="2" height="1"></rect>
	<rect x="16.86" y="21.5" width="2" height="1"></rect>
	<rect x="10.86" y="21.5" width="2" height="1"></rect>
	<rect x="12" y="16.5" width="2" height="1"></rect>
	<path d="M23.46,18.99l-0.99,0.17c0.02,0.11,0.03,0.22,0.03,0.34c0,0.43-0.13,0.83-0.38,1.18l0.81,0.59
		c0.38-0.52,0.57-1.13,0.57-1.76C23.5,19.33,23.49,19.15,23.46,18.99z"></path>
	<path d="M23.5,28.5c0-0.64-0.2-1.25-0.57-1.76l-0.81,0.59c0.25,0.34,0.38,0.75,0.38,1.18c0,0.12-0.01,0.23-0.03,0.34l0.99,0.17
		C23.49,28.85,23.5,28.67,23.5,28.5z"></path>
	<path d="M23.02,30.12l-0.84-0.54c-0.29,0.45-0.76,0.77-1.29,0.88l0.2,0.98C21.88,31.28,22.59,30.8,23.02,30.12z"></path>
	<rect x="18" y="16.5" width="2" height="1"></rect>
	<path d="M21.1,16.56l-0.2,0.98c0.52,0.11,0.99,0.43,1.29,0.88l0.84-0.54C22.59,17.2,21.88,16.72,21.1,16.56z"></path>
	<path d="M19.86,21.5v1h0.64c0.55,0,1.08-0.15,1.55-0.43l-0.52-0.86c-0.31,0.19-0.67,0.29-1.03,0.29H19.86z"></path>
	<path d="M32,3H22c-2,0-3.89,0.82-5.56,2.33c-0.04-0.07-0.1-0.13-0.17-0.18c-0.15-0.09-0.33-0.1-0.49-0.02
		c-1.8,0.9-2.86,0.48-4.09-0.02c-1.27-0.51-2.71-1.08-4.91,0.02C6.62,5.21,6.51,5.39,6.51,5.58l-0.01,6c0,0,0,0,0,0h0v2.47
		C5.08,14.29,4,15.52,4,17c0,1.65,1.35,3,3,3c1.48,0,2.71-1.08,2.95-2.5H11v-1H9.95c-0.21-1.25-1.2-2.24-2.45-2.45V11.9
		c1.63-0.72,2.65-0.33,3.81,0.14c0.23,0.09,0.46,0.18,0.7,0.27c-0.17,0.45-0.35,0.91-0.5,1.39l1.91,0.61
		c0.18-0.58,0.39-1.13,0.6-1.66c0.65-0.03,1.37-0.2,2.2-0.62c0.17-0.08,0.28-0.26,0.28-0.45l0.01-3.37C18.12,6.16,20.03,5,22,5h6.55
		c-2.72,1.61-5.01,5.09-6.35,9.87l0.96,0.27C24.91,8.88,28.3,5,32,5c5.42,0,10,8.7,10,19s-4.58,19-10,19
		c-3.7,0-7.09-3.88-8.84-10.13l-0.96,0.27c1.34,4.78,3.64,8.26,6.35,9.87H22c-3.47,0-6.75-3.56-8.58-9.3l-1.91,0.61
		C13.64,41,17.56,45,22,45h10c6.73,0,12-9.22,12-21C44,12.22,38.73,3,32,3z M8,17c0,0.55-0.45,1-1,1s-1-0.45-1-1s0.45-1,1-1
		S8,16.45,8,17z M15.5,11.26c-1.63,0.73-2.65,0.32-3.81-0.15c-0.74-0.29-1.53-0.61-2.5-0.61c-0.51,0-1.07,0.09-1.69,0.31l0.01-4.92
		c1.63-0.73,2.65-0.32,3.81,0.15c1.12,0.45,2.38,0.95,4.18,0.3L15.5,11.26z"></path>
</g>
</svg>
