<svg version="1.1" id="Layer_1" xmlns="http://www.w3.org/2000/svg" xmlns:xlink="http://www.w3.org/1999/xlink" x="0px" y="0px" viewBox="0 0 48 48" xml:space="preserve">
<g>
	<path d="M19.5,41h9c6.11,0,10.9-8.35,10.9-19S34.61,3,28.5,3h-9C13.39,3,8.6,11.35,8.6,22S13.39,41,19.5,41z M37.4,22
		c0,7.49-2.69,14.03-6.29,16.22C30.28,38.73,29.4,39,28.5,39c-4.82,0-8.9-7.79-8.9-17s4.08-17,8.9-17c0.9,0,1.78,0.27,2.61,0.78
		C34.71,7.97,37.4,14.51,37.4,22z M19.5,5h5.77c-3.88,2.44-6.67,9.11-6.67,17s2.79,14.56,6.67,17H19.5c-4.82,0-8.9-7.79-8.9-17
		S14.68,5,19.5,5z"></path>
	<path d="M23.5,22c0,6.34,2.2,11.3,5,11.3s5-4.96,5-11.3c0-6.34-2.2-11.3-5-11.3S23.5,15.66,23.5,22z M32.5,22
		c0,6.16-2.07,10.3-4,10.3s-4-4.14-4-10.3s2.07-10.3,4-10.3S32.5,15.84,32.5,22z"></path>
	<path d="M39.68,40.05L36.84,41H34c-0.2,0-0.39,0.06-0.55,0.17L30.7,43h-2.46l-1.79-0.89C26.31,42.04,26.16,42,26,42h-3
		c-0.11,0-0.21,0.02-0.32,0.05L19.84,43H17.3l-2.75-1.83c-0.26-0.17-0.58-0.22-0.87-0.12l-2.54,0.84l-2.59-1.73
		C8.39,40.06,8.2,40,8,40H5v2h2.7l2.75,1.83c0.26,0.17,0.58,0.22,0.87,0.12l2.54-0.84l2.59,1.73C16.61,44.94,16.8,45,17,45h3
		c0.11,0,0.21-0.02,0.32-0.05L23.16,44h2.6l1.79,0.89C27.69,44.96,27.84,45,28,45h3c0.2,0,0.39-0.06,0.55-0.17L34.3,43H37
		c0.11,0,0.21-0.02,0.32-0.05L40.16,42H43v-2h-3C39.89,40,39.79,40.02,39.68,40.05z"></path>
	<path d="M39,35.5c-0.83,0-1.5,0.67-1.5,1.5s0.67,1.5,1.5,1.5s1.5-0.67,1.5-1.5S39.83,35.5,39,35.5z M39,37.5
		c-0.28,0-0.5-0.22-0.5-0.5s0.22-0.5,0.5-0.5s0.5,0.22,0.5,0.5S39.28,37.5,39,37.5z"></path>
	<path d="M44,33c-1.1,0-2,0.9-2,2s0.9,2,2,2s2-0.9,2-2S45.1,33,44,33z M44,36c-0.55,0-1-0.45-1-1c0-0.55,0.45-1,1-1s1,0.45,1,1
		C45,35.55,44.55,36,44,36z"></path>
	<circle cx="41" cy="31" r="1"></circle>
	<circle cx="9" cy="37" r="1"></circle>
	<path d="M6,33c1.1,0,2-0.9,2-2c0-1.1-0.9-2-2-2s-2,0.9-2,2C4,32.1,4.9,33,6,33z M6,30c0.55,0,1,0.45,1,1c0,0.55-0.45,1-1,1
		s-1-0.45-1-1C5,30.45,5.45,30,6,30z"></path>
	<path d="M5.5,36c0-0.83-0.67-1.5-1.5-1.5S2.5,35.17,2.5,36s0.67,1.5,1.5,1.5S5.5,36.83,5.5,36z M4,36.5c-0.28,0-0.5-0.22-0.5-0.5
		s0.22-0.5,0.5-0.5s0.5,0.22,0.5,0.5S4.28,36.5,4,36.5z"></path>
</g>
</svg>
