<svg version="1.1" id="Layer_1" xmlns="http://www.w3.org/2000/svg" xmlns:xlink="http://www.w3.org/1999/xlink" x="0px" y="0px" viewBox="0 0 40 40" style="enable-background:new 0 0 40 40;" xml:space="preserve">
<g>
	<path d="M20,0C9,0,0,9,0,20c0,11,9,20,20,20c11,0,20-9,20-20C40,9,31,0,20,0z M20,35c-8.3,0-15-6.7-15-15c0-8.3,6.7-15,15-15
		c8.3,0,15,6.7,15,15C35,28.3,28.3,35,20,35z"></path>
	<path d="M20,6C12.3,6,6,12.3,6,20c0,7.7,6.3,14,14,14c7.7,0,14-6.3,14-14C34,12.3,27.7,6,20,6z M32.9,18.5l-5.1-0.6l0.9-0.9h3.9
		C32.8,17.5,32.8,18,32.9,18.5z M32.3,15.9h-2.5l1.8-1.8C31.9,14.7,32.1,15.3,32.3,15.9z M30.2,11.9c0.3,0.4,0.6,0.8,0.9,1.2
		l-2.8,2.8H27L30.2,11.9z M27.2,17l-0.8,0.8l-0.9-0.1l0.5-0.7H27.2z M24.1,7.7c0.6,0.2,1.2,0.5,1.8,0.7l-1.8,1.8V7.7z M24.1,11.7
		l2.8-2.8c0.4,0.3,0.8,0.6,1.2,0.9l-4,3.2V11.7z M24.1,14.4l4.8-3.8c0.2,0.2,0.4,0.4,0.6,0.6l-3.8,4.8h-1.6V14.4z M25,19.2L25,19.2
		c-0.1-0.2-0.1-0.4-0.2-0.6l0,0l0.7,0.1L25,19.2z M25.5,21.3l-0.7,0.1l0,0c0-0.2,0.1-0.3,0.1-0.5l0.1-0.1L25.5,21.3z M24.1,17h0.7
		l-0.4,0.5l0,0C24.2,17.4,24.2,17.2,24.1,17L24.1,17z M24.1,22.9c0.1-0.1,0.2-0.3,0.3-0.4l0,0l0.4,0.5L24.1,22.9L24.1,22.9z
		 M21.3,15.2L21.3,15.2c-0.2,0-0.3-0.1-0.5-0.1L20.8,15l0.5-0.5L21.3,15.2z M19.6,7c0.1,0,0.3,0,0.4,0c0.1,0,0.3,0,0.4,0l0.7,6.1
		L20,14.3l-1.1-1.1L19.6,7z M18.7,14.5l0.5,0.5l-0.1,0.1c-0.2,0-0.3,0.1-0.5,0.1l0,0L18.7,14.5z M17,12.8l0.8,0.8l-0.1,0.9L17,13.9
		V12.8z M17,15.2l0.5,0.4l0,0c-0.1,0.1-0.3,0.2-0.4,0.3H17V15.2z M17,24.1L17,24.1c0.2,0.1,0.4,0.2,0.5,0.3l0,0L17,24.8V24.1z
		 M17,26.1l0.7-0.5l0.1,0.9L17,27.2V26.1z M9.8,11.9l3.2,4h-1.3l-2.8-2.8C9.2,12.8,9.5,12.3,9.8,11.9z M13.9,17l0.5,0.7l-0.9,0.1
		L12.8,17H13.9z M8.4,14.1l1.8,1.8H7.7C7.9,15.3,8.1,14.7,8.4,14.1z M7.4,17h3.9l0.9,0.9l-5.1,0.6C7.2,18,7.2,17.5,7.4,17z M7,20
		c0-0.1,0-0.3,0-0.4l6.1-0.7l1.1,1.1l-1.1,1.1L7,20.4C7,20.3,7,20.1,7,20z M14.4,22.3L13.9,23h-1.1l0.8-0.8L14.4,22.3z M7.1,21.5
		l5.1,0.6L11.3,23H7.4C7.2,22.5,7.2,22,7.1,21.5z M7.7,24.1h2.5l-1.8,1.8C8.1,25.3,7.9,24.7,7.7,24.1z M9.8,28.1
		c-0.3-0.4-0.6-0.8-0.9-1.2l2.8-2.8H13L9.8,28.1z M15.9,32.3c-0.6-0.2-1.2-0.5-1.8-0.7l1.8-1.8V32.3z M15.9,28.3l-2.8,2.8
		c-0.4-0.3-0.8-0.6-1.2-0.9l4-3.2V28.3z M15.9,25.6l-4.8,3.8c-0.2-0.2-0.4-0.4-0.6-0.6l3.8-4.8h1.6V25.6z M15,20.8L15,20.8
		c0.1,0.2,0.1,0.4,0.2,0.6l0,0l-0.7-0.1L15,20.8z M14.5,18.7l0.7-0.1l0,0c0,0.2-0.1,0.3-0.1,0.5L15,19.2L14.5,18.7z M15.9,23h-0.7
		l0.4-0.5l0,0C15.8,22.6,15.8,22.8,15.9,23L15.9,23z M15.9,17.1c-0.1,0.1-0.2,0.3-0.3,0.4l0,0L15.2,17L15.9,17.1L15.9,17.1z
		 M15.9,15.9h-1.6l-3.8-4.8c0.2-0.2,0.4-0.4,0.6-0.6l4.8,3.8V15.9z M15.9,13l-4-3.2c0.4-0.3,0.8-0.6,1.2-0.9l2.8,2.8V13z M15.9,10.2
		l-1.8-1.8c0.6-0.3,1.2-0.5,1.8-0.7V10.2z M17,32.6v-3.9l0.9-0.9l0.6,5.1C18,32.8,17.5,32.8,17,32.6z M17.9,12.2L17,11.3V7.4
		c0.5-0.1,1-0.2,1.5-0.3L17.9,12.2z M18.7,24.8L18.7,24.8c0.2,0,0.3,0.1,0.5,0.1l0.1,0.1l-0.5,0.5L18.7,24.8z M20.4,33
		c-0.1,0-0.3,0-0.4,0c-0.1,0-0.3,0-0.4,0l-0.7-6.1l1.1-1.1l1.1,1.1L20.4,33z M21.3,25.5L20.8,25l0.1-0.1c0.2,0,0.3-0.1,0.5-0.1l0,0
		L21.3,25.5z M20,21.5c-0.8,0-1.5-0.7-1.5-1.5s0.7-1.5,1.5-1.5s1.5,0.7,1.5,1.5S20.8,21.5,20,21.5z M23,32.6c-0.5,0.1-1,0.2-1.5,0.3
		l0.6-5.1l0.9,0.9V32.6z M23,27.2l-0.8-0.8l0.1-0.9l0.7,0.5V27.2z M23,24.8l-0.5-0.4l0,0c0.1-0.1,0.3-0.2,0.4-0.3H23V24.8z M23,15.9
		L23,15.9c-0.2-0.1-0.4-0.2-0.5-0.3l0,0l0.5-0.4V15.9z M23,13.9l-0.7,0.5l-0.1-0.9l0.8-0.8V13.9z M23,11.3l-0.9,0.9l-0.6-5.1
		c0.5,0.1,1,0.2,1.5,0.3V11.3z M24.1,32.3v-2.5l1.8,1.8C25.3,31.9,24.7,32.1,24.1,32.3z M26.8,31.1l-2.8-2.8V27l4,3.2
		C27.7,30.5,27.2,30.8,26.8,31.1z M28.9,29.5l-4.8-3.8v-1.6h1.6l3.8,4.8C29.3,29.1,29.1,29.3,28.9,29.5z M25.6,22.3l0.9-0.1l0.8,0.8
		h-1.1L25.6,22.3z M30.2,28.1l-3.2-4h1.3l2.8,2.8C30.8,27.2,30.5,27.7,30.2,28.1z M31.6,25.9l-1.8-1.8h2.5
		C32.1,24.7,31.9,25.3,31.6,25.9z M32.6,23h-3.9l-0.9-0.9l5.1-0.6C32.8,22,32.8,22.5,32.6,23z M26.9,21.1L25.7,20l1.1-1.1l6.1,0.7
		c0,0.1,0,0.3,0,0.4c0,0.1,0,0.3,0,0.4L26.9,21.1z"></path>
</g>
</svg>
