<svg version="1.1" id="Layer_1" xmlns="http://www.w3.org/2000/svg" xmlns:xlink="http://www.w3.org/1999/xlink" x="0px" y="0px" viewBox="0 0 40 40" style="enable-background:new 0 0 40 40;" xml:space="preserve">
<g>
	<path d="M31.1,3.4C21.9-2.8,9.5-0.3,3.4,8.9c-6.1,9.2-3.7,21.6,5.5,27.7c9.2,6.1,21.6,3.7,27.7-5.5S40.3,9.5,31.1,3.4z M35,30
		c-5.5,8.3-16.7,10.5-25,5S-0.5,18.3,5,10c5.5-8.3,16.7-10.5,25-5C38.3,10.6,40.5,21.7,35,30z"></path>
	<path d="M29.4,5.9c-7.8-5.2-18.4-3.1-23.6,4.7c-5.2,7.8-3.1,18.4,4.7,23.6c7.8,5.2,18.4,3.1,23.6-4.7C39.4,21.6,37.3,11.1,29.4,5.9
		z M35.6,16.4l-13,2.6l11.1-7.4C34.5,13.1,35.2,14.7,35.6,16.4z M33,10.7l-11.1,7.4L29.3,7C30.8,8.1,32,9.3,33,10.7z M28.4,6.4
		L21,17.5l2.6-13C25.3,4.8,26.9,5.5,28.4,6.4z M22.6,4.2l-2.6,13l-2.6-13C19.1,3.9,20.9,3.9,22.6,4.2z M20.8,20.6
		c-0.3,0.5-0.9,0.6-1.4,0.3c-0.5-0.3-0.6-0.9-0.3-1.4c0.3-0.5,0.9-0.6,1.4-0.3C21,19.5,21.1,20.1,20.8,20.6z M16.4,4.4l2.6,13
		L11.6,6.4C13.1,5.5,14.7,4.8,16.4,4.4z M10.7,7l7.4,11.1L7,10.7C8.1,9.2,9.3,8,10.7,7z M6.4,11.6L17.5,19l-13-2.6
		C4.8,14.7,5.5,13.1,6.4,11.6z M4.2,17.4l13,2.6l-13,2.6C3.9,20.9,3.9,19.1,4.2,17.4z M4.4,23.6l13-2.6L6.4,28.4
		C5.5,26.9,4.8,25.3,4.4,23.6z M7,29.3l11.1-7.4L10.7,33C9.2,31.9,8,30.7,7,29.3z M11.6,33.6L19,22.5l-2.6,13
		C14.7,35.2,13.1,34.5,11.6,33.6z M17.4,35.8l2.6-13l2.6,13C20.9,36.1,19.1,36.1,17.4,35.8z M23.6,35.6l-2.6-13l7.4,11.1
		C26.9,34.5,25.3,35.2,23.6,35.6z M31.7,30.9l-1.4-1.4l-0.8,0.8l1.4,1.4c-0.5,0.5-1,0.9-1.6,1.3l-7.4-11.1L33,29.3
		C32.6,29.9,32.1,30.4,31.7,30.9z M33.6,28.4L22.5,21l13,2.6C35.2,25.3,34.5,26.9,33.6,28.4z M22.7,20l13-2.6c0.3,1.7,0.3,3.5,0,5.2
		L22.7,20z"></path>
</g>
</svg>
