<svg version="1.1" id="Layer_1" xmlns="http://www.w3.org/2000/svg" xmlns:xlink="http://www.w3.org/1999/xlink" x="0px" y="0px" viewBox="0 0 40 40" style="enable-background:new 0 0 40 40;" xml:space="preserve">
<g>
	<path d="M20,0C9,0,0,9,0,20c0,11,9,20,20,20s20-9,20-20C40,9,31,0,20,0z M20,35c-8.3,0-15-6.7-15-15c0-8.3,6.7-15,15-15
		c8.3,0,15,6.7,15,15C35,28.3,28.3,35,20,35z"></path>
	<path d="M20,8C13.4,8,8,13.4,8,20c0,6.6,5.4,12,12,12s12-5.4,12-12C32,13.4,26.6,8,20,8z M30.8,18l-4,1.5l-1.5-0.5l1.1-1.1l4.2-0.2
		C30.8,17.8,30.8,17.9,30.8,18z M24.6,20.3L24.2,20l0.3-0.3l0.8,0.3L24.6,20.3z M25,22.1l-0.9,0l-0.2-0.4l0.4-0.2L25,22.1z
		 M23.9,18.4l0.2-0.4l0.9,0l-0.7,0.6L23.9,18.4z M30.5,16.7l-2.8,0.1l2.1-1.9C30,15.5,30.3,16.1,30.5,16.7z M29.1,13.8
		c0.1,0.1,0.1,0.2,0.2,0.3l-3.1,2.9l-1.6,0.1l0.7-1.4L29.1,13.8z M28.4,12.9l-2.6,1.2l1.2-2.6C27.6,12,28,12.4,28.4,12.9z M23.3,9.5
		c0.6,0.2,1.2,0.5,1.8,0.8l-1.9,2.1L23.3,9.5z M23.1,13.9l2.9-3.1c0.1,0.1,0.2,0.1,0.3,0.2l-1.8,3.8l-1.4,0.7L23.1,13.9z M20,9
		c0.3,0,0.7,0,1,0l-1,2.6L19,9C19.3,9,19.7,9,20,9z M20,15.8l-0.3-0.3l0.3-0.8l0.3,0.8L20,15.8z M20.3,24.6L20,25.4l-0.3-0.8
		l0.3-0.3L20.3,24.6z M18,9.2l1.5,4l-0.5,1.5l-1.1-1.1l-0.2-4.2C17.8,9.2,17.9,9.2,18,9.2z M18,24.1l0.4-0.2l0.2,0.4L17.9,25
		L18,24.1z M17.9,15l0.6,0.7l-0.2,0.4L18,15.9L17.9,15z M16.7,9.5l0.1,2.8l-1.9-2.1C15.5,10,16.1,9.7,16.7,9.5z M14,10.8l2.9,3.1
		l0.1,1.6l-1.4-0.7l-1.8-3.8C13.8,10.9,13.9,10.8,14,10.8z M15.7,21.5l0.4,0.2L15.9,22l-0.9,0L15.7,21.5z M14.6,20l0.8-0.3l0.3,0.3
		l-0.3,0.3L14.6,20z M15.7,18.5L15,17.9l0.9,0l0.2,0.4L15.7,18.5z M12.9,11.6l1.2,2.6l-2.6-1.2C12,12.4,12.4,12,12.9,11.6z
		 M10.9,13.8l3.8,1.8l0.7,1.4l-1.6-0.1L10.8,14C10.8,13.9,10.9,13.8,10.9,13.8z M10.3,14.9l2.1,1.9l-2.8-0.1
		C9.7,16.1,10,15.5,10.3,14.9z M9.2,17.7l4.2,0.2l1.1,1.1l-1.5,0.5l-4-1.5C9.2,17.9,9.2,17.8,9.2,17.7z M9,20c0-0.3,0-0.7,0-1l2.6,1
		L9,21C9,20.7,9,20.3,9,20z M9.2,22l4-1.5l1.5,0.5l-1.1,1.1l-4.2,0.2C9.2,22.2,9.2,22.1,9.2,22z M9.5,23.3l2.8-0.1l-2.1,1.9
		C10,24.5,9.7,23.9,9.5,23.3z M10.9,26.2c-0.1-0.1-0.1-0.2-0.2-0.3l3.1-2.9l1.6-0.1l-0.7,1.4L10.9,26.2z M11.6,27.1l2.6-1.2
		l-1.2,2.6C12.4,28,12,27.6,11.6,27.1z M16.7,30.5c-0.6-0.2-1.2-0.5-1.8-0.8l1.9-2.1L16.7,30.5z M16.9,26.1L14,29.2
		c-0.1-0.1-0.2-0.1-0.3-0.2l1.8-3.8l1.4-0.7L16.9,26.1z M17,23.4l-0.8,0.4l0.4-0.8l0.5,0L17,23.4z M16.6,17l-0.4-0.8l0.8,0.4l0,0.5
		L16.6,17z M17.7,30.8l0.2-4.2l1.1-1.1l0.5,1.5l-1.5,4C17.9,30.8,17.8,30.8,17.7,30.8z M20,31c-0.3,0-0.7,0-1,0l1-2.6l1,2.6
		C20.7,31,20.3,31,20,31z M22,30.8l-1.5-4l0.5-1.5l1.1,1.1l0.2,4.2C22.2,30.8,22.1,30.8,22,30.8z M21.6,23.9l0.4,0.2l0,0.9l-0.6-0.7
		L21.6,23.9z M21.5,15.7l0.6-0.7l0,0.9l-0.4,0.2L21.5,15.7z M22.1,13.5l-1.1,1.1l-0.5-1.5l1.5-4c0.1,0,0.2,0,0.3,0.1L22.1,13.5z
		 M23,16.6l0.8-0.4L23.4,17L23,17L23,16.6z M23,23l0.5,0l0.4,0.8L23,23.4L23,23z M23.3,30.5l-0.1-2.8l1.9,2.1
		C24.5,30,23.9,30.3,23.3,30.5z M26,29.2l-2.9-3.1l-0.1-1.6l1.4,0.7l1.8,3.8C26.2,29.1,26.1,29.2,26,29.2z M27.1,28.4l-1.2-2.6
		l2.6,1.2C28,27.6,27.6,28,27.1,28.4z M29.1,26.2l-3.8-1.8l-0.7-1.4l1.6,0.1l3.1,2.9C29.2,26.1,29.1,26.2,29.1,26.2z M29.7,25.1
		l-2.1-1.9l2.8,0.1C30.3,23.9,30,24.5,29.7,25.1z M30.8,22.3l-4.2-0.2l-1.1-1.1l1.5-0.5l4,1.5C30.8,22.1,30.8,22.2,30.8,22.3z
		 M28.3,20l2.6-1c0,0.3,0,0.6,0,1c0,0.3,0,0.7,0,1L28.3,20z"></path>
</g>
</svg>
