<svg version="1.1" id="Layer_1" xmlns="http://www.w3.org/2000/svg" xmlns:xlink="http://www.w3.org/1999/xlink" x="0px" y="0px" viewBox="0 0 40 40" style="enable-background:new 0 0 40 40;" xml:space="preserve">
<g>
	<path d="M20,0C9,0,0,9,0,20c0,11,9,20,20,20c11,0,20-9,20-20C40,9,31,0,20,0z M20,35c-8.3,0-15-6.7-15-15c0-8.3,6.7-15,15-15
		c8.3,0,15,6.7,15,15C35,28.3,28.3,35,20,35z"></path>
	<circle cx="20" cy="20" r="2.5"></circle>
	<path d="M25,19.6l6.7-2.4c-0.1-0.6-0.3-1.2-0.6-1.8c-1.4,0.4-4.6,1.4-6.8,2C24.7,18.1,24.9,18.8,25,19.6z"></path>
	<path d="M30.4,14c-1.7-2.9-4.5-5-7.9-5.7c0.3,1.6,0.8,4.6,1.2,6.7L30.4,14z"></path>
	<path d="M15.7,17.4l-6.8-2c-0.2,0.6-0.4,1.2-0.6,1.8c1.4,0.5,4.5,1.6,6.7,2.4C15.1,18.8,15.3,18.1,15.7,17.4z"></path>
	<path d="M22,24.6l4.3,5.6c0.5-0.3,1-0.7,1.5-1.1c-0.8-1.2-2.7-4-4-5.9C23.3,23.8,22.7,24.3,22,24.6z"></path>
	<path d="M16.2,23.3l-4,5.9c0.5,0.4,1,0.8,1.5,1.1c0.9-1.2,2.9-3.8,4.3-5.6C17.3,24.3,16.7,23.8,16.2,23.3z"></path>
	<path d="M17.5,8.3C14.1,9,11.3,11.1,9.6,14c1.6,0.2,4.6,0.7,6.7,1L17.5,8.3z"></path>
	<path d="M15.1,31c1.5,0.7,3.1,1,4.9,1c1.7,0,3.4-0.4,4.9-1c-1.2-1.1-3.4-3.3-4.9-4.7L15.1,31z"></path>
	<path d="M31.9,18.7c-1.5,0.8-4.1,2.2-6,3.2l3,6.1c1.9-2.1,3.1-4.9,3.1-8C32,19.6,32,19.2,31.9,18.7z"></path>
	<path d="M21.1,15.1L20.9,8c-0.3,0-0.6,0-0.9,0c-0.3,0-0.6,0-0.9,0c0,1.5-0.1,4.8-0.2,7.1c0.4-0.1,0.7-0.1,1.1-0.1
		S20.8,15.1,21.1,15.1z"></path>
	<path d="M8.1,18.7C8,19.2,8,19.6,8,20c0,3.1,1.2,5.9,3.1,8c0.7-1.5,2.1-4.2,3-6.1L8.1,18.7z"></path>
</g>
</svg>
