<svg version="1.1" id="Layer_1" xmlns="http://www.w3.org/2000/svg" xmlns:xlink="http://www.w3.org/1999/xlink" x="0px" y="0px" viewBox="0 0 48 48" xml:space="preserve">
<path d="M36.94,6h-16c-1.1,0-2,0.9-2,2v15.09c2.04,0.02,3.82,0.06,4.61,0.11c2.59,0.18,8.87,3.39,11.03,4.53
	c1.68,0.11,3.12,0.28,4.36,0.5V8C38.94,6.9,38.05,6,36.94,6z M29.94,10h5v1h-5V10z M22.94,10H28v1h-5.06V10z M22.94,13H31v1h-8.06
	V13z M22.94,16.09H26v1h-3.06V16.09z M34.94,23.09h-5v-1h5V23.09z M34.94,20.09h-12v-1h12V20.09z M35,17.09h-7v-1h7V17.09z M35,14
	h-2.06v-1H35V14z"></path>
<path d="M9.21,33.13c-2.17,0-3.93,1.76-3.93,3.93S7.04,41,9.21,41s3.93-1.76,3.93-3.93S11.37,33.13,9.21,33.13z M9.21,38.8
	c-0.96,0-1.74-0.78-1.74-1.74s0.78-1.74,1.74-1.74s1.74,0.78,1.74,1.74S10.16,38.8,9.21,38.8z"></path>
<path d="M38.31,33.13c-2.17,0-3.93,1.76-3.93,3.93S36.14,41,38.31,41c2.17,0,3.93-1.76,3.93-3.93S40.48,33.13,38.31,33.13z
	 M38.21,38.8c-0.96,0-1.74-0.78-1.74-1.74s0.78-1.74,1.74-1.74s1.74,0.78,1.74,1.74S39.16,38.8,38.21,38.8z"></path>
<path d="M45.23,32.74c-0.18-0.81-1.5-3.47-10.92-4.01c-0.89-0.47-8.23-4.34-10.83-4.52c-2.45-0.17-15.65-0.26-18.25,0.5
	C5.1,24.74,5,24.85,4.96,24.99c-0.03,0.14,0.01,0.28,0.12,0.38c0.07,0.06,0.2,0.23-0.03,0.5L2.4,28.91
	c-0.03,0.05-0.78,1.28-0.51,3.45l-0.75,0.48c-0.1,0.07-0.17,0.18-0.18,0.3c-0.03,0.33-0.21,3.26,1.17,3.97
	c0.02,0.01,0.05,0.02,0.07,0.03l1.88,0.53c0.03,0.01,0.07,0.01,0.11,0.01h0.13c-0.03-0.21-0.06-0.41-0.06-0.62
	c0-2.72,2.21-4.93,4.93-4.93c2.72,0,4.93,2.21,4.93,4.93c0,0.21-0.04,0.42-0.06,0.62l19.37,0c-0.03-0.21-0.06-0.41-0.06-0.63
	c0-2.72,2.21-4.93,4.93-4.93c2.72,0,4.93,2.21,4.93,4.93c0,0.21-0.04,0.4-0.06,0.6c1.04-0.04,2.11-0.15,2.58-0.42
	c0.15-0.08,0.23-0.25,0.19-0.42c-0.03-0.14-0.12-0.34-0.33-0.5C45.93,35.55,46.44,33.73,45.23,32.74z M10.17,29.31
	c-0.12-0.06-0.35-0.23-0.23-0.57c0.26-0.77,0.79-2.37,2.53-2.6c1.65-0.21,4.84-0.25,5.86-0.26l0.67,3.43L10.17,29.31z M30.53,29.76
	c-1.21-0.05-6.17-0.29-9.09-0.43l-0.81-3.44c3.31,0.1,6.72,1.23,10.13,3.36L30.53,29.76z"></path>
</svg>
