<svg version="1.1" id="Layer_1" xmlns="http://www.w3.org/2000/svg" xmlns:xlink="http://www.w3.org/1999/xlink" x="0px" y="0px" viewBox="0 0 48 48" xml:space="preserve">
<g>
	<polygon points="24,18.73 22.6,19.74 23.14,21.39 24.87,21.39 25.4,19.74"></polygon>
	<path d="M22.84,22.39l-3.25,0.38c0.93,1.47,2.55,2.46,4.42,2.46c0.02,0,0.03,0,0.04,0l0.58-2.83L22.84,22.39L22.84,22.39z"></path>
	<path d="M24,28c4.41,0,8-3.59,8-8s-3.59-8-8-8s-8,3.59-8,8S19.59,28,24,28z M24,13.77c3.43,0,6.23,2.79,6.23,6.23
		c0,3.43-2.79,6.23-6.23,6.23s-6.23-2.79-6.23-6.23C17.77,16.57,20.57,13.77,24,13.77z"></path>
	<path d="M19.12,21.82l2.99-0.35l-0.55-1.7l0,0l-1.47-3.2c-0.81,0.92-1.31,2.11-1.31,3.43C18.77,20.64,18.9,21.25,19.12,21.82z"></path>
	<path d="M23.68,17.72l2.62-2.39c-0.7-0.35-1.47-0.56-2.3-0.56c-1.19,0-2.27,0.41-3.15,1.08l1.35,2.94L23.68,17.72z"></path>
	<path d="M26.24,19.12l2.91,1.65c0.04-0.25,0.08-0.51,0.08-0.77c0-1.68-0.81-3.16-2.04-4.12l-2.39,2.18L26.24,19.12z"></path>
	<circle cx="24" cy="38.5" r="2"></circle>
	<path d="M25.72,21.99L25.72,21.99l-0.64,3.12c1.77-0.38,3.2-1.66,3.81-3.33l-2.62-1.49L25.72,21.99z"></path>
	<path d="M33,3H15c-2.21,0-4,1.79-4,4v34c0,2.21,1.79,4,4,4h18c2.21,0,4-1.79,4-4V7C37,4.79,35.21,3,33,3z M13.5,9
		c0-1.38,1.12-2.5,2.5-2.5h2v1h-2c-0.83,0-1.5,0.67-1.5,1.5v2h-1V9z M24,10c5.51,0,10,4.49,10,10c0,5.51-4.49,10-10,10
		c-5.51,0-10-4.49-10-10C14,14.49,18.49,10,24,10z M18,34.5h-2c-1.38,0-2.5-1.12-2.5-2.5v-2h1v2c0,0.83,0.67,1.5,1.5,1.5h2V34.5z
		 M24,41.5c-1.65,0-3-1.35-3-3s1.35-3,3-3s3,1.35,3,3S25.65,41.5,24,41.5z M34.5,32c0,1.38-1.12,2.5-2.5,2.5h-2v-1h2
		c0.83,0,1.5-0.67,1.5-1.5v-2h1V32z M34.5,11h-1V9c0-0.83-0.67-1.5-1.5-1.5h-2v-1h2c1.38,0,2.5,1.12,2.5,2.5V11z"></path>
</g>
</svg>
