<svg version="1.1" id="Layer_1" xmlns="http://www.w3.org/2000/svg" xmlns:xlink="http://www.w3.org/1999/xlink" x="0px" y="0px" viewBox="0 0 48 48" xml:space="preserve">
<g>
	<path d="M44.81,20.69l-9.4-9.29c-0.78-0.77-2.04-0.77-2.82,0.01l-2.89,2.89l5,5L34,20l-7.81-7.81v0l-5.77-5.77
		c-0.78-0.78-2.05-0.78-2.83,0L3.17,20.83C2.42,21.58,2,22.6,2,23.66V36c0,2.21,1.79,4,4,4h22.25c0-4-3.25-7.25-7.25-7.25h-5.35
		c-3.92,0-7.31-3.04-7.4-6.96c-0.04-1.96,0.7-3.81,2.08-5.19l5.11-5.11c-0.24-0.61-0.29-1.32,0.04-2.08
		c0.35-0.81,1.09-1.44,1.96-1.61c1.76-0.35,3.3,1,3.3,2.7c0,0.35-0.07,0.69-0.19,1l0.18,0.18c0.36,0.36,0.77,0.69,1.21,0.97
		l-0.81,1.26c-0.53-0.34-1.02-0.73-1.46-1.17l-0.04-0.04c-0.46,0.34-1.02,0.55-1.64,0.55s-1.18-0.21-1.64-0.55l-4.82,4.82
		c-0.95,0.95-1.62,2.18-1.76,3.51c-0.35,3.36,2.29,6.22,5.58,6.22H21c4.83,0,8.75,3.93,8.75,8.75h3.5v-1.84h1.5V40H42
		c2.21,0,4-1.79,4-4V23.53C46,22.46,45.57,21.44,44.81,20.69z M15.68,27.12c-0.28-0.49-0.43-1.05-0.43-1.62
		c0-0.31,0.04-0.61,0.13-0.9l1.44,0.41c-0.04,0.16-0.07,0.32-0.07,0.49c0,0.3,0.08,0.6,0.23,0.87L15.68,27.12z M16.96,22.64
		c0.47-0.25,1-0.39,1.54-0.39h0.77v1.5H18.5c-0.29,0-0.57,0.07-0.83,0.21L16.96,22.64z M19.87,28.75H18.5
		c-0.27,0-0.54-0.03-0.81-0.1l0.37-1.45c0.14,0.04,0.29,0.05,0.43,0.05h1.37V28.75z M21.27,22.25h2v1.5h-2V22.25z M23.87,28.75h-2
		v-1.5h2V28.75z M23.11,18.83l0.46-1.43c0.57,0.19,1.17,0.3,1.77,0.33l-0.08,1.5C24.53,19.19,23.81,19.06,23.11,18.83z M25.27,23.75
		v-1.5h0.48c0.34,0,0.67-0.11,0.94-0.33l0.94,1.17c-0.53,0.42-1.2,0.66-1.88,0.66H25.27z M27.87,28.75h-2v-1.5h2V28.75z
		 M27.25,20.77c0-0.47-0.2-0.89-0.55-1.17l0.96-1.16c0.69,0.57,1.09,1.42,1.09,2.32L27.25,20.77z M31.87,28.75h-2v-1.5h2V28.75z
		 M37.87,27.25H38c0.79,0,1.55,0.24,2.19,0.71l-0.88,1.22c-0.38-0.28-0.84-0.42-1.31-0.42h-0.13V27.25z M33.87,27.25h2v1.5h-2V27.25
		z M35.08,36.56l-1.34-0.67c0.35-0.71,0.88-1.33,1.53-1.78l0.86,1.23C35.69,35.65,35.33,36.07,35.08,36.56z M38,34.75
		c-0.12,0-0.24,0.01-0.36,0.02l-0.17-1.49c0.55-0.06,1.15-0.04,1.64-0.32l0.74,1.3C39.29,34.58,38.65,34.75,38,34.75z M41.48,32.41
		l-1.39-0.56c0.11-0.27,0.17-0.55,0.17-0.85c0-0.21-0.03-0.42-0.09-0.62l1.44-0.41c0.09,0.33,0.14,0.68,0.14,1.03
		C41.75,31.49,41.66,31.96,41.48,32.41z"></path>
	<circle cx="18" cy="14.5" r="1.25"></circle>
</g>
</svg>
