<svg version="1.1" id="Layer_1" xmlns="http://www.w3.org/2000/svg" xmlns:xlink="http://www.w3.org/1999/xlink" x="0px" y="0px" viewBox="0 0 40 40" style="enable-background:new 0 0 40 40;" xml:space="preserve">
<g>
	<path d="M11,12.4l0.6,0.2c1.4,0.3,2.7,1,3.7,2L17,16c0,0,0.1-0.1,0.1-0.1l-0.9-2c-0.6-1.3-0.8-2.7-0.7-4.2l0-0.6
		c0-0.4-0.4-0.7-0.7-0.5c-1.6,0.7-3,1.7-4.1,3C10.5,11.9,10.6,12.3,11,12.4z"></path>
	<path d="M8,18.6l1.6,0.7c1,0.4,2.1,0.6,3.2,0.5l2.2-0.2c0.1-0.7,0.3-1.4,0.6-2L14,16c-0.8-0.7-1.8-1.3-2.9-1.5l-1.7-0.4
		c-0.2-0.1-0.5,0-0.6,0.3c-0.6,1.1-1,2.4-1.2,3.7C7.6,18.3,7.8,18.5,8,18.6z"></path>
	<path d="M13.4,22.7l1.9-1.1c0,0,0-0.1,0-0.1L13,21.7c-0.8,0.1-1.6,0-2.4-0.1C10,21.5,9.4,21.3,8.8,21l-0.5-0.2
		c-0.3-0.1-0.7,0.1-0.7,0.5c0.2,1.8,0.7,3.4,1.6,4.9c0.2,0.3,0.7,0.3,0.9,0l0.3-0.5C11.1,24.5,12.1,23.4,13.4,22.7z"></path>
	<path d="M26,16l-1.7,1.5c0.3,0.6,0.6,1.3,0.6,2l2.2,0.2c1.1,0.1,2.2-0.1,3.2-0.5l1.6-0.7c0.2-0.1,0.4-0.3,0.3-0.5
		c-0.2-1.3-0.6-2.5-1.2-3.7c-0.1-0.2-0.3-0.3-0.6-0.3l-1.7,0.4C27.8,14.8,26.8,15.3,26,16z"></path>
	<path d="M24.6,14.5c1.1-0.9,2.4-1.6,3.7-2l0.6-0.2c0.4-0.1,0.5-0.5,0.3-0.8c-1.1-1.3-2.6-2.3-4.1-3c-0.3-0.2-0.7,0.1-0.7,0.5l0,0.6
		c0.1,1.4-0.1,2.9-0.7,4.2l-0.9,2c0,0,0.1,0.1,0.1,0.1L24.6,14.5z"></path>
	<path d="M19,15.1c0.3-0.1,0.7-0.1,1-0.1c0.4,0,0.7,0,1,0.1l0.9-2c0.4-1,0.6-2.1,0.6-3.2l-0.1-1.8c0-0.2-0.2-0.4-0.4-0.5
		c-0.6-0.1-1.3-0.2-1.9-0.2c-0.7,0-1.3,0.1-1.9,0.2c-0.2,0-0.4,0.2-0.4,0.5l-0.1,1.8c-0.1,1.1,0.1,2.2,0.6,3.2L19,15.1z"></path>
	<path d="M28,26.7c-0.6-0.9-1.4-1.7-2.3-2.3l-1.9-1.1c-0.5,0.5-1,0.9-1.7,1.2l0.5,2.1c0.2,1.1,0.7,2.1,1.4,2.9l1.1,1.3
		c0.2,0.2,0.4,0.2,0.6,0.1c1.2-0.6,2.2-1.4,3.1-2.3c0.2-0.2,0.2-0.4,0.1-0.6L28,26.7z"></path>
	<path d="M31.7,20.9L31.4,21c-0.9,0.4-1.9,0.6-2.9,0.7c-0.5,0-1,0-1.5,0l-2.2-0.2c0,0,0,0.1,0,0.1l1.9,1.1c1.2,0.7,2.3,1.7,3,3
		l0.3,0.5c0.2,0.3,0.7,0.3,0.9,0c0.8-1.5,1.4-3.1,1.6-4.9C32.5,21,32.1,20.7,31.7,20.9z"></path>
	<path d="M20,0C9,0,0,9,0,20c0,11,9,20,20,20c11,0,20-9,20-20C40,9,31,0,20,0z M20,35c-8.3,0-15-6.7-15-15c0-8.3,6.7-15,15-15
		c8.3,0,15,6.7,15,15C35,28.3,28.3,35,20,35z"></path>
	<path d="M18,24.6c-0.6-0.3-1.2-0.7-1.7-1.2l-1.9,1.1c-1,0.6-1.8,1.3-2.3,2.3l-0.9,1.5c-0.1,0.2-0.1,0.5,0.1,0.6
		c0.9,0.9,2,1.7,3.1,2.3c0.2,0.1,0.5,0.1,0.6-0.1l1.1-1.3c0.7-0.8,1.2-1.9,1.4-2.9L18,24.6z"></path>
	<path d="M22.4,30.9c-0.9-1.1-1.6-2.4-1.9-3.8L20.1,25c0,0,0,0-0.1,0c0,0,0,0-0.1,0l-0.5,2.2c-0.3,1.4-0.9,2.7-1.9,3.8l-0.4,0.5
		c-0.2,0.3-0.1,0.7,0.3,0.8c0.8,0.2,1.7,0.3,2.6,0.3c0.9,0,1.7-0.1,2.6-0.3c0.4-0.1,0.5-0.5,0.3-0.8L22.4,30.9z"></path>
	<circle cx="20" cy="20" r="2.5"></circle>
</g>
</svg>
