<svg version="1.1" id="Layer_1" xmlns="http://www.w3.org/2000/svg" xmlns:xlink="http://www.w3.org/1999/xlink" x="0px" y="0px" viewBox="0 0 48 48" xml:space="preserve">
<g>
	<g>
		<path d="M44,16c1.1,0,2,0.9,2,2v12c0,1.1-0.9,2-2,2H4c-1.1,0-2-0.9-2-2V18c0-1.1,0.9-2,2-2H44 M44,15H4c-1.66,0-3,1.34-3,3v12
			c0,1.66,1.34,3,3,3h40c1.66,0,3-1.34,3-3V18C47,16.34,45.66,15,44,15L44,15z"></path>
	</g>
</g>
<path d="M44,17H4c-0.55,0-1,0.45-1,1v12c0,0.55,0.45,1,1,1h40c0.55,0,1-0.45,1-1V18C45,17.45,44.55,17,44,17z M11.75,21.23L9.9,24
	l1.85,2.77V28h-1.5v-0.77L9,25.35l-1.25,1.88V28h-1.5v-1.23L8.1,24l-1.85-2.77V20h1.5v0.77L9,22.65l1.25-1.88V20h1.5V21.23z
	 M17.75,21.23L15.9,24l1.85,2.77V28h-1.5v-0.77L15,25.35l-1.25,1.88V28h-1.5v-1.23L14.1,24l-1.85-2.77V20h1.5v0.77L15,22.65
	l1.25-1.88V20h1.5V21.23z M23.75,21.23L21.9,24l1.85,2.77V28h-1.5v-0.77L21,25.35l-1.25,1.88V28h-1.5v-1.23L20.1,24l-1.85-2.77V20
	h1.5v0.77L21,22.65l1.25-1.88V20h1.5V21.23z M29,24.75h-4v-1.5h4V24.75z M35.75,21.23L33.9,24l1.85,2.77V28h-1.5v-0.77L33,25.35
	l-1.25,1.88V28h-1.5v-1.23L32.1,24l-1.85-2.77V20h1.5v0.77L33,22.65l1.25-1.88V20h1.5V21.23z M41.75,21.23L39.9,24l1.85,2.77V28
	h-1.5v-0.77L39,25.35l-1.25,1.88V28h-1.5v-1.23L38.1,24l-1.85-2.77V20h1.5v0.77L39,22.65l1.25-1.88V20h1.5V21.23z"></path>
</svg>
