<svg version="1.1" id="Layer_1" xmlns="http://www.w3.org/2000/svg" xmlns:xlink="http://www.w3.org/1999/xlink" x="0px" y="0px" viewBox="0 0 48 48" xml:space="preserve">
<g>
	<path d="M19.18,25.88c-0.33-0.33-0.77-0.51-1.24-0.51s-0.91,0.18-1.24,0.51c-0.33,0.33-0.51,0.77-0.51,1.24s0.18,0.91,0.51,1.24
		l2.94,2.94c0.33,0.33,0.77,0.51,1.24,0.51c0.47,0,0.91-0.18,1.24-0.51c0.33-0.33,0.51-0.77,0.51-1.24c0-0.47-0.18-0.91-0.51-1.24
		L19.18,25.88z M21.41,30.59c-0.15,0.15-0.34,0.22-0.53,0.22s-0.38-0.07-0.53-0.22l-2.94-2.94c-0.29-0.29-0.29-0.77,0-1.06
		c0.15-0.15,0.34-0.22,0.53-0.22s0.38,0.07,0.53,0.22l2.94,2.94C21.7,29.82,21.7,30.3,21.41,30.59z"></path>
	<path d="M20.17,22.83c-1.09-1.09-2.88-1.17-4.06-0.17l-3.83,3.24c-0.64,0.54-1.02,1.33-1.06,2.17c-0.03,0.78,0.26,1.55,0.78,2.13
		l-7.96,8.1l1.43,1.4l8.99-9.15l2.83,2.83l-9,9.16l1.43,1.4l7.95-8.1c0.55,0.48,1.24,0.75,1.97,0.75c0.04,0,0.08,0,0.12,0
		c0.84-0.04,1.62-0.42,2.16-1.06l3.24-3.83c1.02-1.2,0.94-2.95-0.17-4.06L20.17,22.83z M23.64,30.42l-3.24,3.83
		c-0.18,0.22-0.44,0.34-0.72,0.35c-0.22,0-0.42-0.07-0.6-0.19l0.33-0.34c0.38-0.39,0.38-1.02-0.01-1.41l-4.24-4.24
		c-0.19-0.19-0.43-0.27-0.71-0.29c-0.27,0-0.52,0.11-0.71,0.3l-0.32,0.33c-0.13-0.18-0.21-0.38-0.2-0.6
		c0.01-0.28,0.14-0.54,0.35-0.72l3.83-3.24c0.4-0.34,0.98-0.31,1.35,0.06l4.82,4.82C23.95,29.44,23.98,30.02,23.64,30.42z"></path>
	<path d="M25.33,24.35c0.39,0.39,0.9,0.58,1.41,0.58s1.02-0.19,1.41-0.58l2.78-2.78l0.67,0.67c0.39,0.39,0.9,0.58,1.41,0.58
		s1.02-0.19,1.41-0.58l1.85-1.85c0.38-0.38,0.59-0.88,0.59-1.41c0-0.53-0.21-1.04-0.59-1.41l-0.23-0.23l7.92-8.4l-1.46-1.37
		l-8.99,9.53l-2.83-2.83l9.03-9.57l-1.46-1.37l-7.88,8.36l-0.12-0.12c-0.78-0.78-2.05-0.78-2.83,0l-1.85,1.85
		C25.21,13.77,25,14.28,25,14.81c0,0.53,0.21,1.04,0.59,1.41l0.67,0.67l-2.78,2.78c-0.78,0.78-0.78,2.05,0,2.83L25.33,24.35z
		 M28.85,12.96l0.16,0.16l-0.44,0.47c-0.37,0.39-0.36,1.01,0.02,1.39l4.24,4.24c0.19,0.19,0.44,0.29,0.71,0.29c0,0,0.01,0,0.01,0
		c0.27,0,0.53-0.12,0.71-0.31l0.4-0.42l0.19,0.19l-1.85,1.85l-1.37-1.37c0,0,0,0,0,0l-1.63-1.63L27,14.81L28.85,12.96z M27.67,18.31
		l0.92,0.92l0.92,0.92l-2.78,2.78l-1.85-1.85L27.67,18.31z"></path>
	<rect x="26.12" y="20.41" transform="matrix(0.7073 -0.7069 0.7069 0.7073 -7.155 25.0448)" width="1.09" height="1.5"></rect>
	<path d="M35.45,32.15l-1.86-1.74l-0.68,0.73l2.2,2.06c0.1,0.09,0.22,0.13,0.34,0.13s0.25-0.04,0.34-0.13l3.3-3.09l-0.68-0.73
		L35.45,32.15z"></path>
	<path d="M43.96,28c-0.09-0.96-0.87-1.72-1.86-1.81c-1.79-0.16-3.48-0.78-4.9-1.81c-0.72-0.52-1.68-0.52-2.4,0c0,0,0,0,0,0
		c-1.42,1.03-3.12,1.65-4.9,1.81c-0.99,0.09-1.77,0.85-1.86,1.8C28.01,28.29,28,28.59,28,28.88c0,4.3,2.65,8.23,7.09,10.51
		c0.14,0.07,0.3,0.11,0.46,0.11h0.91c0.16,0,0.32-0.04,0.46-0.11c4.44-2.27,7.09-6.2,7.09-10.51C44,28.59,43.99,28.29,43.96,28z
		 M36.21,37.5h-0.42C32.16,35.56,30,32.35,30,28.88c0-0.23,0.01-0.46,0.07-0.69c2.14-0.19,4.18-0.94,5.9-2.18l0.06,0
		c1.72,1.24,3.76,1.99,5.94,2.17c0.02,0.23,0.03,0.46,0.03,0.7C42,32.35,39.84,35.56,36.21,37.5z"></path>
	<rect x="13" y="9.96" transform="matrix(0.7071 -0.7071 0.7071 0.7071 -5.5919 13.5)" width="1" height="7.07"></rect>
	<rect x="9.16" y="16.62" transform="matrix(0.2588 -0.9659 0.9659 0.2588 -12.3125 24.2676)" width="1" height="7.07"></rect>
	<rect x="26.95" y="7.12" transform="matrix(0.2645 -0.9644 0.9644 0.2645 13.5227 32.973)" width="2.86" height="1"></rect>
	<rect x="18.19" y="39.88" transform="matrix(0.2657 -0.9641 0.9641 0.2657 -24.5202 48.5672)" width="2.86" height="1"></rect>
	<rect x="6.19" y="27.88" transform="matrix(0.9641 -0.2654 0.2654 0.9641 -7.2593 3.0407)" width="2.86" height="1"></rect>
	<rect x="38.95" y="19.12" transform="matrix(0.9642 -0.2651 0.2651 0.9642 -3.757 11.4076)" width="2.86" height="1"></rect>
	<rect x="19.66" y="6.12" transform="matrix(0.9659 -0.2588 0.2588 0.9659 -1.8125 5.5459)" width="1" height="7.07"></rect>
	<rect x="27.34" y="34.81" transform="matrix(0.9659 -0.2588 0.2588 0.9659 -8.9752 8.5126)" width="1" height="7.07"></rect>
</g>
</svg>
