<svg version="1.1" id="Layer_1" xmlns="http://www.w3.org/2000/svg" xmlns:xlink="http://www.w3.org/1999/xlink" x="0px" y="0px" viewBox="0 0 48 48" xml:space="preserve">
<g>
	<path d="M32,11.5c-3.08,0-5.5,5.49-5.5,12.5c0,7.01,2.42,12.5,5.5,12.5s5.5-5.49,5.5-12.5C37.5,16.99,35.08,11.5,32,11.5z M32,35.5
		c-2.17,0-4.5-4.62-4.5-11.5s2.33-11.5,4.5-11.5s4.5,4.62,4.5,11.5S34.17,35.5,32,35.5z"></path>
	<path d="M5.5,9h1c0-1.38,1.12-2.5,2.5-2.5v-1C7.62,5.5,6.5,4.38,6.5,3h-1c0,1.38-1.12,2.5-2.5,2.5v1C4.38,6.5,5.5,7.62,5.5,9z
		 M6,4.8C6.3,5.29,6.71,5.7,7.2,6C6.71,6.3,6.3,6.71,6,7.2C5.7,6.71,5.29,6.3,4.8,6C5.29,5.7,5.7,5.29,6,4.8z"></path>
	<path d="M17,11.5c-0.83,0-1.5,0.67-1.5,1.5s0.67,1.5,1.5,1.5s1.5-0.67,1.5-1.5S17.83,11.5,17,11.5z M17,13.5
		c-0.28,0-0.5-0.22-0.5-0.5s0.22-0.5,0.5-0.5s0.5,0.22,0.5,0.5S17.28,13.5,17,13.5z"></path>
	<path d="M6.5,15c0,0.83,0.67,1.5,1.5,1.5s1.5-0.67,1.5-1.5S8.83,13.5,8,13.5S6.5,14.17,6.5,15z M8.5,15c0,0.28-0.22,0.5-0.5,0.5
		S7.5,15.28,7.5,15s0.22-0.5,0.5-0.5S8.5,14.72,8.5,15z"></path>
	<path d="M32,3H22c-2.76,0-5.26,1.57-7.26,4.21C14.29,6.77,13.67,6.5,13,6.5c-1.38,0-2.5,1.12-2.5,2.5c0,1.15,0.79,2.12,1.86,2.41
		c-1.43,3.37-2.29,7.52-2.35,12.09H10c-1.38,0-2.5-1.12-2.5-2.5v-2h-1v2c0,1.38-1.12,2.5-2.5,2.5H2v1h2c1.38,0,2.5,1.12,2.5,2.5v2h1
		v-2c0-1.38,1.12-2.5,2.5-2.5h0.01C10.16,36.03,15.37,45,22,45h10c6.73,0,12-9.22,12-21C44,12.22,38.73,3,32,3z M7,25.2
		c-0.3-0.49-0.71-0.9-1.2-1.2c0.49-0.3,0.9-0.71,1.2-1.2c0.3,0.49,0.71,0.9,1.2,1.2C7.71,24.3,7.3,24.71,7,25.2z M41.75,28.06
		C40.74,36.49,36.69,43,32,43c-5.42,0-10-8.7-10-19S26.58,5,32,5c4.69,0,8.74,6.51,9.75,14.94c0.08,0.71,0.15,1.42,0.2,2.15
		C41.98,22.72,42,23.36,42,24s-0.02,1.28-0.05,1.91C41.91,26.64,41.84,27.36,41.75,28.06z M11.5,9c0-0.83,0.67-1.5,1.5-1.5
		s1.5,0.67,1.5,1.5s-0.67,1.5-1.5,1.5S11.5,9.83,11.5,9z M12,24c0-10.3,4.58-19,10-19h6.57C24.18,7.62,21,15.12,21,24
		s3.18,16.38,7.57,19H22C16.58,43,12,34.3,12,24z"></path>
	<path d="M16,16.5c-1.38,0-2.5,1.12-2.5,2.5s1.12,2.5,2.5,2.5s2.5-1.12,2.5-2.5S17.38,16.5,16,16.5z M16,20.5
		c-0.83,0-1.5-0.67-1.5-1.5s0.67-1.5,1.5-1.5s1.5,0.67,1.5,1.5S16.83,20.5,16,20.5z"></path>
</g>
</svg>
