<svg version="1.1" id="Layer_1" xmlns="http://www.w3.org/2000/svg" xmlns:xlink="http://www.w3.org/1999/xlink" x="0px" y="0px" viewBox="0 0 48 48" xml:space="preserve">
<path d="M43.02,33.05h-1V20.74c0-2.03-1.65-3.68-3.68-3.68h-4.9l1.29-1.29c0.29-0.29,0.37-0.72,0.22-1.09
	c-0.15-0.37-0.52-0.62-0.92-0.62h-4V7c0-0.55-0.45-1-1-1h-10c-0.55,0-1,0.45-1,1v7.05h-4c-0.4,0-0.77,0.24-0.92,0.62
	c-0.15,0.37-0.07,0.8,0.22,1.09l1.29,1.29h-4.9c-2.03,0-3.68,1.65-3.68,3.68v12.32h-1c-1.65,0-3,1.35-3,3s1.35,3,3,3h38
	c1.65,0,3-1.35,3-3S44.68,33.05,43.02,33.05z M19.02,16.05c0.55,0,1-0.45,1-1V8h8v7.05c0,0.55,0.45,1,1,1h2.59l-7.59,7.59
	l-7.59-7.59H19.02z M9.71,19.05h6.9l6.71,6.71c0.19,0.19,0.44,0.29,0.71,0.29s0.52-0.11,0.71-0.29l6.71-6.71h6.9
	c0.93,0,1.68,0.76,1.68,1.68v16.32h-6.28l-5.44-5.58l9.49-9.49l-0.71-0.71L25.08,33.29c-0.59,0.58-1.54,0.58-2.12,0L10.95,21.28
	l-0.71,0.71l9.49,9.49l-5.44,5.58H8.02V20.74C8.02,19.81,8.78,19.05,9.71,19.05z M22.25,33.99c0.49,0.49,1.13,0.73,1.77,0.73
	c0.64,0,1.28-0.24,1.77-0.73l1.81-1.81l4.75,4.87H15.7l4.75-4.87L22.25,33.99z M4.02,36.05c0-0.55,0.45-1,1-1h1v2h-1
	C4.47,37.05,4.02,36.61,4.02,36.05z M43.02,37.05h-1v-2h1c0.55,0,1,0.45,1,1S43.57,37.05,43.02,37.05z"></path>
</svg>
