<svg version="1.1" id="Layer_1" xmlns="http://www.w3.org/2000/svg" xmlns:xlink="http://www.w3.org/1999/xlink" x="0px" y="0px" viewBox="0 0 48 48" xml:space="preserve">
<g>
	<path d="M42.47,10.37H15.53c-1.94,0-3.53,1.58-3.53,3.53V18h2v-4.11c0-0.84,0.68-1.53,1.53-1.53h26.95c0.84,0,1.53,0.68,1.53,1.53
		v20.21c0,0.84-0.68,1.53-1.53,1.53H15.53c-0.84,0-1.53-0.68-1.53-1.53V30h-2v4.11c0,1.94,1.58,3.53,3.53,3.53h26.95
		c1.94,0,3.53-1.58,3.53-3.53V13.89C46,11.95,44.42,10.37,42.47,10.37z"></path>
	<path d="M16.72,33.62l8.91-8.91l1.82,1.82c0.43,0.43,0.98,0.64,1.54,0.64s1.12-0.21,1.54-0.64l1.82-1.82l8.91,8.91l0.71-0.71
		L33.08,24l8.91-8.91l-0.71-0.71L29.84,25.82c-0.46,0.46-1.21,0.46-1.67,0L16.72,14.38l-0.71,0.71L24.92,24l-8.91,8.91L16.72,33.62z"></path>
	<rect x="2" y="23.5" width="14" height="1"></rect>
	<rect x="6" y="20.5" width="8" height="1"></rect>
	<rect x="4" y="26.5" width="8" height="1"></rect>
</g>
</svg>
