<svg version="1.1" id="Layer_1" xmlns="http://www.w3.org/2000/svg" xmlns:xlink="http://www.w3.org/1999/xlink" x="0px" y="0px" viewBox="0 0 48 48" xml:space="preserve">
<g>
	<path d="M29,3H19C12.27,3,7,12.22,7,24c0,11.78,5.27,21,12,21h10c6.73,0,12-9.22,12-21C41,12.22,35.73,3,29,3z M38.75,28.06
		C37.74,36.49,33.69,43,29,43c-5.42,0-10-8.7-10-19S23.58,5,29,5c4.69,0,8.74,6.51,9.75,14.94c0.08,0.71,0.15,1.42,0.2,2.15
		C38.98,22.72,39,23.36,39,24s-0.02,1.28-0.05,1.91C38.91,26.64,38.84,27.36,38.75,28.06z M9,24C9,13.7,13.58,5,19,5h6.57
		C21.18,7.62,18,15.12,18,24s3.18,16.38,7.57,19H19C13.58,43,9,34.3,9,24z"></path>
	<path d="M33.75,17.62c-0.95-3.69-2.7-6.12-4.75-6.12c-3.08,0-5.5,5.49-5.5,12.5c0,1.09,0.07,2.12,0.18,3.12l-1.37,1.37
		c-0.11-0.81-0.2-1.64-0.25-2.49l-1,0.06c0.1,1.73,0.34,3.39,0.69,4.94c0,0.01,0,0.01,0,0.02c0,0,0,0,0,0
		c0.3,1.31,0.66,2.55,1.12,3.67l0.93-0.38c-0.33-0.82-0.61-1.72-0.85-2.65L23.98,32c0.05,0.02,0.1,0.02,0.15,0.02
		c0.13,0,0.26-0.05,0.35-0.15l0.17-0.17c1,2.93,2.55,4.79,4.34,4.79c3.08,0,5.5-5.49,5.5-12.5c0-0.24-0.01-0.47-0.02-0.71l0.67-0.67
		c0.57-0.57,0.88-1.32,0.88-2.12s-0.31-1.55-0.88-2.12C34.76,17.99,34.27,17.74,33.75,17.62z M24.5,24c0-6.88,2.33-11.5,4.5-11.5
		c1.39,0,2.83,1.91,3.69,5.06c-0.66,0.07-1.3,0.33-1.78,0.82l-5.3,5.3c-0.09,0.09-0.15,0.22-0.15,0.35s0.05,0.26,0.15,0.35l0.4,0.4
		L24.6,26.2C24.54,25.5,24.5,24.77,24.5,24z M24,30.95l-1.32-0.43c-0.06-0.27-0.11-0.55-0.15-0.83l4.2-4.2l1.37,1.37L24,30.95z
		 M29,35.5c-1.32,0-2.68-1.72-3.56-4.58l3.35-3.35l0.35,0.35c0.09,0.09,0.22,0.15,0.35,0.15s0.26-0.05,0.35-0.15l3.64-3.64
		C33.43,31,31.14,35.5,29,35.5z M34.45,21.91l-4.95,4.95l-0.35-0.35c0,0,0,0,0,0l-2.07-2.07c0,0,0,0,0,0l-0.4-0.4l4.95-4.95
		c0.76-0.76,2.07-0.76,2.83,0c0.38,0.38,0.59,0.88,0.59,1.41S34.83,21.54,34.45,21.91z"></path>
	<path d="M33.03,19.56c-0.55,0-1,0.45-1,1s0.45,1,1,1s1-0.45,1-1S33.58,19.56,33.03,19.56z M32.53,20.56L32.53,20.56L32.53,20.56
		L32.53,20.56z"></path>
</g>
</svg>
