<svg version="1.1" id="Layer_1" xmlns="http://www.w3.org/2000/svg" xmlns:xlink="http://www.w3.org/1999/xlink" x="0px" y="0px" viewBox="0 0 48 48" xml:space="preserve">
<g>
	<path d="M19,39v-4.34c0-1.34-0.52-2.59-1.46-3.54l-3.33-3.33c-0.87-0.87-2.12-1.1-3.21-0.74V22c0-1.65-1.35-3-3-3s-3,1.35-3,3v9.06
		c0,0.77,0.18,1.55,0.53,2.24l2.16,4.31C7.89,38.02,8,38.48,8,38.94V39c-0.55,0-1,0.45-1,1v4c0,0.55,0.45,1,1,1h11
		c0.55,0,1-0.45,1-1v-4C20,39.45,19.55,39,19,39z M9.47,36.71L7.32,32.4C7.11,31.98,7,31.52,7,31.06V22c0-0.55,0.45-1,1-1
		s1,0.45,1,1v7h0.06c-0.11,0.32-0.18,0.65-0.18,1c0,0.83,0.32,1.62,0.91,2.21l2.5,2.5l1.41-1.41l-2.5-2.5
		C11,30.58,10.88,30.3,10.88,30s0.12-0.58,0.33-0.79c0.44-0.44,1.15-0.44,1.59,0l3.33,3.33C16.69,33.1,17,33.86,17,34.66V39h-7
		v-0.06C10,38.17,9.82,37.4,9.47,36.71z M18,43H9v-2h9V43z"></path>
	<path d="M40,19c-1.65,0-3,1.35-3,3v5.08c-1.09-0.35-2.37-0.12-3.21,0.72l-3.33,3.33c-0.94,0.94-1.46,2.2-1.46,3.54V39
		c-0.55,0-1,0.45-1,1v4c0,0.55,0.45,1,1,1h11c0.55,0,1-0.45,1-1v-4c0-0.55-0.45-1-1-1v-0.06c0-0.46,0.11-0.93,0.32-1.34l2.16-4.31
		C42.82,32.6,43,31.83,43,31.06V22C43,20.35,41.65,19,40,19z M39,43h-9v-2h9V43z M41,31.06c0,0.46-0.11,0.93-0.32,1.34l-2.16,4.31
		C38.18,37.4,38,38.17,38,38.94V39h-7v-4.34c0-0.8,0.31-1.56,0.88-2.12l3.33-3.33c0.44-0.44,1.15-0.44,1.59,0s0.44,1.15,0,1.59
		l-2.5,2.5l1.41,1.41l2.5-2.5c0.87-0.87,1.1-2.12,0.74-3.21H39v-7c0-0.55,0.45-1,1-1s1,0.45,1,1V31.06z"></path>
	<path d="M29.45,30.22l0.93-1.85l1.85-0.93c0.05-0.02,0.09-0.06,0.13-0.09l1-1c0.09-0.09,0.15-0.22,0.15-0.35v-1.79l1.85-1.85
		c0.09-0.09,0.15-0.22,0.15-0.35v-2c0-0.28-0.22-0.5-0.5-0.5H24.5v-0.84v-0.77c0.32,0.11,0.65,0.17,0.99,0.17
		c0.4,0,0.8-0.08,1.18-0.24c0.97-0.42,1.64-1.34,1.77-2.4c0.02-0.18-0.06-0.35-0.2-0.46c-0.86-0.63-2-0.76-2.96-0.34
		c-0.29,0.13-0.54,0.31-0.77,0.51v-1c2.52-0.17,4.81-1.56,6.07-3.74c1.34-2.32,1.33-5.22-0.02-7.57c-0.09-0.16-0.25-0.25-0.43-0.25
		c0,0,0,0,0,0c-2.71,0.01-5.23,1.46-6.56,3.77c-0.08,0.14-0.14,0.29-0.21,0.43c-1.05-0.95-2.44-1.52-3.9-1.52c0,0,0,0,0,0
		c-0.18,0-0.34,0.1-0.43,0.25c-1.03,1.8-1.03,4.01-0.01,5.78c0.94,1.63,2.64,2.68,4.51,2.84v4.53v0.84H13c-0.28,0-0.5,0.22-0.5,0.5
		v2c0,0.13,0.05,0.26,0.15,0.35l1.85,1.85V25c0,0.08,0.02,0.15,0.05,0.22l1,2c0.05,0.1,0.13,0.17,0.22,0.22l1.85,0.93l0.93,1.85
		c0.05,0.1,0.13,0.17,0.22,0.22l1.81,0.91l0.93,2.8c0.07,0.2,0.26,0.34,0.47,0.34h4c0.21,0,0.41-0.14,0.47-0.34l0.93-2.8l1.81-0.91
		C29.32,30.4,29.4,30.32,29.45,30.22z M25.67,15.53c0.56-0.25,1.18-0.22,1.71,0.07c-0.16,0.58-0.56,1.06-1.12,1.3
		c-0.56,0.24-1.18,0.22-1.71-0.07C24.71,16.25,25.11,15.77,25.67,15.53z M23.68,8.82c0.59,1.14,0.69,2.42,0.31,3.63
		C23.53,11.28,23.43,10.03,23.68,8.82z M29.82,3.57c1.05,2.02,1.01,4.36-0.12,6.31c-1.04,1.8-2.83,2.96-4.89,3.21
		c0.62-1.62,0.51-3.46-0.37-4.97c-0.12-0.2-0.25-0.39-0.39-0.57c0.1-0.24,0.22-0.48,0.36-0.72C25.54,4.88,27.55,3.68,29.82,3.57z
		 M19.85,10.78c-0.81-1.4-0.85-3.07-0.13-4.52c1.25,0.08,2.38,0.62,3.21,1.5c-0.56,1.73-0.49,3.62,0.23,5.32
		C21.77,12.84,20.57,12.02,19.85,10.78z M26.78,30.55c-0.12,0.06-0.21,0.16-0.25,0.29l-0.89,2.66h-3.28l-0.89-2.66
		c-0.04-0.13-0.13-0.23-0.25-0.29l-1.85-0.93l-0.93-1.85c-0.05-0.1-0.13-0.17-0.22-0.22l-1.85-0.93l-0.87-1.75V24
		c0-0.13-0.05-0.26-0.15-0.35l-1.85-1.85V20.5h21v1.29l-1.85,1.85c-0.09,0.09-0.15,0.22-0.15,0.35v1.79l-0.8,0.8l-1.93,0.96
		c-0.1,0.05-0.17,0.13-0.22,0.22l-0.93,1.85L26.78,30.55z"></path>
	<path d="M21.5,24c0-0.83-0.67-1.5-1.5-1.5s-1.5,0.67-1.5,1.5s0.67,1.5,1.5,1.5S21.5,24.83,21.5,24z M20,24.5
		c-0.28,0-0.5-0.22-0.5-0.5s0.22-0.5,0.5-0.5s0.5,0.22,0.5,0.5S20.28,24.5,20,24.5z"></path>
	<path d="M27,25.5c-0.83,0-1.5,0.67-1.5,1.5s0.67,1.5,1.5,1.5s1.5-0.67,1.5-1.5S27.83,25.5,27,25.5z M27,27.5
		c-0.28,0-0.5-0.22-0.5-0.5s0.22-0.5,0.5-0.5s0.5,0.22,0.5,0.5S27.28,27.5,27,27.5z"></path>
	<circle cx="22" cy="28" r="1"></circle>
	<circle cx="28" cy="23" r="1"></circle>
</g>
</svg>
