<svg version="1.1" id="Layer_1" xmlns="http://www.w3.org/2000/svg" xmlns:xlink="http://www.w3.org/1999/xlink" x="0px" y="0px" viewBox="0 0 48 48" style="enable-background:new 0 0 48 48;" xml:space="preserve">
<g>
	<path d="M45.354,4.805L43.86,3.311l-0.707,0.707l1.238,1.239l-0.681,1.361l-1.579-1.579l-1.295-1.295
		c-0.391-0.391-1.023-0.391-1.414,0l-1.095,1.095h-2.361c-0.238,0-0.47,0.085-0.65,0.241l-9.552,8.187l-1.94,0.567
		c-0.161,0.047-0.308,0.134-0.427,0.253l-2.082,2.082c-0.119,0.119-0.206,0.265-0.253,0.426l-0.556,1.902l-3.288,3.289
		c-0.188,0.188-0.293,0.442-0.293,0.707v2.361l-3.177,3.176c-0.188,0.188-0.293,0.442-0.293,0.707s0.105,0.52,0.293,0.707
		l1.388,1.388l-1.374,1.374c-0.195,0.195-0.195,0.512,0,0.707l1.414,1.415c0.094,0.094,0.221,0.146,0.354,0.146
		s0.26-0.053,0.354-0.146l1.374-1.375l0.708,0.707L16.126,35.5h-1l-2.329-2.328l-0.707,0.707l2.476,2.475
		c0.094,0.094,0.221,0.146,0.354,0.146h1.414c0.133,0,0.26-0.053,0.354-0.146l1.996-1.996c0.18,0.154,0.404,0.25,0.643,0.25
		c0.266,0,0.52-0.105,0.707-0.293l3.177-3.177h2.361c0.266,0,0.52-0.105,0.707-0.293l3.283-3.283l1.92-0.531
		c0.166-0.046,0.318-0.135,0.44-0.257l2.082-2.082c0.122-0.122,0.211-0.274,0.257-0.44l0.542-1.959l8.181-9.545
		c0.156-0.181,0.241-0.412,0.241-0.651V9.736l1.095-1.095c0.338-0.339,0.365-0.85,0.117-1.237l1.011-2.021
		C45.543,5.19,45.506,4.957,45.354,4.805z M15.53,33.267l-0.707-0.708l1.021-1.021l0.707,0.707L15.53,33.267z M19.326,32.194
		l-3.456-3.457l2.056-2.055l3.456,3.456L19.326,32.194z M25.157,29.138H23.21l-4.284-4.284v-1.947l2.822-2.823l6.232,6.232
		L25.157,29.138z M30.694,25.174l-1.912,0.529l-6.421-6.421l0.549-1.88l1.721-1.72l1.88-0.549l6.421,6.421l-0.529,1.912
		L30.694,25.174z M41.518,8.615c-0.188,0.188-0.293,0.442-0.293,0.707v2.406l-7.709,8.995l-6.174-6.174l8.995-7.709h2.405
		c0.266,0,0.52-0.105,0.707-0.293l0.681-0.681l0.588,0.588l1.48,1.48L41.518,8.615z"></path>
	<path d="M28.224,34.553l-4-2l-0.447,0.895l2.851,1.425l-5.765,1.646c-0.134,0.039-0.246,0.131-0.309,0.256
		c-0.063,0.125-0.071,0.27-0.021,0.401l2.42,6.453l-6.108-4.4c-0.111-0.08-0.251-0.11-0.382-0.086
		c-0.134,0.024-0.252,0.102-0.327,0.216l-2.908,4.393l-1.177-5.136c-0.029-0.13-0.11-0.243-0.224-0.313
		c-0.114-0.07-0.251-0.093-0.379-0.062l-7.741,1.84l5.798-5.457c0.098-0.092,0.154-0.22,0.157-0.354
		c0.003-0.134-0.049-0.264-0.144-0.36L5.299,29.61l5.816,0.485c0.15,0.018,0.273-0.034,0.376-0.125s0.162-0.222,0.166-0.359
		l0.196-7.435l2.771,3.154l0.752-0.66l-3.612-4.113c-0.135-0.154-0.351-0.21-0.546-0.14c-0.193,0.07-0.324,0.251-0.33,0.457
		l-0.216,8.181l-6.63-0.553c-0.224-0.022-0.407,0.096-0.494,0.286c-0.089,0.189-0.051,0.414,0.096,0.562l4.803,4.896l-6.789,6.39
		c-0.165,0.155-0.205,0.402-0.098,0.602c0.107,0.199,0.337,0.301,0.556,0.249l9.072-2.156l1.325,5.782
		c0.045,0.195,0.201,0.344,0.397,0.38C12.94,45.497,12.971,45.5,13,45.5c0.166,0,0.323-0.083,0.417-0.224l3.265-4.932l7.026,5.062
		c0.178,0.129,0.42,0.125,0.596-0.008c0.175-0.134,0.242-0.367,0.164-0.573l-2.81-7.492l6.479-1.851
		c0.198-0.057,0.341-0.229,0.36-0.435C28.517,34.841,28.408,34.645,28.224,34.553z"></path>
</g>
</svg>
