<svg version="1.1" id="Layer_1" xmlns="http://www.w3.org/2000/svg" xmlns:xlink="http://www.w3.org/1999/xlink" x="0px" y="0px" viewBox="0 0 48 48" xml:space="preserve">
<g>
	<path d="M18.65,11.91c0.12,0.05,0.25,0.08,0.38,0.08c0.13,0,0.26-0.03,0.38-0.08c0.25-0.1,0.44-0.29,0.54-0.54
		c0.1-0.25,0.1-0.52,0-0.76c-0.1-0.25-0.29-0.44-0.54-0.54c-0.25-0.1-0.52-0.1-0.77,0c-0.51,0.21-0.75,0.8-0.54,1.31
		C18.21,11.62,18.4,11.81,18.65,11.91z"></path>
	<path d="M12.38,17.1c-0.51-0.21-1.09,0.03-1.31,0.54c-0.21,0.51,0.03,1.1,0.54,1.31c0.12,0.05,0.25,0.08,0.38,0.08
		c0.13,0,0.26-0.03,0.38-0.08c0.25-0.1,0.44-0.29,0.54-0.54c0.1-0.25,0.1-0.52,0-0.77C12.82,17.4,12.62,17.2,12.38,17.1z"></path>
	<path d="M28.6,11.91c0.12,0.05,0.25,0.08,0.38,0.08c0.39,0,0.77-0.23,0.93-0.62c0,0,0,0,0,0c0.21-0.51-0.03-1.1-0.54-1.31
		c-0.51-0.21-1.09,0.03-1.3,0.54c-0.1,0.25-0.1,0.52,0,0.77S28.35,11.81,28.6,11.91z"></path>
	<path d="M35.63,18.95c0.12,0.05,0.25,0.08,0.38,0.08s0.26-0.03,0.38-0.08c0.51-0.21,0.75-0.8,0.54-1.31
		c-0.21-0.51-0.8-0.75-1.31-0.54c-0.51,0.21-0.75,0.8-0.54,1.31C35.19,18.65,35.38,18.85,35.63,18.95z"></path>
	<path d="M12.38,27.05c-0.25-0.1-0.52-0.1-0.77,0c-0.51,0.21-0.75,0.8-0.54,1.31c0.1,0.25,0.3,0.44,0.54,0.54
		c0.12,0.05,0.25,0.08,0.38,0.08c0.13,0,0.26-0.03,0.38-0.08c0.25-0.1,0.44-0.29,0.54-0.54c0.1-0.25,0.1-0.52,0-0.76
		C12.82,27.35,12.62,27.15,12.38,27.05z"></path>
	<path d="M35.63,28.9c0.12,0.05,0.25,0.08,0.38,0.08c0.13,0,0.26-0.03,0.38-0.08c0.25-0.1,0.44-0.29,0.54-0.54
		c0.21-0.51-0.03-1.09-0.54-1.31c0,0,0,0,0,0c-0.25-0.1-0.52-0.1-0.77,0c-0.25,0.1-0.44,0.29-0.54,0.54c-0.1,0.25-0.1,0.52,0,0.76
		C35.19,28.61,35.39,28.8,35.63,28.9z"></path>
	<path d="M25.86,13.99l-4.18,8.08c-0.51,1.28,0.12,2.74,1.4,3.25c0.3,0.12,0.61,0.18,0.92,0.18c0.34,0,0.67-0.07,0.99-0.21
		c0.61-0.26,1.09-0.75,1.35-1.42l2.49-8.7c0.23-0.8-0.18-1.63-0.95-1.93C27.11,12.94,26.24,13.26,25.86,13.99z M27.87,14.9
		l-2.47,8.65c-0.15,0.37-0.43,0.66-0.8,0.82c-0.37,0.16-0.78,0.16-1.15,0.02c-0.77-0.31-1.15-1.18-0.86-1.9l4.16-8.04
		c0.11-0.21,0.32-0.33,0.54-0.33c0.08,0,0.15,0.01,0.22,0.04C27.8,14.29,27.96,14.6,27.87,14.9z"></path>
	<path d="M39.71,16.5c-1.74-4.2-5-7.46-9.2-9.2s-8.82-1.74-13.01,0c-4.2,1.74-7.46,5-9.2,9.2s-1.74,8.82,0,13.01
		c1.22,2.94,3.22,5.46,5.79,7.3l1.17-1.62c-0.53-0.38-1.02-0.79-1.49-1.23l1.12-1.12c0.2,0.09,0.42,0.15,0.64,0.15
		c0.4,0,0.78-0.16,1.06-0.44c0.58-0.58,0.58-1.54,0-2.12c-0.57-0.57-1.56-0.57-2.12,0c-0.46,0.46-0.54,1.14-0.28,1.7l-1.13,1.13
		c-1.22-1.31-2.21-2.83-2.9-4.5c-0.7-1.69-1.07-3.47-1.13-5.24h1.58c0.21,0.58,0.76,1,1.41,1c0.83,0,1.5-0.67,1.5-1.5
		s-0.67-1.5-1.5-1.5c-0.65,0-1.2,0.42-1.41,1H9.02c0.06-1.78,0.42-3.55,1.12-5.24c0.7-1.69,1.7-3.2,2.91-4.5l1.12,1.12
		c-0.26,0.56-0.18,1.24,0.28,1.7c0.28,0.28,0.66,0.44,1.06,0.44c0.4,0,0.78-0.16,1.06-0.44c0.58-0.58,0.58-1.54,0-2.12
		c-0.44-0.44-1.14-0.53-1.69-0.28l-1.12-1.12c1.3-1.21,2.81-2.21,4.5-2.91c1.69-0.7,3.46-1.07,5.24-1.13v1.57
		c-0.58,0.21-1,0.76-1,1.41c0,0.83,0.67,1.5,1.5,1.5c0.83,0,1.5-0.67,1.5-1.5c0-0.65-0.42-1.2-1-1.41V8.02
		c1.78,0.06,3.55,0.42,5.24,1.13c1.69,0.7,3.2,1.69,4.5,2.91l-1.12,1.12c-0.56-0.26-1.24-0.18-1.7,0.28c-0.58,0.58-0.58,1.54,0,2.12
		c0.29,0.29,0.68,0.44,1.06,0.44s0.77-0.15,1.06-0.44c0.46-0.46,0.54-1.14,0.28-1.7l1.12-1.12c1.22,1.3,2.21,2.81,2.91,4.5
		c0.71,1.71,1.07,3.48,1.14,5.24h-1.59c-0.21-0.58-0.76-1-1.41-1c-0.83,0-1.5,0.67-1.5,1.5s0.67,1.5,1.5,1.5c0.65,0,1.2-0.42,1.41-1
		h1.6c-0.11,3.6-1.53,7.07-4.05,9.75l-1.13-1.13c0.26-0.56,0.18-1.24-0.28-1.7c-0.58-0.58-1.54-0.58-2.12,0
		c-0.58,0.58-0.58,1.54,0,2.12c0.29,0.29,0.68,0.44,1.06,0.44c0.22,0,0.43-0.06,0.64-0.16l1.12,1.12c-0.47,0.44-0.96,0.85-1.49,1.24
		l1.17,1.62C40.37,32.19,42.75,23.84,39.71,16.5z M15.17,31.13c0.09-0.09,0.22-0.15,0.35-0.15c0.13,0,0.26,0.05,0.35,0.15
		c0.19,0.2,0.19,0.51,0,0.71c-0.19,0.19-0.52,0.19-0.71,0C14.97,31.64,14.97,31.33,15.17,31.13z M12,22.5c0.28,0,0.5,0.22,0.5,0.5
		s-0.22,0.5-0.5,0.5s-0.5-0.22-0.5-0.5S11.73,22.5,12,22.5z M15.17,14.16c0.09-0.09,0.22-0.15,0.35-0.15c0.13,0,0.26,0.05,0.35,0.15
		c0.19,0.19,0.19,0.51,0,0.71c-0.19,0.19-0.52,0.19-0.71,0C14.97,14.67,14.97,14.35,15.17,14.16z M24,11.5c-0.28,0-0.5-0.22-0.5-0.5
		s0.22-0.5,0.5-0.5c0.28,0,0.5,0.22,0.5,0.5S24.28,11.5,24,11.5z M32.84,14.87c-0.2,0.2-0.51,0.2-0.71,0c-0.2-0.19-0.2-0.51,0-0.71
		c0.1-0.1,0.23-0.15,0.35-0.15s0.26,0.05,0.35,0.15C33.04,14.35,33.04,14.67,32.84,14.87z M36,23.5c-0.28,0-0.5-0.22-0.5-0.5
		s0.22-0.5,0.5-0.5s0.5,0.22,0.5,0.5S36.28,23.5,36,23.5z M32.84,31.84c-0.2,0.2-0.51,0.2-0.71,0s-0.2-0.51,0-0.71
		c0.1-0.1,0.23-0.15,0.35-0.15s0.26,0.05,0.35,0.15C33.04,31.33,33.04,31.64,32.84,31.84z"></path>
	<path d="M29.95,33.23l-3.49-0.51l-1.56-3.16C24.73,29.22,24.38,29,24,29s-0.73,0.22-0.9,0.56l-1.56,3.16l-3.49,0.51
		c-0.38,0.05-0.69,0.32-0.81,0.68c-0.12,0.36-0.02,0.76,0.25,1.02l2.53,2.46l-0.6,3.48c-0.06,0.38,0.09,0.75,0.4,0.98
		c0.31,0.22,0.72,0.25,1.05,0.08L24,40.29l3.12,1.64c0.15,0.08,0.31,0.12,0.46,0.12c0.21,0,0.41-0.06,0.59-0.19
		c0.31-0.22,0.46-0.6,0.4-0.98l-0.6-3.48l2.53-2.46c0.27-0.27,0.37-0.66,0.25-1.02C30.64,33.55,30.33,33.28,29.95,33.23z
		 M26.21,36.33c-0.24,0.23-0.34,0.56-0.29,0.88l0.34,2l-1.8-0.94c-0.15-0.08-0.31-0.12-0.47-0.12s-0.32,0.04-0.47,0.12l-1.8,0.94
		l0.34-2c0.06-0.32-0.05-0.66-0.29-0.88l-1.45-1.42l2.01-0.29c0.33-0.05,0.61-0.25,0.75-0.55l0.9-1.82l0.9,1.82
		c0.15,0.29,0.43,0.5,0.75,0.55l2.01,0.29L26.21,36.33z"></path>
</g>
</svg>
