<svg xml:space="preserve" style="enable-background:new 0 0 48 48;" viewBox="0 0 48 48" y="0px" x="0px" xmlns:xlink="http://www.w3.org/1999/xlink" xmlns="http://www.w3.org/2000/svg" id="Layer_1" version="1.1">
<g>
	<path d="M47.061,31.439L46.5,30.879V28.5c0-0.501-0.251-0.97-0.668-1.248c-3.072-2.048-7.939-3.167-14.107-3.247l-1.752-2.19
		C28.542,20.026,26.407,19,24.116,19h-0.38c-4.034,0-7.974,1.13-11.395,3.268l-2.65,1.656C9.612,23.974,9.52,24,9.427,24H8.181
		l-0.451-1.868c-0.163-0.674-0.766-1.148-1.458-1.148c-0.002,0-0.004,0-0.006,0L1.994,21c-0.459,0.002-0.892,0.214-1.175,0.575
		c-0.283,0.361-0.385,0.833-0.277,1.279l0.729,3C1.434,26.527,2.036,27,2.729,27h0.19l0.453,1.359
		C3.457,28.614,3.5,28.88,3.5,29.149v3.287c0,0.828,0.672,1.5,1.5,1.5h2.461C8.391,35.214,9.888,36,11.5,36
		c1.604,0,3.096-0.78,4.027-2.049l16.976,0.034C33.436,35.233,34.918,36,36.5,36c1.573,0,3.051-0.761,3.985-2H46
		c0.607,0,1.154-0.365,1.386-0.926S47.49,31.868,47.061,31.439z M44.646,31.854L44.793,32h-4.435c0.083-0.322,0.142-0.653,0.142-1
		s-0.059-0.678-0.142-1H44.5v1.5C44.5,31.633,44.553,31.76,44.646,31.854z M36.5,34c-1.654,0-3-1.346-3-3s1.346-3,3-3s3,1.346,3,3
		S38.154,34,36.5,34z M36.5,27c-2.206,0-4,1.794-4,4c0,0.347,0.059,0.678,0.142,1H15.358c0.083-0.322,0.142-0.653,0.142-1
		c0-2.206-1.794-4-4-4c-1.516,0-2.822,0.858-3.5,2.104V29H5.488c-0.014-0.433-0.082-0.862-0.219-1.274L4.694,26H7h2.426
		c0.469,0,0.927-0.131,1.325-0.38l2.649-1.656C16.503,22.025,20.077,21,23.736,21h0.38c1.68,0,3.245,0.752,4.294,2.064l2.199,2.748
		C30.705,25.931,30.848,26,31,26c5.873,0,10.649,0.983,13.5,2.772V29H40v0.104C39.322,27.858,38.016,27,36.5,27z M11.5,34
		c-1.654,0-3-1.346-3-3s1.346-3,3-3s3,1.346,3,3S13.154,34,11.5,34z M5.5,30h2.142C7.559,30.322,7.5,30.653,7.5,31
		c0,0.324,0.049,0.634,0.122,0.936H5.5V30z M3.122,25l-0.486-2.002l3.243-0.012L6.365,25H4H3.122z"></path>
	<path d="M36.5,29c-1.103,0-2,0.897-2,2s0.897,2,2,2s2-0.897,2-2S37.603,29,36.5,29z M36.5,32c-0.551,0-1-0.449-1-1s0.449-1,1-1
		s1,0.449,1,1S37.051,32,36.5,32z"></path>
	<path d="M11.5,29c-1.103,0-2,0.897-2,2s0.897,2,2,2s2-0.897,2-2S12.603,29,11.5,29z M11.5,32c-0.551,0-1-0.449-1-1s0.449-1,1-1
		s1,0.449,1,1S12.051,32,11.5,32z"></path>
	<path d="M30.354,29.854C30.26,29.947,30.131,30,30,30H18.566c-0.175,0-0.339-0.093-0.429-0.243l-1.543-2.573l-0.857,0.515
		l1.543,2.573C17.55,30.721,18.043,31,18.566,31H30c0.4,0,0.777-0.156,1.061-0.439c0.55-0.55,0.854-1.282,0.854-2.061h-1
		C30.914,29.012,30.715,29.492,30.354,29.854z"></path>
	<path d="M28.89,25.717c0.083-0.173,0.06-0.379-0.06-0.529l-1.199-1.499C26.772,22.616,25.491,22,24.117,22h-0.382
		c-3.471,0-6.861,0.972-9.804,2.812l-0.423,0.264c-0.189,0.118-0.277,0.347-0.215,0.562S13.55,26,13.773,26h14.666
		C28.631,26,28.806,25.89,28.89,25.717z M22.88,23.026L24.458,25h-8.847C17.86,23.82,20.338,23.15,22.88,23.026z M25.738,25
		l-1.596-1.997c1.059,0.007,2.045,0.482,2.708,1.311L27.398,25H25.738z"></path>
</g>
</svg>
