<svg version="1.1" id="Layer_1" xmlns="http://www.w3.org/2000/svg" xmlns:xlink="http://www.w3.org/1999/xlink" x="0px" y="0px" viewBox="0 0 48 48" xml:space="preserve">
<g>
	<path d="M28.72,30.9c2.65,0,4.72-4.57,4.72-10.4c0-5.83-2.07-10.4-4.72-10.4S24,14.67,24,20.5C24,26.33,26.07,30.9,28.72,30.9z
		 M28.72,11.1c1.8,0,3.72,3.78,3.72,9.4c0,5.62-1.92,9.4-3.72,9.4S25,26.12,25,20.5C25,14.88,26.92,11.1,28.72,11.1z"></path>
	<path d="M45,36H33.56C36.82,33.1,39,27.32,39,20.5C39,10.69,34.48,3,28.72,3h-8.44C14.52,3,10,10.69,10,20.5
		c0,6.82,2.18,12.6,5.44,15.5H3v2h11.29l-3.11,5.51c-0.17,0.31-0.17,0.69,0.01,1c0.18,0.31,0.51,0.5,0.86,0.5H20h8.05H36
		c0.36,0,0.68-0.19,0.86-0.5c0.18-0.31,0.18-0.69,0.01-1L33.76,38H45V36z M36.83,17.42c0.11,1,0.17,2.03,0.17,3.08
		c0,8.4-3.79,15.5-8.28,15.5s-8.28-7.1-8.28-15.5S24.23,5,28.72,5C32.65,5,36.04,10.43,36.83,17.42z M12,20.5
		C12,12.1,15.79,5,20.28,5h5.28c-3.57,2.3-6.12,8.36-6.12,15.5s2.55,13.2,6.12,15.5h-5.28C15.79,36,12,28.9,12,20.5z M20,43h-6.24
		l2.82-5h3.7h8.44h1.57l-2.82,5H20z M29.76,43l2.26-4.01L34.29,43H29.76z"></path>
</g>
</svg>
