<svg version="1.1" id="Layer_1" xmlns="http://www.w3.org/2000/svg" xmlns:xlink="http://www.w3.org/1999/xlink" x="0px" y="0px" viewBox="0 0 48 48" style="enable-background:new 0 0 48 48;" xml:space="preserve">
<path d="M39.537,24.998c0.29-1.302,0.459-2.649,0.459-4.038C39.996,10.506,31.474,2,20.998,2S2,10.506,2,20.96
	s8.522,18.96,18.998,18.96c1.365,0,2.69-0.163,3.972-0.442C26.688,43.315,30.531,46,35,46c6.065,0,11-4.935,11-11
	C46,30.554,43.342,26.73,39.537,24.998z M20.998,37.92C11.625,37.92,4,30.311,4,20.96S11.625,4,20.998,4s16.998,7.608,16.998,16.96
	c0,1.504-0.217,2.955-0.586,4.345C36.636,25.113,35.833,25,35,25c-0.032,0-0.063,0.005-0.095,0.005
	c-0.378-0.87-1.218-1.52-2.289-1.52h-2.587c-1.689,0-3.309,0.673-4.499,1.87l-0.052,0.052c-0.867,0.872-1.457,1.979-1.699,3.183
	l-0.74,3.693c-0.291,1.448,0.688,2.683,1.972,2.951c0.017,0.728,0.113,1.434,0.278,2.115C23.916,37.709,22.483,37.92,20.998,37.92z
	 M33.809,25.077c-4.7,0.559-8.394,4.373-8.769,9.128c-0.277-0.094-0.531-0.255-0.719-0.484c-0.285-0.348-0.392-0.788-0.302-1.241
	l0.74-3.693c0.204-1.015,0.697-1.94,1.427-2.675l0.052-0.052c0.995-1.001,2.376-1.575,3.789-1.575h2.587
	C33.097,24.485,33.521,24.705,33.809,25.077z M35,44c-4.963,0-9-4.037-9-9s4.037-9,9-9s9,4.037,9,9S39.963,44,35,44z"></path>
<path d="M25.287,20.954c0-2.36-1.924-4.281-4.289-4.281s-4.289,1.921-4.289,4.281s1.924,4.28,4.289,4.28
	S25.287,23.314,25.287,20.954z M20.998,24.234c-1.813,0-3.289-1.472-3.289-3.28c0-1.81,1.476-3.281,3.289-3.281
	s3.289,1.472,3.289,3.281C24.287,22.763,22.812,24.234,20.998,24.234z"></path>
<path d="M18.216,28.591c-0.241-1.204-0.832-2.311-1.699-3.183l-0.062-0.062c-1.183-1.191-2.794-1.86-4.474-1.86H9.38
	c-1.837,0-3.046,1.89-2.307,3.569c1.623,3.688,4.67,6.608,8.45,8.064c0.316,0.122,0.635,0.178,0.943,0.178
	c1.525,0,2.818-1.373,2.49-3.012L18.216,28.591z M17.674,33.722c-0.295,0.36-0.746,0.574-1.208,0.574
	c-0.196,0-0.392-0.037-0.584-0.111c-3.505-1.35-6.382-4.096-7.895-7.533c-0.217-0.492-0.173-1.031,0.118-1.478
	c0.285-0.437,0.75-0.688,1.274-0.688h2.602c1.404,0,2.777,0.571,3.766,1.566l0.061,0.061c0.73,0.735,1.224,1.66,1.427,2.675
	l0.74,3.693C18.066,32.933,17.959,33.374,17.674,33.722z"></path>
<path d="M8.936,19.548c0.432,0,0.878-0.116,1.301-0.376c3.051-1.872,6.638-4.546,10.761-4.546s7.71,2.675,10.761,4.546
	c0.423,0.26,0.869,0.376,1.301,0.376c1.584,0,2.981-1.558,2.418-3.288c-1.982-6.091-7.715-10.494-14.48-10.494
	S8.5,10.169,6.518,16.259C5.955,17.99,7.353,19.548,8.936,19.548z M7.469,16.569c1.908-5.864,7.345-9.803,13.529-9.803
	s11.621,3.94,13.529,9.803c0.203,0.624-0.039,1.093-0.202,1.316c-0.297,0.409-0.781,0.663-1.265,0.663
	c-0.27,0-0.531-0.077-0.778-0.228c-0.403-0.247-0.814-0.508-1.236-0.775c-2.899-1.837-6.184-3.919-10.048-3.919
	c-3.864,0-7.149,2.082-10.048,3.919c-0.421,0.267-0.833,0.528-1.235,0.775c-0.247,0.151-0.509,0.228-0.778,0.228
	c-0.483,0-0.968-0.254-1.265-0.663C7.508,17.661,7.266,17.193,7.469,16.569z"></path>
<path d="M35.704,29.459c-0.391-0.387-1.018-0.387-1.408,0l-2.941,2.915c-0.977,0.968-1.514,2.256-1.514,3.626
	s0.537,2.658,1.514,3.627c1.006,0.995,2.325,1.492,3.646,1.492s2.641-0.497,3.646-1.493c0.977-0.968,1.514-2.256,1.514-3.626
	s-0.537-2.658-1.514-3.626L35.704,29.459z M37.237,38.205c-1.232,1.223-3.242,1.222-4.475,0.001
	c-0.595-0.59-0.922-1.373-0.922-2.206s0.327-1.616,0.922-2.206L35,31.577l2.237,2.217c0.595,0.59,0.922,1.373,0.922,2.206
	S37.832,37.616,37.237,38.205z"></path>
<polygon points="34.648,33.439 36.454,35.229 37.157,34.519 35.352,32.728"></polygon>
</svg>
