<svg version="1.1" id="Layer_1" xmlns="http://www.w3.org/2000/svg" xmlns:xlink="http://www.w3.org/1999/xlink" x="0px" y="0px" viewBox="0 0 48 48" xml:space="preserve">
<g>
	<path d="M32,11.5c-3.08,0-5.5,5.49-5.5,12.5c0,7.01,2.42,12.5,5.5,12.5s5.5-5.49,5.5-12.5C37.5,16.99,35.08,11.5,32,11.5z M32,35.5
		c-2.17,0-4.5-4.62-4.5-11.5s2.33-11.5,4.5-11.5s4.5,4.62,4.5,11.5S34.17,35.5,32,35.5z"></path>
	<path d="M32,3H22c-4.64,0-8.58,4.41-10.58,11H7.25C5.46,14,4,15.46,4,17.25v13.5C4,32.54,5.46,34,7.25,34h4.17
		c2,6.59,5.93,11,10.58,11h10c6.73,0,12-9.22,12-21C44,12.22,38.73,3,32,3z M41.75,28.06C40.74,36.49,36.69,43,32,43
		c-3.75,0-7.09-4.17-8.8-10.14c0.49-0.57,0.8-1.3,0.8-2.11v-13.5c0-0.81-0.31-1.54-0.8-2.11C24.91,9.17,28.25,5,32,5
		c4.69,0,8.74,6.51,9.75,14.94c0.08,0.71,0.15,1.42,0.2,2.15C41.98,22.72,42,23.36,42,24s-0.02,1.28-0.05,1.91
		C41.91,26.64,41.84,27.36,41.75,28.06z M22,5h6.58c-2.68,1.6-4.9,5.01-6.23,9.44c-0.48-0.27-1.02-0.44-1.6-0.44h-7.2
		C15.34,8.64,18.49,5,22,5z M14.5,24.5H22v6.25c0,0.69-0.56,1.25-1.25,1.25H14.5V24.5z M14.5,23.5V16h6.25
		c0.69,0,1.25,0.56,1.25,1.25v6.25H14.5z M6,17.25C6,16.56,6.56,16,7.25,16h6.25v7.5H6V17.25z M6,30.75V24.5h7.5V32H7.25
		C6.56,32,6,31.44,6,30.75z M13.55,34h7.2c0.59,0,1.13-0.17,1.6-0.44c1.33,4.43,3.55,7.84,6.23,9.44H22
		C18.49,43,15.34,39.36,13.55,34z"></path>
	<polygon points="12.25,19.25 10.25,19.25 10.25,17.25 9.25,17.25 9.25,19.25 7.25,19.25 7.25,20.25 9.25,20.25 9.25,22.25 
		10.25,22.25 10.25,20.25 12.25,20.25"></polygon>
	<rect x="15.75" y="19.25" width="5" height="1"></rect>
	<rect x="15.75" y="26.75" width="5" height="1"></rect>
	<rect x="15.75" y="28.75" width="5" height="1"></rect>
	<polygon points="11.16,26.13 9.75,27.54 8.34,26.13 7.63,26.84 9.04,28.25 7.63,29.66 8.34,30.37 9.75,28.96 11.16,30.37 
		11.87,29.66 10.46,28.25 11.87,26.84"></polygon>
</g>
</svg>
