<svg version="1.1" id="Layer_1" xmlns="http://www.w3.org/2000/svg" xmlns:xlink="http://www.w3.org/1999/xlink" x="0px" y="0px" viewBox="0 0 48 48" style="enable-background:new 0 0 48 48;" xml:space="preserve">
<g>
	<path d="M24,3C12.42,3,3,12.42,3,24s9.42,21,21,21s21-9.42,21-21S35.58,3,24,3z M24,43C13.523,43,5,34.476,5,24S13.523,5,24,5
		s19,8.523,19,19S34.477,43,24,43z"></path>
	<circle cx="24" cy="29" r="2"></circle>
	<path d="M24,26c1.105,0,2-0.895,2-2v-8c0-1.105-0.895-2-2-2s-2,0.895-2,2v8C22,25.105,22.895,26,24,26z"></path>
	<path d="M32.5,14.026V13.5c0-0.552-0.448-1-1-1h-1c-0.552,0-1,0.448-1,1c0,1.235,0.506,2.414,1.398,3.268
		c0.612,0.587,1.15,1.25,1.602,1.972C33.45,20.26,34,22.07,34,24s-0.55,3.74-1.5,5.26c-0.541,0.863-1.21,1.635-1.979,2.297
		C30.175,31.856,29.721,32,29.264,32H18.736c-0.457,0-0.911-0.144-1.257-0.443c-0.768-0.662-1.438-1.434-1.979-2.297
		C14.55,27.74,14,25.93,14,24s0.55-3.74,1.5-5.26c0.452-0.722,0.99-1.385,1.602-1.972c0.892-0.855,1.398-2.033,1.398-3.268
		c0-0.552-0.448-1-1-1h-1c-0.552,0-1,0.448-1,1v0.526c0,0.929-0.34,1.815-0.917,2.543C12.961,18.613,12,21.195,12,24
		c0,2.728,0.909,5.245,2.451,7.261c0.706,0.924,1.049,2.075,1.049,3.239c0,0.552,0.448,1,1,1h1c0.552,0,1-0.448,1-1V34H20v0.5
		c0,0.552,0.448,1,1,1s1-0.448,1-1V34h1v0.5c0,0.552,0.448,1,1,1s1-0.448,1-1V34h1v0.5c0,0.552,0.448,1,1,1s1-0.448,1-1V34h1.5v0.5
		c0,0.552,0.448,1,1,1h1c0.552,0,1-0.448,1-1c0-1.163,0.343-2.315,1.049-3.239C35.091,29.245,36,26.728,36,24
		c0-2.805-0.961-5.387-2.583-7.431C32.84,15.841,32.5,14.955,32.5,14.026z"></path>
</g>
</svg>
