<svg version="1.1" id="Layer_1" xmlns="http://www.w3.org/2000/svg" xmlns:xlink="http://www.w3.org/1999/xlink" x="0px" y="0px" viewBox="0 0 48 48" style="enable-background:new 0 0 48 48;" xml:space="preserve">
<g>
	<path d="M24,11c-5,0-9,4-9,9s4,9,9,9c5,0,9-4,9-9S29,11,24,11z M24,28c-4.4,0-8-3.6-8-8s3.6-8,8-8s8,3.6,8,8S28.4,28,24,28z"></path>
	<path d="M13.5,14.2l-0.9-0.5c-0.3,0.6-0.6,1.2-0.9,1.9l0.9,0.3C12.9,15.4,13.2,14.8,13.5,14.2z"></path>
	<path d="M19.9,8.7l-0.3-0.9c-0.6,0.2-1.3,0.5-1.9,0.9l0.5,0.9C18.7,9.2,19.3,8.9,19.9,8.7z"></path>
	<path d="M17.3,10l-0.6-0.8c-0.6,0.4-1.1,0.8-1.6,1.3l0.7,0.7C16.3,10.8,16.8,10.4,17.3,10z"></path>
	<path d="M15.2,11.9l-0.7-0.7c-0.5,0.5-0.9,1.1-1.3,1.6l0.8,0.6C14.3,12.9,14.7,12.4,15.2,11.9z"></path>
	<path d="M31.5,9.4c-0.6-0.4-1.2-0.8-1.8-1.1l-0.4,0.9c0.6,0.3,1.1,0.6,1.7,1L31.5,9.4z"></path>
	<path d="M28.7,7.9c-0.6-0.3-1.3-0.5-2-0.6l-0.2,1c0.6,0.1,1.2,0.3,1.8,0.5L28.7,7.9z"></path>
	<path d="M12.4,16.9l-1-0.3c-0.2,0.7-0.3,1.4-0.4,2l1,0.1C12.1,18.1,12.2,17.5,12.4,16.9z"></path>
	<path d="M35.7,17.1l1-0.2c-0.2-0.7-0.4-1.3-0.7-2l-0.9,0.4C35.3,15.9,35.5,16.5,35.7,17.1z"></path>
	<path d="M22.7,8.1l-0.1-1c-0.7,0.1-1.4,0.2-2,0.4l0.3,1C21.4,8.3,22.1,8.1,22.7,8.1z"></path>
	<path d="M24,8c0.5,0,1.1,0,1.6,0.1l0.1-1C25,7,24.3,7,23.6,7l0,1L24,8z"></path>
	<path d="M16.3,30.5c0.6,0.4,1.2,0.8,1.8,1.1l0.5-0.9c-0.6-0.3-1.1-0.6-1.6-1L16.3,30.5z"></path>
	<path d="M32.3,10l-0.6,0.8c0.5,0.4,1,0.9,1.4,1.3l0.8-0.7C33.3,10.9,32.8,10.4,32.3,10z"></path>
	<path d="M19,32c0.6,0.3,1.3,0.5,2,0.6l0.2-1c-0.6-0.1-1.2-0.3-1.8-0.6L19,32z"></path>
	<path d="M22,32.8c0.7,0.1,1.3,0.2,2,0.2v-1c-0.6,0-1.2,0-1.9-0.1L22,32.8z"></path>
	<path d="M35.5,14c-0.3-0.6-0.7-1.2-1.1-1.8l-0.8,0.6c0.4,0.5,0.7,1.1,1,1.6L35.5,14z"></path>
	<path d="M12,20l0-0.3l-1,0l0,0.3c0,0.6,0,1.2,0.1,1.8l1-0.1C12,21.1,12,20.5,12,20z"></path>
	<path d="M14.8,27.7L14,28.3c0.4,0.5,0.9,1,1.5,1.5l0.7-0.8C15.7,28.7,15.2,28.2,14.8,27.7z"></path>
	<path d="M12.3,22.6l-1,0.2c0.1,0.7,0.4,1.3,0.6,2l0.9-0.4C12.6,23.8,12.4,23.2,12.3,22.6z"></path>
	<path d="M13.2,25.3l-0.9,0.4c0.3,0.6,0.7,1.2,1.1,1.8l0.8-0.6C13.8,26.4,13.5,25.9,13.2,25.3z"></path>
	<path d="M36.5,23.5c0.2,0,0.4-0.1,0.4-0.3l1.5-3c0.1-0.2,0.1-0.3,0-0.5c-0.1-0.1-0.3-0.2-0.4-0.2h-1c0-0.5-0.1-1.1-0.1-1.6l-1,0.2
		c0.1,0.5,0.1,0.9,0.1,1.4h-1c-0.2,0-0.3,0.1-0.4,0.2c-0.1,0.1-0.1,0.3,0,0.5l1.5,3C36.1,23.4,36.3,23.5,36.5,23.5z M37.2,20.5
		l-0.7,1.4l-0.7-1.4H37.2z"></path>
	<rect x="15" y="42" width="2" height="2"></rect>
	<rect x="7" y="42" width="2" height="2"></rect>
	<rect x="11" y="42" width="2" height="2"></rect>
	<rect x="19" y="42" width="2" height="2"></rect>
	<path d="M46,36h-5.7l-2.6-2.7c-0.3-0.3-0.7-0.4-1.1-0.2C36.2,33.2,36,33.6,36,34v2h-3.8C38,33,42,27,42,20c0-9.9-8.1-18-18-18
		C14.1,2,6,10.1,6,20c0,7,4,13,9.8,16H2v2h22h12.9H37c0.6,0,1-0.4,1-1v-0.5l3.6,3.7L38,43.6V43c0-0.6-0.4-1-1-1H23v2h13v2
		c0,0.4,0.2,0.8,0.6,0.9C36.7,47,36.9,47,37,47c0.3,0,0.5-0.1,0.7-0.3l6-5.8c0.2-0.2,0.3-0.4,0.3-0.7c0-0.3-0.1-0.5-0.3-0.7L42.3,38
		H46V36z M8,20c0-8.8,7.2-16,16-16s16,7.2,16,16s-7.2,16-16,16S8,28.8,8,20z"></path>
</g>
</svg>
