<svg xml:space="preserve" style="enable-background:new 0 0 48 48;" viewBox="0 0 48 48" y="0px" x="0px" xmlns:xlink="http://www.w3.org/1999/xlink" xmlns="http://www.w3.org/2000/svg" id="Layer_1" version="1.1">
<g>
	<path d="M45.701,20.29c-7.101-2.57-11.217-2.772-16.357-2.788l-0.643-5.845C28.492,9.853,26.974,8.5,25.17,8.5H11
		c-0.829,0-1.5,0.672-1.5,1.5v2c0,0.398,0.158,0.779,0.439,1.061l0.482,0.483l-0.558,4.532c-1.596,0.227-3.072,0.961-4.234,2.125
		l-2.93,2.93c-1.398,1.398-2.2,3.33-2.2,5.301c0,0.723,0.515,1.343,1.226,1.475l0.784,0.146C2.503,30.2,2.5,30.35,2.5,30.5
		C2.5,36.29,7.21,41,13,41c3.68,0,7.039-1.945,8.917-4.962C22.19,36.323,22.575,36.5,23,36.5h3c0.829,0,1.5-0.672,1.5-1.5v-0.5
		h1.753c0.893,3.457,4.061,6,7.747,6c4.196,0,7.647-3.247,7.975-7.36c0.249-0.212,0.428-0.506,0.496-0.846l1.2-6l0.64-3.156
		C47.542,21.899,46.864,20.711,45.701,20.29z M37,25.5c-3.86,0-7,3.14-7,7h-1v-1.864c0-0.935,0.364-1.814,1.025-2.475l2.636-2.636
		c0.661-0.661,1.54-1.025,2.475-1.025h1.901v-1h-1.901c-1.202,0-2.332,0.468-3.182,1.318l-2.636,2.636
		C28.468,28.304,28,29.434,28,30.636V32.5h-1.5V25c0-0.276-0.224-0.5-0.5-0.5h-1.5V13c0-0.276-0.224-0.5-0.5-0.5h-8.984
		c-0.252,0-0.465,0.188-0.496,0.438L13.762,19h-2.008l0.742-5.938c0.02-0.153-0.033-0.306-0.143-0.416L11.5,11.793V10.5h13.664
		c0.792,0,1.454,0.593,1.542,1.38l0.797,7.175C27.531,19.308,27.745,19.5,28,19.5c5.802,0,9.635,0,17.018,2.671
		c0.152,0.055,0.258,0.182,0.304,0.329H42.5c-0.552,0-1,0.449-1,1c0,1.654,1.346,3,3,3h0.09l-0.837,4.186
		C42.951,27.704,40.231,25.5,37,25.5z M37,38.5c-3.309,0-6-2.691-6-6s2.691-6,6-6s6,2.691,6,6S40.309,38.5,37,38.5z M23.5,33.5h2v1
		h-2V33.5z M22.284,32.5c0.139-0.646,0.216-1.313,0.216-2c0-5.238-4.262-9.5-9.5-9.5c-4.464,0-8.208,3.099-9.221,7.255l-1.264-0.238
		c0.096-1.314,0.655-2.536,1.596-3.477l2.929-2.929C8.079,20.572,9.46,20,10.929,20h4.143c1.469,0,2.85,0.572,3.886,1.608
		l3.686,3.743C22.738,25.446,22.866,25.5,23,25.5h2.5v1H23v1h2.5v1H23v1h2.5v1H23v1h2.5v1H22.284z M13,39
		c-4.687,0-8.5-3.813-8.5-8.5S8.313,22,13,22s8.5,3.813,8.5,8.5S17.687,39,13,39z M23.5,24.5h-0.291l-3.542-3.596
		C18.439,19.676,16.808,19,15.071,19H14.77l0.688-5.5H23.5V24.5z M44.5,25.5c-1.103,0-2-0.897-2-2h2.69l-0.4,2H44.5z"></path>
	<path d="M37,29.5c-1.654,0-3,1.346-3,3s1.346,3,3,3s3-1.346,3-3S38.654,29.5,37,29.5z M37,34.5c-1.103,0-2-0.897-2-2s0.897-2,2-2
		s2,0.897,2,2S38.103,34.5,37,34.5z"></path>
	<path d="M13,25c-3.033,0-5.5,2.467-5.5,5.5S9.967,36,13,36s5.5-2.467,5.5-5.5S16.033,25,13,25z M13,35c-2.481,0-4.5-2.019-4.5-4.5
		S10.519,26,13,26s4.5,2.019,4.5,4.5S15.481,35,13,35z"></path>
</g>
</svg>
