<svg version="1.1" id="Layer_1" xmlns="http://www.w3.org/2000/svg" xmlns:xlink="http://www.w3.org/1999/xlink" x="0px" y="0px" viewBox="0 0 48 48" style="enable-background:new 0 0 48 48;" xml:space="preserve">
<g>
	<path d="M22,26.493V22h8c0.553,0,1-0.447,1-1v-5.493c1.05-0.404,1.8-1.416,1.8-2.607c0-1.544-1.256-2.801-2.8-2.801
		s-2.8,1.257-2.8,2.801c0,1.191,0.75,2.203,1.8,2.607V20h-7v-4.493c1.05-0.404,1.8-1.416,1.8-2.607c0-1.544-1.256-2.801-2.8-2.801
		s-2.8,1.257-2.8,2.801c0,1.191,0.75,2.203,1.8,2.607V20h-7v-4.493c1.05-0.404,1.8-1.416,1.8-2.607c0-1.544-1.256-2.801-2.8-2.801
		S9.2,11.356,9.2,12.9c0,1.191,0.75,2.203,1.8,2.607v10.985c-1.05,0.404-1.8,1.416-1.8,2.607c0,1.544,1.256,2.801,2.8,2.801
		s2.8-1.257,2.8-2.801c0-1.191-0.75-2.203-1.8-2.607V22h7v4.493c-1.05,0.404-1.8,1.416-1.8,2.607c0,1.544,1.256,2.801,2.8,2.801
		s2.8-1.257,2.8-2.801C23.8,27.909,23.05,26.897,22,26.493z M30,12.1c0.441,0,0.8,0.359,0.8,0.801s-0.358,0.8-0.8,0.8
		s-0.8-0.358-0.8-0.8S29.559,12.1,30,12.1z M21,12.1c0.441,0,0.8,0.359,0.8,0.801s-0.358,0.8-0.8,0.8s-0.8-0.358-0.8-0.8
		S20.559,12.1,21,12.1z M12,12.1c0.441,0,0.8,0.359,0.8,0.801s-0.358,0.8-0.8,0.8s-0.8-0.358-0.8-0.8S11.559,12.1,12,12.1z M12,29.9
		c-0.441,0-0.8-0.359-0.8-0.801s0.358-0.8,0.8-0.8s0.8,0.358,0.8,0.8S12.441,29.9,12,29.9z M21,29.9c-0.441,0-0.8-0.359-0.8-0.801
		s0.358-0.8,0.8-0.8s0.8,0.358,0.8,0.8S21.441,29.9,21,29.9z"></path>
	<path d="M35.704,29.459c-0.391-0.387-1.018-0.387-1.408,0l-2.941,2.915c-0.977,0.968-1.514,2.256-1.514,3.626
		s0.537,2.658,1.514,3.627c1.006,0.995,2.325,1.492,3.646,1.492s2.641-0.497,3.646-1.493c0.977-0.968,1.514-2.256,1.514-3.626
		s-0.537-2.658-1.514-3.626L35.704,29.459z M37.237,38.205c-1.232,1.223-3.242,1.222-4.475,0.001
		c-0.595-0.59-0.922-1.373-0.922-2.206s0.327-1.616,0.922-2.206L35,31.577l2.237,2.217c0.595,0.59,0.922,1.373,0.922,2.206
		S37.832,37.616,37.237,38.205z"></path>
	<polygon points="34.648,33.439 36.454,35.23 37.157,34.519 35.352,32.729"></polygon>
	<path d="M39.563,25.01C39.844,23.717,40,22.377,40,21c0-10.477-8.523-19-19-19S2,10.523,2,21s8.523,19,19,19
		c1.377,0,2.717-0.156,4.01-0.437C26.747,43.354,30.564,46,35,46c6.065,0,11-4.935,11-11C46,30.564,43.354,26.747,39.563,25.01z
		 M21,38c-9.374,0-17-7.626-17-17S11.626,4,21,4s17,7.626,17,17c0,1.491-0.21,2.931-0.574,4.309C36.648,25.114,35.838,25,35,25
		c-5.523,0-10,4.477-10,10c0,0.838,0.115,1.648,0.309,2.426C23.931,37.789,22.491,38,21,38z M35,44c-4.963,0-9-4.037-9-9
		c0-4.963,4.037-9,9-9s9,4.037,9,9C44,39.963,39.963,44,35,44z"></path>
</g>
</svg>
