<svg version="1.1" id="Layer_1" xmlns="http://www.w3.org/2000/svg" xmlns:xlink="http://www.w3.org/1999/xlink" x="0px" y="0px" viewBox="0 0 48 48" xml:space="preserve">
<g>
	<path d="M32,11.5c-3.08,0-5.5,5.49-5.5,12.5c0,7.01,2.42,12.5,5.5,12.5s5.5-5.49,5.5-12.5C37.5,16.99,35.08,11.5,32,11.5z M32,35.5
		c-2.17,0-4.5-4.62-4.5-11.5s2.33-11.5,4.5-11.5s4.5,4.62,4.5,11.5S34.17,35.5,32,35.5z"></path>
	<path d="M32,3H22c-4.64,0-8.58,4.41-10.58,11H6H4v2h1.05c0.24,4,1.89,6.3,3.86,8c-1.97,1.7-3.62,4-3.86,8H4v2h2h5.42
		c2,6.59,5.93,11,10.58,11h10c6.73,0,12-9.22,12-21C44,12.22,38.73,3,32,3z M41.75,28.06C40.74,36.49,36.69,43,32,43
		c-5.42,0-10-8.7-10-19S26.58,5,32,5c4.69,0,8.74,6.51,9.75,14.94c0.08,0.71,0.15,1.42,0.2,2.15C41.98,22.72,42,23.36,42,24
		s-0.02,1.28-0.05,1.91C41.91,26.64,41.84,27.36,41.75,28.06z M11.1,24.8c0.25-0.19,0.4-0.48,0.4-0.8s-0.15-0.61-0.4-0.8
		c-2.33-1.76-3.84-3.63-4.07-7.2h9.94c-0.23,3.58-1.75,5.44-4.07,7.2c-0.25,0.19-0.4,0.48-0.4,0.8s0.15,0.61,0.4,0.8
		c2.33,1.76,3.84,3.63,4.07,7.2H7.03C7.26,28.42,8.78,26.56,11.1,24.8z M13.55,34H18h2v-2h-1.05c-0.24-4-1.89-6.3-3.86-8
		c1.97-1.7,3.62-4,3.86-8H20v-2h-2h-4.45c1.79-5.36,4.94-9,8.45-9h6.57C24.18,7.62,21,15.12,21,24s3.18,16.38,7.57,19H22
		C18.49,43,15.34,39.36,13.55,34z"></path>
	<path d="M15.72,30.38c-0.24-1-0.63-1.87-1.21-2.65c-0.57-0.77-1.51-1.23-2.51-1.23s-1.95,0.46-2.51,1.23
		c-0.57,0.78-0.97,1.65-1.21,2.65c-0.04,0.15,0,0.31,0.09,0.43C8.47,30.93,8.61,31,8.77,31h6.47c0.15,0,0.3-0.07,0.39-0.19
		C15.72,30.69,15.76,30.53,15.72,30.38z M9.43,30c0.21-0.62,0.49-1.17,0.86-1.67c0.38-0.52,1.02-0.83,1.71-0.83s1.33,0.31,1.71,0.83
		c0.37,0.51,0.66,1.06,0.86,1.67H9.43z"></path>
	<path d="M11.95,22.5c0.11,0,0.21-0.03,0.3-0.1l0.29-0.22c1.15-0.87,1.93-1.65,2.52-2.52c0.13-0.19,0.11-0.44-0.04-0.61
		c-0.15-0.17-0.39-0.22-0.59-0.13c-1.63,0.78-3.26,0.78-4.98,0c-0.2-0.09-0.44-0.04-0.59,0.13s-0.16,0.42-0.03,0.6
		c0.59,0.87,1.37,1.65,2.52,2.52c0,0,0,0,0,0l0.29,0.22C11.74,22.47,11.84,22.5,11.95,22.5z M10.77,20.38
		c0.79,0.15,1.57,0.15,2.34,0.01c-0.33,0.32-0.72,0.64-1.16,0.98C11.5,21.03,11.11,20.7,10.77,20.38z"></path>
</g>
</svg>
