<svg version="1.1" id="Layer_1" xmlns="http://www.w3.org/2000/svg" xmlns:xlink="http://www.w3.org/1999/xlink" x="0px" y="0px" viewBox="0 0 48 48" xml:space="preserve">
<g>
	<path d="M33,11.5c-3.08,0-5.5,5.49-5.5,12.5c0,7.01,2.42,12.5,5.5,12.5s5.5-5.49,5.5-12.5C38.5,16.99,36.08,11.5,33,11.5z M33,35.5
		c-2.17,0-4.5-4.62-4.5-11.5s2.33-11.5,4.5-11.5s4.5,4.62,4.5,11.5S35.17,35.5,33,35.5z"></path>
	<path d="M33,3H23c-4.42,0-8.2,4-10.28,10.07c-0.19,0.05-0.37,0.13-0.5,0.29c-2.09,2.55-5.09,4.04-8.24,4.08
		C3.44,17.45,3,17.9,3,18.44v2.64c0,6.53,4,12.24,9.72,13.87C14.8,41.02,18.58,45,23,45h10c6.73,0,12-9.22,12-21
		C45,12.22,39.73,3,33,3z M42.75,28.06C41.74,36.49,37.69,43,33,43c-5.42,0-10-8.7-10-19S27.58,5,33,5c4.69,0,8.74,6.51,9.75,14.94
		c0.08,0.71,0.15,1.42,0.2,2.15C42.98,22.72,43,23.36,43,24s-0.02,1.28-0.05,1.91C42.91,26.64,42.84,27.36,42.75,28.06z M23,5h6.57
		c-3.3,1.96-5.9,6.67-7,12.65c-0.16-0.12-0.35-0.2-0.56-0.2c-2.8-0.03-5.48-1.22-7.51-3.28C16.28,8.72,19.46,5,23,5z M5,21.09v-1.7
		c3-0.28,5.83-1.66,8-3.89c2.17,2.23,5,3.61,8,3.89v1.7c0,5.54-3.28,10.37-8,11.87C8.28,31.46,5,26.63,5,21.09z M14.71,34.44
		c3.41-1.46,6.06-4.42,7.37-8.08c0.5,7.83,3.49,14.26,7.49,16.65H23C19.59,43,16.53,39.55,14.71,34.44z"></path>
	<path d="M16.29,21.29L12,25.59l-2.29-2.29l-1.41,1.41l3,3C11.49,27.9,11.74,28,12,28s0.51-0.1,0.71-0.29l5-5L16.29,21.29z"></path>
</g>
</svg>
