<svg version="1.1" id="Layer_1" xmlns="http://www.w3.org/2000/svg" xmlns:xlink="http://www.w3.org/1999/xlink" x="0px" y="0px" viewBox="0 0 48 48" style="enable-background:new 0 0 48 48;" xml:space="preserve">
<g>
	<path d="M24.001,11.5c4.242,0,8.75-1.227,8.75-3.5s-4.508-3.5-8.75-3.5s-8.75,1.227-8.75,3.5S19.759,11.5,24.001,11.5z M24.001,5.5
		c4.436,0,7.75,1.32,7.75,2.5s-3.314,2.5-7.75,2.5s-7.75-1.32-7.75-2.5S19.565,5.5,24.001,5.5z"></path>
	<path d="M35.131,18.628c0,0-0.001,0.001-0.001,0.001C35.678,17.932,36,17.142,36,16.25c0-0.8-0.28-1.94-1.5-3.04v-2.17
		C35.72,9.94,36,8.8,36,8c0-3.94-6.04-6-12-6S12,4.06,12,8c0,0.8,0.28,1.94,1.5,3.04v2.17c-1.22,1.1-1.5,2.24-1.5,3.04
		c0,0.892,0.322,1.682,0.87,2.379c0,0,0-0.001-0.001-0.001c-4.059,1.808-6.781,4.664-7.446,8.185
		c-0.562,2.96-0.561,5.947-0.004,8.852C6.422,41.75,14.062,46,24,46s17.578-4.25,18.577-10.31c0.561-2.931,0.562-5.917,0-8.877
		C41.912,23.293,39.19,20.436,35.131,18.628z M14.04,7.71C14.41,5.87,18.32,4,24,4s9.59,1.87,9.97,3.71C33.99,7.81,34,7.9,34,8
		c0,0.33-0.12,0.66-0.34,0.98c-0.05,0.08-0.1,0.15-0.16,0.22c-0.25,0.29-0.58,0.58-1,0.85C30.82,11.16,27.8,12,24,12
		s-6.82-0.84-8.5-1.95c-0.42-0.27-0.75-0.56-1-0.85c-0.06-0.07-0.11-0.14-0.15-0.22C14.12,8.66,14,8.33,14,8
		C14,7.9,14.01,7.81,14.04,7.71z M32.5,11.21v4.29c0,1.54-3.49,3.25-8.5,3.25s-8.5-1.71-8.5-3.25v-4.29c2,1.1,5.04,1.79,8.5,1.79
		S30.5,12.31,32.5,11.21z M14.5,15.05v0.45c0,2.38,4.17,4.25,9.5,4.25s9.5-1.87,9.5-4.25v-0.45c0.29,0.34,0.5,0.75,0.5,1.2
		c0,1.93-4.02,4-10,4s-10-2.07-10-4C14,15.8,14.21,15.39,14.5,15.05z M32.5,26c0,1.69-3.415,3.5-8.5,3.5s-8.5-1.81-8.5-3.5
		s3.415-3.5,8.5-3.5S32.5,24.31,32.5,26z M10.278,22.524c0.124-0.106,0.243-0.215,0.374-0.317c0.031-0.025,0.063-0.05,0.095-0.075
		c1.062-0.809,2.35-1.494,3.806-2.05c0,0-0.001-0.001-0.001-0.001c1.421,0.879,3.317,1.496,5.399,1.841
		c-3.245,0.708-5.45,2.248-5.45,4.08c0,2.523,4.173,4.5,9.5,4.5s9.5-1.977,9.5-4.5c0-1.832-2.206-3.372-5.45-4.08
		c2.081-0.344,3.976-0.961,5.397-1.839c1.458,0.557,2.746,1.242,3.808,2.051c0.03,0.024,0.061,0.048,0.091,0.072
		c0.132,0.103,0.252,0.213,0.377,0.32c1.13,1.04,1.777,2.221,1.777,3.476c0,4.136-6.953,7.5-15.5,7.5S8.5,30.136,8.5,26
		C8.5,24.745,9.148,23.564,10.278,22.524z M40.608,35.339C39.78,40.357,32.796,44,24,44S8.22,40.357,7.388,35.314
		c-0.514-2.683-0.514-5.417,0-8.13c0.041-0.214,0.105-0.421,0.165-0.629C8.093,31.051,15.112,34.5,24,34.5
		s15.907-3.448,16.447-7.945c0.06,0.208,0.125,0.415,0.165,0.63C41.126,29.896,41.126,32.631,40.608,35.339z"></path>
	<path d="M43.426,15.737C43.334,15.59,43.173,15.5,43,15.5h-1V14h-1v1.5h-1c-0.173,0-0.334,0.09-0.426,0.237
		c-0.091,0.147-0.099,0.332-0.021,0.486l1.5,3c0.085,0.169,0.258,0.276,0.447,0.276s0.362-0.107,0.447-0.276l1.5-3
		C43.524,16.069,43.517,15.885,43.426,15.737z M41.5,17.882L40.809,16.5h1.383L41.5,17.882z"></path>
	<rect x="41" y="8" width="1" height="2"></rect>
	<rect x="41" y="11" width="1" height="2"></rect>
	<path d="M6.5,19.5c0.189,0,0.362-0.107,0.447-0.276l1.5-3c0.077-0.155,0.069-0.339-0.021-0.486C8.334,15.59,8.173,15.5,8,15.5H7V14
		H6v1.5H5c-0.173,0-0.334,0.09-0.426,0.237c-0.091,0.147-0.099,0.332-0.021,0.486l1.5,3C6.138,19.393,6.311,19.5,6.5,19.5z
		 M7.191,16.5L6.5,17.882L5.809,16.5H7.191z"></path>
	<rect x="6" y="11" width="1" height="2"></rect>
	<rect x="6" y="8" width="1" height="2"></rect>
</g>
</svg>
