<svg version="1.1" id="Layer_1" xmlns="http://www.w3.org/2000/svg" xmlns:xlink="http://www.w3.org/1999/xlink" x="0px" y="0px" viewBox="0 0 48 48" style="enable-background:new 0 0 48 48;" xml:space="preserve">
<g>
	<path d="M34,12c-0.026,0-0.051,0.003-0.077,0.004c-2.047-5.194-5.487-8.699-9.789-9.514c-3.425-0.651-6.88-0.651-10.244-0.004
		C6.89,3.643,2,12.489,2,24s4.89,20.357,11.864,21.51c1.695,0.325,3.407,0.488,5.123,0.488c1.715,0,3.435-0.163,5.146-0.488
		c4.302-0.815,7.742-4.319,9.789-9.514C33.949,35.997,33.974,36,34,36c6.617,0,12-5.383,12-12S40.617,12,34,12z M43.949,25.003
		c-0.012,0.117-0.035,0.231-0.051,0.347c-0.028,0.21-0.054,0.42-0.096,0.626c-0.028,0.143-0.069,0.281-0.104,0.422
		c-0.042,0.172-0.081,0.347-0.133,0.515c-0.047,0.156-0.107,0.307-0.162,0.461c-0.052,0.146-0.101,0.293-0.16,0.436
		c-0.069,0.167-0.148,0.327-0.226,0.489c-0.058,0.121-0.112,0.243-0.174,0.361c-0.091,0.173-0.193,0.339-0.294,0.506
		c-0.06,0.099-0.117,0.2-0.18,0.296c-0.116,0.176-0.24,0.346-0.366,0.514c-0.059,0.078-0.115,0.158-0.175,0.234
		c-0.142,0.178-0.292,0.348-0.444,0.516c-0.053,0.058-0.104,0.118-0.159,0.175c-0.168,0.176-0.344,0.344-0.525,0.507
		c-0.046,0.041-0.09,0.083-0.136,0.124c-0.195,0.17-0.398,0.331-0.606,0.486c-0.036,0.027-0.072,0.055-0.109,0.081
		c-0.221,0.16-0.45,0.31-0.684,0.452c-0.027,0.016-0.054,0.033-0.081,0.049c-0.246,0.145-0.499,0.281-0.758,0.405
		c-0.018,0.008-0.035,0.017-0.053,0.025c-0.269,0.127-0.544,0.243-0.826,0.346c-0.009,0.003-0.018,0.007-0.027,0.01
		c-0.289,0.105-0.583,0.197-0.884,0.276c-0.003,0.001-0.007,0.002-0.011,0.003c-0.305,0.079-0.615,0.145-0.93,0.195
		c-0.001,0-0.001,0-0.002,0c-0.317,0.051-0.639,0.087-0.966,0.107C34.42,33.981,34.212,34,34,34c-0.274,0-0.544-0.019-0.812-0.041
		c-0.233-0.022-0.465-0.05-0.694-0.085v0c-1.459-0.221-2.817-0.749-3.998-1.53c-0.279-0.185-0.549-0.381-0.808-0.592c0,0,0,0,0,0
		C25.438,29.919,24,27.128,24,24s1.438-5.919,3.688-7.753c0,0,0,0,0,0c0.259-0.211,0.528-0.408,0.808-0.592
		c1.181-0.78,2.539-1.309,3.998-1.53v0c0.229-0.035,0.461-0.063,0.694-0.085C33.456,14.019,33.726,14,34,14
		c0.212,0,0.42,0.019,0.629,0.032c0.327,0.02,0.648,0.056,0.966,0.107c0,0,0.001,0,0.002,0c0.315,0.051,0.625,0.116,0.93,0.195
		c0.004,0.001,0.008,0.002,0.011,0.003c0.301,0.079,0.595,0.171,0.884,0.276c0.009,0.003,0.018,0.007,0.027,0.01
		c0.281,0.103,0.557,0.219,0.826,0.346c0.018,0.008,0.035,0.017,0.053,0.025c0.259,0.124,0.512,0.26,0.758,0.405
		c0.027,0.016,0.054,0.033,0.081,0.049c0.234,0.141,0.463,0.292,0.684,0.452c0.037,0.027,0.073,0.054,0.109,0.081
		c0.208,0.154,0.411,0.316,0.606,0.486c0.046,0.04,0.09,0.083,0.136,0.124c0.181,0.163,0.356,0.331,0.525,0.507
		c0.055,0.057,0.106,0.117,0.159,0.175c0.153,0.167,0.303,0.338,0.444,0.516c0.061,0.076,0.117,0.156,0.175,0.234
		c0.126,0.168,0.25,0.338,0.366,0.514c0.063,0.096,0.12,0.197,0.18,0.296c0.101,0.167,0.203,0.333,0.294,0.506
		c0.062,0.118,0.116,0.241,0.174,0.361c0.077,0.162,0.157,0.323,0.226,0.489c0.059,0.142,0.107,0.29,0.16,0.436
		c0.055,0.153,0.114,0.304,0.162,0.461c0.052,0.169,0.09,0.343,0.133,0.515c0.035,0.141,0.076,0.279,0.104,0.422
		c0.042,0.205,0.067,0.416,0.096,0.626c0.016,0.116,0.039,0.23,0.051,0.347C43.982,23.327,44,23.661,44,24
		S43.982,24.673,43.949,25.003z M27.166,32.604C26.528,33.5,25.811,34,25.109,34c-2.007,0-4.155-4.019-4.155-10s2.148-10,4.155-10
		c0.702,0,1.418,0.5,2.056,1.396C24.632,17.413,23,20.517,23,24S24.632,30.587,27.166,32.604z M23.761,43.545
		c-3.175,0.604-6.378,0.603-9.545-0.004C8.296,42.563,4,34.345,4,24S8.296,5.438,14.241,4.455c1.57-0.302,3.156-0.453,4.746-0.453
		c1.591,0,3.186,0.151,4.773,0.453c0.456,0.086,0.896,0.221,1.329,0.38C19.598,4.856,15.3,13.265,15.3,24s4.298,19.144,9.79,19.165
		C24.657,43.324,24.216,43.459,23.761,43.545z M25.109,42.167c-4.857,0-8.81-8.149-8.81-18.167s3.952-18.167,8.81-18.167
		c2.889,0,5.452,2.889,7.058,7.332c-1.53,0.258-2.955,0.826-4.202,1.648C27.152,13.671,26.176,13,25.109,13
		c-2.891,0-5.155,4.832-5.155,11s2.265,11,5.155,11c1.067,0,2.043-0.671,2.856-1.813c1.248,0.822,2.672,1.39,4.202,1.648
		C30.561,39.278,27.998,42.167,25.109,42.167z"></path>
	<path d="M39,22.5c0.827,0,1.5-0.673,1.5-1.5s-0.673-1.5-1.5-1.5s-1.5,0.673-1.5,1.5S38.173,22.5,39,22.5z M39,20.5
		c0.275,0,0.5,0.225,0.5,0.5s-0.225,0.5-0.5,0.5s-0.5-0.225-0.5-0.5S38.725,20.5,39,20.5z"></path>
	<path d="M40,25.5c-0.827,0-1.5,0.673-1.5,1.5c0-0.827-0.673-1.5-1.5-1.5s-1.5,0.673-1.5,1.5c0-0.827-0.673-1.5-1.5-1.5
		s-1.5,0.673-1.5,1.5c0-0.827-0.673-1.5-1.5-1.5s-1.5,0.673-1.5,1.5c0-0.827-0.673-1.5-1.5-1.5s-1.5,0.673-1.5,1.5
		s0.673,1.5,1.5,1.5c0.033,0,0.063-0.008,0.095-0.01C28.037,28.65,28,28.82,28,29c0,0.827,0.673,1.5,1.5,1.5
		c0.033,0,0.063-0.008,0.095-0.01C29.537,30.65,29.5,30.82,29.5,31c0,0.827,0.673,1.5,1.5,1.5s1.5-0.673,1.5-1.5
		c0,0.827,0.673,1.5,1.5,1.5s1.5-0.673,1.5-1.5c0,0.827,0.673,1.5,1.5,1.5s1.5-0.673,1.5-1.5c0-0.18-0.037-0.35-0.095-0.51
		c0.032,0.002,0.062,0.01,0.095,0.01c0.827,0,1.5-0.673,1.5-1.5c0-0.18-0.037-0.35-0.095-0.51c0.032,0.002,0.062,0.01,0.095,0.01
		c0.827,0,1.5-0.673,1.5-1.5S40.827,25.5,40,25.5z M28,27.5c-0.275,0-0.5-0.225-0.5-0.5s0.225-0.5,0.5-0.5s0.5,0.225,0.5,0.5
		S28.275,27.5,28,27.5z M29.5,29.5c-0.275,0-0.5-0.225-0.5-0.5s0.225-0.5,0.5-0.5S30,28.725,30,29S29.775,29.5,29.5,29.5z M31,31.5
		c-0.275,0-0.5-0.225-0.5-0.5s0.225-0.5,0.5-0.5s0.5,0.225,0.5,0.5S31.275,31.5,31,31.5z M31,27.5c-0.275,0-0.5-0.225-0.5-0.5
		s0.225-0.5,0.5-0.5s0.5,0.225,0.5,0.5S31.275,27.5,31,27.5z M32.5,29.5c-0.275,0-0.5-0.225-0.5-0.5s0.225-0.5,0.5-0.5
		S33,28.725,33,29S32.775,29.5,32.5,29.5z M34,31.5c-0.275,0-0.5-0.225-0.5-0.5s0.225-0.5,0.5-0.5s0.5,0.225,0.5,0.5
		S34.275,31.5,34,31.5z M34,27.5c-0.275,0-0.5-0.225-0.5-0.5s0.225-0.5,0.5-0.5s0.5,0.225,0.5,0.5S34.275,27.5,34,27.5z M35.5,29.5
		c-0.275,0-0.5-0.225-0.5-0.5s0.225-0.5,0.5-0.5S36,28.725,36,29S35.775,29.5,35.5,29.5z M37,31.5c-0.275,0-0.5-0.225-0.5-0.5
		s0.225-0.5,0.5-0.5s0.5,0.225,0.5,0.5S37.275,31.5,37,31.5z M37,27.5c-0.275,0-0.5-0.225-0.5-0.5s0.225-0.5,0.5-0.5
		s0.5,0.225,0.5,0.5S37.275,27.5,37,27.5z M38.5,29.5c-0.275,0-0.5-0.225-0.5-0.5s0.225-0.5,0.5-0.5S39,28.725,39,29
		S38.775,29.5,38.5,29.5z M40,27.5c-0.275,0-0.5-0.225-0.5-0.5s0.225-0.5,0.5-0.5s0.5,0.225,0.5,0.5S40.275,27.5,40,27.5z"></path>
	<path d="M29,21.5c0.827,0,1.5-0.673,1.5-1.5s-0.673-1.5-1.5-1.5s-1.5,0.673-1.5,1.5S28.173,21.5,29,21.5z M29,19.5
		c0.275,0,0.5,0.225,0.5,0.5s-0.225,0.5-0.5,0.5s-0.5-0.225-0.5-0.5S28.725,19.5,29,19.5z"></path>
	<path d="M36,24.5c0.827,0,1.5-0.673,1.5-1.5s-0.673-1.5-1.5-1.5s-1.5,0.673-1.5,1.5S35.173,24.5,36,24.5z M36,22.5
		c0.275,0,0.5,0.225,0.5,0.5s-0.225,0.5-0.5,0.5s-0.5-0.225-0.5-0.5S35.725,22.5,36,22.5z"></path>
</g>
</svg>
