<svg version="1.1" id="Layer_1" xmlns="http://www.w3.org/2000/svg" xmlns:xlink="http://www.w3.org/1999/xlink" x="0px" y="0px" viewBox="0 0 48 48" style="enable-background:new 0 0 48 48;" xml:space="preserve">
<g>
	<path d="M39.065,14.5c-0.788,0-1.901,0.265-2.988,1.429h-2.155c-1.087-1.164-2.2-1.429-2.988-1.429
		c-0.236,0-0.468,0.03-0.695,0.077c-0.576-1.238-1.252-2.346-2.017-3.302c0.475-0.295,0.886-0.611,1.222-0.948
		c1.41-1.418,1.41-3.111,0-4.53l-0.709,0.705c1.029,1.035,1.029,2.085,0,3.12c-0.311,0.313-0.713,0.608-1.18,0.884
		c-1.519-1.621-3.331-2.699-5.367-3.083c-2.962-0.562-5.948-0.562-8.854-0.004C7.25,8.422,3,16.062,3,26s4.25,17.578,10.31,18.577
		c1.466,0.28,2.946,0.421,4.43,0.421c1.482,0,2.969-0.141,4.448-0.421c3.435-0.649,6.238-3.257,8.052-7.154
		c0.228,0.047,0.459,0.077,0.695,0.077c0.788,0,1.9-0.265,2.988-1.429h2.155c1.087,1.163,2.2,1.429,2.988,1.429
		C42.448,37.5,45,32.556,45,26S42.448,14.5,39.065,14.5z M23,41.5c-4.136,0-7.5-6.953-7.5-15.5c0-5.109,1.207-9.634,3.057-12.459
		c1.399-0.027,2.792-0.137,4.124-0.367c1.384-0.239,2.623-0.581,3.696-1c0.001,0.001,0.002,0.002,0.003,0.003
		c0.8,0.917,1.509,2.014,2.095,3.293c-0.954,0.798-1.759,2.06-2.355,3.657C25.316,17.501,24.227,16.5,23,16.5
		c-2.523,0-4.5,4.173-4.5,9.5s1.977,9.5,4.5,9.5c1.227,0,2.316-1.001,3.12-2.627c0.596,1.596,1.401,2.859,2.355,3.657
		c-0.586,1.279-1.295,2.376-2.096,3.293C25.364,40.892,24.216,41.5,23,41.5z M25.534,11.421c-0.901,0.314-1.918,0.576-3.023,0.767
		c-1.034,0.178-2.109,0.27-3.191,0.322C20.408,11.236,21.663,10.5,23,10.5C23.89,10.5,24.742,10.829,25.534,11.421z M25.664,31.444
		C24.98,33.368,23.971,34.5,23,34.5c-1.69,0-3.5-3.415-3.5-8.5s1.81-8.5,3.5-8.5c0.971,0,1.98,1.132,2.664,3.056
		C25.239,22.159,25,24.003,25,26S25.239,29.841,25.664,31.444z M27,26c0-5.683,2.034-9.5,3.935-9.5c0.419,0,0.797,0.179,1.123,0.429
		h-0.383c-2.353,0-4.195,3.984-4.195,9.071s1.843,9.071,4.195,9.071h0.384c-0.325,0.249-0.703,0.429-1.123,0.429
		C29.034,35.5,27,31.683,27,26z M35.878,17.929c-1.074,1.911-1.748,4.792-1.748,8.071s0.674,6.16,1.748,8.071h-4.205
		c-1.512,0-3.195-3.314-3.195-8.071s1.684-8.071,3.195-8.071H35.878z M39.065,35.5c-1.9,0-3.935-3.817-3.935-9.5
		s2.034-9.5,3.935-9.5S43,20.317,43,26S40.966,35.5,39.065,35.5z M21.815,42.612c-2.711,0.515-5.447,0.513-8.154-0.004
		C8.643,41.78,5,34.796,5,26s3.643-15.78,8.687-16.612c1.341-0.257,2.694-0.386,4.052-0.386c1.359,0,2.722,0.129,4.078,0.386
		c0.205,0.039,0.4,0.111,0.6,0.168c-1.647,0.208-3.15,1.283-4.396,3.007c-1.337,0.001-2.667-0.112-3.956-0.303l0.254-0.879
		c0.048-0.166,0.007-0.346-0.109-0.475s-0.292-0.184-0.462-0.156l-3.299,0.608c-0.187,0.035-0.337,0.172-0.39,0.354
		s0.002,0.378,0.142,0.506l2.466,2.273c0.094,0.087,0.215,0.133,0.339,0.133c0.045,0,0.09-0.006,0.135-0.019
		c0.167-0.047,0.298-0.176,0.346-0.343l0.298-1.031c1.173,0.18,2.382,0.28,3.601,0.306C15.61,16.541,14.5,20.968,14.5,26
		c0,8.868,3.433,15.877,7.916,16.444C22.215,42.501,22.021,42.573,21.815,42.612z M13.133,11.881l-0.384,1.327l-1.136-1.047
		L13.133,11.881z"></path>
	<path d="M7.271,9.623c-1.03-1.036-1.03-2.086,0-3.121c1.137-1.144,3.406-2.078,6.225-2.564c2.721-0.47,5.692-0.483,8.445-0.072
		l-0.254,0.878c-0.048,0.166-0.007,0.346,0.109,0.475c0.096,0.105,0.231,0.164,0.371,0.164c0.03,0,0.061-0.003,0.091-0.008
		l3.299-0.607c0.186-0.035,0.337-0.171,0.39-0.354C26,4.231,25.945,4.035,25.806,3.907l-2.465-2.274
		c-0.128-0.118-0.305-0.162-0.474-0.114c-0.166,0.046-0.297,0.176-0.346,0.343l-0.299,1.032c-2.894-0.445-6.028-0.436-8.896,0.058
		C10.263,3.48,7.861,4.49,6.562,5.797c-1.411,1.418-1.411,3.112,0,4.531L7.271,9.623z M23.258,2.916l1.135,1.048l-1.52,0.279
		L23.258,2.916z"></path>
	<path d="M39.065,17.643c-2.245,0-3.457,4.306-3.457,8.357s1.212,8.357,3.457,8.357s3.456-4.306,3.456-8.357
		S41.311,17.643,39.065,17.643z M39.065,33.357c-1.16,0-2.457-3.146-2.457-7.357s1.297-7.357,2.457-7.357
		c1.159,0,2.456,3.146,2.456,7.357S40.225,33.357,39.065,33.357z"></path>
</g>
</svg>
