<svg version="1.1" id="Layer_1" xmlns="http://www.w3.org/2000/svg" xmlns:xlink="http://www.w3.org/1999/xlink" x="0px" y="0px" viewBox="0 0 48 48" style="enable-background:new 0 0 48 48;" xml:space="preserve">
<g>
	<path d="M25.109,35c2.891,0,5.154-4.832,5.154-11S28,13,25.109,13s-5.155,4.832-5.155,11S22.219,35,25.109,35z M25.109,14
		c2.006,0,4.154,4.018,4.154,10s-2.148,10-4.154,10c-2.007,0-4.155-4.018-4.155-10S23.103,14,25.109,14z"></path>
	<path d="M46.5,14c0-3.584-2.916-6.5-6.5-6.5c-2.835,0-5.246,1.828-6.132,4.365c-2.053-5.118-5.47-8.567-9.734-9.374
		c-3.427-0.65-6.882-0.65-10.244-0.004C6.89,3.643,2,12.49,2,24s4.89,20.357,11.864,21.509c1.694,0.326,3.406,0.488,5.122,0.488
		c1.715,0,3.435-0.163,5.147-0.488c3.902-0.739,7.094-3.694,9.182-8.111c6.429-0.509,7.16-3.334,7.182-13.899H40.5
		c0.827,0,1.5-0.673,1.5-1.5v-1.818C44.608,19.336,46.5,16.886,46.5,14z M43.535,16.829l-0.707,0.707l0.688,0.688
		C42.562,19.02,41.336,19.5,40,19.5s-2.562-0.48-3.517-1.276l0.688-0.688l-0.707-0.707l-0.688,0.688
		c-0.695-0.834-1.147-1.876-1.251-3.017H35.5v-1h-0.975c0.104-1.142,0.556-2.183,1.251-3.017l0.688,0.688l0.707-0.707l-0.688-0.688
		c0.834-0.695,1.875-1.147,3.017-1.251V9.5h1V8.525c1.141,0.104,2.183,0.555,3.017,1.251l-0.688,0.688l0.707,0.707l0.688-0.688
		c0.695,0.834,1.147,1.876,1.251,3.017H44.5v1h0.975c-0.104,1.142-0.556,2.183-1.251,3.017L43.535,16.829z M33.918,24
		c0,10.017-3.951,18.167-8.809,18.167S16.3,34.017,16.3,24s3.952-18.167,8.81-18.167S33.918,13.983,33.918,24z M23.761,43.545
		c-3.177,0.604-6.38,0.604-9.545-0.004C8.296,42.562,4,34.344,4,24S8.296,5.437,14.241,4.455c1.569-0.301,3.155-0.452,4.745-0.452
		c1.591,0,3.186,0.151,4.774,0.453c0.456,0.086,0.897,0.221,1.33,0.38C19.599,4.855,15.3,13.265,15.3,24s4.299,19.145,9.791,19.165
		C24.658,43.324,24.217,43.459,23.761,43.545z M33.767,36.367C35.193,32.921,36,28.708,36,24c0-1.808-0.126-3.538-0.353-5.187
		c0.673,0.609,1.47,1.082,2.353,1.369V22c0,0.827,0.672,1.499,1.499,1.5C39.478,33.784,38.786,35.892,33.767,36.367z M41,22
		c0,0.276-0.225,0.5-0.5,0.5h-1c-0.275,0-0.5-0.224-0.5-0.5v-1.585c0.327,0.051,0.659,0.085,1,0.085s0.673-0.034,1-0.085V22z"></path>
	<path d="M41.157,10.139l-1.272,2.885c-0.339,0.041-0.652,0.238-0.8,0.573c-0.223,0.505,0.006,1.096,0.512,1.319
		c0.505,0.223,1.095-0.006,1.318-0.511c0.147-0.335,0.083-0.699-0.116-0.977l1.272-2.885L41.157,10.139z"></path>
</g>
</svg>
