<svg version="1.1" id="Layer_1" xmlns="http://www.w3.org/2000/svg" xmlns:xlink="http://www.w3.org/1999/xlink" x="0px" y="0px" viewBox="0 0 48 48" style="enable-background:new 0 0 48 48;" xml:space="preserve">
<g>
	<path d="M18.5,6.399v0.965c0,0.173,0.09,0.334,0.237,0.425c0.08,0.05,0.171,0.075,0.263,0.075c0.077,0,0.153-0.018,0.224-0.053
		l3-1.5C22.393,6.226,22.5,6.053,22.5,5.864s-0.107-0.362-0.276-0.447l-3-1.5c-0.155-0.077-0.339-0.069-0.486,0.022
		S18.5,4.191,18.5,4.364v1.035c-6.457,0.267-9,2.386-9,7.465h1C10.5,8.371,12.616,6.643,18.5,6.399z M19.5,5.173l1.382,0.691
		L19.5,6.555V5.173z"></path>
	<path d="M29.811,41.346v-0.965c0-0.173-0.09-0.334-0.237-0.425c-0.148-0.091-0.332-0.099-0.486-0.022l-3,1.5
		c-0.169,0.085-0.276,0.258-0.276,0.447s0.107,0.362,0.276,0.447l3,1.5c0.071,0.035,0.147,0.053,0.224,0.053
		c0.091,0,0.183-0.025,0.263-0.075c0.147-0.091,0.237-0.252,0.237-0.425v-1.035c6.458-0.267,9-2.386,9-7.465h-1
		C37.811,39.373,35.695,41.102,29.811,41.346z M28.811,42.572l-1.382-0.691l1.382-0.691V42.572z"></path>
	<path d="M37.188,2.355c-2.488-0.472-4.997-0.472-7.435-0.004C25.11,3.115,21.74,8.421,21.116,15.58
		c-0.898-0.603-1.876-1.026-2.928-1.225c-2.488-0.472-4.997-0.472-7.435-0.004C5.6,15.199,2,21.635,2,30s3.6,14.801,8.727,15.645
		c1.232,0.236,2.476,0.354,3.723,0.354c1.246,0,2.494-0.118,3.737-0.354c4.698-0.887,8-6.072,8.617-13.198
		c0.899,0.61,1.877,1.026,2.923,1.198c1.232,0.236,2.476,0.354,3.723,0.354c1.246,0,2.494-0.118,3.737-0.354
		c5.222-0.986,8.73-7.273,8.73-15.645S42.408,3.342,37.188,2.355z M37.833,30.833c-3.343,0-6.166-5.877-6.166-12.833
		S34.49,5.167,37.833,5.167c0.764,0,1.498,0.319,2.18,0.876C42.43,8.353,43.917,12.682,43.917,18c0,5.319-1.488,9.649-3.906,11.959
		C39.329,30.514,38.596,30.833,37.833,30.833z M18.833,42.833c-3.343,0-6.166-5.877-6.166-12.833s2.823-12.833,6.166-12.833
		c0.764,0,1.498,0.319,2.18,0.876c2.417,2.311,3.904,6.639,3.904,11.957c0,5.319-1.488,9.649-3.906,11.959
		C20.329,42.514,19.596,42.833,18.833,42.833z M11.077,43.676C6.977,43,4,37.249,4,30s2.977-13,7.104-13.68
		c1.106-0.213,2.225-0.318,3.346-0.318c1.118,0,2.239,0.105,3.356,0.317C14.292,17.256,11.667,22.92,11.667,30
		c0,7.08,2.625,12.743,6.138,13.681C15.569,44.104,13.313,44.103,11.077,43.676z M30.077,31.676
		c-1.159-0.191-2.225-0.798-3.161-1.722c-0.009-5.375-1.47-9.878-3.897-12.672c0.19-6.906,3.096-12.305,7.085-12.961
		c1.106-0.213,2.225-0.318,3.346-0.318c1.118,0,2.239,0.105,3.356,0.317C33.292,5.256,30.667,10.92,30.667,18
		c0,7.08,2.625,12.743,6.138,13.681C34.57,32.104,32.314,32.103,30.077,31.676z"></path>
	<path d="M37.833,10C35.684,10,34,13.514,34,18s1.684,8,3.833,8s3.834-3.514,3.834-8S39.982,10,37.833,10z M37.833,25
		C36.493,25,35,22.125,35,18s1.493-7,2.833-7c1.341,0,2.834,2.875,2.834,7S39.174,25,37.833,25z"></path>
	<path d="M18.833,22C16.684,22,15,25.514,15,30s1.684,8,3.833,8s3.834-3.514,3.834-8S20.982,22,18.833,22z M18.833,37
		C17.493,37,16,34.125,16,30s1.493-7,2.833-7c1.341,0,2.834,2.875,2.834,7S20.174,37,18.833,37z"></path>
</g>
</svg>
