<svg version="1.1" id="Layer_1" xmlns="http://www.w3.org/2000/svg" xmlns:xlink="http://www.w3.org/1999/xlink" x="0px" y="0px" viewBox="0 0 48 48" style="enable-background:new 0 0 48 48;" xml:space="preserve">
<g>
	<path d="M29.136,2.487c-3.418-0.646-6.872-0.646-10.249-0.004C12.03,3.615,7.143,12.253,7,23.5V24c0,4.667-2.084,7.5-3,7.5H3.5
		c-0.553,0-1,0.447-1,1v3c0,0.553,0.447,1,1,1h7.631c0.165,0.396,0.326,0.743,0.489,1.057c0.418,0.862,0.889,1.629,1.403,2.288
		l-0.285,1.368C12.7,41.37,12.7,41.493,12.7,41.56c0,0.253,0.096,0.496,0.269,0.682c0.161,0.174,0.334,0.337,0.546,0.536
		c0.03,0.029,0.062,0.056,0.097,0.08c1.594,1.449,3.368,2.344,5.252,2.655c1.7,0.322,3.413,0.483,5.13,0.483
		c1.716,0,3.435-0.161,5.144-0.483C36.232,44.168,41,35.522,41,24S36.232,3.832,29.136,2.487z M6.187,32.468
		c0.18-0.177,0.354-0.375,0.522-0.59c0.038-0.048,0.074-0.1,0.111-0.15c0.147-0.199,0.29-0.411,0.425-0.638
		c0.023-0.039,0.048-0.074,0.071-0.114c0.15-0.26,0.292-0.539,0.425-0.829c0.031-0.068,0.061-0.137,0.09-0.206
		c0.119-0.273,0.232-0.556,0.335-0.851c0.013-0.036,0.027-0.07,0.039-0.107c0.111-0.325,0.208-0.665,0.298-1.013
		c0.021-0.083,0.041-0.167,0.061-0.251c0.08-0.336,0.152-0.678,0.211-1.03c0.004-0.025,0.01-0.049,0.014-0.075
		c0.061-0.372,0.104-0.754,0.139-1.14c0.009-0.093,0.016-0.186,0.022-0.28C8.98,24.8,9,24.403,9,24v-0.487
		C9.128,13.427,13.423,5.412,19.236,4.452c3.152-0.598,6.357-0.598,9.527,0c0.183,0.035,0.357,0.094,0.536,0.141
		C24.295,5.52,20.5,13.708,20.5,24c0,5.085-1.81,8.5-3.5,8.5H6.158C6.168,32.491,6.177,32.478,6.187,32.468z M4.5,34.5v-1h12v1
		h-4.689H4.5z M13.407,36.659c-0.174-0.335-0.343-0.723-0.518-1.159H17c2.763,0,4.826-2.149,5.878-6.03
		c0.556,3.93,1.704,7.281,3.283,9.459H14.857c0-0.001,0-0.002-0.001-0.003C14.33,38.318,13.847,37.564,13.407,36.659z
		 M15.048,39.929h11.539l-0.233,1.125H14.814L15.048,39.929z M28.765,43.548c-3.171,0.596-6.377,0.597-9.552-0.004
		c-1.201-0.2-2.345-0.705-3.418-1.49h10.744c0.882,0.717,1.806,1.174,2.761,1.354C29.121,43.454,28.947,43.513,28.765,43.548z
		 M38.916,26.434c-0.029,0.461-0.058,0.922-0.104,1.37c-0.003,0.033-0.008,0.064-0.012,0.097
		c-0.673,6.468-3.032,11.527-6.459,14.043c-0.671,0.35-1.369,0.556-2.091,0.556c-1.008,0-1.996-0.388-2.944-1.12l0.385-1.85
		c0.031-0.147-0.007-0.3-0.102-0.417c-0.007-0.008-0.017-0.011-0.024-0.019l0.004-0.003c-2.447-2.665-4.035-8.5-4.066-14.9V24H23.5
		c0-2.041,0.154-4.033,0.458-5.921h0.001c0.106-0.665,0.231-1.31,0.372-1.933l-0.975-0.221c-0.146,0.643-0.275,1.309-0.386,1.995
		l0.001,0C22.658,19.86,22.5,21.906,22.5,24c0,0.065,0.002,0.128,0.003,0.193v0.275c0,1.545-0.135,2.886-0.411,4.099
		c-0.478,2.098-1.701,5.537-4.592,5.898v-1.023c2.279-0.51,4-4.472,4-9.441c0-10.201,3.925-18.5,8.75-18.5
		c0.721,0,1.419,0.206,2.09,0.556c3.428,2.515,5.787,7.575,6.46,14.044c0.003,0.033,0.009,0.064,0.012,0.096
		c0.045,0.448,0.074,0.909,0.104,1.37c0.011,0.175,0.029,0.345,0.038,0.521C38.984,22.714,39,23.352,39,24s-0.016,1.286-0.047,1.912
		C38.944,26.089,38.926,26.259,38.916,26.434z"></path>
	<path d="M34.368,21.615c-0.392-3.508-1.609-6.151-3.179-6.897c-0.723-0.344-1.478-0.285-2.185,0.168
		c-2.179,1.401-3.443,6.452-2.88,11.499c0.392,3.508,1.609,6.15,3.179,6.897c0.31,0.147,0.626,0.222,0.941,0.222
		c0.42,0,0.84-0.131,1.243-0.39C33.667,31.714,34.932,26.663,34.368,21.615z M30.947,32.272c-0.412,0.265-0.811,0.299-1.214,0.107
		c-1.016-0.484-2.219-2.56-2.614-6.106c-0.508-4.545,0.604-9.374,2.427-10.546c0.237-0.153,0.471-0.229,0.703-0.229
		c0.17,0,0.34,0.041,0.511,0.122c1.016,0.484,2.219,2.56,2.614,6.106C33.882,26.271,32.771,31.102,30.947,32.272z"></path>
	<path d="M23.598,14.936l0.967,0.256c0.171-0.648,0.364-1.278,0.574-1.874l-0.943-0.332C23.977,13.606,23.775,14.263,23.598,14.936z"></path>
	<path d="M25.453,10.172c-0.318,0.563-0.619,1.188-0.894,1.857l0.926,0.379c0.258-0.63,0.54-1.217,0.839-1.744L25.453,10.172z"></path>
</g>
</svg>
