<svg version="1.1" id="Layer_1" xmlns="http://www.w3.org/2000/svg" xmlns:xlink="http://www.w3.org/1999/xlink" x="0px" y="0px" viewBox="0 0 48 48" style="enable-background:new 0 0 48 48;" xml:space="preserve">
<g>
	<path d="M33.134,2.49C29.71,1.839,26.255,1.839,22.89,2.486c-6.69,1.106-11.429,9.251-11.837,20.018
		c-0.122,0.005-0.242,0.05-0.335,0.143l-1.414,1.414c-0.195,0.195-0.195,0.512,0,0.707l0.354,0.354L6.559,28.22
		c-0.572,0.571-1.01,1.279-1.266,2.047c-0.206,0.621-0.561,1.193-1.022,1.656L2.232,33.96c-0.975,0.975-0.975,2.561,0,3.536
		l0.707,0.707c0.487,0.487,1.127,0.731,1.768,0.731c0.64,0,1.28-0.244,1.768-0.731l2.038-2.038c0.462-0.462,1.035-0.816,1.656-1.023
		c0.768-0.256,1.476-0.694,2.046-1.265l0.123-0.123c1.904,6.478,5.709,10.96,10.526,11.756c1.695,0.326,3.406,0.489,5.122,0.489
		s3.436-0.163,5.147-0.488C40.231,44.166,45,35.521,45,24S40.231,3.834,33.134,2.49z M42.936,26.159
		c-0.023,0.422-0.057,0.836-0.094,1.248c-0.016,0.186-0.03,0.373-0.05,0.557c-0.059,0.553-0.126,1.098-0.209,1.63
		c-0.001,0.009-0.002,0.018-0.003,0.026c-0.886,5.652-3.127,10.045-6.251,12.33c-1.35,0.719-2.716,0.741-4.062,0.059
		c-3.131-1.586-5.605-6.627-6.457-13.155c-1.296-9.933,1.523-20.146,6.286-22.768c0.717-0.395,1.438-0.592,2.158-0.592
		c0.661,0,1.321,0.166,1.977,0.498c0.031,0.016,0.061,0.037,0.091,0.053c3.098,2.262,5.326,6.597,6.229,12.175
		c0.025,0.159,0.048,0.321,0.071,0.482c0.039,0.265,0.071,0.536,0.104,0.807c0.049,0.406,0.092,0.812,0.127,1.219
		c0.02,0.229,0.037,0.46,0.052,0.693c0.024,0.356,0.044,0.711,0.059,1.066c0.013,0.338,0.021,0.68,0.025,1.024
		c0.004,0.259,0.007,0.518,0.005,0.776c-0.003,0.41-0.015,0.815-0.03,1.216C42.955,25.722,42.948,25.941,42.936,26.159z
		 M23.241,4.455c0.091-0.017,0.183-0.023,0.274-0.039l-0.183,0.341l-0.517,0.146v0L22.22,5.071v0l-0.722,0.204
		c-0.185,0.052-0.323,0.206-0.356,0.395l-0.13,0.739l0,0l-0.196,1.121l-0.008,0.047L20.36,7.843v0l-0.54,0.322v0L19.177,8.55
		c-0.156,0.094-0.249,0.265-0.243,0.447l0.027,0.75l0,0l0.024,0.664h-0.001l0.019,0.512l-0.385,0.338l0,0l-0.48,0.421v0
		l-0.563,0.494c-0.134,0.117-0.195,0.296-0.162,0.47l0.36,1.884l-1.246,1.437c-0.057,0.066-0.095,0.144-0.112,0.227
		s-0.013,0.17,0.013,0.253l0.43,1.346l0,0l0.154,0.48l-0.287,0.416l0,0l-0.616,0.895l-0.178,0.258
		c-0.039,0.057-0.056,0.123-0.068,0.189c-0.003,0.016-0.016,0.031-0.017,0.047c-0.008,0.083,0.005,0.169,0.04,0.248l0.695,1.593
		l0.071,0.164l-0.182,0.33l-0.062,0.111v0l-0.377,0.685c-0.007,0-0.012-0.003-0.019-0.003l-1.396,0.019
		c-0.13,0.002-0.255,0.054-0.347,0.146l-1.061,1.06l-0.205-0.205C13.004,24.151,13,24.077,13,24
		C13,13.656,17.296,5.437,23.241,4.455z M13.546,27.596l0.707-0.707l0.679,0.678c0,0,0,0,0.001,0.001l1.796,1.796l-0.708,0.708
		L13.546,27.596z M15.992,27.214l0.154-0.154l-0.094,0.214L15.992,27.214z M15.285,26.507l-1.367-1.367l0.917-0.917l0.981-0.013
		l0.407,0.407l-0.021,0.972L15.285,26.507z M11.071,23.707l1.786,1.786c0,0,0,0,0,0l0.688,0.689l-0.707,0.707l-2.121-2.122
		c0,0,0,0,0,0l-0.354-0.353L11.071,23.707z M9.853,34.193c-0.768,0.256-1.476,0.693-2.047,1.265l-2.038,2.038
		c-0.584,0.585-1.537,0.585-2.121,0l-0.707-0.707c-0.585-0.585-0.585-1.537,0-2.122l2.038-2.038c0.571-0.572,1.009-1.28,1.265-2.046
		c0.207-0.621,0.561-1.194,1.023-1.656l3.099-3.099l2.121,2.122l2.121,2.122l-3.099,3.098C11.046,33.632,10.474,33.986,9.853,34.193
		z M32.761,43.545c-3.01,0.572-6.044,0.595-9.047,0.079l0.771-0.412l-0.354-0.662c-0.064-0.121-0.176-0.209-0.308-0.246
		l-0.723-0.201l-0.268,0.964l0.517,0.143l0.206,0.387c-0.113-0.02-0.227-0.035-0.34-0.057c-4.251-0.702-7.654-5.149-9.24-11.425
		l1.338-1.337l0.354,0.354c0.098,0.098,0.226,0.146,0.354,0.146s0.256-0.049,0.354-0.146l0.262-0.262l-0.215,0.668
		c-0.054,0.166-0.017,0.348,0.098,0.48l0.491,0.567l0.756-0.654l-0.307-0.355l0.143-0.446l-0.928-0.298l0.525-0.525l0.605,0.194
		l0.229-0.714c0.047-0.147,0.023-0.308-0.064-0.435l-0.05-0.073c-0.018-0.1-0.057-0.195-0.129-0.267l-0.172-0.172l-0.072-0.106
		l-0.02,0.013l-0.468-0.468l0.12-0.083l-0.268-0.389l0.19-0.432l-0.882-0.388l0.834-0.835c0.091-0.091,0.144-0.214,0.146-0.343
		l0.028-1.386c0.003-0.136-0.05-0.268-0.146-0.364l-0.243-0.243l0.447-0.811l0.001,0.001l0.361-0.657
		c0.06-0.11,0.064-0.235,0.036-0.355c-0.007-0.029-0.004-0.059-0.016-0.086l-0.565-1.295l0,0l-0.189-0.433l0.269-0.389l-0.001-0.001
		l0.508-0.738l0.286-0.415c0.044-0.064,0.072-0.136,0.083-0.211c0.011-0.075,0.005-0.152-0.019-0.225l-0.43-1.346l0,0l-0.144-0.447
		l0.308-0.354l0,0l0.423-0.487l0,0l0.492-0.567c0.101-0.116,0.142-0.271,0.113-0.422l-0.142-0.736l0,0l-0.124-0.648l0,0
		l-0.087-0.456l0.349-0.306l0,0l1.043-0.914c0.113-0.099,0.176-0.244,0.171-0.394l-0.051-1.414l0,0l-0.017-0.454l0.93-0.555v0
		l0.644-0.385c0.124-0.075,0.211-0.2,0.235-0.343l0.13-0.739l0,0l0.19-1.084l0.419-0.118v0l1.317-0.372
		c0.131-0.037,0.24-0.125,0.305-0.245l0.308-0.574l0.047-0.087v0l0.277-0.516c1.015-0.132,2.033-0.22,3.055-0.228l-0.387,0.662
		l-1.128,0.315v0l-0.723,0.202c-0.187,0.052-0.326,0.208-0.358,0.398l-0.321,1.914l-1.624,1.001c-0.136,0.084-0.21,0.23-0.223,0.387
		c-0.001,0.022-0.015,0.04-0.014,0.062v0.001c0,0,0,0,0,0l0.002,0.034l0.091,1.892l-1.418,1.273
		c-0.126,0.113-0.181,0.283-0.155,0.449c0.001,0.007-0.003,0.013-0.001,0.02v0c0,0,0,0,0,0l0.045,0.224l0.102,0.511v0l0.229,1.148
		l-0.329,0.385v0l-0.422,0.495l0,0l-0.486,0.57c-0.057,0.066-0.094,0.144-0.11,0.227c-0.017,0.082-0.012,0.169,0.015,0.252
		l0.18,0.559l0.255,0.789l0,0l0.155,0.48l-1.077,1.576c-0.097,0.143-0.114,0.325-0.045,0.482l0.089,0.204l0.209,0.482l0.001,0
		l0.27,0.618l0.198,0.455l-0.243,0.442l0,0l-0.681,1.237l0.001,0.001c-0.082,0.15-0.082,0.331,0,0.482l0.361,0.657l0.877-0.482
		L20.904,24l0.229-0.417v0l0.681-1.237c0.074-0.136,0.082-0.299,0.02-0.441l-0.105-0.24l-0.194-0.446l0,0l-0.457-1.045l0.162-0.238
		l0.474-0.693l0,0l0.057-0.084l0.366-0.535c0.043-0.064,0.071-0.136,0.082-0.211s0.004-0.152-0.02-0.225l-0.083-0.259l-0.351-1.089
		v0l-0.145-0.448l0.728-0.851v0l0.487-0.57c0.1-0.117,0.141-0.272,0.11-0.423v0c0,0,0,0,0,0l-0.023-0.118l-0.123-0.617l0,0
		l-0.221-1.106l0.347-0.311l0,0l0.479-0.43v0l0.558-0.501c0.112-0.101,0.173-0.246,0.165-0.396l-0.068-1.416l0,0l-0.022-0.454
		l0.388-0.238l0,0l1.178-0.726c0.061-0.038,0.112-0.088,0.152-0.146c0.04-0.058,0.066-0.125,0.079-0.196l0.125-0.74l0,0l0.11-0.659
		l0,0l0.056-0.335l0.015-0.091l1.182-0.33v0l0.558-0.156c0.125-0.035,0.231-0.117,0.297-0.229l0.309-0.527l0,0l0.401-0.685v0
		l0.054-0.093c0.579,0.022,1.158,0.049,1.737,0.111l0.111,0.024l0.002-0.008c0.658,0.073,1.317,0.156,1.974,0.281
		C32.944,4.49,33.12,4.55,33.3,4.596c-0.568,0.109-1.133,0.308-1.688,0.613c-5.092,2.802-8.14,13.467-6.796,23.772
		c0.895,6.852,3.575,12.185,6.997,13.918c0.488,0.247,0.984,0.409,1.483,0.504C33.118,43.451,32.943,43.51,32.761,43.545z"></path>
	<path d="M38.368,21.615c-0.392-3.508-1.61-6.151-3.179-6.897c-0.722-0.344-1.479-0.287-2.185,0.169
		c-2.179,1.4-3.443,6.451-2.88,11.499c0.392,3.508,1.61,6.151,3.179,6.897c0.31,0.147,0.626,0.221,0.941,0.221
		c0.42,0,0.84-0.13,1.243-0.39C37.667,31.714,38.932,26.663,38.368,21.615z M34.947,32.273c-0.411,0.265-0.811,0.299-1.214,0.107
		c-1.016-0.484-2.219-2.559-2.614-6.106c-0.508-4.545,0.604-9.375,2.427-10.547c0.237-0.153,0.471-0.229,0.703-0.229
		c0.17,0,0.34,0.041,0.511,0.122c1.016,0.484,2.219,2.559,2.614,6.106C37.882,26.271,36.771,31.101,34.947,32.273z"></path>
	<path d="M20.616,26.377l0.916,0.401l0.301-0.687c0.062-0.143,0.055-0.306-0.02-0.442l-0.361-0.657l-0.877,0.482l0.243,0.441
		L20.616,26.377z"></path>
	<path d="M20.517,28.77l0.826-0.562l-0.266-0.391l0.189-0.434l-0.916-0.401l-0.301,0.687c-0.069,0.158-0.052,0.34,0.045,0.482
		L20.517,28.77z"></path>
	<path d="M20.886,29.311l0.284,0.417l-0.155,0.48l0.951,0.308l0.23-0.713c0.048-0.147,0.024-0.308-0.062-0.435l-0.422-0.62
		L20.886,29.311z"></path>
	<path d="M20.81,30.84l-0.231,0.714c-0.054,0.165-0.018,0.346,0.095,0.479l0.486,0.571l0.762-0.648l-0.306-0.358l0.146-0.448
		L20.81,30.84z"></path>
	<path d="M21.913,33.487l-0.099,0.498l0.98,0.195l0.146-0.736c0.03-0.15-0.011-0.306-0.11-0.422l-0.487-0.57l-0.76,0.649
		L21.913,33.487z"></path>
	<path d="M21.686,34.641l-0.146,0.736c-0.034,0.173,0.025,0.352,0.156,0.47l0.559,0.5l0.668-0.745l-0.347-0.31l0.091-0.456
		L21.686,34.641z"></path>
	<path d="M23.092,37.631l0.998,0.046l0.034-0.749c0.007-0.15-0.054-0.295-0.165-0.396l-0.559-0.5l-0.668,0.745l0.382,0.342
		L23.092,37.631z"></path>
	<path d="M24.059,38.344l-0.998-0.046l-0.034,0.75c-0.009,0.182,0.082,0.354,0.237,0.449l0.639,0.392l0.523-0.853l-0.388-0.238
		L24.059,38.344z"></path>
	<path d="M25.837,40.101c-0.024-0.142-0.109-0.267-0.231-0.342l-0.639-0.392l-0.523,0.853l0.446,0.273l0.088,0.516l0.986-0.169
		L25.837,40.101z"></path>
	<path d="M26.075,41.497l-0.986,0.168l0.126,0.739c0.033,0.191,0.174,0.347,0.36,0.398L26.299,43l0.266-0.964l-0.417-0.115
		L26.075,41.497z"></path>
	<path d="M27.884,42.4l-0.557-0.153l-0.266,0.964l0.36,0.099l0.205,0.351l0.863-0.504l-0.308-0.527
		C28.117,42.517,28.01,42.434,27.884,42.4z"></path>
	<path d="M17.671,33.959l0.982,0.188l0.141-0.737c0.028-0.15-0.013-0.306-0.113-0.421l-0.491-0.567l-0.756,0.655l0.333,0.384
		L17.671,33.959z"></path>
	<path d="M18.443,35.255L18.53,34.8l-0.982-0.188l-0.141,0.737c-0.033,0.175,0.028,0.354,0.163,0.471l0.566,0.493l0.656-0.755
		L18.443,35.255z"></path>
	<path d="M18.984,37.58l1,0.034l0.025-0.75c0.005-0.15-0.058-0.295-0.171-0.394l-0.565-0.493l-0.658,0.754l0.387,0.337L18.984,37.58
		z"></path>
	<path d="M19.963,38.278l-1-0.034l-0.025,0.75c-0.006,0.183,0.088,0.354,0.246,0.448l0.646,0.381l0.508-0.861l-0.39-0.23
		L19.963,38.278z"></path>
	<path d="M21.762,40.005c-0.025-0.144-0.112-0.269-0.238-0.343l-0.646-0.381l-0.508,0.861l0.448,0.265l0.092,0.512l0.984-0.176
		L21.762,40.005z"></path>
	<path d="M22.01,41.393l-0.984,0.177l0.133,0.738c0.034,0.189,0.174,0.342,0.358,0.394l0.723,0.201l0.268-0.964l-0.42-0.117
		L22.01,41.393z"></path>
</g>
</svg>
