<svg version="1.1" id="Layer_1" xmlns="http://www.w3.org/2000/svg" xmlns:xlink="http://www.w3.org/1999/xlink" x="0px" y="0px" viewBox="0 0 48 48" style="enable-background:new 0 0 48 48;" xml:space="preserve">
<g>
	<path d="M19,38v-4.3c0-1.3-0.5-2.6-1.5-3.5l-3.3-3.3c-0.9-0.9-2.1-1.1-3.2-0.7V21c0-1.7-1.3-3-3-3s-3,1.3-3,3v9.1
		c0,0.8,0.2,1.5,0.5,2.2l2.2,4.3C7.9,37,8,37.5,8,37.9V38c-0.6,0-1,0.4-1,1v4c0,0.6,0.4,1,1,1h11c0.6,0,1-0.4,1-1v-4
		C20,38.4,19.6,38,19,38z M9.5,35.7l-2.2-4.3C7.1,31,7,30.5,7,30.1V21c0-0.6,0.4-1,1-1s1,0.4,1,1v7.2c-0.1,0.3-0.1,0.5-0.1,0.8
		c0,0.8,0.3,1.6,0.9,2.2l2.5,2.5l1.4-1.4l-2.5-2.5c-0.2-0.2-0.3-0.5-0.3-0.8s0.1-0.6,0.3-0.8c0.4-0.4,1.1-0.4,1.6,0l3.3,3.3
		c0.6,0.6,0.9,1.3,0.9,2.1V38h-7v-0.1C10,37.2,9.8,36.4,9.5,35.7z M18,42H9v-2h9V42z"></path>
	<path d="M40,18c-1.7,0-3,1.3-3,3v5.1c-1.1-0.4-2.4-0.1-3.2,0.7l-3.3,3.3C29.6,31,29,32.3,29,33.6V38c-0.6,0-1,0.4-1,1v4
		c0,0.6,0.4,1,1,1h11c0.6,0,1-0.4,1-1v-4c0-0.6-0.4-1-1-1v-0.1c0-0.5,0.1-0.9,0.3-1.3l2.2-4.3c0.3-0.7,0.5-1.5,0.5-2.2V21
		C43,19.3,41.7,18,40,18z M39,42h-9v-2h9V42z M41,30.1c0,0.5-0.1,0.9-0.3,1.3l-2.2,4.3c-0.3,0.7-0.5,1.5-0.5,2.2V38h-7v-4.3
		c0-0.8,0.3-1.6,0.9-2.1l3.3-3.3c0.4-0.4,1.1-0.4,1.6,0s0.4,1.1,0,1.6l-2.5,2.5l1.4,1.4l2.5-2.5c0.8-0.8,1.1-2,0.8-3V21
		c0-0.6,0.4-1,1-1s1,0.4,1,1V30.1z"></path>
	<path d="M28,9c0-0.3-0.2-0.7-0.5-0.8c-0.3-0.2-0.7-0.2-1,0l-6.8,3.3H14c-0.6,0-1,0.4-1,1v9.1c0,0.6,0.4,1,1,1h5.8l6.8,3.3
		C26.7,26,26.8,26,27,26s0.4-0.1,0.5-0.2c0.3-0.2,0.5-0.5,0.5-0.8V9z M15,13.4h4v7.1h-4V13.4z M26,23.4L21,21v-7.9l5-2.4V23.4z"></path>
	<path d="M33.1,22.4l0.9,0.5c2-3.6,2-8.1,0-11.7l-0.9,0.5C35,14.9,35,19.1,33.1,22.4z"></path>
	<path d="M31.3,21.3l0.9,0.5c1.7-3,1.7-6.7,0-9.6l-0.9,0.5C32.8,15.3,32.8,18.7,31.3,21.3z"></path>
	<path d="M30.4,20.8c1.3-2.4,1.3-5.3,0-7.6l-0.9,0.5c1.1,2.1,1.1,4.6,0,6.7L30.4,20.8z"></path>
</g>
</svg>
