<svg version="1.1" id="Layer_1" xmlns="http://www.w3.org/2000/svg" xmlns:xlink="http://www.w3.org/1999/xlink" x="0px" y="0px" viewBox="0 0 48 48" style="enable-background:new 0 0 48 48;" xml:space="preserve">
<g>
	<path d="M19,38v-4.3c0-1.3-0.5-2.6-1.5-3.5l-3.3-3.3c-0.9-0.9-2.1-1.1-3.2-0.7V21c0-1.7-1.3-3-3-3s-3,1.3-3,3v9.1
		c0,0.8,0.2,1.5,0.5,2.2l2.2,4.3C7.9,37,8,37.5,8,37.9V38c-0.6,0-1,0.4-1,1v4c0,0.6,0.4,1,1,1h11c0.6,0,1-0.4,1-1v-4
		C20,38.4,19.6,38,19,38z M9.5,35.7l-2.2-4.3C7.1,31,7,30.5,7,30.1V21c0-0.6,0.4-1,1-1s1,0.4,1,1v7.2c-0.1,0.3-0.1,0.5-0.1,0.8
		c0,0.8,0.3,1.6,0.9,2.2l2.5,2.5l1.4-1.4l-2.5-2.5c-0.2-0.2-0.3-0.5-0.3-0.8s0.1-0.6,0.3-0.8c0.4-0.4,1.1-0.4,1.6,0l3.3,3.3
		c0.6,0.6,0.9,1.3,0.9,2.1V38h-7v-0.1C10,37.2,9.8,36.4,9.5,35.7z M18,42H9v-2h9V42z"></path>
	<path d="M40,18c-1.7,0-3,1.3-3,3v5.1c-1.1-0.4-2.4-0.1-3.2,0.7l-3.3,3.3C29.6,31,29,32.3,29,33.6V38c-0.6,0-1,0.4-1,1v4
		c0,0.6,0.4,1,1,1h11c0.6,0,1-0.4,1-1v-4c0-0.6-0.4-1-1-1v-0.1c0-0.5,0.1-0.9,0.3-1.3l2.2-4.3c0.3-0.7,0.5-1.5,0.5-2.2V21
		C43,19.3,41.7,18,40,18z M39,42h-9v-2h9V42z M41,30.1c0,0.5-0.1,0.9-0.3,1.3l-2.2,4.3c-0.3,0.7-0.5,1.5-0.5,2.2V38h-7v-4.3
		c0-0.8,0.3-1.6,0.9-2.1l3.3-3.3c0.4-0.4,1.1-0.4,1.6,0s0.4,1.1,0,1.6l-2.5,2.5l1.4,1.4l2.5-2.5c0.8-0.8,1.1-2,0.8-3V21
		c0-0.6,0.4-1,1-1s1,0.4,1,1V30.1z"></path>
	<path d="M31,25h-1.5v-2c0-2.4-1.6-4.6-4.4-6c2.7-1.4,4.4-3.6,4.4-6V9H31V7H17v2h1.5v2c0,2.4,1.6,4.6,4.4,6c-2.7,1.4-4.4,3.6-4.4,6
		v2H17v2h14V25z M19.5,11V9h9v2c0,2.2-1.7,4.2-4.5,5.5C21.2,15.2,19.5,13.2,19.5,11z M19.5,23c0-2.2,1.7-4.2,4.5-5.5
		c2.8,1.3,4.5,3.3,4.5,5.5v2h-9V23z"></path>
	<path d="M24.2,15.2c1.5-0.8,2.6-1.9,3-3.1c0.1-0.2,0-0.3-0.1-0.5c-0.1-0.1-0.2-0.2-0.4-0.2h-5.6c-0.2,0-0.3,0.1-0.4,0.2
		c-0.1,0.1-0.1,0.3-0.1,0.5c0.4,1.2,1.5,2.2,3,3.1c0.1,0,0.2,0.1,0.2,0.1S24.2,15.3,24.2,15.2z M22,12.5h4c-0.4,0.6-1.1,1.2-2,1.7
		C23.1,13.7,22.5,13.1,22,12.5z"></path>
	<path d="M24.2,18.8c-0.1-0.1-0.3-0.1-0.5,0c-2,1.1-3.3,2.7-3.3,4.2v0.5c0,0.3,0.2,0.5,0.5,0.5h6c0.3,0,0.5-0.2,0.5-0.5V23
		C27.5,21.4,26.3,19.9,24.2,18.8z M21.5,23c0-1.1,0.9-2.3,2.5-3.2c1.6,0.9,2.5,2.1,2.5,3.2H21.5z"></path>
</g>
</svg>
