<svg version="1.1" id="Layer_1" xmlns="http://www.w3.org/2000/svg" xmlns:xlink="http://www.w3.org/1999/xlink" x="0px" y="0px" viewBox="0 0 48 48" style="enable-background:new 0 0 48 48;" xml:space="preserve">
<g>
	<path d="M19,38v-4.3c0-1.3-0.5-2.6-1.5-3.5l-3.3-3.3c-0.9-0.9-2.1-1.1-3.2-0.7V21c0-1.7-1.3-3-3-3s-3,1.3-3,3v9.1
		c0,0.8,0.2,1.5,0.5,2.2l2.2,4.3C7.9,37,8,37.5,8,37.9V38c-0.6,0-1,0.4-1,1v4c0,0.6,0.4,1,1,1h11c0.6,0,1-0.4,1-1v-4
		C20,38.4,19.6,38,19,38z M7.3,31.4C7.1,31,7,30.5,7,30.1V21c0-0.6,0.4-1,1-1s1,0.4,1,1v7.2c-0.1,0.3-0.1,0.5-0.1,0.8
		c0,0.8,0.3,1.6,0.9,2.2l2.5,2.5l1.4-1.4l-2.5-2.5c-0.2-0.2-0.3-0.5-0.3-0.8s0.1-0.6,0.3-0.8c0.4-0.4,1.1-0.4,1.6,0l3.3,3.3
		c0.6,0.6,0.9,1.3,0.9,2.1V38h-7v-0.1c0-0.8-0.2-1.5-0.5-2.2L7.3,31.4z M18,42H9v-2h9V42z"></path>
	<path d="M40,18c-1.7,0-3,1.3-3,3v5.1c-1.1-0.4-2.4-0.1-3.2,0.7l-3.3,3.3C29.6,31,29,32.3,29,33.6V38c-0.6,0-1,0.4-1,1v4
		c0,0.6,0.4,1,1,1h11c0.6,0,1-0.4,1-1v-4c0-0.6-0.4-1-1-1v-0.1c0-0.5,0.1-0.9,0.3-1.3l2.2-4.3c0.3-0.7,0.5-1.5,0.5-2.2V21
		C43,19.3,41.7,18,40,18z M39,42h-9v-2h9V42z M41,30.1c0,0.5-0.1,0.9-0.3,1.3l-2.2,4.3c-0.3,0.7-0.5,1.5-0.5,2.2V38h-7v-4.3
		c0-0.8,0.3-1.6,0.9-2.1l3.3-3.3c0.4-0.4,1.1-0.4,1.6,0s0.4,1.1,0,1.6l-2.5,2.5l1.4,1.4l2.5-2.5c0.8-0.8,1.1-2,0.8-3V21
		c0-0.6,0.4-1,1-1s1,0.4,1,1V30.1z"></path>
	<path d="M36,17c0-6.6-5.4-12-12-12s-12,5.4-12,12s5.4,12,12,12S36,23.6,36,17z M24,7c4.5,0,8.4,3,9.6,7.2c0,0.2-0.1,0.3-0.1,0.4
		C33.3,14.8,33,15,32.8,15c-0.1,0-0.3,0-0.4-0.1c-0.3-0.2-0.6-0.4-0.9-0.6c-2-1.3-4.6-2.9-7.4-2.9s-5.4,1.6-7.4,2.9
		c-0.3,0.2-0.6,0.4-0.9,0.6C15.7,15,15.5,15,15.4,15c-0.3,0-0.5-0.1-0.7-0.4c-0.1-0.1-0.1-0.2-0.1-0.4C15.6,10,19.5,7,24,7z
		 M21.4,26.1c-0.2,0.2-0.4,0.3-0.7,0.3l0,0c-2.7-0.9-4.8-3-5.9-5.6c-0.1-0.2,0-0.5,0.1-0.7c0.1-0.1,0.3-0.4,0.7-0.4h1.9
		c0.9,0,1.9,0.4,2.5,1.1l0,0c0.5,0.5,0.8,1.1,1,1.8l0.5,2.7C21.6,25.8,21.5,26,21.4,26.1z M25.9,26.8C25.3,26.9,24.7,27,24,27
		s-1.3-0.1-1.9-0.2c0.4-0.4,0.6-1,0.4-1.6L22,22.6c-0.2-0.9-0.6-1.7-1.2-2.3l0,0c-0.9-0.9-2-1.4-3.2-1.4h-1.9c-0.5,0-1,0.2-1.3,0.5
		C14.1,18.6,14,17.8,14,17c0-0.5,0-1,0.1-1.4c0.3,0.2,0.7,0.4,1.1,0.4c0.3,0,0.6-0.1,0.9-0.3c2.2-1.4,4.8-3.3,7.8-3.3
		s5.6,1.9,7.8,3.3c0.3,0.2,0.6,0.3,0.9,0.3c0.4,0,0.8-0.2,1.1-0.4C34,16,34,16.5,34,17c0,0.8-0.1,1.6-0.3,2.4
		c-0.3-0.3-0.8-0.5-1.3-0.5h-1.9c-1.2,0-2.4,0.5-3.3,1.4l0,0c-0.6,0.6-1.1,1.4-1.2,2.3l-0.5,2.7C25.4,25.9,25.6,26.4,25.9,26.8z
		 M27.3,26.4L27.3,26.4c-0.3,0-0.5-0.1-0.7-0.3c-0.1-0.1-0.2-0.4-0.2-0.7l0.5-2.7c0.1-0.7,0.5-1.3,1-1.8l0,0
		c0.7-0.7,1.6-1.1,2.6-1.1h1.9c0.4,0,0.6,0.3,0.7,0.4c0.1,0.2,0.1,0.4,0.1,0.7C32.1,23.5,30,25.5,27.3,26.4z"></path>
	<path d="M27.2,17c0-1.8-1.5-3.2-3.2-3.2s-3.2,1.5-3.2,3.2s1.5,3.2,3.2,3.2S27.2,18.8,27.2,17z M24,19.2c-1.2,0-2.2-1-2.2-2.2
		s1-2.2,2.2-2.2s2.2,1,2.2,2.2S25.2,19.2,24,19.2z"></path>
</g>
</svg>
