<svg version="1.1" id="Layer_1" xmlns="http://www.w3.org/2000/svg" xmlns:xlink="http://www.w3.org/1999/xlink" x="0px" y="0px" viewBox="0 0 48 48" style="enable-background:new 0 0 48 48;" xml:space="preserve">
<g>
	<path d="M19,38v-4.3c0-1.3-0.5-2.6-1.5-3.5l-3.3-3.3c-0.9-0.9-2.1-1.1-3.2-0.7V21c0-1.7-1.3-3-3-3s-3,1.3-3,3v9.1
		c0,0.8,0.2,1.5,0.5,2.2l2.2,4.3C7.9,37,8,37.5,8,37.9V38c-0.6,0-1,0.4-1,1v4c0,0.6,0.4,1,1,1h11c0.6,0,1-0.4,1-1v-4
		C20,38.4,19.6,38,19,38z M7.3,31.4C7.1,31,7,30.5,7,30.1V21c0-0.6,0.4-1,1-1s1,0.4,1,1v7.2c-0.1,0.3-0.1,0.5-0.1,0.8
		c0,0.8,0.3,1.6,0.9,2.2l2.5,2.5l1.4-1.4l-2.5-2.5c-0.2-0.2-0.3-0.5-0.3-0.8s0.1-0.6,0.3-0.8c0.4-0.4,1.1-0.4,1.6,0l3.3,3.3
		c0.6,0.6,0.9,1.3,0.9,2.1V38h-7v-0.1c0-0.8-0.2-1.5-0.5-2.2L7.3,31.4z M18,42H9v-2h9V42z"></path>
	<path d="M40,18c-1.7,0-3,1.3-3,3v5.1c-1.1-0.4-2.4-0.1-3.2,0.7l-3.3,3.3C29.6,31,29,32.3,29,33.6V38c-0.6,0-1,0.4-1,1v4
		c0,0.6,0.4,1,1,1h11c0.6,0,1-0.4,1-1v-4c0-0.6-0.4-1-1-1v-0.1c0-0.5,0.1-0.9,0.3-1.3l2.2-4.3c0.3-0.7,0.5-1.5,0.5-2.2V21
		C43,19.3,41.7,18,40,18z M39,42h-9v-2h9V42z M41,30.1c0,0.5-0.1,0.9-0.3,1.3l-2.2,4.3c-0.3,0.7-0.5,1.5-0.5,2.2V38h-7v-4.3
		c0-0.8,0.3-1.6,0.9-2.1l3.3-3.3c0.4-0.4,1.1-0.4,1.6,0s0.4,1.1,0,1.6l-2.5,2.5l1.4,1.4l2.5-2.5c0.8-0.8,1.1-2,0.8-3V21
		c0-0.6,0.4-1,1-1s1,0.4,1,1V30.1z"></path>
	<path d="M31,26V10c0-1.7-1.3-3-3-3V6c0-1.1-0.9-2-2-2h-4c-1.1,0-2,0.9-2,2v1c-1.7,0-3,1.3-3,3v16c0,1.7,1.3,3,3,3h8
		C29.7,29,31,27.7,31,26z M22,6h4v1h-4V6z M19,26V10c0-0.6,0.4-1,1-1h1h6h1c0.6,0,1,0.4,1,1v16c0,0.6-0.4,1-1,1h-8
		C19.4,27,19,26.6,19,26z"></path>
	<path d="M27,23h-6c-0.6,0-1,0.4-1,1v1c0,0.6,0.4,1,1,1h6c0.6,0,1-0.4,1-1v-1C28,23.4,27.6,23,27,23z M27,25h-6v-1h6V25z"></path>
	<path d="M27,19h-6c-0.6,0-1,0.4-1,1v1c0,0.6,0.4,1,1,1h6c0.6,0,1-0.4,1-1v-1C28,19.4,27.6,19,27,19z M27,21h-6v-1h6V21z"></path>
	<path d="M27,15h-6c-0.6,0-1,0.4-1,1v1c0,0.6,0.4,1,1,1h6c0.6,0,1-0.4,1-1v-1C28,15.4,27.6,15,27,15z M27,17h-6v-1h6V17z"></path>
</g>
</svg>
