<svg xml:space="preserve" style="enable-background:new 0 0 48 48;" viewBox="0 0 48 48" y="0px" x="0px" xmlns:xlink="http://www.w3.org/1999/xlink" xmlns="http://www.w3.org/2000/svg" id="Layer_1" version="1.1">
<g>
	<path d="M46.976,29.619l-0.402-3.142c-0.238-1.862-1.482-3.419-3.246-4.063l-2.681-0.977c-0.443-0.162-0.817-0.477-1.051-0.887
		l-1.728-3.023C36.625,15.352,34.296,14,31.79,14H7.031c-1.646,0-3.104,0.987-3.714,2.514C2.443,18.7,2,21.001,2,23.354v3.939
		c0,0.189-0.073,0.366-0.207,0.5C1.281,28.304,1,28.984,1,29.707v0.238c0,1.032,0.573,1.96,1.496,2.421
		C3.325,32.781,4.253,33,5.181,33h1.568c0.643,2.046,2.551,3.5,4.751,3.5s4.108-1.454,4.751-3.5h16.77
		c0.643,2.046,2.551,3.5,4.751,3.5c2.201,0,4.108-1.454,4.751-3.5H44c0.862,0,1.683-0.371,2.252-1.018S47.085,30.474,46.976,29.619z
		 M8.5,31.5c0-1.654,1.346-3,3-3s3,1.346,3,3c0,0.118-0.022,0.235-0.036,0.353c-0.001,0.008-0.006,0.014-0.007,0.022
		c-0.189,1.497-1.46,2.625-2.958,2.625s-2.769-1.128-2.958-2.625c-0.001-0.008-0.006-0.014-0.007-0.022
		C8.522,31.735,8.5,31.618,8.5,31.5z M34.772,31.5c0-1.654,1.346-3,3-3s3,1.346,3,3c0,0.118-0.022,0.235-0.036,0.353
		c-0.001,0.008-0.006,0.014-0.007,0.022c-0.188,1.497-1.46,2.625-2.958,2.625c-1.497,0-2.769-1.128-2.958-2.625
		c-0.001-0.008-0.006-0.014-0.007-0.022C34.794,31.735,34.772,31.618,34.772,31.5z M44.991,29.874
		c0.037,0.289-0.048,0.568-0.241,0.787C44.558,30.879,44.291,31,44,31h-2.278l0,0c-0.25-1.968-1.916-3.5-3.95-3.5
		s-3.7,1.532-3.95,3.5l0,0H15.45c0,0,0,0,0,0c-0.249-1.968-1.915-3.5-3.949-3.5S7.8,29.032,7.551,31c0,0,0,0,0,0H5.181
		c-0.619,0-1.238-0.146-1.791-0.423C3.149,30.457,3,30.214,3,29.945v-0.238c0-0.189,0.073-0.366,0.207-0.5
		C3.719,28.696,4,28.016,4,27.293v-3.939c0-2.098,0.395-4.149,1.174-6.097C5.479,16.493,6.208,16,7.031,16H31.79
		c1.79,0,3.453,0.965,4.341,2.519l1.728,3.024c0.469,0.819,1.215,1.449,2.102,1.773l2.681,0.977c1.059,0.386,1.805,1.32,1.947,2.438
		L44.991,29.874C44.991,29.873,44.991,29.873,44.991,29.874z"></path>
	<path d="M11.5,33.5c1.103,0,2-0.897,2-2s-0.897-2-2-2s-2,0.897-2,2S10.397,33.5,11.5,33.5z M11.5,30.5c0.552,0,1,0.449,1,1
		s-0.448,1-1,1s-1-0.449-1-1S10.948,30.5,11.5,30.5z"></path>
	<path d="M37.772,33.5c1.103,0,2-0.897,2-2s-0.897-2-2-2s-2,0.897-2,2S36.669,33.5,37.772,33.5z M37.772,30.5c0.551,0,1,0.449,1,1
		s-0.449,1-1,1s-1-0.449-1-1S37.221,30.5,37.772,30.5z"></path>
	<path d="M35.26,19.02C34.55,17.77,33.22,17,31.79,17h-3.371c-0.631,0-1.104,0.577-0.981,1.196l0.519,2.6
		c0.178,0.892,0.936,1.552,1.844,1.605l5.881,0.347c0.021,0.001,0.042,0.002,0.062,0.002c0.768,0,1.258-0.846,0.852-1.517
		L35.26,19.02z M29.86,21.403c-0.454-0.027-0.833-0.357-0.922-0.802L28.419,18h3.371c1.074,0,2.07,0.58,2.614,1.537l1.337,2.213
		L29.86,21.403z"></path>
</g>
</svg>
