<svg version="1.1" id="Layer_1" xmlns="http://www.w3.org/2000/svg" xmlns:xlink="http://www.w3.org/1999/xlink" x="0px" y="0px" viewBox="0 0 48 48" style="enable-background:new 0 0 48 48;" xml:space="preserve">
<g>
	<path d="M13,13.5h4c0.276,0,0.5-0.224,0.5-0.5V9c0-0.276-0.224-0.5-0.5-0.5h-4c-0.276,0-0.5,0.224-0.5,0.5v4
		C12.5,13.276,12.724,13.5,13,13.5z M13.5,9.5h3v3h-3V9.5z"></path>
	<path d="M13,20.5h4c0.276,0,0.5-0.224,0.5-0.5v-4c0-0.276-0.224-0.5-0.5-0.5h-4c-0.276,0-0.5,0.224-0.5,0.5v4
		C12.5,20.276,12.724,20.5,13,20.5z M13.5,16.5h3v3h-3V16.5z"></path>
	<rect x="19" y="10.5" width="12" height="1"></rect>
	<rect x="19" y="17.5" width="8" height="1"></rect>
	<path d="M18.594,26.375C18.539,26.155,18.341,26,18.114,26h-5.408c-0.131,0-0.257,0.052-0.35,0.145l-1.71,1.71
		c-0.093,0.093-0.145,0.219-0.145,0.35v1.3c0,0.273,0.222,0.495,0.495,0.495h7.871c0.322,0,0.558-0.303,0.48-0.615L18.594,26.375z
		 M11.5,29v-0.586L12.914,27h4.805l0.5,2H11.5z"></path>
	<path d="M30.152,29.062l-2.642-1.321C25.219,26.596,22.694,26,20.134,26c-0.322,0-0.558,0.303-0.48,0.615l0.752,3.01
		c0.055,0.22,0.253,0.375,0.48,0.375h9.044C30.453,30,30.619,29.296,30.152,29.062z M21.281,29l-0.497-1.986
		c2.175,0.093,4.332,0.649,6.278,1.622L27.791,29H21.281z"></path>
	<path d="M40,28.358V10.707l1.939-1.939l1-1c0.746-0.747,0.746-1.96,0-2.707c-0.725-0.724-1.984-0.722-2.707,0l-0.55,0.55
		C39.211,4.66,38.244,4,37.112,4H10.888C9.295,4,8,5.295,8,6.888v16.346c-0.301,0.089-0.596,0.196-0.876,0.336
		C6.122,24.071,5.5,25.078,5.5,26.197c0,0.25-0.098,0.486-0.274,0.663l-1.519,1.519C2.929,29.158,2.5,30.193,2.5,31.293
		c0,0.189-0.073,0.366-0.207,0.5C1.781,32.304,1.5,32.984,1.5,33.707v1.675c0,1.379,0.767,2.619,2,3.236C4,38.868,4.56,39,5.118,39
		h0.595C6.241,39.909,7.04,40.637,8,41.069v0.044C8,42.705,9.295,44,10.888,44h26.225C38.705,44,40,42.705,40,41.112v-0.044
		c0.96-0.432,1.759-1.16,2.286-2.069h1.507c0.723,0,1.402-0.282,1.914-0.793s0.793-1.191,0.793-1.914V33
		C46.5,30.564,44.312,29.012,40,28.358z M33,16.293L31.707,15l7.879-7.879l1.293,1.293L33,16.293z M31.219,15.926l0.856,0.856
		l-1.283,0.428L31.219,15.926z M42.232,5.768c0.356,0.356,0.356,0.937,0,1.293l-0.646,0.646l-1.293-1.293l0.646-0.646
		C41.285,5.422,41.887,5.423,42.232,5.768z M10.888,6h26.225C37.602,6,38,6.398,38,6.888v0.405l-7.354,7.354
		c-0.055,0.055-0.097,0.122-0.121,0.195l-1,3c-0.06,0.18-0.013,0.378,0.121,0.512C29.742,18.449,29.869,18.5,30,18.5
		c0.053,0,0.106-0.008,0.158-0.026l3-1c0.073-0.024,0.141-0.066,0.195-0.121L38,12.707v15.42c-0.798-0.063-1.65-0.104-2.559-0.12
		c-0.468-0.008-0.924-0.117-1.318-0.314l-5.375-2.688C26.123,23.694,23.186,23,20.251,23H10V6.888C10,6.398,10.398,6,10.888,6z
		 M7,36.5c0-1.654,1.346-3,3-3s3,1.346,3,3s-1.346,3-3,3S7,38.154,7,36.5z M37.112,42H10.888c-0.351,0-0.65-0.21-0.793-0.506
		c1.799-0.034,3.344-1.033,4.192-2.494h19.427c0.848,1.46,2.393,2.459,4.192,2.494C37.762,41.79,37.464,42,37.112,42z M38,39.5
		c-1.654,0-3-1.346-3-3s1.346-3,3-3s3,1.346,3,3S39.654,39.5,38,39.5z M44.5,36.293c0,0.189-0.073,0.366-0.207,0.5
		C44.159,36.926,43.981,37,43.793,37h-1.844C41.97,36.834,42,36.671,42,36.5c0-2.206-1.794-4-4-4s-4,1.794-4,4
		c0,0.171,0.03,0.334,0.051,0.5H13.949C13.97,36.834,14,36.671,14,36.5c0-2.206-1.794-4-4-4s-4,1.794-4,4
		c0,0.171,0.03,0.334,0.051,0.5H5.118c-0.25,0-0.5-0.059-0.724-0.171C3.843,36.553,3.5,35.999,3.5,35.382v-1.675
		c0-0.189,0.073-0.366,0.207-0.5C4.219,32.696,4.5,32.016,4.5,31.293c0-0.566,0.221-1.099,0.621-1.5l1.519-1.519
		c0.555-0.555,0.86-1.292,0.86-2.077c0-0.357,0.198-0.679,0.519-0.838C8.488,25.124,9.014,25,9.539,25h10.712
		c2.625,0,5.254,0.621,7.603,1.795l5.375,2.688c0.66,0.33,1.413,0.512,2.178,0.525C41.186,30.109,44.5,31.2,44.5,33V36.293z"></path>
</g>
</svg>
