<svg version="1.1" id="Layer_1" xmlns="http://www.w3.org/2000/svg" xmlns:xlink="http://www.w3.org/1999/xlink" x="0px" y="0px" viewBox="0 0 48 48" xml:space="preserve">
<g>
	<path d="M33,11.5c-3.08,0-5.5,5.49-5.5,12.5c0,7.01,2.42,12.5,5.5,12.5s5.5-5.49,5.5-12.5C38.5,16.99,36.08,11.5,33,11.5z M33,35.5
		c-2.17,0-4.5-4.62-4.5-11.5s2.33-11.5,4.5-11.5s4.5,4.62,4.5,11.5S35.17,35.5,33,35.5z"></path>
	<path d="M17.5,25.06V26c0,0.17,0.09,0.33,0.24,0.43c0.08,0.05,0.17,0.07,0.26,0.07c0.08,0,0.15-0.02,0.22-0.05l3-1.5
		c0.17-0.08,0.28-0.26,0.28-0.45s-0.11-0.36-0.28-0.45l-3-1.5c-0.16-0.08-0.34-0.07-0.49,0.02c-0.15,0.09-0.24,0.25-0.24,0.43v1.05
		c-1.29,0.14-2.31,0.81-3,1.91V21.5h1c0.17,0,0.33-0.09,0.43-0.24s0.1-0.33,0.02-0.49l-1.5-3c-0.17-0.34-0.72-0.34-0.89,0l-1.5,3
		c-0.08,0.15-0.07,0.34,0.02,0.49s0.25,0.24,0.43,0.24h1v4.46c-0.69-1.1-1.71-1.77-3-1.91V23c0-0.17-0.09-0.33-0.24-0.43
		c-0.15-0.09-0.33-0.1-0.49-0.02l-3,1.5C6.61,24.14,6.5,24.31,6.5,24.5s0.11,0.36,0.28,0.45l3,1.5C9.85,26.48,9.92,26.5,10,26.5
		c0.09,0,0.18-0.03,0.26-0.07c0.15-0.09,0.24-0.25,0.24-0.43v-0.94c1.88,0.27,3,2.06,3,4.94h1C14.5,27.12,15.62,25.33,17.5,25.06z
		 M18.5,23.81l1.38,0.69l-1.38,0.69V23.81z M14,19.12l0.69,1.38h-1.38L14,19.12z M9.5,25.19L8.12,24.5l1.38-0.69V25.19z"></path>
	<path d="M33,3H23c-4.44,0-8.23,4.02-10.31,10.13C7.24,13.78,3,18.42,3,24.04c0,5.63,4.26,10.28,9.72,10.92
		C14.8,41.02,18.59,45,23,45h10c6.73,0,12-9.22,12-21C45,12.22,39.73,3,33,3z M42.75,28.06C41.74,36.49,37.69,43,33,43
		c-4.4,0-8.23-5.73-9.53-13.39c0.97-1.64,1.53-3.53,1.53-5.57c0-2.04-0.57-3.95-1.54-5.59C24.74,10.76,28.59,5,33,5
		c4.69,0,8.74,6.51,9.75,14.94c0.08,0.71,0.15,1.42,0.2,2.15C42.98,22.72,43,23.36,43,24s-0.02,1.28-0.05,1.91
		C42.91,26.64,42.84,27.36,42.75,28.06z M23,5h6.58c-3.22,1.92-5.78,6.48-6.92,12.28c-1.84-2.35-4.62-3.93-7.77-4.19
		C16.72,8.24,19.7,5,23,5z M5,24.04c0-4.96,4.04-9,9-9s9,4.04,9,9s-4.04,9-9,9S5,29.01,5,24.04z M14.92,35
		c3.14-0.26,5.91-1.85,7.75-4.2c1.14,5.76,3.7,10.29,6.91,12.2H23C19.72,43,16.75,39.8,14.92,35z"></path>
</g>
</svg>
