<svg version="1.1" id="Layer_1" xmlns="http://www.w3.org/2000/svg" xmlns:xlink="http://www.w3.org/1999/xlink" x="0px" y="0px" viewBox="0 0 48 48" style="enable-background:new 0 0 48 48;" xml:space="preserve">
<g>
	<path d="M46,13c0-5.514-4.486-10-10-10c-1.438,0-2.798,0.318-4.033,0.869c-0.124-0.085-0.245-0.181-0.371-0.26
		C30.051,2.646,26.998,2,24,2s-6.051,0.646-7.596,1.609C11.378,6.742,8,14.935,8,23.998c0,0.613,0.017,1.221,0.047,1.824
		C4.495,27.358,2,30.89,2,35c0,5.514,4.486,10,10,10c1.441,0,2.803-0.319,4.04-0.873c0.211,0.145,0.42,0.298,0.637,0.425
		C18.192,45.432,21.066,46,24,46s5.808-0.568,7.322-1.448C36.513,41.538,40,33.279,40,23.998c0-0.611-0.018-1.218-0.049-1.82
		C43.504,20.643,46,17.11,46,13z M12,43c-4.411,0-8-3.589-8-8c0-4.411,3.589-8,8-8s8,3.589,8,8C20,39.411,16.411,43,12,43z
		 M30.318,42.823C29.342,43.39,26.947,44,24,44s-5.342-0.61-6.318-1.177c-0.205-0.119-0.405-0.254-0.603-0.395
		C19.446,40.807,21,38.086,21,35c0-4.971-4.029-9-9-9c-0.659,0-1.3,0.075-1.919,0.21C10.033,25.481,10,24.746,10,23.998
		c0-8.399,2.999-15.911,7.463-18.692C18.505,4.657,21.085,4,24,4s5.495,0.657,6.537,1.307c0.13,0.081,0.254,0.179,0.381,0.268
		c-0.049,0.033-0.093,0.071-0.141,0.106C30.359,5.574,29.935,5.5,29.5,5.5C24.173,5.5,20,13.626,20,24s4.173,18.5,9.5,18.5
		c0.606,0,1.194-0.118,1.766-0.32C30.957,42.416,30.643,42.634,30.318,42.823z M38,24.015c0,0.561-0.016,1.115-0.041,1.663
		c-0.012,0.264-0.035,0.524-0.053,0.786c-0.019,0.276-0.036,0.553-0.061,0.825c-0.031,0.335-0.072,0.665-0.113,0.995
		c-0.023,0.185-0.044,0.372-0.069,0.555c-0.05,0.358-0.109,0.711-0.17,1.062c-0.027,0.153-0.053,0.306-0.081,0.456
		c-0.064,0.337-0.135,0.668-0.208,0.997c-0.042,0.185-0.084,0.37-0.129,0.552c-0.062,0.254-0.128,0.503-0.196,0.752
		c-0.095,0.341-0.192,0.679-0.297,1.005c-0.017,0.055-0.034,0.11-0.052,0.164c-1.531,4.627-4.11,7.673-7.028,7.673
		c-4.687,0-8.5-7.851-8.5-17.5s3.813-17.5,8.5-17.5c0.09,0,0.179,0.01,0.268,0.016C28.573,7.665,27.7,9.141,27.282,10.8
		C25.033,13.056,23.5,18.049,23.5,24c0,8.131,2.855,14.5,6.5,14.5s6.5-6.369,6.5-14.5c0-0.69-0.03-1.361-0.071-2.022
		c0.508-0.024,1.006-0.083,1.489-0.188C37.965,22.515,38,23.248,38,23.999C38,24.004,38,24.01,38,24.015z M25.021,18.461
		l-0.016,0.003c0.439-2.313,1.143-4.283,2.007-5.69C27.01,12.85,27,12.924,27,13c0,4.773,3.719,8.668,8.416,8.971
		C35.46,22.637,35.5,23.308,35.5,24c0,7.318-2.519,13.5-5.5,13.5c-2.178,0-4.105-3.307-4.987-7.939
		C25.335,27.803,25.5,25.934,25.5,24C25.5,22.08,25.339,20.217,25.021,18.461z M36,21c-4.411,0-8-3.589-8-8c0-4.411,3.589-8,8-8
		s8,3.589,8,8C44,17.411,40.411,21,36,21z"></path>
	<path d="M40.5,9.5h-3h-3h-3C31.224,9.5,31,9.724,31,10v6c0,0.276,0.224,0.5,0.5,0.5h3h3h3c0.276,0,0.5-0.224,0.5-0.5v-6
		C41,9.724,40.776,9.5,40.5,9.5z M32,12.5h0.5v-1H32v-1h2v1h-0.5v1H34v3h-2V12.5z M35,12.5h0.5v-1H35v-1h2v1h-0.5v1H37v3h-2V12.5z
		 M38,15.5v-3h0.5v-1H38v-1h2v1h-0.5v1H40v3H38z"></path>
	<path d="M15,31.5h-3H9c-0.276,0-0.5,0.224-0.5,0.5v6c0,0.276,0.224,0.5,0.5,0.5h3h3c0.276,0,0.5-0.224,0.5-0.5v-6
		C15.5,31.724,15.276,31.5,15,31.5z M9.5,34.5H10v-1H9.5v-1h2v1H11v1h0.5v3h-2V34.5z M12.5,37.5v-3H13v-1h-0.5v-1h2v1H14v1h0.5v3
		H12.5z"></path>
</g>
</svg>
