<svg version="1.1" id="Layer_1" xmlns="http://www.w3.org/2000/svg" xmlns:xlink="http://www.w3.org/1999/xlink" x="0px" y="0px" viewBox="0 0 48 48" style="enable-background:new 0 0 48 48;" xml:space="preserve">
<g>
	<path d="M29.322,4.721l0.485-1.946l-0.971-0.242l-0.485,1.946C26.954,4.143,25.666,3.894,24.5,3.92V2h-1v2.027
		c-1.02,0.188-1.941,0.647-2.753,1.546c-1.689,1.871-2.757,5.328-4.513,12.369l-1.936,7.763c-3.218,12.907-3.22,15.577,4.379,17.576
		l-0.485,1.945l0.971,0.242l0.485-1.949c1.442,0.339,2.668,0.539,3.711,0.539c0.049,0,0.092-0.006,0.14-0.007V46h1v-2v-0.046
		c3.583-0.611,4.894-4.382,7.266-13.895l1.936-7.762v0c1.755-7.041,2.435-10.595,1.821-13.039
		C34.817,6.443,32.417,5.519,29.322,4.721z M31.76,21.812l-1.936,7.762c-2.137,8.574-3.288,11.644-5.324,12.375V41h-1v1.132
		c-0.911,0.035-1.997-0.206-3.369-0.546l0.242-0.971l-0.971-0.241l-0.241,0.97c-5.449-1.369-6.212-1.956-2.921-15.156l1.936-7.763
		c1.603-6.431,2.67-9.977,4.056-11.512c0.362-0.401,0.77-0.664,1.269-0.821V7h1V5.932c0.053-0.002,0.095-0.012,0.149-0.012
		c0.803,0,1.847,0.175,3.218,0.501l-0.24,0.963l0.971,0.242l0.241-0.967c3.277,0.856,4.367,1.58,4.745,3.084
		C34.086,11.749,33.363,15.381,31.76,21.812z"></path>
	<rect x="20.823" y="32.233" transform="matrix(0.2421 -0.9703 0.9703 0.2421 -15.219 45.9832)" width="2" height="1"></rect>
	<rect x="21.549" y="29.322" transform="matrix(0.2421 -0.9703 0.9703 0.2421 -11.8445 44.4808)" width="2" height="1"></rect>
	<rect x="19.372" y="38.054" transform="matrix(0.2421 -0.9703 0.9703 0.2421 -21.9678 48.9872)" width="2" height="1"></rect>
	<rect x="20.097" y="35.144" transform="matrix(0.2412 -0.9705 0.9705 0.2412 -18.5823 47.5225)" width="2" height="1"></rect>
	<polygon points="24.5,23 24.123,23 23.757,22.909 23.734,23 23.5,23 23.5,23.938 23.272,24.849 23.5,24.906 23.5,25 23.877,25 
		24.243,25.091 24.266,25 24.5,25 24.5,24.062 24.728,23.151 24.5,23.094"></polygon>
	<polygon points="23.031,25.82 22.547,27.76 23.5,27.998 23.5,28 23.508,28 23.518,28.002 23.518,28 24.5,28 24.5,26 23.753,26"></polygon>
	<rect x="25.902" y="11.856" transform="matrix(0.2421 -0.9703 0.9703 0.2421 8.401 35.4674)" width="2" height="1"></rect>
	<rect x="26.628" y="8.945" transform="matrix(0.2412 -0.9705 0.9705 0.2412 11.7989 33.9807)" width="2" height="1"></rect>
	<rect x="25.177" y="14.767" transform="matrix(0.2421 -0.9703 0.9703 0.2421 5.0268 36.9696)" width="2" height="1"></rect>
	<rect x="24.451" y="17.678" transform="matrix(0.2421 -0.9703 0.9703 0.2421 1.6525 38.4719)" width="2" height="1"></rect>
	<rect x="23.5" y="11" width="1" height="2"></rect>
	<rect x="23.5" y="8" width="1" height="2"></rect>
	<rect x="23.5" y="17" width="1" height="2"></rect>
	<rect x="23.5" y="14" width="1" height="2"></rect>
	<rect x="23.5" y="29" width="1" height="2"></rect>
	<polygon points="24.5,20 24.492,20 24.482,19.998 24.482,20 23.5,20 23.5,22 24.245,22 24.969,22.181 25.453,20.24 24.5,20.002"></polygon>
	<rect x="23.5" y="38" width="1" height="2"></rect>
	<rect x="23.5" y="32" width="1" height="2"></rect>
	<rect x="23.5" y="35" width="1" height="2"></rect>
	<path d="M15.224,43.553l-3-1.5c-0.155-0.078-0.339-0.07-0.486,0.022C11.59,42.166,11.5,42.327,11.5,42.5v1H7v1h4.5v1
		c0,0.173,0.09,0.334,0.237,0.425C11.817,45.975,11.908,46,12,46c0.076,0,0.153-0.018,0.224-0.053l3-1.5
		C15.393,44.362,15.5,44.189,15.5,44S15.393,43.638,15.224,43.553z M12.5,44.691v-1.382L13.882,44L12.5,44.691z"></path>
	<path d="M41,3.5h-4.5v-1c0-0.173-0.09-0.334-0.237-0.425c-0.147-0.091-0.331-0.1-0.486-0.022l-3,1.5
		C32.607,3.638,32.5,3.811,32.5,4s0.107,0.362,0.276,0.447l3,1.5C35.847,5.982,35.924,6,36,6c0.092,0,0.183-0.025,0.263-0.075
		C36.41,5.834,36.5,5.673,36.5,5.5v-1H41V3.5z M35.5,4.691L34.118,4L35.5,3.309V4.691z"></path>
	<rect x="5" y="23" width="6" height="2"></rect>
	<polygon points="41,23 41,21 39,21 39,23 37,23 37,25 39,25 39,27 41,27 41,25 43,25 43,23"></polygon>
</g>
</svg>
