<svg version="1.1" id="Layer_1" xmlns="http://www.w3.org/2000/svg" xmlns:xlink="http://www.w3.org/1999/xlink" x="0px" y="0px" viewBox="0 0 48 48" style="enable-background:new 0 0 48 48;" xml:space="preserve">
<g>
	<path d="M15.115,15.415l1.962,6.475c0.234,0.773,0.422,1.57,0.559,2.368l1.141,6.669l0.986-0.169l-1.141-6.669
		c-0.144-0.838-0.342-1.675-0.588-2.489l-1.962-6.475L15.115,15.415z"></path>
	<path d="M45.99,13.027C38.949,10.355,31.551,9,24,9c-7.551,0-14.949,1.355-21.99,4.027c-1.032,0.392-1.552,1.547-1.16,2.579
		l8.157,21.506c0.188,0.496,0.566,0.897,1.05,1.115c0.26,0.117,0.54,0.176,0.821,0.176c0.24,0,0.481-0.043,0.71-0.13
		c3.522-1.337,7.204-2.087,10.963-2.241l0.642,2.718c-0.185,0.119-0.349,0.268-0.468,0.461c-0.211,0.341-0.276,0.743-0.184,1.134
		c0.092,0.39,0.33,0.72,0.671,0.931c0.24,0.148,0.511,0.225,0.786,0.225c0.115,0,0.232-0.014,0.348-0.041
		c0.39-0.092,0.721-0.331,0.932-0.671s0.276-0.743,0.184-1.133c0,0,0,0,0,0c-0.092-0.39-0.33-0.72-0.671-0.931
		c-0.193-0.119-0.407-0.186-0.626-0.21l-0.591-2.505C23.715,36.008,23.857,36,24,36c4.263,0,8.439,0.765,12.413,2.273
		c0.229,0.087,0.469,0.13,0.71,0.13c0.28,0,0.56-0.059,0.821-0.176c0.484-0.218,0.861-0.619,1.049-1.115l8.157-21.506
		C47.542,14.574,47.022,13.419,45.99,13.027z M24.487,39.885c0.03,0.13,0.009,0.264-0.062,0.377s-0.181,0.193-0.312,0.224
		c-0.26,0.067-0.537-0.103-0.602-0.371c-0.03-0.13-0.009-0.264,0.062-0.378s0.181-0.193,0.312-0.224
		c0.038-0.009,0.077-0.014,0.115-0.014C24.227,39.5,24.433,39.655,24.487,39.885z M37.123,36.403C33.043,34.855,28.623,34,24,34
		c-0.301,0-0.599,0.013-0.898,0.021l-0.562-2.382c0.163-0.029,0.325-0.065,0.489-0.084l-0.113-0.993
		c-0.204,0.023-0.404,0.067-0.605,0.104l-0.106-0.45l-0.59-5.47c-0.187-1.732-0.589-3.438-1.196-5.07l-1.939-5.213l-1.875,0.697
		l1.939,5.213c0.55,1.477,0.914,3.021,1.083,4.587l0.597,5.53l0.994-0.107l0.121,0.514c-0.152,0.045-0.308,0.079-0.458,0.132
		l0.33,0.944c0.117-0.041,0.239-0.067,0.357-0.103l0.516,2.184c-3.928,0.202-7.694,1.017-11.206,2.35L2.72,14.897
		C9.335,12.386,16.504,11,24,11c7.496,0,14.665,1.386,21.28,3.897L37.123,36.403z"></path>
	<path d="M18.3,32.185l0.082,0.996c0.388-0.032,0.766-0.159,1.091-0.366c0.281-0.178,0.574-0.34,0.876-0.485l-0.434-0.901
		c-0.337,0.162-0.663,0.343-0.979,0.542C18.746,32.092,18.526,32.166,18.3,32.185z"></path>
	<path d="M16.294,30.855l-0.736,0.676l0.773,0.843c0.237,0.259,0.521,0.462,0.842,0.603l0.402-0.915
		c-0.193-0.085-0.364-0.208-0.508-0.364L16.294,30.855z"></path>
	<rect x="14.087" y="28.742" transform="matrix(0.7376 -0.6752 0.6752 0.7376 -16.2481 17.6503)" width="1.001" height="1.981"></rect>
	<path d="M17.525,13.267l0.234,0.972c0.625-0.151,1.267-0.281,1.905-0.386l-0.162-0.986C18.84,12.975,18.174,13.11,17.525,13.267z"></path>
	<path d="M14.628,14.14l0.342,0.939c0.604-0.219,1.227-0.419,1.85-0.594l-0.27-0.963C15.902,13.704,15.256,13.911,14.628,14.14z"></path>
	<path d="M20.502,12.72l0.125,0.992c0.64-0.081,1.291-0.14,1.937-0.174l-0.053-0.999C21.841,12.575,21.165,12.636,20.502,12.72z"></path>
	<path d="M7.695,19.111c0.405-0.318,0.821-0.623,1.245-0.917l-0.568-0.822c-0.441,0.305-0.873,0.623-1.294,0.952
		c-0.133,0.104-0.255,0.222-0.363,0.35l0.764,0.646C7.543,19.244,7.615,19.173,7.695,19.111z"></path>
	<path d="M11.425,16.67l-0.475-0.88c-0.586,0.316-1.171,0.661-1.738,1.023l0.537,0.843C10.297,17.307,10.861,16.975,11.425,16.67z"></path>
	<path d="M14.062,15.427l-0.375-0.927c-0.621,0.251-1.24,0.529-1.842,0.826l0.443,0.896C12.868,15.937,13.465,15.669,14.062,15.427z"></path>
	<rect x="12.08" y="26.552" transform="matrix(0.7367 -0.6762 0.6762 0.7367 -15.3116 15.7568)" width="0.999" height="1.98"></rect>
	<path d="M7.136,20.272c0-0.099,0.01-0.197,0.028-0.293l-0.98-0.194c-0.032,0.161-0.048,0.324-0.048,0.488
		c0,0.631,0.234,1.235,0.722,1.767l0.369-0.337l0.308-0.405C7.277,21.017,7.136,20.653,7.136,20.272z"></path>
	<rect x="10.073" y="24.362" transform="matrix(0.7367 -0.6762 0.6762 0.7367 -14.3591 13.823)" width="0.999" height="1.981"></rect>
	<rect x="8.065" y="22.172" transform="matrix(0.7367 -0.6762 0.6762 0.7367 -13.4067 11.8888)" width="0.999" height="1.981"></rect>
	<rect x="35.741" y="25.611" transform="matrix(0.6762 -0.7367 0.7367 0.6762 -7.3421 35.5178)" width="1.981" height="0.999"></rect>
	<path d="M31.491,13.534c-0.644-0.182-1.303-0.343-1.96-0.477l-0.199,0.979c0.632,0.129,1.267,0.284,1.888,0.459L31.491,13.534z"></path>
	<rect x="31.727" y="29.992" transform="matrix(0.6762 -0.7367 0.7367 0.6762 -11.8696 33.9781)" width="1.98" height="0.999"></rect>
	<path d="M34.353,14.517c-0.62-0.252-1.258-0.485-1.896-0.691l-0.307,0.952c0.614,0.199,1.229,0.422,1.825,0.665L34.353,14.517z"></path>
	<path d="M26.754,31.96c0.587,0.202,1.153,0.472,1.686,0.8l0.525-0.851c-0.594-0.368-1.229-0.668-1.885-0.895L26.754,31.96z"></path>
	<path d="M28.541,12.874c-0.657-0.109-1.33-0.196-1.999-0.258l-0.092,0.996c0.645,0.059,1.293,0.143,1.927,0.248L28.541,12.874z"></path>
	<path d="M23.521,12.504l0.016,1L24,13.5c0.498,0,0.991,0.014,1.482,0.041l0.055-0.998C25.028,12.515,24.516,12.5,24,12.5
		L23.521,12.504z"></path>
	<path d="M23.96,30.5l0.04,1c0.625,0,1.249,0.069,1.855,0.205l0.219-0.976C25.396,30.577,24.698,30.5,24,30.5H23.96z"></path>
	<path d="M39.661,17.395c-0.551-0.382-1.122-0.749-1.698-1.089l-0.508,0.861c0.555,0.328,1.104,0.681,1.636,1.049L39.661,17.395z"></path>
	<rect x="37.749" y="23.421" transform="matrix(0.6762 -0.7367 0.7367 0.6762 -5.0781 36.2877)" width="1.981" height="0.999"></rect>
	<rect x="33.734" y="27.801" transform="matrix(0.6752 -0.7376 0.7376 0.6752 -9.5972 34.8066)" width="1.981" height="1.001"></rect>
	<path d="M40.842,20.007l0.984-0.176c-0.106-0.598-0.428-1.134-0.905-1.508c-0.146-0.114-0.294-0.228-0.443-0.339l-0.598,0.802
		c0.144,0.107,0.285,0.215,0.425,0.325C40.587,19.333,40.778,19.651,40.842,20.007z"></path>
	<path d="M30.933,31.697c-0.322,0.351-0.789,0.53-1.261,0.484l-0.102,0.995c0.083,0.008,0.167,0.013,0.251,0.013
		c0.697,0,1.371-0.297,1.848-0.815l0.078-0.085l-0.736-0.677L30.933,31.697z"></path>
	<path d="M41.203,21.973c0.246-0.268,0.428-0.578,0.538-0.921l-0.951-0.308c-0.066,0.205-0.176,0.391-0.323,0.553l-0.757,0.826
		l0.736,0.676L41.203,21.973z"></path>
	<path d="M37.086,15.81c-0.587-0.318-1.195-0.62-1.806-0.896l-0.412,0.911c0.59,0.266,1.175,0.557,1.741,0.863L37.086,15.81z"></path>
</g>
</svg>
